<svg xmlns="http://www.w3.org/2000/svg" x="0px" y="0px"
width="20" height="20"
viewBox="0 0 172 172"
style=" fill:#000000;"><g fill="none" fill-rule="nonzero" stroke="none" stroke-width="1" stroke-linecap="butt" stroke-linejoin="miter" stroke-miterlimit="10" stroke-dasharray="" stroke-dashoffset="0" font-family="none" font-weight="none" font-size="none" text-anchor="none" style="mix-blend-mode: normal"><path d="M0,172v-172h172v172z" fill="none"></path><g fill="#ffffff"><path d="M170.64281,0.7525c-1.06156,-0.83312 -2.51281,-0.95406 -3.70875,-0.30906l-165.12,89.44c-1.19594,0.645 -1.89469,1.94844 -1.76031,3.30563c0.12094,1.35719 1.03469,2.51281 2.32469,2.92937l46.93719,15.31875l-4.54188,46.46688c-0.14781,1.47812 0.67188,2.87562 2.02906,3.45344c0.43,0.20156 0.90031,0.29563 1.35719,0.29563c0.95406,0 1.89469,-0.40313 2.55313,-1.15563l29.60281,-33.44594l44.57219,43.94062c0.645,0.63156 1.505,0.98094 2.39187,0.98094c0.30906,0 0.61813,-0.05375 0.92719,-0.13438c1.16906,-0.3225 2.08281,-1.26312 2.37844,-2.44562l41.28,-165.12c0.3225,-1.31688 -0.14781,-2.70094 -1.22281,-3.52063zM56.2225,110.80563l67.12031,-54.27406l-45.74125,63.33094l-25.03406,28.25906z"></path></g></g></svg>