<?xml version="1.0" encoding="utf-8"?>
<!-- Generator: Adobe Illustrator 23.0.2, SVG Export Plug-In . SVG Version: 6.00 Build 0)  -->
<svg version="1.1" xmlns="http://www.w3.org/2000/svg" xmlns:xlink="http://www.w3.org/1999/xlink" x="0px" y="0px"
	 viewBox="0 0 322.9 231.9" style="enable-background:new 0 0 322.9 231.9;" xml:space="preserve">
<style type="text/css">
	.st0{display:none;}
	.st1{display:inline;fill:url(#SVGID_1_);}
	.st2{display:inline;}
	.st3{fill:#FFFFFF;}
	.st4{clip-path:url(#SVGID_3_);fill:none;}
	.st5{opacity:0.6;clip-path:url(#SVGID_3_);fill:url(#SVGID_4_);}
	.st6{clip-path:url(#SVGID_3_);}
	.st7{display:inline;fill:#D9FFFF;}
	.st8{fill:#D9FFFF;}
	.st9{fill:none;stroke:#00FFFF;stroke-width:2;stroke-miterlimit:10;}
	.st10{fill:#00FFFF;}
	.st11{opacity:0.56;fill:url(#SVGID_5_);}
	.st12{fill:none;stroke:#0071BC;stroke-width:1.2908;stroke-miterlimit:10;}
	.st13{fill:none;stroke:#0071BC;stroke-width:3;stroke-miterlimit:10;stroke-dasharray:2.5867,6.4667;}
	.st14{fill:none;stroke:#29ABE2;stroke-width:0.9681;stroke-miterlimit:10;}
	.st15{fill:url(#SVGID_6_);stroke:#00FFFF;stroke-width:0.25;stroke-miterlimit:10;}
	.st16{opacity:0.45;}
	.st17{fill:#232323;}
	.st18{fill:#303030;}
	.st19{fill:none;stroke:#00FFFF;stroke-width:0.9821;stroke-miterlimit:10;}
	.st20{opacity:0.2;}
</style>
<g id="BACKGROUND" class="st0">
	<linearGradient id="SVGID_1_" gradientUnits="userSpaceOnUse" x1="-233.0107" y1="-153.0533" x2="485.4521" y2="466.4138">
		<stop  offset="0" style="stop-color:#360177"/>
		<stop  offset="0.1342" style="stop-color:#3A017A"/>
		<stop  offset="0.2753" style="stop-color:#470182"/>
		<stop  offset="0.4196" style="stop-color:#5C0191"/>
		<stop  offset="0.5661" style="stop-color:#7901A5"/>
		<stop  offset="0.7144" style="stop-color:#9F00BE"/>
		<stop  offset="0.8619" style="stop-color:#CD00DD"/>
		<stop  offset="1" style="stop-color:#FF00FF"/>
	</linearGradient>
	<rect x="-327.4" y="-161.1" class="st1" width="750" height="500"/>
	<g class="st2">
		
			<image style="overflow:visible;opacity:0.55;" width="3139" height="2175" xlink:href="2C838E49.png"  transform="matrix(0.24 0 0 0.24 -337.0638 -145.0497)">
		</image>
		<g>
			<rect x="-247.5" y="-89.8" class="st3" width="587.3" height="356"/>
		</g>
	</g>
</g>
<g id="OBJECTS">
	<g>
		<defs>
			<rect id="SVGID_2_" x="-251.6" y="-92.3" width="595.6" height="361"/>
		</defs>
		<clipPath id="SVGID_3_">
			<use xlink:href="#SVGID_2_"  style="overflow:visible;"/>
		</clipPath>
		<rect x="-251.6" y="-92.3" class="st4" width="595.6" height="361"/>
		
			<radialGradient id="SVGID_4_" cx="189.4455" cy="-985.0267" r="83.5419" gradientTransform="matrix(1.0697 1.190000e-02 -7.200000e-03 0.6525 -53.8463 771.1605)" gradientUnits="userSpaceOnUse">
			<stop  offset="0" style="stop-color:#0A0D10"/>
			<stop  offset="0.161" style="stop-color:#0D1013;stop-opacity:0.8389"/>
			<stop  offset="0.293" style="stop-color:#171A1D;stop-opacity:0.7068"/>
			<stop  offset="0.4149" style="stop-color:#292B2E;stop-opacity:0.5848"/>
			<stop  offset="0.5306" style="stop-color:#414345;stop-opacity:0.469"/>
			<stop  offset="0.642" style="stop-color:#606264;stop-opacity:0.3575"/>
			<stop  offset="0.7503" style="stop-color:#868889;stop-opacity:0.2492"/>
			<stop  offset="0.8559" style="stop-color:#B4B5B6;stop-opacity:0.1435"/>
			<stop  offset="0.9568" style="stop-color:#E7E7E8;stop-opacity:4.247952e-02"/>
			<stop  offset="0.9992" style="stop-color:#FFFFFF;stop-opacity:0"/>
		</radialGradient>
		<path class="st5" d="M245.2,131.7c-0.3,30.1-40.6,54.1-90,53.5c-49.3-0.5-89.1-25.4-88.8-55.5c0.3-30.1,40.6-54.1,90-53.5
			C205.8,76.7,245.6,101.6,245.2,131.7z"/>
		<g class="st6">
			<g>
				<g class="st0">
					<path class="st7" d="M275.6,28.8c-0.5-0.9-1.7-1.2-2.6-0.7c-0.8,0.4-1.1,1.3-0.9,2.2L254,40.6v24.3l-83.8,48.4l0.5,0.9
						l84.1-48.6l0.3-0.1V41.2l17.5-10.1c0.6,0.6,1.5,0.7,2.3,0.3C275.8,30.9,276.2,29.8,275.6,28.8z"/>
					<path class="st7" d="M55.8,59.1l-22.2-0.3l-6.5-4.3c0.3-0.8,0-1.7-0.8-2.2c-0.9-0.6-2.1-0.4-2.7,0.5c-0.6,0.9-0.4,2.1,0.5,2.7
						c0.7,0.5,1.7,0.4,2.3-0.2l6.7,4.5l22.2,0.3l83.2,48l0.5-0.9L55.8,59.1z"/>
					<path class="st7" d="M68.8,42.5c0.2-0.8-0.1-1.7-0.8-2.2c-0.9-0.6-2.1-0.3-2.7,0.6c-0.6,0.9-0.3,2.1,0.6,2.7
						c0.8,0.5,1.7,0.3,2.3-0.2l16.9,10.4v24h1V53.2L68.8,42.5z"/>
					<path class="st7" d="M295.9,184c-0.8-0.4-1.7-0.3-2.3,0.3L275.9,174l-0.1-0.1l-21.1,0l-84-48.5l-0.5,0.9l84.1,48.6l0.1,0.1
						l21.1,0l17.6,10.2c-0.2,0.8,0.1,1.7,0.9,2.2c0.9,0.5,2.1,0.2,2.6-0.7C297.1,185.7,296.8,184.5,295.9,184z"/>
					<path class="st7" d="M264.3,190.1c-0.8-0.4-1.7-0.3-2.3,0.3l-48.9-28.2l-0.4-11.8l-1,0l0.4,12.3l49.4,28.5
						c-0.2,0.8,0.1,1.7,0.9,2.2c0.9,0.5,2.1,0.2,2.6-0.7C265.6,191.8,265.3,190.6,264.3,190.1z"/>
					<g class="st2">
						<path class="st8" d="M149.2,125.5l-84,48.5h-21l-17.5,10.1c-0.6-0.6-1.5-0.7-2.3-0.3c-0.9,0.5-1.2,1.7-0.7,2.6
							c0.5,0.9,1.7,1.2,2.6,0.7c0.8-0.4,1.1-1.3,0.9-2.1l17.3-10h21l84.2-48.6L149.2,125.5z"/>
						<path class="st8" d="M97.2,156.1l-1,0l0.5,24.3l-10.3,5.8H65l-7.1,4.1c-0.6-0.6-1.5-0.7-2.3-0.3c-0.9,0.5-1.2,1.7-0.7,2.6
							c0.5,0.9,1.7,1.2,2.6,0.7c0.8-0.4,1.1-1.3,0.9-2.2l6.8-3.9h21.4l11-6.2L97.2,156.1z"/>
					</g>
					<g class="st2">
						<path class="st8" d="M171,231.4v-8.7l-21-12.1l10-78.9l-1-0.1l-10,79.2l0,0.3l21.1,12.2v8.1c-0.8,0.2-1.4,1-1.4,1.9
							c0,1.1,0.9,1.9,1.9,1.9c1.1,0,1.9-0.9,1.9-1.9C172.4,232.4,171.8,231.6,171,231.4z"/>
						<path class="st8" d="M200.7,215c-0.9,0-1.6,0.6-1.9,1.4h-17.7l-10.7-6.1l-10.8,6.2l0.5,0.9l10.3-5.9l10.4,6h18
							c0.2,0.8,1,1.4,1.9,1.4c1.1,0,1.9-0.9,1.9-1.9C202.6,215.9,201.7,215,200.7,215z"/>
					</g>
					<g class="st2">
						<path class="st8" d="M138.9,119.3l-73.4,6.1L34,107.3l-0.1-0.1l-20.5-0.5l-8.1,4.7c-0.6-0.6-1.5-0.7-2.3-0.3
							c-0.9,0.5-1.2,1.7-0.7,2.6c0.5,0.9,1.7,1.2,2.6,0.7c0.8-0.4,1.1-1.3,0.9-2.2l7.9-4.6l20,0.4l31.6,18.2l73.8-6.1L138.9,119.3z"
							/>
						<path class="st8" d="M44,113.3l-20.6,11.9l-0.3,0.1V138l-7.3,3.9c-0.6-0.6-1.5-0.8-2.3-0.4c-0.9,0.5-1.3,1.7-0.8,2.6
							c0.5,0.9,1.7,1.3,2.6,0.8c0.8-0.4,1.2-1.3,1-2.1l7.8-4.2V126l20.4-11.8L44,113.3z"/>
					</g>
					<g class="st2">
						<path class="st8" d="M139,22.2l-21,0l-17.7-10.1c0.2-0.8-0.1-1.7-0.9-2.2c-0.9-0.5-2.1-0.2-2.6,0.7c-0.5,0.9-0.2,2.1,0.7,2.6
							c0.8,0.4,1.7,0.3,2.3-0.3l18,10.3l21,0l20.7,12l-0.3,73.5l1,0l0.3-73.8l0-0.3L139,22.2z"/>
						<path class="st8" d="M142.3,12.1c0.2-0.8-0.1-1.7-0.9-2.2c-0.9-0.5-2.1-0.2-2.6,0.7c-0.5,0.9-0.2,2.1,0.7,2.6
							c0.8,0.4,1.7,0.3,2.3-0.3l7,4v11.8h1V16.4L142.3,12.1z"/>
					</g>
					<path class="st7" d="M233.5,4.5c-0.5-0.9-1.7-1.2-2.6-0.7c-0.8,0.4-1.1,1.3-0.9,2.2l-38.8,22.4l0,0l-11,6.3l10.6,6.5L170,101.5
						l1,0.3l21.2-61.1l-9.8-6l9.3-5.4l21.1,0l7.3-4.3c0.6,0.6,1.6,0.7,2.3,0.3c0.9-0.5,1.2-1.7,0.7-2.6c-0.5-0.9-1.7-1.2-2.6-0.7
						c-0.8,0.4-1.1,1.3-0.9,2.2l-7.1,4.1l-19,0l37.1-21.4c0.6,0.6,1.5,0.7,2.3,0.3C233.7,6.6,234.1,5.5,233.5,4.5z"/>
					<g class="st2">
						<path class="st8" d="M305.4,35.9c-0.5-0.9-1.7-1.2-2.6-0.7c-0.8,0.4-1.1,1.3-0.9,2.2l-26.6,15.4l-10.5,18.2l-84,48.5l0.5,0.9
							l84.1-48.5l0.1-0.1L276,53.5l26.3-15.3c0.6,0.6,1.5,0.7,2.3,0.3C305.6,38,305.9,36.8,305.4,35.9z"/>
						<path class="st8" d="M296.6,52.9c-0.5-0.9-1.7-1.2-2.7-0.7c-0.8,0.5-1.1,1.4-0.9,2.2l-7.2,4.3l-15.7,3l0.2,1l15.8-3l7.4-4.4
							c0.6,0.6,1.6,0.7,2.3,0.3C296.8,55,297.1,53.8,296.6,52.9z"/>
					</g>
					<g class="st2">
						<path class="st8" d="M307.1,95.6c-0.5-0.9-1.7-1.2-2.6-0.7c-0.8,0.4-1.1,1.3-0.9,2.2l-17.7,10.2l-0.3,0.1v12.1l-10.1,5.8
							l-84,0v1l84.3,0l10.8-6.3V108l17.5-10.1c0.6,0.6,1.5,0.7,2.3,0.3C307.3,97.7,307.6,96.5,307.1,95.6z"/>
						<path class="st8" d="M327.7,95.3c-0.6-0.9-1.7-1.2-2.7-0.7c-0.8,0.5-1.1,1.4-0.9,2.2l-17.6,10.6v12.1l-10,5.8l-10.3-5.9
							l-0.5,0.9l10.8,6.2l11-6.4V108l17.1-10.3c0.6,0.6,1.6,0.7,2.3,0.3C327.9,97.4,328.2,96.2,327.7,95.3z"/>
					</g>
				</g>
				<g>
					<ellipse class="st9" cx="161.9" cy="113.8" rx="110.4" ry="75.8"/>
					<g>
						<g>
							<ellipse class="st10" cx="161.9" cy="135.4" rx="78.9" ry="54.2"/>
							<g>
								
									<radialGradient id="SVGID_5_" cx="163.9215" cy="113.8421" r="109.3344" gradientTransform="matrix(-1 7.721260e-03 -5.344146e-03 -0.6921 328.4466 191.3681)" gradientUnits="userSpaceOnUse">
									<stop  offset="0.7956" style="stop-color:#00FFFF;stop-opacity:0"/>
									<stop  offset="0.9711" style="stop-color:#00FFFF;stop-opacity:0.8587"/>
									<stop  offset="1" style="stop-color:#00FFFF"/>
								</radialGradient>
								<ellipse class="st11" cx="161.9" cy="113.8" rx="110.4" ry="75.8"/>
								<ellipse class="st9" cx="161.9" cy="113.8" rx="75.7" ry="52"/>
								<ellipse class="st12" cx="161.9" cy="113.8" rx="53.9" ry="37"/>
								<ellipse class="st13" cx="161.9" cy="113.8" rx="64.4" ry="44.2"/>
								<g>
									<g>
										<line class="st14" x1="161.9" y1="40.2" x2="161.9" y2="59.2"/>
										<line class="st14" x1="120.9" y1="45.8" x2="131.5" y2="63.4"/>
										<line class="st14" x1="86.1" y1="61.8" x2="105.6" y2="75.2"/>
										<line class="st14" x1="62.8" y1="85.7" x2="88.4" y2="92.9"/>
										<line class="st14" x1="54.7" y1="113.8" x2="82.3" y2="113.8"/>
										<line class="st14" x1="62.8" y1="142" x2="88.4" y2="134.8"/>
										<line class="st14" x1="86.1" y1="165.9" x2="105.6" y2="152.5"/>
										<line class="st14" x1="120.9" y1="181.9" x2="131.5" y2="164.3"/>
										<line class="st14" x1="161.9" y1="187.5" x2="161.9" y2="168.5"/>
										<line class="st14" x1="203" y1="181.9" x2="192.4" y2="164.3"/>
										<line class="st14" x1="237.8" y1="165.9" x2="218.2" y2="152.5"/>
										<line class="st14" x1="261" y1="142" x2="235.5" y2="134.8"/>
										<line class="st14" x1="269.2" y1="113.8" x2="241.5" y2="113.8"/>
										<line class="st14" x1="261" y1="85.7" x2="235.5" y2="92.9"/>
										<line class="st14" x1="237.8" y1="61.8" x2="218.2" y2="75.2"/>
										<line class="st14" x1="203" y1="45.8" x2="192.4" y2="63.4"/>
									</g>
									<g>
										<line class="st14" x1="56.6" y1="128" x2="83.8" y2="124.3"/>
										<line class="st14" x1="72.5" y1="154.5" x2="95.6" y2="144"/>
										<line class="st14" x1="102" y1="174.9" x2="117.5" y2="159.2"/>
										<line class="st14" x1="140.6" y1="186" x2="146.1" y2="167.4"/>
										<line class="st14" x1="182.5" y1="186.1" x2="177.2" y2="167.5"/>
										<line class="st14" x1="221.2" y1="175.2" x2="205.9" y2="159.4"/>
										<line class="st14" x1="250.9" y1="155" x2="228" y2="144.4"/>
										<line class="st14" x1="267.1" y1="128.5" x2="240" y2="124.7"/>
										<line class="st14" x1="267.2" y1="99.7" x2="240.1" y2="103.4"/>
										<line class="st14" x1="251.3" y1="73.1" x2="228.3" y2="83.6"/>
										<line class="st14" x1="221.8" y1="52.8" x2="206.4" y2="68.5"/>
										<line class="st14" x1="183.2" y1="41.7" x2="177.7" y2="60.3"/>
										<line class="st14" x1="141.4" y1="41.6" x2="146.7" y2="60.2"/>
										<line class="st14" x1="102.6" y1="52.5" x2="117.9" y2="68.3"/>
										<line class="st14" x1="72.9" y1="72.7" x2="95.9" y2="83.3"/>
										<line class="st14" x1="56.8" y1="99.2" x2="83.9" y2="103"/>
									</g>
								</g>
							</g>
							<g>
								<linearGradient id="SVGID_6_" gradientUnits="userSpaceOnUse" x1="253.7572" y1="96.4898" x2="142.7568" y2="102.9897">
									<stop  offset="0" style="stop-color:#000000"/>
									<stop  offset="0.2028" style="stop-color:#000303"/>
									<stop  offset="0.3577" style="stop-color:#000D0C"/>
									<stop  offset="0.4969" style="stop-color:#001D1B"/>
									<stop  offset="0.6267" style="stop-color:#003430"/>
									<stop  offset="0.7502" style="stop-color:#00524C"/>
									<stop  offset="0.8687" style="stop-color:#00776E"/>
									<stop  offset="0.9814" style="stop-color:#00A196"/>
									<stop  offset="1" style="stop-color:#00A99D"/>
								</linearGradient>
								<ellipse class="st15" cx="161.9" cy="101.9" rx="41.1" ry="28.2"/>
								<g>
									<g class="st16">
										<path class="st17" d="M170.6,81.8l-49.7,20v0.1c0,1.1,0.1,2.2,0.3,3.3l1.2,0.7l16.7-6.8l14.8,7.4l-8.6,12l6.2,3.4l26-37.3
											L170.6,81.8z M164.4,92.5l-7.4,10.4l-12.7-6.2l15.6-6.3c3.3-1.3,6.4-2.8,9.4-4.2l0.1,0.1C167.7,88.3,166,90.3,164.4,92.5z
											"/>
										<path class="st17" d="M201.7,94.8c-1.9-0.1-3.8,0.4-5.1,1.3c-1.9,1.4-1.7,3.2,0.7,4.2c1.8,0.8,3.9,0.9,5.6,0.4
											C202.8,98.7,202.4,96.7,201.7,94.8z M189,102.7l-31.1,22.8l6.3,3.5l31.5-23.3L189,102.7z"/>
									</g>
									<g>
										<g>
											<path class="st18" d="M177.5,62.4l-2.6,1.3l0,0.2l-4.4-1.8L122,81.6l0.9-0.7h-5.4v2.5l4.9,2.7l16.7-6.8l14.8,7.4
												l-6.8,9.5h-1.8v2.5l6.2,3.4l26-37.3V62.4z M164.4,72.8L157,83.2L144.2,77l15.6-6.3c3.2-1.4,6.4-2.8,9.4-4.2l0.1,0.1
												C167.7,68.6,166,70.5,164.4,72.8z"/>
											<polygon class="st18" points="192.7,84.6 189,83 162.1,102.6 162.1,102.5 157.9,103.2 157.9,105.7 164.2,109.2 195.7,86 
												195.7,83.4 192.7,84.2 											"/>
											<path class="st18" d="M206.4,75.2l-1.6,0.7c-0.2-0.1-0.4-0.2-0.6-0.3c-2.1-0.8-4.7-0.7-6.7,0.2l-2.3-0.2v2.9l0,0
												c0,0.8,0.7,1.6,1.9,2.1c2.7,1.2,6,0.8,7.8-0.7c0.8-0.6,1.3-1.3,1.3-2l0,0V75.2z"/>
										</g>
										<g>
											<path class="st10" d="M139.1,76.9l-16.7,6.8l-4.9-2.7l53.1-21.3l6.9,2.8l-26,37.3l-6.2-3.4l8.6-12L139.1,76.9z M157,80.7
												l7.4-10.4c1.6-2.3,3.4-4.3,5-6.2l-0.1-0.1c-3,1.4-6.1,2.8-9.4,4.2l-15.6,6.3L157,80.7z"/>
											<path class="st10" d="M205.1,77.4c-1.8,1.4-5.1,1.8-7.8,0.7c-2.4-1-2.6-2.8-0.7-4.2c1.9-1.4,5.2-1.8,7.7-0.8
												C206.8,74.2,207,76,205.1,77.4z M157.9,103.2L189,80.5l6.7,3l-31.5,23.3L157.9,103.2z"/>
										</g>
									</g>
								</g>
							</g>
						</g>
						<ellipse class="st19" cx="161.9" cy="112.3" rx="91.8" ry="63"/>
						<g>
							<g class="st20">
								<path class="st10" d="M76.2,113.7c0,15.6,9.2,29.7,24.2,40l-8.9,8.7c-19-12.3-30.8-29.6-30.8-48.7
									c0-21.3,14.7-40.3,37.6-52.8l8.8,8.6C88.2,80.1,76.2,96,76.2,113.7z"/>
								<path class="st10" d="M204.4,52.1l-8.9,8.7c-10.3-3-21.7-4.6-33.6-4.6c-12.8,0-25,1.9-35.9,5.3l-8.8-8.6
									c13.5-4.5,28.7-7,44.8-7C177.1,45.9,191.5,48.1,204.4,52.1z"/>
								<path class="st10" d="M203.7,163.9l8.8,8.6c-14.9,5.8-32.2,9.1-50.6,9.1c-18.3,0-35.4-3.3-50.2-8.9l8.8-8.6
									c12.3,4.6,26.4,7.2,41.4,7.2C177.1,171.2,191.4,168.6,203.7,163.9z"/>
								<path class="st10" d="M263.1,113.7c0,19.7-12.6,37.5-32.6,49.9l-8.8-8.6c16.1-10.4,26-25.1,26-41.3
									c0-17.7-11.9-33.5-30.6-44l8.8-8.6C248.6,73.6,263.1,92.5,263.1,113.7z"/>
								<line class="st10" x1="120.5" y1="164.1" x2="111.7" y2="172.7"/>
								<line class="st10" x1="225.8" y1="61.1" x2="217.1" y2="69.7"/>
								<line class="st10" x1="107.1" y1="69.5" x2="98.4" y2="61"/>
								<line class="st10" x1="212.5" y1="172.5" x2="203.7" y2="163.9"/>
								<line class="st10" x1="100.4" y1="153.8" x2="91.5" y2="162.4"/>
								<line class="st10" x1="204.4" y1="52.1" x2="195.5" y2="60.8"/>
								<line class="st10" x1="126" y1="61.5" x2="117.1" y2="52.9"/>
								<line class="st10" x1="230.5" y1="163.6" x2="221.6" y2="155"/>
							</g>
							<g>
								<g>
									<path class="st10" d="M39.3,116.6c0,22.8,13.2,43.5,34.6,58.6l-12.7,12.7c-27.1-18-44-43.3-44-71.3
										c0-31.2,21-59.1,53.8-77.3l12.5,12.5C56.5,67.3,39.3,90.6,39.3,116.6z"/>
									<path class="st10" d="M222.7,26.4L210,39.1c-14.8-4.3-31-6.7-48.1-6.7c-18.4,0-35.8,2.8-51.4,7.7L97.9,27.5
										c19.3-6.6,41.1-10.2,64.1-10.2C183.6,17.3,204.2,20.5,222.7,26.4z"/>
									<path class="st10" d="M221.8,190.1l12.5,12.5c-21.3,8.5-46,13.3-72.4,13.3c-26.1,0-50.7-4.8-71.8-13.1l12.6-12.6
										c17.6,6.7,37.8,10.5,59.3,10.5C183.7,200.8,204.1,196.9,221.8,190.1z"/>
									<path class="st10" d="M306.7,116.6c0,28.9-18,54.9-46.6,73.1L247.4,177c23-15.3,37.2-36.7,37.2-60.4
										c0-25.9-17-49-43.8-64.4l12.6-12.6C285.9,57.8,306.7,85.5,306.7,116.6z"/>
									<line class="st10" x1="102.6" y1="190.3" x2="90.1" y2="202.9"/>
									<line class="st10" x1="253.4" y1="39.6" x2="240.8" y2="52.2"/>
									<line class="st10" x1="83.5" y1="51.9" x2="71" y2="39.3"/>
									<line class="st10" x1="234.3" y1="202.7" x2="221.8" y2="190.1"/>
									<line class="st10" x1="73.9" y1="175.2" x2="61.2" y2="187.9"/>
									<line class="st10" x1="222.7" y1="26.4" x2="210" y2="39.1"/>
									<line class="st10" x1="110.5" y1="40.2" x2="97.9" y2="27.5"/>
									<line class="st10" x1="260" y1="189.7" x2="247.4" y2="177"/>
								</g>
								<g>
									<path class="st10" d="M163.9,23.3c0,1.3-1.1,2.3-2.3,2.3c-1.3,0-2.3-1.1-2.3-2.3c0-1.3,1.1-2.3,2.3-2.3
										C162.9,20.9,163.9,22,163.9,23.3z"/>
									<path class="st10" d="M113,29.3c0.5,1.2-0.1,2.6-1.3,3.1c-1.2,0.5-2.6-0.1-3.1-1.3c-0.5-1.2,0.1-2.6,1.3-3.1
										C111.2,27.5,112.5,28.1,113,29.3z"/>
									<path class="st10" d="M69.4,48.3c0.9,0.9,0.9,2.4,0,3.3c-0.9,0.9-2.4,0.9-3.3,0c-0.9-0.9-0.9-2.4,0-3.3
										C67,47.3,68.5,47.3,69.4,48.3z"/>
									<path class="st10" d="M39.8,77.3c1.2,0.5,1.8,1.9,1.3,3.1c-0.5,1.2-1.9,1.8-3.1,1.3c-1.2-0.5-1.8-1.9-1.3-3.1
										C37.2,77.4,38.6,76.8,39.8,77.3z"/>
									<circle class="st10" cx="29" cy="114.3" r="2.3"/>
									<path class="st10" d="M38.1,147c1.2-0.5,2.6,0.1,3.1,1.3c0.5,1.2-0.1,2.6-1.3,3.1c-1.2,0.5-2.6-0.1-3.1-1.3
										C36.3,148.8,36.9,147.5,38.1,147z"/>
									<path class="st10" d="M66.1,177c0.9-0.9,2.4-0.9,3.3,0c0.9,0.9,0.9,2.4,0,3.3c-0.9,0.9-2.4,0.9-3.3,0
										C65.2,179.4,65.2,177.9,66.1,177z"/>
									<path class="st10" d="M108.5,197.5c0.5-1.2,1.9-1.8,3.1-1.3c1.2,0.5,1.8,1.9,1.3,3.1c-0.5,1.2-1.9,1.8-3.1,1.3
										C108.6,200.1,108,198.7,108.5,197.5z"/>
									<path class="st10" d="M159.3,205.3c0-1.3,1.1-2.3,2.3-2.3c1.3,0,2.3,1.1,2.3,2.3c0,1.3-1.1,2.3-2.3,2.3
										C160.3,207.7,159.3,206.6,159.3,205.3z"/>
									<path class="st10" d="M210.2,199.3c-0.5-1.2,0.1-2.6,1.3-3.1c1.2-0.5,2.6,0.1,3.1,1.3c0.5,1.2-0.1,2.6-1.3,3.1
										C212.1,201.1,210.7,200.5,210.2,199.3z"/>
									<path class="st10" d="M253.8,180.3c-0.9-0.9-0.9-2.4,0-3.3c0.9-0.9,2.4-0.9,3.3,0c0.9,0.9,0.9,2.4,0,3.3
										C256.2,181.2,254.7,181.2,253.8,180.3z"/>
									<path class="st10" d="M283.3,151.3c-1.2-0.5-1.8-1.9-1.3-3.1c0.5-1.2,1.9-1.8,3.1-1.3c1.2,0.5,1.8,1.9,1.3,3.1
										C285.9,151.2,284.5,151.8,283.3,151.3z"/>
									
										<ellipse transform="matrix(0.3827 -0.9239 0.9239 0.3827 76.0451 342.3966)" class="st10" cx="294.2" cy="114.3" rx="2.3" ry="2.3"/>
									<path class="st10" d="M285,81.6c-1.2,0.5-2.6-0.1-3.1-1.3c-0.5-1.2,0.1-2.6,1.3-3.1c1.2-0.5,2.6,0.1,3.1,1.3
										C286.8,79.8,286.2,81.1,285,81.6z"/>
									<circle class="st10" cx="255.4" cy="49.9" r="2.3"/>
									<path class="st10" d="M214.6,31.1c-0.5,1.2-1.9,1.8-3.1,1.3c-1.2-0.5-1.8-1.9-1.3-3.1c0.5-1.2,1.9-1.8,3.1-1.3
										C214.5,28.5,215.1,29.9,214.6,31.1z"/>
								</g>
							</g>
						</g>
					</g>
				</g>
			</g>
		</g>
	</g>
</g>
</svg>
