<?xml version="1.0" encoding="utf-8"?>
<!-- Generator: Adobe Illustrator 23.0.2, SVG Export Plug-In . SVG Version: 6.00 Build 0)  -->
<svg version="1.1" xmlns="http://www.w3.org/2000/svg" xmlns:xlink="http://www.w3.org/1999/xlink" x="0px" y="0px"
	 viewBox="0 0 500 500" style="enable-background:new 0 0 500 500;" xml:space="preserve">
<style type="text/css">
	.st0{display:none;fill:url(#SVGID_1_);}
	.st1{opacity:0.21;}
	.st2{fill:url(#SVGID_2_);}
	.st3{fill:url(#SVGID_3_);}
	.st4{fill:url(#SVGID_4_);}
	.st5{fill:url(#SVGID_5_);}
	.st6{fill:url(#SVGID_6_);}
	.st7{fill:url(#SVGID_7_);}
	.st8{fill:url(#SVGID_8_);}
	.st9{fill:url(#SVGID_9_);}
	.st10{fill:url(#SVGID_10_);}
	.st11{fill:url(#SVGID_11_);}
	.st12{fill:url(#SVGID_12_);}
	.st13{fill:url(#SVGID_13_);}
	.st14{fill:url(#SVGID_14_);}
	.st15{fill:url(#SVGID_15_);}
	.st16{fill:url(#SVGID_16_);}
	.st17{fill:url(#SVGID_17_);}
	.st18{fill:url(#SVGID_18_);}
	.st19{fill:url(#SVGID_19_);}
	.st20{fill:url(#SVGID_20_);}
	.st21{fill:url(#SVGID_21_);}
	.st22{fill:url(#SVGID_22_);}
	.st23{fill:url(#SVGID_23_);}
	.st24{fill:url(#SVGID_24_);}
	.st25{fill:url(#SVGID_25_);}
	.st26{fill:url(#SVGID_26_);}
	.st27{fill:url(#SVGID_27_);}
	.st28{fill:url(#SVGID_28_);}
	.st29{fill:url(#SVGID_29_);}
	.st30{fill:url(#SVGID_30_);}
	.st31{fill:url(#SVGID_31_);}
	.st32{fill:url(#SVGID_32_);}
	.st33{fill:url(#SVGID_33_);}
	.st34{fill:url(#SVGID_34_);}
	.st35{fill:url(#SVGID_35_);}
	.st36{fill:url(#SVGID_36_);}
	.st37{fill:url(#SVGID_37_);}
	.st38{fill:url(#SVGID_38_);}
	.st39{fill:url(#SVGID_39_);}
	.st40{fill:url(#SVGID_40_);}
	.st41{fill:url(#SVGID_41_);}
	.st42{fill:url(#SVGID_42_);}
	.st43{fill:url(#SVGID_43_);}
	.st44{fill:url(#SVGID_44_);}
	.st45{fill:url(#SVGID_45_);}
	.st46{fill:url(#SVGID_46_);}
	.st47{fill:url(#SVGID_47_);}
	.st48{fill:url(#SVGID_48_);}
	.st49{fill:url(#SVGID_49_);}
	.st50{fill:url(#SVGID_50_);}
	.st51{fill:url(#SVGID_51_);}
	.st52{fill:url(#SVGID_52_);}
	.st53{fill:url(#SVGID_53_);}
	.st54{fill:url(#SVGID_54_);}
	.st55{fill:url(#SVGID_55_);}
	.st56{fill:url(#SVGID_56_);}
	.st57{fill:url(#SVGID_57_);}
	.st58{fill:url(#SVGID_58_);}
	.st59{fill:url(#SVGID_59_);}
	.st60{fill:url(#SVGID_60_);}
	.st61{fill:url(#SVGID_61_);}
	.st62{fill:url(#SVGID_62_);}
	.st63{fill:url(#SVGID_63_);}
	.st64{fill:url(#SVGID_64_);}
	.st65{fill:url(#SVGID_65_);}
	.st66{fill:url(#SVGID_66_);}
	.st67{fill:url(#SVGID_67_);}
	.st68{fill:url(#SVGID_68_);}
	.st69{fill:url(#SVGID_69_);}
	.st70{fill:url(#SVGID_70_);}
	.st71{fill:url(#SVGID_71_);}
	.st72{fill:url(#SVGID_72_);}
	.st73{fill:url(#SVGID_73_);}
	.st74{fill:url(#SVGID_74_);}
	.st75{fill:url(#SVGID_75_);}
	.st76{fill:url(#SVGID_76_);}
	.st77{fill:url(#SVGID_77_);}
	.st78{fill:url(#SVGID_78_);}
	.st79{fill:url(#SVGID_79_);}
	.st80{fill:url(#SVGID_80_);}
	.st81{fill:url(#SVGID_81_);}
	.st82{fill:url(#SVGID_82_);}
	.st83{fill:url(#SVGID_83_);}
	.st84{fill:url(#SVGID_84_);}
	.st85{fill:url(#SVGID_85_);}
	.st86{fill:url(#SVGID_86_);}
	.st87{fill:url(#SVGID_87_);}
	.st88{fill:url(#SVGID_88_);}
	.st89{fill:url(#SVGID_89_);}
	.st90{fill:none;stroke:url(#SVGID_90_);stroke-miterlimit:10;}
	.st91{fill:none;stroke:url(#SVGID_91_);stroke-miterlimit:10;}
	.st92{fill:none;stroke:url(#SVGID_92_);stroke-miterlimit:10;}
	.st93{fill:none;stroke:url(#SVGID_93_);stroke-miterlimit:10;}
	.st94{fill:none;stroke:url(#SVGID_94_);stroke-miterlimit:10;}
	.st95{fill:none;stroke:url(#SVGID_95_);stroke-miterlimit:10;}
	.st96{fill:#FFFFFF;}
	.st97{fill:none;stroke:url(#SVGID_96_);stroke-miterlimit:10;}
	.st98{fill:none;stroke:url(#SVGID_97_);stroke-miterlimit:10;}
	.st99{fill:none;stroke:url(#SVGID_98_);stroke-miterlimit:10;}
	.st100{fill:none;stroke:url(#SVGID_99_);stroke-miterlimit:10;}
	.st101{fill:none;stroke:url(#SVGID_100_);stroke-miterlimit:10;}
</style>
<g id="BACKGROUND">
	<radialGradient id="SVGID_1_" cx="147.7325" cy="253.978" r="309.865" gradientUnits="userSpaceOnUse">
		<stop  offset="0" style="stop-color:#006375"/>
		<stop  offset="1" style="stop-color:#002A6A"/>
	</radialGradient>
	<rect class="st0" width="500" height="500"/>
	<g>
		<g class="st1">
			<g>
				<g>
					<linearGradient id="SVGID_2_" gradientUnits="userSpaceOnUse" x1="410.1206" y1="294.1619" x2="410.1206" y2="45.3585">
						<stop  offset="0" style="stop-color:#FFFFFF"/>
						<stop  offset="1" style="stop-color:#003F6A;stop-opacity:0"/>
					</linearGradient>
					<polygon class="st2" points="474.2,86.2 346,160.3 346,308.4 474.2,234.3 					"/>
					<linearGradient id="SVGID_3_" gradientUnits="userSpaceOnUse" x1="174.2749" y1="119.4784" x2="402.6847" y2="284.6677">
						<stop  offset="0" style="stop-color:#FFFFFF"/>
						<stop  offset="1" style="stop-color:#003F6A;stop-opacity:0"/>
					</linearGradient>
					<polygon class="st3" points="217.7,86.2 217.7,234.3 346,308.4 346,160.3 					"/>
					<linearGradient id="SVGID_4_" gradientUnits="userSpaceOnUse" x1="345.9944" y1="-75.9076" x2="345.9944" y2="493.4239">
						<stop  offset="0" style="stop-color:#FFFFFF"/>
						<stop  offset="1" style="stop-color:#003F6A;stop-opacity:0"/>
					</linearGradient>
					<polygon class="st4" points="474.2,86.2 346,12.2 217.7,86.2 346,160.3 					"/>
					<linearGradient id="SVGID_5_" gradientUnits="userSpaceOnUse" x1="345.9948" y1="307.0536" x2="345.9948" y2="316.6536">
						<stop  offset="0" style="stop-color:#FFFFFF"/>
						<stop  offset="1" style="stop-color:#003F6A;stop-opacity:0"/>
					</linearGradient>
					<polygon class="st5" points="346,311.9 346,311.9 346,311.9 					"/>
				</g>
			</g>
			<g>
				<g>
					<linearGradient id="SVGID_6_" gradientUnits="userSpaceOnUse" x1="387.9729" y1="246.7715" x2="387.9729" y2="83.9072">
						<stop  offset="0" style="stop-color:#FFFFFF"/>
						<stop  offset="1" style="stop-color:#003F6A;stop-opacity:0"/>
					</linearGradient>
					<polygon class="st6" points="430,110.7 346,159.1 346,256.1 430,207.6 					"/>
					<linearGradient id="SVGID_7_" gradientUnits="userSpaceOnUse" x1="233.5906" y1="132.4254" x2="383.1055" y2="240.5567">
						<stop  offset="0" style="stop-color:#FFFFFF"/>
						<stop  offset="1" style="stop-color:#003F6A;stop-opacity:0"/>
					</linearGradient>
					<polygon class="st7" points="262,110.7 262,207.6 346,256.1 346,159.1 					"/>
					<linearGradient id="SVGID_8_" gradientUnits="userSpaceOnUse" x1="345.9964" y1="4.5274" x2="345.9964" y2="377.2066">
						<stop  offset="0" style="stop-color:#FFFFFF"/>
						<stop  offset="1" style="stop-color:#003F6A;stop-opacity:0"/>
					</linearGradient>
					<polygon class="st8" points="430,110.7 346,62.2 262,110.7 346,159.1 					"/>
					<linearGradient id="SVGID_9_" gradientUnits="userSpaceOnUse" x1="345.9967" y1="255.1523" x2="345.9967" y2="261.5523">
						<stop  offset="0" style="stop-color:#FFFFFF"/>
						<stop  offset="1" style="stop-color:#003F6A;stop-opacity:0"/>
					</linearGradient>
					<polygon class="st9" points="346,258.4 346,258.4 346,258.4 					"/>
				</g>
			</g>
		</g>
		<g class="st1">
			<g>
				<g>
					<linearGradient id="SVGID_10_" gradientUnits="userSpaceOnUse" x1="54.2435" y1="354.325" x2="54.2435" y2="308.5767">
						<stop  offset="0" style="stop-color:#FFFFFF"/>
						<stop  offset="1" style="stop-color:#003F6A;stop-opacity:0"/>
					</linearGradient>
					<polygon class="st10" points="66,316.1 42.5,329.7 42.5,356.9 66,343.3 					"/>
					<linearGradient id="SVGID_11_" gradientUnits="userSpaceOnUse" x1="10.8778" y1="322.2053" x2="52.8763" y2="352.5792">
						<stop  offset="0" style="stop-color:#FFFFFF"/>
						<stop  offset="1" style="stop-color:#003F6A;stop-opacity:0"/>
					</linearGradient>
					<polygon class="st11" points="18.9,316.1 18.9,343.3 42.5,356.9 42.5,329.7 					"/>
					<linearGradient id="SVGID_12_" gradientUnits="userSpaceOnUse" x1="42.4524" y1="286.279" x2="42.4524" y2="390.9641">
						<stop  offset="0" style="stop-color:#FFFFFF"/>
						<stop  offset="1" style="stop-color:#003F6A;stop-opacity:0"/>
					</linearGradient>
					<polygon class="st12" points="66,316.1 42.5,302.5 18.9,316.1 42.5,329.7 					"/>
					<linearGradient id="SVGID_13_" gradientUnits="userSpaceOnUse" x1="42.4524" y1="356.778" x2="42.4524" y2="358.378">
						<stop  offset="0" style="stop-color:#FFFFFF"/>
						<stop  offset="1" style="stop-color:#003F6A;stop-opacity:0"/>
					</linearGradient>
					<polygon class="st13" points="42.5,357.6 42.5,357.6 42.5,357.6 					"/>
				</g>
			</g>
			<g>
				<g>
					<linearGradient id="SVGID_14_" gradientUnits="userSpaceOnUse" x1="50.1711" y1="345.6111" x2="50.1711" y2="315.6647">
						<stop  offset="0" style="stop-color:#FFFFFF"/>
						<stop  offset="1" style="stop-color:#003F6A;stop-opacity:0"/>
					</linearGradient>
					<polygon class="st14" points="57.9,320.6 42.5,329.5 42.5,347.3 57.9,338.4 					"/>
					<linearGradient id="SVGID_15_" gradientUnits="userSpaceOnUse" x1="21.7843" y1="324.5859" x2="49.2761" y2="344.4684">
						<stop  offset="0" style="stop-color:#FFFFFF"/>
						<stop  offset="1" style="stop-color:#003F6A;stop-opacity:0"/>
					</linearGradient>
					<polygon class="st15" points="27,320.6 27,338.4 42.5,347.3 42.5,329.5 					"/>
					<linearGradient id="SVGID_16_" gradientUnits="userSpaceOnUse" x1="42.4528" y1="301.069" x2="42.4528" y2="369.5944">
						<stop  offset="0" style="stop-color:#FFFFFF"/>
						<stop  offset="1" style="stop-color:#003F6A;stop-opacity:0"/>
					</linearGradient>
					<polygon class="st16" points="57.9,320.6 42.5,311.7 27,320.6 42.5,329.5 					"/>
					<linearGradient id="SVGID_17_" gradientUnits="userSpaceOnUse" x1="42.4528" y1="347.3405" x2="42.4528" y2="348.1405">
						<stop  offset="0" style="stop-color:#FFFFFF"/>
						<stop  offset="1" style="stop-color:#003F6A;stop-opacity:0"/>
					</linearGradient>
					<polygon class="st17" points="42.5,347.7 42.5,347.7 42.5,347.7 					"/>
				</g>
			</g>
		</g>
		<g class="st1">
			<g>
				<g>
					<linearGradient id="SVGID_18_" gradientUnits="userSpaceOnUse" x1="63.8133" y1="489.4957" x2="63.8133" y2="422.2043">
						<stop  offset="0" style="stop-color:#FFFFFF"/>
						<stop  offset="1" style="stop-color:#003F6A;stop-opacity:0"/>
					</linearGradient>
					<polygon class="st18" points="81.2,433.3 46.5,453.3 46.5,493.3 81.2,473.3 					"/>
					<linearGradient id="SVGID_19_" gradientUnits="userSpaceOnUse" x1="2.652981e-02" y1="442.2508" x2="61.8022" y2="486.9278">
						<stop  offset="0" style="stop-color:#FFFFFF"/>
						<stop  offset="1" style="stop-color:#003F6A;stop-opacity:0"/>
					</linearGradient>
					<polygon class="st19" points="11.8,433.3 11.8,473.3 46.5,493.3 46.5,453.3 					"/>
					<linearGradient id="SVGID_20_" gradientUnits="userSpaceOnUse" x1="46.4697" y1="389.4068" x2="46.4697" y2="543.3879">
						<stop  offset="0" style="stop-color:#FFFFFF"/>
						<stop  offset="1" style="stop-color:#003F6A;stop-opacity:0"/>
					</linearGradient>
					<polygon class="st20" points="81.2,433.3 46.5,413.2 11.8,433.3 46.5,453.3 					"/>
					<linearGradient id="SVGID_21_" gradientUnits="userSpaceOnUse" x1="46.4698" y1="493.0806" x2="46.4698" y2="495.4806">
						<stop  offset="0" style="stop-color:#FFFFFF"/>
						<stop  offset="1" style="stop-color:#003F6A;stop-opacity:0"/>
					</linearGradient>
					<polygon class="st21" points="46.5,494.3 46.5,494.3 46.5,494.3 					"/>
				</g>
			</g>
			<g>
				<g>
					<linearGradient id="SVGID_22_" gradientUnits="userSpaceOnUse" x1="57.8232" y1="476.6785" x2="57.8232" y2="432.6303">
						<stop  offset="0" style="stop-color:#FFFFFF"/>
						<stop  offset="1" style="stop-color:#003F6A;stop-opacity:0"/>
					</linearGradient>
					<polygon class="st22" points="69.2,439.9 46.5,453 46.5,479.2 69.2,466.1 					"/>
					<linearGradient id="SVGID_23_" gradientUnits="userSpaceOnUse" x1="16.069" y1="445.7524" x2="56.5067" y2="474.9976">
						<stop  offset="0" style="stop-color:#FFFFFF"/>
						<stop  offset="1" style="stop-color:#003F6A;stop-opacity:0"/>
					</linearGradient>
					<polygon class="st23" points="23.8,439.9 23.8,466.1 46.5,479.2 46.5,453 					"/>
					<linearGradient id="SVGID_24_" gradientUnits="userSpaceOnUse" x1="46.4702" y1="411.1613" x2="46.4702" y2="511.9559">
						<stop  offset="0" style="stop-color:#FFFFFF"/>
						<stop  offset="1" style="stop-color:#003F6A;stop-opacity:0"/>
					</linearGradient>
					<polygon class="st24" points="69.2,439.9 46.5,426.8 23.8,439.9 46.5,453 					"/>
					<linearGradient id="SVGID_25_" gradientUnits="userSpaceOnUse" x1="46.4703" y1="479.0106" x2="46.4703" y2="480.6106">
						<stop  offset="0" style="stop-color:#FFFFFF"/>
						<stop  offset="1" style="stop-color:#003F6A;stop-opacity:0"/>
					</linearGradient>
					<polygon class="st25" points="46.5,479.8 46.5,479.8 46.5,479.8 					"/>
				</g>
			</g>
		</g>
		<g class="st1">
			<g>
				<g>
					<linearGradient id="SVGID_26_" gradientUnits="userSpaceOnUse" x1="141.5855" y1="369.7989" x2="141.5855" y2="324.0506">
						<stop  offset="0" style="stop-color:#FFFFFF"/>
						<stop  offset="1" style="stop-color:#003F6A;stop-opacity:0"/>
					</linearGradient>
					<polygon class="st26" points="153.4,331.6 129.8,345.2 129.8,372.4 153.4,358.8 					"/>
					<linearGradient id="SVGID_27_" gradientUnits="userSpaceOnUse" x1="98.2199" y1="337.6792" x2="140.2183" y2="368.0531">
						<stop  offset="0" style="stop-color:#FFFFFF"/>
						<stop  offset="1" style="stop-color:#003F6A;stop-opacity:0"/>
					</linearGradient>
					<polygon class="st27" points="106.2,331.6 106.2,358.8 129.8,372.4 129.8,345.2 					"/>
					<linearGradient id="SVGID_28_" gradientUnits="userSpaceOnUse" x1="129.7944" y1="301.7531" x2="129.7944" y2="406.4377">
						<stop  offset="0" style="stop-color:#FFFFFF"/>
						<stop  offset="1" style="stop-color:#003F6A;stop-opacity:0"/>
					</linearGradient>
					<polygon class="st28" points="153.4,331.6 129.8,317.9 106.2,331.6 129.8,345.2 					"/>
					<linearGradient id="SVGID_29_" gradientUnits="userSpaceOnUse" x1="129.7944" y1="372.2519" x2="129.7944" y2="373.8519">
						<stop  offset="0" style="stop-color:#FFFFFF"/>
						<stop  offset="1" style="stop-color:#003F6A;stop-opacity:0"/>
					</linearGradient>
					<polygon class="st29" points="129.8,373.1 129.8,373.1 129.8,373.1 					"/>
				</g>
			</g>
			<g>
				<g>
					<linearGradient id="SVGID_30_" gradientUnits="userSpaceOnUse" x1="137.5132" y1="361.0851" x2="137.5132" y2="331.1387">
						<stop  offset="0" style="stop-color:#FFFFFF"/>
						<stop  offset="1" style="stop-color:#003F6A;stop-opacity:0"/>
					</linearGradient>
					<polygon class="st30" points="145.2,336.1 129.8,345 129.8,362.8 145.2,353.9 					"/>
					<linearGradient id="SVGID_31_" gradientUnits="userSpaceOnUse" x1="109.1264" y1="340.0598" x2="136.6181" y2="359.9422">
						<stop  offset="0" style="stop-color:#FFFFFF"/>
						<stop  offset="1" style="stop-color:#003F6A;stop-opacity:0"/>
					</linearGradient>
					<polygon class="st31" points="114.4,336.1 114.4,353.9 129.8,362.8 129.8,345 					"/>
					<linearGradient id="SVGID_32_" gradientUnits="userSpaceOnUse" x1="129.7948" y1="316.5428" x2="129.7948" y2="385.0686">
						<stop  offset="0" style="stop-color:#FFFFFF"/>
						<stop  offset="1" style="stop-color:#003F6A;stop-opacity:0"/>
					</linearGradient>
					<polygon class="st32" points="145.2,336.1 129.8,327.1 114.4,336.1 129.8,345 					"/>
					<linearGradient id="SVGID_33_" gradientUnits="userSpaceOnUse" x1="129.7948" y1="362.4144" x2="129.7948" y2="364.0144">
						<stop  offset="0" style="stop-color:#FFFFFF"/>
						<stop  offset="1" style="stop-color:#003F6A;stop-opacity:0"/>
					</linearGradient>
					<polygon class="st33" points="129.8,363.2 129.8,363.2 129.8,363.2 					"/>
				</g>
			</g>
		</g>
		<g class="st1">
			<g>
				<g>
					<linearGradient id="SVGID_34_" gradientUnits="userSpaceOnUse" x1="171.7913" y1="67.7786" x2="171.7913" y2="22.0303">
						<stop  offset="0" style="stop-color:#FFFFFF"/>
						<stop  offset="1" style="stop-color:#003F6A;stop-opacity:0"/>
					</linearGradient>
					<polygon class="st34" points="183.6,29.5 160,43.2 160,70.4 183.6,56.8 					"/>
					<linearGradient id="SVGID_35_" gradientUnits="userSpaceOnUse" x1="128.4257" y1="35.659" x2="170.424" y2="66.0328">
						<stop  offset="0" style="stop-color:#FFFFFF"/>
						<stop  offset="1" style="stop-color:#003F6A;stop-opacity:0"/>
					</linearGradient>
					<polygon class="st35" points="136.4,29.5 136.4,56.8 160,70.4 160,43.2 					"/>
					<linearGradient id="SVGID_36_" gradientUnits="userSpaceOnUse" x1="160.0002" y1="-0.2672" x2="160.0002" y2="104.4174">
						<stop  offset="0" style="stop-color:#FFFFFF"/>
						<stop  offset="1" style="stop-color:#003F6A;stop-opacity:0"/>
					</linearGradient>
					<polygon class="st36" points="183.6,29.5 160,15.9 136.4,29.5 160,43.2 					"/>
					<linearGradient id="SVGID_37_" gradientUnits="userSpaceOnUse" x1="160.0002" y1="70.2316" x2="160.0002" y2="71.8316">
						<stop  offset="0" style="stop-color:#FFFFFF"/>
						<stop  offset="1" style="stop-color:#003F6A;stop-opacity:0"/>
					</linearGradient>
					<polygon class="st37" points="160,71 160,71 160,71 					"/>
				</g>
			</g>
			<g>
				<g>
					<linearGradient id="SVGID_38_" gradientUnits="userSpaceOnUse" x1="167.7189" y1="59.0648" x2="167.7189" y2="29.1184">
						<stop  offset="0" style="stop-color:#FFFFFF"/>
						<stop  offset="1" style="stop-color:#003F6A;stop-opacity:0"/>
					</linearGradient>
					<polygon class="st38" points="175.4,34 160,42.9 160,60.8 175.4,51.9 					"/>
					<linearGradient id="SVGID_39_" gradientUnits="userSpaceOnUse" x1="139.3321" y1="38.0396" x2="166.8239" y2="57.922">
						<stop  offset="0" style="stop-color:#FFFFFF"/>
						<stop  offset="1" style="stop-color:#003F6A;stop-opacity:0"/>
					</linearGradient>
					<polygon class="st39" points="144.6,34 144.6,51.9 160,60.8 160,42.9 					"/>
					<linearGradient id="SVGID_40_" gradientUnits="userSpaceOnUse" x1="160.0005" y1="14.5226" x2="160.0005" y2="83.0483">
						<stop  offset="0" style="stop-color:#FFFFFF"/>
						<stop  offset="1" style="stop-color:#003F6A;stop-opacity:0"/>
					</linearGradient>
					<polygon class="st40" points="175.4,34 160,25.1 144.6,34 160,42.9 					"/>
					<linearGradient id="SVGID_41_" gradientUnits="userSpaceOnUse" x1="160.0006" y1="60.3941" x2="160.0006" y2="61.9941">
						<stop  offset="0" style="stop-color:#FFFFFF"/>
						<stop  offset="1" style="stop-color:#003F6A;stop-opacity:0"/>
					</linearGradient>
					<polygon class="st41" points="160,61.2 160,61.2 160,61.2 					"/>
				</g>
			</g>
		</g>
		<g class="st1">
			<g>
				<g>
					<linearGradient id="SVGID_42_" gradientUnits="userSpaceOnUse" x1="304.02" y1="338.851" x2="304.02" y2="293.1028">
						<stop  offset="0" style="stop-color:#FFFFFF"/>
						<stop  offset="1" style="stop-color:#003F6A;stop-opacity:0"/>
					</linearGradient>
					<polygon class="st42" points="315.8,300.6 292.2,314.2 292.2,341.5 315.8,327.8 					"/>
					<linearGradient id="SVGID_43_" gradientUnits="userSpaceOnUse" x1="260.6543" y1="306.7314" x2="302.6528" y2="337.1053">
						<stop  offset="0" style="stop-color:#FFFFFF"/>
						<stop  offset="1" style="stop-color:#003F6A;stop-opacity:0"/>
					</linearGradient>
					<polygon class="st43" points="268.6,300.6 268.6,327.8 292.2,341.5 292.2,314.2 					"/>
					<linearGradient id="SVGID_44_" gradientUnits="userSpaceOnUse" x1="292.2289" y1="270.8052" x2="292.2289" y2="375.4898">
						<stop  offset="0" style="stop-color:#FFFFFF"/>
						<stop  offset="1" style="stop-color:#003F6A;stop-opacity:0"/>
					</linearGradient>
					<polygon class="st44" points="315.8,300.6 292.2,287 268.6,300.6 292.2,314.2 					"/>
					<linearGradient id="SVGID_45_" gradientUnits="userSpaceOnUse" x1="292.2289" y1="341.304" x2="292.2289" y2="342.904">
						<stop  offset="0" style="stop-color:#FFFFFF"/>
						<stop  offset="1" style="stop-color:#003F6A;stop-opacity:0"/>
					</linearGradient>
					<polygon class="st45" points="292.2,342.1 292.2,342.1 292.2,342.1 					"/>
				</g>
			</g>
			<g>
				<g>
					<linearGradient id="SVGID_46_" gradientUnits="userSpaceOnUse" x1="299.9476" y1="330.1372" x2="299.9476" y2="300.1908">
						<stop  offset="0" style="stop-color:#FFFFFF"/>
						<stop  offset="1" style="stop-color:#003F6A;stop-opacity:0"/>
					</linearGradient>
					<polygon class="st46" points="307.7,305.1 292.2,314 292.2,331.8 307.7,322.9 					"/>
					<linearGradient id="SVGID_47_" gradientUnits="userSpaceOnUse" x1="271.5609" y1="309.112" x2="299.0526" y2="328.9944">
						<stop  offset="0" style="stop-color:#FFFFFF"/>
						<stop  offset="1" style="stop-color:#003F6A;stop-opacity:0"/>
					</linearGradient>
					<polygon class="st47" points="276.8,305.1 276.8,322.9 292.2,331.8 292.2,314 					"/>
					<linearGradient id="SVGID_48_" gradientUnits="userSpaceOnUse" x1="292.2293" y1="285.595" x2="292.2293" y2="354.1207">
						<stop  offset="0" style="stop-color:#FFFFFF"/>
						<stop  offset="1" style="stop-color:#003F6A;stop-opacity:0"/>
					</linearGradient>
					<polygon class="st48" points="307.7,305.1 292.2,296.2 276.8,305.1 292.2,314 					"/>
					<linearGradient id="SVGID_49_" gradientUnits="userSpaceOnUse" x1="292.2293" y1="331.8666" x2="292.2293" y2="332.6666">
						<stop  offset="0" style="stop-color:#FFFFFF"/>
						<stop  offset="1" style="stop-color:#003F6A;stop-opacity:0"/>
					</linearGradient>
					<polygon class="st49" points="292.2,332.3 292.2,332.3 292.2,332.3 					"/>
				</g>
			</g>
		</g>
		<g class="st1">
			<g>
				<g>
					<linearGradient id="SVGID_50_" gradientUnits="userSpaceOnUse" x1="446.6642" y1="424.4201" x2="446.6642" y2="346.6599">
						<stop  offset="0" style="stop-color:#FFFFFF"/>
						<stop  offset="1" style="stop-color:#003F6A;stop-opacity:0"/>
					</linearGradient>
					<polygon class="st50" points="466.7,359.4 426.6,382.6 426.6,428.9 466.7,405.7 					"/>
					<linearGradient id="SVGID_51_" gradientUnits="userSpaceOnUse" x1="372.9536" y1="369.8251" x2="444.3402" y2="421.4529">
						<stop  offset="0" style="stop-color:#FFFFFF"/>
						<stop  offset="1" style="stop-color:#003F6A;stop-opacity:0"/>
					</linearGradient>
					<polygon class="st51" points="386.5,359.4 386.5,405.7 426.6,428.9 426.6,382.6 					"/>
					<linearGradient id="SVGID_52_" gradientUnits="userSpaceOnUse" x1="426.6223" y1="308.7598" x2="426.6223" y2="486.6968">
						<stop  offset="0" style="stop-color:#FFFFFF"/>
						<stop  offset="1" style="stop-color:#003F6A;stop-opacity:0"/>
					</linearGradient>
					<polygon class="st52" points="466.7,359.4 426.6,336.3 386.5,359.4 426.6,382.6 					"/>
					<linearGradient id="SVGID_53_" gradientUnits="userSpaceOnUse" x1="426.6224" y1="428.7495" x2="426.6224" y2="431.1495">
						<stop  offset="0" style="stop-color:#FFFFFF"/>
						<stop  offset="1" style="stop-color:#003F6A;stop-opacity:0"/>
					</linearGradient>
					<polygon class="st53" points="426.6,429.9 426.6,429.9 426.6,429.9 					"/>
				</g>
			</g>
			<g>
				<g>
					<linearGradient id="SVGID_54_" gradientUnits="userSpaceOnUse" x1="439.7422" y1="409.6089" x2="439.7422" y2="358.7077">
						<stop  offset="0" style="stop-color:#FFFFFF"/>
						<stop  offset="1" style="stop-color:#003F6A;stop-opacity:0"/>
					</linearGradient>
					<polygon class="st54" points="452.9,367.1 426.6,382.2 426.6,412.5 452.9,397.4 					"/>
					<linearGradient id="SVGID_55_" gradientUnits="userSpaceOnUse" x1="391.4919" y1="373.8715" x2="438.2209" y2="407.6666">
						<stop  offset="0" style="stop-color:#FFFFFF"/>
						<stop  offset="1" style="stop-color:#003F6A;stop-opacity:0"/>
					</linearGradient>
					<polygon class="st55" points="400.4,367.1 400.4,397.4 426.6,412.5 426.6,382.2 					"/>
					<linearGradient id="SVGID_56_" gradientUnits="userSpaceOnUse" x1="426.6229" y1="333.8987" x2="426.6229" y2="450.3747">
						<stop  offset="0" style="stop-color:#FFFFFF"/>
						<stop  offset="1" style="stop-color:#003F6A;stop-opacity:0"/>
					</linearGradient>
					<polygon class="st56" points="452.9,367.1 426.6,351.9 400.4,367.1 426.6,382.2 					"/>
					<linearGradient id="SVGID_57_" gradientUnits="userSpaceOnUse" x1="426.623" y1="412.4284" x2="426.623" y2="414.0284">
						<stop  offset="0" style="stop-color:#FFFFFF"/>
						<stop  offset="1" style="stop-color:#003F6A;stop-opacity:0"/>
					</linearGradient>
					<polygon class="st57" points="426.6,413.2 426.6,413.2 426.6,413.2 					"/>
				</g>
			</g>
		</g>
	</g>
</g>
<g id="OBJECTS">
	<g>
		<g>
			<g>
				<g>
					<g>
						<linearGradient id="SVGID_58_" gradientUnits="userSpaceOnUse" x1="128.3236" y1="313.1838" x2="128.3236" y2="221.6838">
							<stop  offset="0" style="stop-color:#FFFFFF"/>
							<stop  offset="1" style="stop-color:#003F6A;stop-opacity:0"/>
						</linearGradient>
						<polygon class="st58" points="151.9,236.7 104.7,263.9 104.7,318.4 151.9,291.2 						"/>
						<linearGradient id="SVGID_59_" gradientUnits="userSpaceOnUse" x1="41.589" y1="248.9421" x2="125.5889" y2="309.6921">
							<stop  offset="0" style="stop-color:#FFFFFF"/>
							<stop  offset="1" style="stop-color:#003F6A;stop-opacity:0"/>
						</linearGradient>
						<polygon class="st59" points="57.6,236.7 57.6,291.2 104.7,318.4 104.7,263.9 						"/>
						<linearGradient id="SVGID_60_" gradientUnits="userSpaceOnUse" x1="104.7405" y1="177.087" x2="104.7405" y2="386.4644">
							<stop  offset="0" style="stop-color:#FFFFFF"/>
							<stop  offset="1" style="stop-color:#003F6A;stop-opacity:0"/>
						</linearGradient>
						<polygon class="st60" points="151.9,236.7 104.7,209.5 57.6,236.7 104.7,263.9 						"/>
						<linearGradient id="SVGID_61_" gradientUnits="userSpaceOnUse" x1="104.7406" y1="318.0901" x2="104.7406" y2="321.2901">
							<stop  offset="0" style="stop-color:#FFFFFF"/>
							<stop  offset="1" style="stop-color:#003F6A;stop-opacity:0"/>
						</linearGradient>
						<polygon class="st61" points="104.7,319.7 104.7,319.7 104.7,319.7 						"/>
					</g>
				</g>
				<g>
					<g>
						<linearGradient id="SVGID_62_" gradientUnits="userSpaceOnUse" x1="120.1786" y1="295.7555" x2="120.1786" y2="235.8604">
							<stop  offset="0" style="stop-color:#FFFFFF"/>
							<stop  offset="1" style="stop-color:#003F6A;stop-opacity:0"/>
						</linearGradient>
						<polygon class="st62" points="135.6,245.7 104.7,263.5 104.7,299.2 135.6,281.3 						"/>
						<linearGradient id="SVGID_63_" gradientUnits="userSpaceOnUse" x1="63.4028" y1="253.7035" x2="118.3885" y2="293.4699">
							<stop  offset="0" style="stop-color:#FFFFFF"/>
							<stop  offset="1" style="stop-color:#003F6A;stop-opacity:0"/>
						</linearGradient>
						<polygon class="st63" points="73.9,245.7 73.9,281.3 104.7,299.2 104.7,263.5 						"/>
						<linearGradient id="SVGID_64_" gradientUnits="userSpaceOnUse" x1="104.7412" y1="206.6677" x2="104.7412" y2="343.7243">
							<stop  offset="0" style="stop-color:#FFFFFF"/>
							<stop  offset="1" style="stop-color:#003F6A;stop-opacity:0"/>
						</linearGradient>
						<polygon class="st64" points="135.6,245.7 104.7,227.9 73.9,245.7 104.7,263.5 						"/>
						<linearGradient id="SVGID_65_" gradientUnits="userSpaceOnUse" x1="104.7413" y1="299.2145" x2="104.7413" y2="300.8145">
							<stop  offset="0" style="stop-color:#FFFFFF"/>
							<stop  offset="1" style="stop-color:#003F6A;stop-opacity:0"/>
						</linearGradient>
						<polygon class="st65" points="104.7,300 104.7,300 104.7,300 						"/>
					</g>
				</g>
			</g>
			<g>
				<g>
					<g>
						<linearGradient id="SVGID_66_" gradientUnits="userSpaceOnUse" x1="110.6388" y1="238.1273" x2="110.6388" y2="124.0597">
							<stop  offset="0" style="stop-color:#FFFFFF"/>
							<stop  offset="1" style="stop-color:#003F6A;stop-opacity:0"/>
						</linearGradient>
						<polygon class="st66" points="116.5,142.8 104.7,149.6 104.7,244.6 116.5,237.8 						"/>
						<linearGradient id="SVGID_67_" gradientUnits="userSpaceOnUse" x1="67.0258" y1="170.7017" x2="134.5798" y2="219.5576">
							<stop  offset="0" style="stop-color:#FFFFFF"/>
							<stop  offset="1" style="stop-color:#003F6A;stop-opacity:0"/>
						</linearGradient>
						<polygon class="st67" points="93,142.8 93,237.8 104.7,244.6 104.7,149.6 						"/>
						<linearGradient id="SVGID_68_" gradientUnits="userSpaceOnUse" x1="104.743" y1="127.8868" x2="104.743" y2="180.2311">
							<stop  offset="0" style="stop-color:#FFFFFF"/>
							<stop  offset="1" style="stop-color:#003F6A;stop-opacity:0"/>
						</linearGradient>
						<polygon class="st68" points="116.5,142.8 104.7,136 93,142.8 104.7,149.6 						"/>
						<linearGradient id="SVGID_69_" gradientUnits="userSpaceOnUse" x1="104.743" y1="244.5588" x2="104.743" y2="245.3588">
							<stop  offset="0" style="stop-color:#FFFFFF"/>
							<stop  offset="1" style="stop-color:#003F6A;stop-opacity:0"/>
						</linearGradient>
						<polygon class="st69" points="104.7,245 104.7,245 104.7,245 						"/>
					</g>
				</g>
			</g>
			<g>
				<g>
					<g>
						
							<linearGradient id="SVGID_70_" gradientUnits="userSpaceOnUse" x1="1087.9205" y1="1308.8816" x2="1087.9205" y2="1194.8154" gradientTransform="matrix(-0.5216 0.8532 -0.8532 -0.5216 1809.3612 39.191)">
							<stop  offset="0" style="stop-color:#FFFFFF"/>
							<stop  offset="1" style="stop-color:#003F6A;stop-opacity:0"/>
						</linearGradient>
						<polygon class="st70" points="203.4,339.4 203.8,325.8 122.7,276.3 122.3,289.9 						"/>
						
							<linearGradient id="SVGID_71_" gradientUnits="userSpaceOnUse" x1="1044.309" y1="1241.4572" x2="1111.8601" y2="1290.3112" gradientTransform="matrix(-0.5216 0.8532 -0.8532 -0.5216 1809.3612 39.191)">
							<stop  offset="0" style="stop-color:#FFFFFF"/>
							<stop  offset="1" style="stop-color:#003F6A;stop-opacity:0"/>
						</linearGradient>
						<polygon class="st71" points="215.7,319.3 134.6,269.8 122.7,276.3 203.8,325.8 						"/>
						
							<linearGradient id="SVGID_72_" gradientUnits="userSpaceOnUse" x1="1082.0262" y1="1198.642" x2="1082.0262" y2="1250.986" gradientTransform="matrix(-0.5216 0.8532 -0.8532 -0.5216 1809.3612 39.191)">
							<stop  offset="0" style="stop-color:#FFFFFF"/>
							<stop  offset="1" style="stop-color:#003F6A;stop-opacity:0"/>
						</linearGradient>
						<polygon class="st72" points="203.4,339.4 215.4,332.9 215.7,319.3 203.8,325.8 						"/>
						
							<linearGradient id="SVGID_73_" gradientUnits="userSpaceOnUse" x1="1082.0232" y1="1315.2391" x2="1082.0232" y2="1316.187" gradientTransform="matrix(-0.5216 0.8532 -0.8532 -0.5216 1809.3612 39.191)">
							<stop  offset="0" style="stop-color:#FFFFFF"/>
							<stop  offset="1" style="stop-color:#003F6A;stop-opacity:0"/>
						</linearGradient>
						<polygon class="st73" points="122.4,276.1 122.4,276.1 122.4,276.1 						"/>
					</g>
				</g>
			</g>
			<g>
				<g>
					<g>
						<linearGradient id="SVGID_74_" gradientUnits="userSpaceOnUse" x1="128.3248" y1="176.7539" x2="128.3248" y2="85.2539">
							<stop  offset="0" style="stop-color:#FFFFFF"/>
							<stop  offset="1" style="stop-color:#003F6A;stop-opacity:0"/>
						</linearGradient>
						<polygon class="st74" points="151.9,100.3 104.7,127.5 104.7,182 151.9,154.7 						"/>
						<linearGradient id="SVGID_75_" gradientUnits="userSpaceOnUse" x1="41.5901" y1="112.5122" x2="125.5903" y2="173.2623">
							<stop  offset="0" style="stop-color:#FFFFFF"/>
							<stop  offset="1" style="stop-color:#003F6A;stop-opacity:0"/>
						</linearGradient>
						<polygon class="st75" points="57.6,100.3 57.6,154.7 104.7,182 104.7,127.5 						"/>
						<linearGradient id="SVGID_76_" gradientUnits="userSpaceOnUse" x1="104.7417" y1="40.6571" x2="104.7417" y2="250.0345">
							<stop  offset="0" style="stop-color:#FFFFFF"/>
							<stop  offset="1" style="stop-color:#003F6A;stop-opacity:0"/>
						</linearGradient>
						<polygon class="st76" points="151.9,100.3 104.7,73 57.6,100.3 104.7,127.5 						"/>
						<linearGradient id="SVGID_77_" gradientUnits="userSpaceOnUse" x1="104.7418" y1="181.6602" x2="104.7418" y2="184.8602">
							<stop  offset="0" style="stop-color:#FFFFFF"/>
							<stop  offset="1" style="stop-color:#003F6A;stop-opacity:0"/>
						</linearGradient>
						<polygon class="st77" points="104.7,183.3 104.7,183.3 104.7,183.3 						"/>
					</g>
				</g>
				<g>
					<g>
						<linearGradient id="SVGID_78_" gradientUnits="userSpaceOnUse" x1="120.1797" y1="159.3256" x2="120.1797" y2="99.4306">
							<stop  offset="0" style="stop-color:#FFFFFF"/>
							<stop  offset="1" style="stop-color:#003F6A;stop-opacity:0"/>
						</linearGradient>
						<polygon class="st78" points="135.6,109.3 104.7,127.1 104.7,162.7 135.6,144.9 						"/>
						<linearGradient id="SVGID_79_" gradientUnits="userSpaceOnUse" x1="63.4041" y1="117.2736" x2="118.3897" y2="157.0401">
							<stop  offset="0" style="stop-color:#FFFFFF"/>
							<stop  offset="1" style="stop-color:#003F6A;stop-opacity:0"/>
						</linearGradient>
						<polygon class="st79" points="73.9,109.3 73.9,144.9 104.7,162.7 104.7,127.1 						"/>
						<linearGradient id="SVGID_80_" gradientUnits="userSpaceOnUse" x1="104.7425" y1="70.238" x2="104.7425" y2="207.2942">
							<stop  offset="0" style="stop-color:#FFFFFF"/>
							<stop  offset="1" style="stop-color:#003F6A;stop-opacity:0"/>
						</linearGradient>
						<polygon class="st80" points="135.6,109.3 104.7,91.4 73.9,109.3 104.7,127.1 						"/>
						<linearGradient id="SVGID_81_" gradientUnits="userSpaceOnUse" x1="104.7425" y1="162.3846" x2="104.7425" y2="164.7846">
							<stop  offset="0" style="stop-color:#FFFFFF"/>
							<stop  offset="1" style="stop-color:#003F6A;stop-opacity:0"/>
						</linearGradient>
						<polygon class="st81" points="104.7,163.6 104.7,163.6 104.7,163.6 						"/>
					</g>
				</g>
			</g>
			<g>
				<g>
					<g>
						<linearGradient id="SVGID_82_" gradientUnits="userSpaceOnUse" x1="239.3111" y1="383.6034" x2="239.3111" y2="292.1034">
							<stop  offset="0" style="stop-color:#FFFFFF"/>
							<stop  offset="1" style="stop-color:#003F6A;stop-opacity:0"/>
						</linearGradient>
						<polygon class="st82" points="262.9,307.1 215.7,334.4 215.7,388.8 262.9,361.6 						"/>
						<linearGradient id="SVGID_83_" gradientUnits="userSpaceOnUse" x1="152.5765" y1="319.3617" x2="236.5764" y2="380.1118">
							<stop  offset="0" style="stop-color:#FFFFFF"/>
							<stop  offset="1" style="stop-color:#003F6A;stop-opacity:0"/>
						</linearGradient>
						<polygon class="st83" points="168.6,307.1 168.6,361.6 215.7,388.8 215.7,334.4 						"/>
						<linearGradient id="SVGID_84_" gradientUnits="userSpaceOnUse" x1="215.728" y1="247.5066" x2="215.728" y2="456.884">
							<stop  offset="0" style="stop-color:#FFFFFF"/>
							<stop  offset="1" style="stop-color:#003F6A;stop-opacity:0"/>
						</linearGradient>
						<polygon class="st84" points="262.9,307.1 215.7,279.9 168.6,307.1 215.7,334.4 						"/>
						<linearGradient id="SVGID_85_" gradientUnits="userSpaceOnUse" x1="215.7281" y1="388.5097" x2="215.7281" y2="391.7097">
							<stop  offset="0" style="stop-color:#FFFFFF"/>
							<stop  offset="1" style="stop-color:#003F6A;stop-opacity:0"/>
						</linearGradient>
						<polygon class="st85" points="215.7,390.1 215.7,390.1 215.7,390.1 						"/>
					</g>
				</g>
				<g>
					<g>
						<linearGradient id="SVGID_86_" gradientUnits="userSpaceOnUse" x1="231.166" y1="366.1751" x2="231.166" y2="306.28">
							<stop  offset="0" style="stop-color:#FFFFFF"/>
							<stop  offset="1" style="stop-color:#003F6A;stop-opacity:0"/>
						</linearGradient>
						<polygon class="st86" points="246.6,316.1 215.7,333.9 215.7,369.6 246.6,351.8 						"/>
						<linearGradient id="SVGID_87_" gradientUnits="userSpaceOnUse" x1="174.3903" y1="324.1231" x2="229.376" y2="363.8895">
							<stop  offset="0" style="stop-color:#FFFFFF"/>
							<stop  offset="1" style="stop-color:#003F6A;stop-opacity:0"/>
						</linearGradient>
						<polygon class="st87" points="184.9,316.1 184.9,351.8 215.7,369.6 215.7,333.9 						"/>
						<linearGradient id="SVGID_88_" gradientUnits="userSpaceOnUse" x1="215.7287" y1="277.0873" x2="215.7287" y2="414.1439">
							<stop  offset="0" style="stop-color:#FFFFFF"/>
							<stop  offset="1" style="stop-color:#003F6A;stop-opacity:0"/>
						</linearGradient>
						<polygon class="st88" points="246.6,316.1 215.7,298.3 184.9,316.1 215.7,333.9 						"/>
						<linearGradient id="SVGID_89_" gradientUnits="userSpaceOnUse" x1="215.7289" y1="369.6341" x2="215.7289" y2="371.2341">
							<stop  offset="0" style="stop-color:#FFFFFF"/>
							<stop  offset="1" style="stop-color:#003F6A;stop-opacity:0"/>
						</linearGradient>
						<polygon class="st89" points="215.7,370.4 215.7,370.4 215.7,370.4 						"/>
					</g>
				</g>
			</g>
		</g>
		<g>
			<linearGradient id="SVGID_90_" gradientUnits="userSpaceOnUse" x1="52.9368" y1="380.2235" x2="187.4165" y2="380.2235">
				<stop  offset="0" style="stop-color:#FFFFFF"/>
				<stop  offset="1" style="stop-color:#003F6A;stop-opacity:0"/>
			</linearGradient>
			<polyline class="st90" points="187.2,364 136.3,393.6 97,370.4 53.2,396.5 			"/>
			<linearGradient id="SVGID_91_" gradientUnits="userSpaceOnUse" x1="202.1039" y1="396.4712" x2="295.2599" y2="396.4712">
				<stop  offset="0" style="stop-color:#003F6A;stop-opacity:0"/>
				<stop  offset="1" style="stop-color:#FFFFFF"/>
			</linearGradient>
			<line class="st91" x1="202.3" y1="371.2" x2="295" y2="421.8"/>
			<linearGradient id="SVGID_92_" gradientUnits="userSpaceOnUse" x1="184.5881" y1="371.9139" x2="277.744" y2="371.9139">
				<stop  offset="0" style="stop-color:#003F6A;stop-opacity:0"/>
				<stop  offset="1" style="stop-color:#FFFFFF"/>
			</linearGradient>
			<line class="st92" x1="184.8" y1="346.6" x2="277.5" y2="397.2"/>
			<linearGradient id="SVGID_93_" gradientUnits="userSpaceOnUse" x1="250.818" y1="374.8897" x2="274.9515" y2="374.8897">
				<stop  offset="0" style="stop-color:#003F6A;stop-opacity:0"/>
				<stop  offset="1" style="stop-color:#FFFFFF"/>
			</linearGradient>
			<line class="st93" x1="251.1" y1="368.4" x2="274.7" y2="381.4"/>
			<linearGradient id="SVGID_94_" gradientUnits="userSpaceOnUse" x1="63.2817" y1="97.1408" x2="62.7535" y2="39.3092">
				<stop  offset="0" style="stop-color:#FFFFFF"/>
				<stop  offset="1" style="stop-color:#003F6A;stop-opacity:0"/>
			</linearGradient>
			<line class="st94" x1="63" y1="97.1" x2="63" y2="39.3"/>
			<linearGradient id="SVGID_95_" gradientUnits="userSpaceOnUse" x1="81.4226" y1="87.8908" x2="80.8944" y2="30.0592">
				<stop  offset="0" style="stop-color:#FFFFFF"/>
				<stop  offset="1" style="stop-color:#003F6A;stop-opacity:0"/>
			</linearGradient>
			<line class="st95" x1="81.2" y1="87.9" x2="81.2" y2="30.1"/>
			<polygon class="st96" points="43,398 51.3,402.8 59.7,398 51.3,393.2 			"/>
			<polygon class="st96" points="69.1,398.7 77.5,403.5 85.8,398.7 77.5,393.9 			"/>
			<polygon class="st96" points="212.5,439.9 220.8,444.7 229.1,439.9 220.8,435.1 			"/>
			<polygon class="st96" points="289.1,423.2 297.5,428 305.8,423.2 297.5,418.4 			"/>
			<polygon class="st96" points="272.4,398.4 280.8,403.2 289.1,398.4 280.8,393.6 			"/>
			<polygon class="st96" points="269.2,383.1 277.5,387.9 285.9,383.1 277.5,378.3 			"/>
			<linearGradient id="SVGID_96_" gradientUnits="userSpaceOnUse" x1="77.2261" y1="392.1294" x2="192.4077" y2="392.1294">
				<stop  offset="0" style="stop-color:#FFFFFF"/>
				<stop  offset="1" style="stop-color:#003F6A;stop-opacity:0"/>
			</linearGradient>
			<polyline class="st97" points="192.1,375.2 137.7,408.9 98.5,385.5 77.5,398 			"/>
			<linearGradient id="SVGID_97_" gradientUnits="userSpaceOnUse" x1="195.7" y1="443.6126" x2="192.46" y2="383.4038">
				<stop  offset="0" style="stop-color:#FFFFFF"/>
				<stop  offset="1" style="stop-color:#003F6A;stop-opacity:0"/>
			</linearGradient>
			<polyline class="st98" points="205.8,383.1 165.7,408.9 224.4,441.6 			"/>
			<linearGradient id="SVGID_98_" gradientUnits="userSpaceOnUse" x1="151.6532" y1="230.739" x2="199.3251" y2="230.739">
				<stop  offset="0" style="stop-color:#FFFFFF"/>
				<stop  offset="1" style="stop-color:#003F6A;stop-opacity:0"/>
			</linearGradient>
			<line class="st99" x1="151.9" y1="244.6" x2="199.1" y2="216.8"/>
			<linearGradient id="SVGID_99_" gradientUnits="userSpaceOnUse" x1="129.5405" y1="215.0658" x2="161.5218" y2="215.0658">
				<stop  offset="0" style="stop-color:#FFFFFF"/>
				<stop  offset="1" style="stop-color:#003F6A;stop-opacity:0"/>
			</linearGradient>
			<line class="st100" x1="129.8" y1="224.3" x2="161.3" y2="205.8"/>
			<linearGradient id="SVGID_100_" gradientUnits="userSpaceOnUse" x1="117.3116" y1="202.9413" x2="164.9834" y2="202.9413">
				<stop  offset="0" style="stop-color:#FFFFFF"/>
				<stop  offset="1" style="stop-color:#003F6A;stop-opacity:0"/>
			</linearGradient>
			<line class="st101" x1="117.6" y1="216.8" x2="164.7" y2="189"/>
			<polygon class="st96" points="67.1,32.2 58.9,36.9 58.9,46.4 67.1,41.7 			"/>
			<polygon class="st96" points="161.8,186.6 153.6,191.3 153.6,200.8 161.8,196.1 			"/>
			<polygon class="st96" points="161.8,200.9 153.6,205.6 153.6,215.1 161.8,210.3 			"/>
			<polygon class="st96" points="196.6,213.7 188.4,218.4 188.4,227.9 196.6,223.1 			"/>
			<polygon class="st96" points="85.3,22 77.1,26.7 77.1,36.2 85.3,31.4 			"/>
		</g>
	</g>
</g>
<g id="DESIGNED_BY_FREEPIK">
</g>
</svg>
