<svg xmlns="http://www.w3.org/2000/svg" width="20" height="20" viewBox="0 0 172 172"><g fill="none" stroke-miterlimit="10" font-family="none" font-weight="none" font-size="none" text-anchor="none" style="mix-blend-mode:normal"><path d="M0 172V0h172v172z"/><path d="M170.643.752a3.389 3.389 0 00-3.709-.309L1.814 89.883a3.381 3.381 0 00-1.76 3.306 3.388 3.388 0 002.324 2.93l46.938 15.318-4.542 46.467a3.378 3.378 0 002.029 3.454c.43.201.9.295 1.357.295.954 0 1.895-.403 2.553-1.155l29.603-33.446 44.572 43.94a3.42 3.42 0 002.392.981c.31 0 .618-.054.927-.134a3.395 3.395 0 002.379-2.446l41.28-165.12a3.4 3.4 0 00-1.223-3.52zM56.223 110.806l67.12-54.274-45.741 63.33-25.034 28.26z" fill="#fff"/></g></svg>