<svg xmlns="http://www.w3.org/2000/svg" xmlns:xlink="http://www.w3.org/1999/xlink" viewBox="0 0 322.9 231.9"><style>.st0{display:none}.st2,.st7{display:inline}.st7,.st8{fill:#d9ffff}.st9{fill:none;stroke:#0ff;stroke-width:2;stroke-miterlimit:10}.st10{fill:#0ff}</style><g id="BACKGROUND" class="st0"><linearGradient id="SVGID_1_" gradientUnits="userSpaceOnUse" x1="-233.011" y1="-153.053" x2="485.452" y2="466.414"><stop offset="0" stop-color="#360177"/><stop offset=".134" stop-color="#3a017a"/><stop offset=".275" stop-color="#470182"/><stop offset=".42" stop-color="#5c0191"/><stop offset=".566" stop-color="#7901a5"/><stop offset=".714" stop-color="#9f00be"/><stop offset=".862" stop-color="#cd00dd"/><stop offset="1" stop-color="#f0f"/></linearGradient><path fill="url(#SVGID_1_)" d="M-327.4-161.1h750v500h-750z"/><g class="st2"><image width="3139" height="2175" xlink:href="2C838E49.png" transform="matrix(.24 0 0 .24 -337.064 -145.05)" overflow="visible" opacity=".55"/><path fill="#fff" d="M-247.5-89.8h587.3v356h-587.3z"/></g></g><g id="OBJECTS"><defs><path id="SVGID_2_" d="M-251.6-92.3H344v361h-595.6z"/></defs><clipPath id="SVGID_3_"><use xlink:href="#SVGID_2_" overflow="visible"/></clipPath><path clip-path="url(#SVGID_3_)" fill="none" d="M-251.6-92.3H344v361h-595.6z"/><radialGradient id="SVGID_4_" cx="189.446" cy="-985.027" r="83.542" gradientTransform="matrix(1.0697 .0119 -.0072 .6525 -53.846 771.16)" gradientUnits="userSpaceOnUse"><stop offset="0" stop-color="#0a0d10"/><stop offset=".161" stop-color="#0d1013" stop-opacity=".839"/><stop offset=".293" stop-color="#171a1d" stop-opacity=".707"/><stop offset=".415" stop-color="#292b2e" stop-opacity=".585"/><stop offset=".531" stop-color="#414345" stop-opacity=".469"/><stop offset=".642" stop-color="#606264" stop-opacity=".357"/><stop offset=".75" stop-color="#868889" stop-opacity=".249"/><stop offset=".856" stop-color="#b4b5b6" stop-opacity=".143"/><stop offset=".957" stop-color="#e7e7e8" stop-opacity=".042"/><stop offset=".999" stop-color="#fff" stop-opacity="0"/></radialGradient><path d="M245.2 131.7c-.3 30.1-40.6 54.1-90 53.5-49.3-.5-89.1-25.4-88.8-55.5.3-30.1 40.6-54.1 90-53.5 49.4.5 89.2 25.4 88.8 55.5z" opacity=".6" clip-path="url(#SVGID_3_)" fill="url(#SVGID_4_)"/><g clip-path="url(#SVGID_3_)"><g class="st0"><path class="st7" d="M275.6 28.8c-.5-.9-1.7-1.2-2.6-.7-.8.4-1.1 1.3-.9 2.2L254 40.6v24.3l-83.8 48.4.5.9 84.1-48.6.3-.1V41.2l17.5-10.1c.6.6 1.5.7 2.3.3.9-.5 1.3-1.6.7-2.6zM55.8 59.1l-22.2-.3-6.5-4.3c.3-.8 0-1.7-.8-2.2-.9-.6-2.1-.4-2.7.5-.6.9-.4 2.1.5 2.7.7.5 1.7.4 2.3-.2l6.7 4.5 22.2.3 83.2 48 .5-.9-83.2-48.1z"/><path class="st7" d="M68.8 42.5c.2-.8-.1-1.7-.8-2.2-.9-.6-2.1-.3-2.7.6-.6.9-.3 2.1.6 2.7.8.5 1.7.3 2.3-.2l16.9 10.4v24h1V53.2L68.8 42.5zM295.9 184c-.8-.4-1.7-.3-2.3.3L275.9 174l-.1-.1h-21.1l-84-48.5-.5.9 84.1 48.6.1.1h21.1l17.6 10.2c-.2.8.1 1.7.9 2.2.9.5 2.1.2 2.6-.7.5-1 .2-2.2-.7-2.7z"/><path class="st7" d="M264.3 190.1c-.8-.4-1.7-.3-2.3.3l-48.9-28.2-.4-11.8h-1l.4 12.3 49.4 28.5c-.2.8.1 1.7.9 2.2.9.5 2.1.2 2.6-.7.6-.9.3-2.1-.7-2.6z"/><g class="st2"><path class="st8" d="M149.2 125.5l-84 48.5h-21l-17.5 10.1c-.6-.6-1.5-.7-2.3-.3-.9.5-1.2 1.7-.7 2.6.5.9 1.7 1.2 2.6.7.8-.4 1.1-1.3.9-2.1l17.3-10h21l84.2-48.6-.5-.9z"/><path class="st8" d="M97.2 156.1h-1l.5 24.3-10.3 5.8H65l-7.1 4.1c-.6-.6-1.5-.7-2.3-.3-.9.5-1.2 1.7-.7 2.6.5.9 1.7 1.2 2.6.7.8-.4 1.1-1.3.9-2.2l6.8-3.9h21.4l11-6.2-.4-24.9z"/></g><g class="st2"><path class="st8" d="M171 231.4v-8.7l-21-12.1 10-78.9-1-.1-10 79.2v.3l21.1 12.2v8.1c-.8.2-1.4 1-1.4 1.9 0 1.1.9 1.9 1.9 1.9 1.1 0 1.9-.9 1.9-1.9-.1-.9-.7-1.7-1.5-1.9z"/><path class="st8" d="M200.7 215c-.9 0-1.6.6-1.9 1.4h-17.7l-10.7-6.1-10.8 6.2.5.9 10.3-5.9 10.4 6h18c.2.8 1 1.4 1.9 1.4 1.1 0 1.9-.9 1.9-1.9 0-1.1-.9-2-1.9-2z"/></g><g class="st2"><path class="st8" d="M138.9 119.3l-73.4 6.1L34 107.3l-.1-.1-20.5-.5-8.1 4.7c-.6-.6-1.5-.7-2.3-.3-.9.5-1.2 1.7-.7 2.6.5.9 1.7 1.2 2.6.7.8-.4 1.1-1.3.9-2.2l7.9-4.6 20 .4 31.6 18.2 73.8-6.1-.2-.8z"/><path class="st8" d="M44 113.3l-20.6 11.9-.3.1V138l-7.3 3.9c-.6-.6-1.5-.8-2.3-.4-.9.5-1.3 1.7-.8 2.6.5.9 1.7 1.3 2.6.8.8-.4 1.2-1.3 1-2.1l7.8-4.2V126l20.4-11.8-.5-.9z"/></g><g class="st2"><path class="st8" d="M139 22.2h-21l-17.7-10.1c.2-.8-.1-1.7-.9-2.2-.9-.5-2.1-.2-2.6.7-.5.9-.2 2.1.7 2.6.8.4 1.7.3 2.3-.3l18 10.3h21l20.7 12-.3 73.5h1l.3-73.8v-.3L139 22.2z"/><path class="st8" d="M142.3 12.1c.2-.8-.1-1.7-.9-2.2-.9-.5-2.1-.2-2.6.7-.5.9-.2 2.1.7 2.6.8.4 1.7.3 2.3-.3l7 4v11.8h1V16.4l-7.5-4.3z"/></g><path class="st7" d="M233.5 4.5c-.5-.9-1.7-1.2-2.6-.7-.8.4-1.1 1.3-.9 2.2l-38.8 22.4-11 6.3 10.6 6.5-20.8 60.3 1 .3 21.2-61.1-9.8-6 9.3-5.4h21.1l7.3-4.3c.6.6 1.6.7 2.3.3.9-.5 1.2-1.7.7-2.6-.5-.9-1.7-1.2-2.6-.7-.8.4-1.1 1.3-.9 2.2l-7.1 4.1h-19l37.1-21.4c.6.6 1.5.7 2.3.3.8-.6 1.2-1.7.6-2.7z"/><g class="st2"><path class="st8" d="M305.4 35.9c-.5-.9-1.7-1.2-2.6-.7-.8.4-1.1 1.3-.9 2.2l-26.6 15.4L264.8 71l-84 48.5.5.9 84.1-48.5.1-.1L276 53.5l26.3-15.3c.6.6 1.5.7 2.3.3 1-.5 1.3-1.7.8-2.6z"/><path class="st8" d="M296.6 52.9c-.5-.9-1.7-1.2-2.7-.7-.8.5-1.1 1.4-.9 2.2l-7.2 4.3-15.7 3 .2 1 15.8-3 7.4-4.4c.6.6 1.6.7 2.3.3 1-.6 1.3-1.8.8-2.7z"/></g><g class="st2"><path class="st8" d="M307.1 95.6c-.5-.9-1.7-1.2-2.6-.7-.8.4-1.1 1.3-.9 2.2l-17.7 10.2-.3.1v12.1l-10.1 5.8h-84v1h84.3l10.8-6.3v-12l17.5-10.1c.6.6 1.5.7 2.3.3.9-.5 1.2-1.7.7-2.6z"/><path class="st8" d="M327.7 95.3c-.6-.9-1.7-1.2-2.7-.7-.8.5-1.1 1.4-.9 2.2l-17.6 10.6v12.1l-10 5.8-10.3-5.9-.5.9 10.8 6.2 11-6.4V108l17.1-10.3c.6.6 1.6.7 2.3.3 1-.6 1.3-1.8.8-2.7z"/></g></g><ellipse class="st9" cx="161.9" cy="113.8" rx="110.4" ry="75.8"/><ellipse class="st10" cx="161.9" cy="135.4" rx="78.9" ry="54.2"/><radialGradient id="SVGID_5_" cx="163.922" cy="113.842" r="109.334" gradientTransform="matrix(-1 .00772 -.00534 -.6921 328.447 191.368)" gradientUnits="userSpaceOnUse"><stop offset=".796" stop-color="#0ff" stop-opacity="0"/><stop offset=".971" stop-color="#0ff" stop-opacity=".859"/><stop offset="1" stop-color="#0ff"/></radialGradient><ellipse cx="161.9" cy="113.8" rx="110.4" ry="75.8" opacity=".56" fill="url(#SVGID_5_)"/><ellipse class="st9" cx="161.9" cy="113.8" rx="75.7" ry="52"/><ellipse cx="161.9" cy="113.8" rx="53.9" ry="37" fill="none" stroke="#0071bc" stroke-width="1.291" stroke-miterlimit="10"/><ellipse cx="161.9" cy="113.8" rx="64.4" ry="44.2" fill="none" stroke="#0071bc" stroke-width="3" stroke-miterlimit="10" stroke-dasharray="2.5867,6.4667"/><path d="M161.9 40.2v19m-41-13.4l10.6 17.6m-45.4-1.6l19.5 13.4M62.8 85.7l25.6 7.2m-33.7 20.9h27.6M62.8 142l25.6-7.2m-2.3 31.1l19.5-13.4m15.3 29.4l10.6-17.6m30.4 23.2v-19m41.1 13.4l-10.6-17.6m45.4 1.6l-19.6-13.4M261 142l-25.5-7.2m33.7-21h-27.7M261 85.7l-25.5 7.2m2.3-31.1l-19.6 13.4M203 45.8l-10.6 17.6M56.6 128l27.2-3.7m-11.3 30.2L95.6 144m6.4 30.9l15.5-15.7m23.1 26.8l5.5-18.6m36.4 18.7l-5.3-18.6m44 7.7l-15.3-15.8m45-4.4L228 144.4m39.1-15.9l-27.1-3.8m27.2-25l-27.1 3.7m11.2-30.3l-23 10.5m-6.5-30.8l-15.4 15.7m-23.2-26.8l-5.5 18.6m-36.3-18.7l5.3 18.6m-44.1-7.7l15.3 15.8m-45 4.4l23 10.6M56.8 99.2l27.1 3.8" fill="none" stroke="#29abe2" stroke-width=".968" stroke-miterlimit="10"/><linearGradient id="SVGID_6_" gradientUnits="userSpaceOnUse" x1="253.757" y1="96.49" x2="142.757" y2="102.99"><stop offset="0"/><stop offset=".203" stop-color="#000303"/><stop offset=".358" stop-color="#000d0c"/><stop offset=".497" stop-color="#001d1b"/><stop offset=".627" stop-color="#003430"/><stop offset=".75" stop-color="#00524c"/><stop offset=".869" stop-color="#00776e"/><stop offset=".981" stop-color="#00a196"/><stop offset="1" stop-color="#00a99d"/></linearGradient><ellipse cx="161.9" cy="101.9" rx="41.1" ry="28.2" fill="url(#SVGID_6_)" stroke="#0ff" stroke-width=".25" stroke-miterlimit="10"/><path d="M170.6 81.8l-49.7 20v.1c0 1.1.1 2.2.3 3.3l1.2.7 16.7-6.8 14.8 7.4-8.6 12 6.2 3.4 26-37.3-6.9-2.8zm-6.2 10.7l-7.4 10.4-12.7-6.2 15.6-6.3c3.3-1.3 6.4-2.8 9.4-4.2l.1.1c-1.7 2-3.4 4-5 6.2zm37.3 2.3c-1.9-.1-3.8.4-5.1 1.3-1.9 1.4-1.7 3.2.7 4.2 1.8.8 3.9.9 5.6.4-.1-2-.5-4-1.2-5.9zm-12.7 7.9l-31.1 22.8 6.3 3.5 31.5-23.3-6.7-3z" fill="#232323" opacity=".45"/><path d="M177.5 62.4l-2.6 1.3v.2l-4.4-1.8L122 81.6l.9-.7h-5.4v2.5l4.9 2.7 16.7-6.8 14.8 7.4-6.8 9.5h-1.8v2.5l6.2 3.4 26-37.3v-2.4zm-13.1 10.4L157 83.2 144.2 77l15.6-6.3c3.2-1.4 6.4-2.8 9.4-4.2l.1.1c-1.6 2-3.3 3.9-4.9 6.2zm28.3 11.8L189 83l-26.9 19.6v-.1l-4.2.7v2.5l6.3 3.5L195.7 86v-2.6l-3 .8zm13.7-9.4l-1.6.7-.6-.3c-2.1-.8-4.7-.7-6.7.2l-2.3-.2v2.9c0 .8.7 1.6 1.9 2.1 2.7 1.2 6 .8 7.8-.7.8-.6 1.3-1.3 1.3-2v-2.7z" fill="#303030"/><path class="st10" d="M139.1 76.9l-16.7 6.8-4.9-2.7 53.1-21.3 6.9 2.8-26 37.3-6.2-3.4 8.6-12-14.8-7.5zm17.9 3.8l7.4-10.4c1.6-2.3 3.4-4.3 5-6.2l-.1-.1c-3 1.4-6.1 2.8-9.4 4.2l-15.6 6.3 12.7 6.2zm48.1-3.3c-1.8 1.4-5.1 1.8-7.8.7-2.4-1-2.6-2.8-.7-4.2 1.9-1.4 5.2-1.8 7.7-.8 2.5 1.1 2.7 2.9.8 4.3zm-47.2 25.8L189 80.5l6.7 3-31.5 23.3-6.3-3.6z"/><ellipse cx="161.9" cy="112.3" rx="91.8" ry="63" fill="none" stroke="#0ff" stroke-width=".982" stroke-miterlimit="10"/><path class="st10" d="M76.2 113.7c0 15.6 9.2 29.7 24.2 40l-8.9 8.7c-19-12.3-30.8-29.6-30.8-48.7 0-21.3 14.7-40.3 37.6-52.8l8.8 8.6C88.2 80.1 76.2 96 76.2 113.7zm128.2-61.6l-8.9 8.7c-10.3-3-21.7-4.6-33.6-4.6-12.8 0-25 1.9-35.9 5.3l-8.8-8.6c13.5-4.5 28.7-7 44.8-7 15.1 0 29.5 2.2 42.4 6.2zm-.7 111.8l8.8 8.6c-14.9 5.8-32.2 9.1-50.6 9.1-18.3 0-35.4-3.3-50.2-8.9l8.8-8.6c12.3 4.6 26.4 7.2 41.4 7.2 15.2-.1 29.5-2.7 41.8-7.4zm59.4-50.2c0 19.7-12.6 37.5-32.6 49.9l-8.8-8.6c16.1-10.4 26-25.1 26-41.3 0-17.7-11.9-33.5-30.6-44l8.8-8.6c22.7 12.5 37.2 31.4 37.2 52.6zm-142.6 50.4l-8.8 8.6M225.8 61.1l-8.7 8.6m-110-.2L98.4 61m114.1 111.5l-8.8-8.6m-103.3-10.1l-8.9 8.6M204.4 52.1l-8.9 8.7m-69.5.7l-8.9-8.6m113.4 110.7l-8.9-8.6" opacity=".2"/><path class="st10" d="M39.3 116.6c0 22.8 13.2 43.5 34.6 58.6l-12.7 12.7c-27.1-18-44-43.3-44-71.3 0-31.2 21-59.1 53.8-77.3l12.5 12.5c-27 15.5-44.2 38.8-44.2 64.8zm183.4-90.2L210 39.1c-14.8-4.3-31-6.7-48.1-6.7-18.4 0-35.8 2.8-51.4 7.7L97.9 27.5c19.3-6.6 41.1-10.2 64.1-10.2 21.6 0 42.2 3.2 60.7 9.1zm-.9 163.7l12.5 12.5c-21.3 8.5-46 13.3-72.4 13.3-26.1 0-50.7-4.8-71.8-13.1l12.6-12.6c17.6 6.7 37.8 10.5 59.3 10.5 21.7.1 42.1-3.8 59.8-10.6zm84.9-73.5c0 28.9-18 54.9-46.6 73.1L247.4 177c23-15.3 37.2-36.7 37.2-60.4 0-25.9-17-49-43.8-64.4l12.6-12.6c32.5 18.2 53.3 45.9 53.3 77zm-204.1 73.7l-12.5 12.6M253.4 39.6l-12.6 12.6m-157.3-.3L71 39.3m163.3 163.4l-12.5-12.6M73.9 175.2l-12.7 12.7M222.7 26.4L210 39.1m-99.5 1.1L97.9 27.5M260 189.7L247.4 177"/><path class="st10" d="M163.9 23.3c0 1.3-1.1 2.3-2.3 2.3-1.3 0-2.3-1.1-2.3-2.3 0-1.3 1.1-2.3 2.3-2.3 1.3-.1 2.3 1 2.3 2.3zm-50.9 6c.5 1.2-.1 2.6-1.3 3.1s-2.6-.1-3.1-1.3.1-2.6 1.3-3.1c1.3-.5 2.6.1 3.1 1.3zm-43.6 19c.9.9.9 2.4 0 3.3-.9.9-2.4.9-3.3 0-.9-.9-.9-2.4 0-3.3.9-1 2.4-1 3.3 0zm-29.6 29c1.2.5 1.8 1.9 1.3 3.1-.5 1.2-1.9 1.8-3.1 1.3-1.2-.5-1.8-1.9-1.3-3.1.5-1.2 1.9-1.8 3.1-1.3z"/><circle class="st10" cx="29" cy="114.3" r="2.3"/><path class="st10" d="M38.1 147c1.2-.5 2.6.1 3.1 1.3s-.1 2.6-1.3 3.1-2.6-.1-3.1-1.3c-.5-1.3.1-2.6 1.3-3.1zm28 30c.9-.9 2.4-.9 3.3 0 .9.9.9 2.4 0 3.3-.9.9-2.4.9-3.3 0-.9-.9-.9-2.4 0-3.3zm42.4 20.5c.5-1.2 1.9-1.8 3.1-1.3 1.2.5 1.8 1.9 1.3 3.1-.5 1.2-1.9 1.8-3.1 1.3-1.2-.5-1.8-1.9-1.3-3.1zm50.8 7.8c0-1.3 1.1-2.3 2.3-2.3 1.3 0 2.3 1.1 2.3 2.3 0 1.3-1.1 2.3-2.3 2.3-1.3.1-2.3-1-2.3-2.3zm50.9-6c-.5-1.2.1-2.6 1.3-3.1s2.6.1 3.1 1.3-.1 2.6-1.3 3.1-2.6-.1-3.1-1.3zm43.6-19c-.9-.9-.9-2.4 0-3.3.9-.9 2.4-.9 3.3 0 .9.9.9 2.4 0 3.3-.9.9-2.4.9-3.3 0zm29.5-29c-1.2-.5-1.8-1.9-1.3-3.1.5-1.2 1.9-1.8 3.1-1.3 1.2.5 1.8 1.9 1.3 3.1-.5 1.2-1.9 1.8-3.1 1.3z"/><circle transform="rotate(-67.5 294.234 114.29)" class="st10" cx="294.2" cy="114.3" r="2.3"/><path class="st10" d="M285 81.6c-1.2.5-2.6-.1-3.1-1.3s.1-2.6 1.3-3.1 2.6.1 3.1 1.3c.5 1.3-.1 2.6-1.3 3.1z"/><circle class="st10" cx="255.4" cy="49.9" r="2.3"/><path class="st10" d="M214.6 31.1c-.5 1.2-1.9 1.8-3.1 1.3-1.2-.5-1.8-1.9-1.3-3.1.5-1.2 1.9-1.8 3.1-1.3 1.2.5 1.8 1.9 1.3 3.1z"/></g></g></svg>