<svg xmlns="http://www.w3.org/2000/svg" xmlns:xlink="http://www.w3.org/1999/xlink" viewBox="0 0 750 500"><style>.st0{display:none}.st1{display:inline}.st22,.st5{fill:none;stroke:#8fe0f9;stroke-miterlimit:10}.st5{display:inline;stroke-width:.3996}.st22{stroke-width:.3677}.st39{fill:#8fe0f9}.st41,.st43{display:inline;opacity:.7}.st43{opacity:.2}</style><g id="BACKGROUND" class="st0"><g class="st1"><linearGradient id="SVGID_1_" gradientUnits="userSpaceOnUse" x1="5.846" y1="5.744" x2="738.846" y2="490.744"><stop offset="0" stop-color="#c4faff"/><stop offset=".117" stop-color="#bbfaff"/><stop offset=".303" stop-color="#a4faff"/><stop offset=".536" stop-color="#7efaff"/><stop offset=".804" stop-color="#4afaff"/><stop offset="1" stop-color="#1ffaff"/></linearGradient><path fill="url(#SVGID_1_)" d="M0 0h750v500H0z"/></g></g><g id="OBJECTS"><image width="829" height="542" xlink:href="4AA2C294.png" transform="translate(-32 -17)" overflow="visible" opacity=".75"/><linearGradient id="SVGID_2_" gradientUnits="userSpaceOnUse" x1="-17.321" y1="-.692" x2="760.457" y2="489.691"><stop offset="0" stop-color="#041428"/><stop offset="1" stop-color="#041447"/></linearGradient><path d="M775 8.6v476.8c0 9.6-7.8 17.3-17.3 17.3H-6.6c-9.6 0-17.3-7.8-17.3-17.3V8.6c0-9.6 7.8-17.3 17.3-17.3h764.3C767.2-8.7 775-1 775 8.6z" fill="url(#SVGID_2_)"/><g class="st0"><defs><path id="SVGID_3_" d="M673.7 69.1v355.8c0 7.1-5.8 12.9-12.9 12.9H90.3c-7.1 0-12.9-5.8-12.9-12.9V69.1c0-7.1 5.8-12.9 12.9-12.9h570.4c7.2 0 13 5.7 13 12.9z"/></defs><clipPath id="SVGID_4_" class="st1"><use xlink:href="#SVGID_3_" overflow="visible"/></clipPath><g id="XMLID_92_" display="inline" opacity=".5" clip-path="url(#SVGID_4_)"><image width="568" height="415" xlink:href="4AA2C295.png" transform="translate(326 197)" overflow="visible"/></g></g><g class="st0"><path class="st5" d="M437.8 208.4l-3.2 4.9 8.7-3.2zm-3.2 4.9l2.9 5.8 5.8-9zm3.2-4.9l2.6-8.5 2.9 10.2zm12-10.7l-9.4 2.2 3.7-6.3z"/><path class="st5" d="M451.7 187.1l-7.6 6.5 5.7 4.1zm10.8-4.4l-10.8 4.4 5.4.7z"/><path class="st5" d="M449.8 197.7l7.3-9.9-5.4-.7zm12.7-15l7.6-6.3 20.9-1.6zm-25 36.4l3 6.8 2.8-6.8zm9.8 9.7l-6.8-2.9 2.8-6.8zm10.9 3.1l-7.4-.2-3.5-2.9zm-14.9-12.8l4.5 2.7-.5 7zm0-9v9l7.2-1.9zm14.9 21.8l3.5 7.8 6.9-11.2zm9 11.9l-5.5-4.1 6.9-11.2zm8.2 4.5l-8.2-4.5 16.2-3.3zm8 1.1l-8-1.1 8-7.8zm0 0l9.8-1.9-2.8-7zm9.8-1.9l5.7-1.1.3-6.6zm5.7-1.1l3.2 5.7 6.1-4.9zm3.2 5.7l2.2 5.4 6.7-3.8zm6.1-4.9l2.8 6.5-8.9-1.6zm8.6 15.6l-6.9-1.4 1.1-7.7z"/><path class="st5" d="M504.3 257.5l5.6 3.9 1.1-7.7zm-5.1-17.7l9 7.4-9.3-.8zm-8.8.7l8.8-.7-6 7.7zm17.8 6.7h7.6l-4.8 6.5zm7.6 0l5.5-.8-.3 6.8z"/><path class="st5" d="M521.3 246.4l7.8 1.1-8.1 5.7zm7.8 1.1l1.3 7.3 7.4-5zm1.3 7.3v4.9l4.8-3.1z"/><path class="st5" d="M537.8 249.8l-2.6 6.8-4.8-1.8zm-16.8 3.4l-4.2 9.6h7.2zm-10 .5l10-.5-5.2-6z"/><path class="st5" d="M521 253.2l9.4 1.6v4.9zm3 9.6l6.4-3.1-9.4-6.5zm-13-9.1l10-.5-4.2 9.6zm-11.8-13.9l7.8-1.8 1.2 9.2zm-15.8.7h7l-7 8.9zm-14.8-12l7.4-1.2-8.8 16.5zm15.8-4l-8.4 2.8 7.4 13.2z"/><path class="st5" d="M476 227.3l-8.8 16.5 16.2-3.3zm8.4-2.8l5.4 13.5-6.4 2.5zm0 0l10.4-.5 4.4 15.8zm10.4-.5h8.2l4 14zm12.2 14h7.1l1.7 9.2z"/><path class="st5" d="M513.6 227.3L503 224l4 14zM489.8 238l9.4 1.8-14.8-15.3zm24.3 0l10.5 1-8.8 8.2z"/><path class="st5" d="M514.1 238l-.5-10.7-9.3-16.5L503 224m21.6 15l-11-11.7 10.4-3.6zm0 0l-3.3 7.4-5.5.8z"/><path class="st5" d="M529.1 247.5l-4.5-8.5-3.3 7.4zm0 0l11.2-9-2.5 11.3z"/><path class="st5" d="M540.3 238.5l7.7 6.9-5.7 3.8zm-2.5 11.3l4.5-.6m.4-47.2l-.7 10.4-8 6.1 6.3 20 3.4-11.4 9.9-6.8m-100.1-13.5l13.7 5.1 1.4 16.6-18.1-11.3 3-10.4-10.2 3.3 6.5-12.4"/><path class="st5" d="M447.8 221.8l2.7-4.6 7.7 14.7 3.5-32.7-8.2 7.6-3.7-9.1 11.9 1.5-4.6-11.4 9.1 4.2 7.2-12.3 2 27.1-8.2 5.1-19.9 16.9 57-18"/><path class="st5" d="M480.9 175.6l1.2 12.9-.6 14.6 13.3-1.9 10.8-24.5"/><path class="st5" d="M494.8 201.2l-5.5 9.6-7.2-22.3"/><path class="st5" d="M470.1 176.4l34.2 34.4-9.5 13.2-5.5-13.2h15m0 0l20.6-9.6-11.3 26.1zm31.2-18.4l-10.6 8.8 7.2 4.8m1.7-18.9l-22.1 7.1 13.2 7m-8-22.4L504.1 195l-10.4-4.3zM504.1 195l7.6-.8 14-13.8m-64 18.8l6.9-2.4 5.7-4.8"/><path class="st5" d="M468.6 196.8l6.8 10 6.1-3.7.6 12.2 7.2-4.5-4.9 13.7-2.3-9.2-6.7-8.5-13.7-7.6 4.5-7.2h8.1l7.8-3.5 8.9-13.7 9.9-.9 4.7 2.8 5.8-1.4 5.5 3.5 8.8 1.6 8.1 6.7 1.7 5.3 6.6 4 .6 5.6 5.9 4.1 1.6 7.4 3.4 6.8v4.6l-.8 9.2.8 7-5.6 4.3 4.8-11.3-9.1-7-9.7-8.6-1.9-12.5 10-9.6m-48.4-5.7l-7.1 11.7"/><path class="st5" d="M475.4 206.8l-6.8 21.7 13.5-13.2m29.3-40l-3.5 8.1 17.8-3 3.8 8.1 6 3.9-3.4 13.6m-27.8 4.8l8.2 4.6 1.1 11.9m0-20.8l-1.1 8.9 11.5 8.3M474.3 192l7.2 11.1"/><path class="st5" d="M511.7 194.2l1.9 12.3 10.4 17.2 8.1-17.7 9.9 6.4 11.6 7.9h-10.7l-8.9-1.8-.5 13.4 6.8 6.6-15.7.5 9.4-20.5-10 5.2 1.7-43.3-12.1 26.1m34.4 38.9l-1.9-9.8-5.8 2.9m-86.8-31.7l3 14.1 11.4-1"/><path class="st5" d="M461.7 199.2l5.5 12.7 14.9 3.4-6.1 12v9.9l7.4 3.3-7.4-3.3-8.8 6.6-3.1-8-5.9-3.9m35.6 18.6l5.1-4.1 2 10.8 1.2-5.1zm19.8 23.5l-9.3-16.5.6 10.7 6.5-1.8zm-12.7-16.8l3.4.3m9.3 16.5l3.2 3m-.8-5l-2.4 6.6 5.5 3.4m-7.7-15.6l5.4-3.6 6.5-2.4 7.1-.7M489.8 238l5-14 2.9-13.2-2.9-9.6 9.3-6.2.2 15.8 7.4-16.6-6.1-17.5-23.5 11.8 11.6 2.2 7.2-16.8"/><path class="st5" d="M467.2 243.8l10.6 2.2 5.6 3.4 10.4 1.1 7.1 6.7 4 11 8.7 5.8v4.6l3.2-1.6-.8-5-4.6-5.6-1.5-5 11.1-8.2m-27.8-5.7l.6 3m41.7-58.1l7.2 9.6m-37.1-25.3l-6.2.6-8.4-2.5 2.7 15.9-12.7-13.1m-18.5 5.1l3.7 9.3m62.9 55.5l4.4-15.6-8.9 7.1-7.3-20.2m16.2 13.1l16.7-18.4-8.2-1.1 1.7 14.7 2.4 8.5 6.7-1.5m-68.4-9.6l-8.4 12.7"/></g><g class="st0"><g class="st1"><linearGradient id="SVGID_5_" gradientUnits="userSpaceOnUse" x1="1016.156" y1="839.689" x2="1305.61" y2="839.689" gradientTransform="rotate(98.853 1076.228 250.67)"><stop offset="0" stop-color="#858688"/><stop offset=".497" stop-color="#cfd1d2"/><stop offset="1" stop-color="#7c7d7f"/></linearGradient><path fill="none" stroke="url(#SVGID_5_)" stroke-width=".368" stroke-miterlimit="10" d="M442 383.8l-1.5-17.3-31.4-4.3-21.1-4.1-19.5-28.8-10.8-25-17.5-27.6 5.5-15-7-35.2 39.7-15.6-19.6-41.8 20.1-25.7 13.3-12.4 40.1-2.7 17-26.7 34.6 18.7 23.8-12.2 33-1.4 26.4 13.6 8 30.3 15.5-1.5 14.5 42.5 17.5 23.6 5 20.7-6.1 15.8-33.2 34.5 8.6 53.9-21.1-8.1-2.5 33.7-20.8 9.4-33.2 10.5-40.9-5.3z"/><linearGradient id="SVGID_6_" gradientUnits="userSpaceOnUse" x1="1030.699" y1="782.116" x2="1052.346" y2="782.116" gradientTransform="rotate(98.853 1076.228 250.67)"><stop offset="0" stop-color="#858688"/><stop offset=".497" stop-color="#cfd1d2"/><stop offset="1" stop-color="#7c7d7f"/></linearGradient><path fill="none" stroke="url(#SVGID_6_)" stroke-width=".368" stroke-miterlimit="10" d="M577.4 127.1l-41.9 15"/><linearGradient id="SVGID_7_" gradientUnits="userSpaceOnUse" x1="1044.04" y1="825.172" x2="1081.588" y2="825.172" gradientTransform="rotate(98.853 1076.228 250.67)"><stop offset="0" stop-color="#858688"/><stop offset=".497" stop-color="#cfd1d2"/><stop offset="1" stop-color="#7c7d7f"/></linearGradient><path fill="none" stroke="url(#SVGID_7_)" stroke-width=".368" stroke-miterlimit="10" d="M520.4 131.6L501 148.9l16.3 20"/><linearGradient id="SVGID_8_" gradientUnits="userSpaceOnUse" x1="1025.689" y1="891.711" x2="1061.765" y2="891.711" gradientTransform="rotate(98.853 1076.228 250.67)"><stop offset="0" stop-color="#858688"/><stop offset=".497" stop-color="#cfd1d2"/><stop offset="1" stop-color="#7c7d7f"/></linearGradient><path fill="none" stroke="url(#SVGID_8_)" stroke-width=".368" stroke-miterlimit="10" d="M449.2 101.9l-2.8 36"/><linearGradient id="SVGID_9_" gradientUnits="userSpaceOnUse" x1="1150.521" y1="958.58" x2="1162.528" y2="958.58" gradientTransform="rotate(98.853 1076.228 250.67)"><stop offset="0" stop-color="#858688"/><stop offset=".497" stop-color="#cfd1d2"/><stop offset="1" stop-color="#7c7d7f"/></linearGradient><path fill="none" stroke="url(#SVGID_9_)" stroke-width=".368" stroke-miterlimit="10" d="M345.3 212.2l18.2 9.9 20 7.8"/><linearGradient id="SVGID_10_" gradientUnits="userSpaceOnUse" x1="1165.683" y1="973.265" x2="1177.562" y2="973.265" gradientTransform="rotate(98.853 1076.228 250.67)"><stop offset="0" stop-color="#858688"/><stop offset=".497" stop-color="#cfd1d2"/><stop offset="1" stop-color="#7c7d7f"/></linearGradient><path fill="none" stroke="url(#SVGID_10_)" stroke-width=".368" stroke-miterlimit="10" d="M338.7 226.5l17.7 14.5"/><linearGradient id="SVGID_11_" gradientUnits="userSpaceOnUse" x1="1161.414" y1="907.926" x2="1192.464" y2="907.926" gradientTransform="rotate(98.853 1076.228 250.67)"><stop offset="0" stop-color="#858688"/><stop offset=".497" stop-color="#cfd1d2"/><stop offset="1" stop-color="#7c7d7f"/></linearGradient><path fill="none" stroke="url(#SVGID_11_)" stroke-width=".368" stroke-miterlimit="10" d="M394.9 262.1l32.8-26.1"/><linearGradient id="SVGID_12_" gradientUnits="userSpaceOnUse" x1="1281.191" y1="823.303" x2="1289.056" y2="823.303" gradientTransform="rotate(98.853 1076.228 250.67)"><stop offset="0" stop-color="#858688"/><stop offset=".497" stop-color="#cfd1d2"/><stop offset="1" stop-color="#7c7d7f"/></linearGradient><path fill="none" stroke="url(#SVGID_12_)" stroke-width=".368" stroke-miterlimit="10" d="M465.9 363.2l24.7 11.5"/><linearGradient id="SVGID_13_" gradientUnits="userSpaceOnUse" x1="1273.362" y1="892.942" x2="1298.508" y2="892.942" gradientTransform="rotate(98.853 1076.228 250.67)"><stop offset="0" stop-color="#858688"/><stop offset=".497" stop-color="#cfd1d2"/><stop offset="1" stop-color="#7c7d7f"/></linearGradient><path fill="none" stroke="url(#SVGID_13_)" stroke-width=".368" stroke-miterlimit="10" d="M411.5 346.7l-4.3 24.7"/><linearGradient id="SVGID_14_" gradientUnits="userSpaceOnUse" x1="1212.278" y1="925.155" x2="1242.061" y2="925.155" gradientTransform="rotate(98.853 1076.228 250.67)"><stop offset="0" stop-color="#858688"/><stop offset=".497" stop-color="#cfd1d2"/><stop offset="1" stop-color="#7c7d7f"/></linearGradient><path fill="none" stroke="url(#SVGID_14_)" stroke-width=".368" stroke-miterlimit="10" d="M383 280.5l7.1 31.1"/><linearGradient id="SVGID_15_" gradientUnits="userSpaceOnUse" x1="1195.792" y1="949.461" x2="1216.635" y2="949.461" gradientTransform="rotate(98.853 1076.228 250.67)"><stop offset="0" stop-color="#858688"/><stop offset=".497" stop-color="#cfd1d2"/><stop offset="1" stop-color="#7c7d7f"/></linearGradient><path fill="none" stroke="url(#SVGID_15_)" stroke-width=".368" stroke-miterlimit="10" d="M370 261.7l-8.5 19.7"/><linearGradient id="SVGID_16_" gradientUnits="userSpaceOnUse" x1="1099.522" y1="933.877" x2="1112.938" y2="933.877" gradientTransform="rotate(98.853 1076.228 250.67)"><stop offset="0" stop-color="#858688"/><stop offset=".497" stop-color="#cfd1d2"/><stop offset="1" stop-color="#7c7d7f"/></linearGradient><path fill="none" stroke="url(#SVGID_16_)" stroke-width=".368" stroke-miterlimit="10" d="M413.5 184.4l-16.5-2.6-17.3-15.9"/><linearGradient id="SVGID_17_" gradientUnits="userSpaceOnUse" x1="1036.775" y1="954.445" x2="1054.739" y2="954.445" gradientTransform="rotate(98.853 1076.228 250.67)"><stop offset="0" stop-color="#858688"/><stop offset=".497" stop-color="#cfd1d2"/><stop offset="1" stop-color="#7c7d7f"/></linearGradient><path fill="none" stroke="url(#SVGID_17_)" stroke-width=".368" stroke-miterlimit="10" d="M382.7 103.3l7.1 9-5.2 8.3z"/><linearGradient id="SVGID_18_" gradientUnits="userSpaceOnUse" x1="1300.119" y1="758.006" x2="1322.468" y2="758.006" gradientTransform="rotate(98.853 1076.228 250.67)"><stop offset="0" stop-color="#858688"/><stop offset=".497" stop-color="#cfd1d2"/><stop offset="1" stop-color="#7c7d7f"/></linearGradient><path fill="none" stroke="url(#SVGID_18_)" stroke-width=".368" stroke-miterlimit="10" d="M534.5 393.4l10.7 10.4-5.8 11.9z"/><linearGradient id="SVGID_19_" gradientUnits="userSpaceOnUse" x1="1017.344" y1="739.722" x2="1026.388" y2="739.722" gradientTransform="rotate(98.853 1076.228 250.67)"><stop offset="0" stop-color="#858688"/><stop offset=".497" stop-color="#cfd1d2"/><stop offset="1" stop-color="#7c7d7f"/></linearGradient><path fill="none" stroke="url(#SVGID_19_)" stroke-width=".368" stroke-miterlimit="10" d="M607.4 118.7l-5.5 7.5-6.6-1.6z"/><linearGradient id="SVGID_20_" gradientUnits="userSpaceOnUse" x1="1254.321" y1="965.337" x2="1268.188" y2="965.337" gradientTransform="rotate(98.853 1076.228 250.67)"><stop offset="0" stop-color="#858688"/><stop offset=".497" stop-color="#cfd1d2"/><stop offset="1" stop-color="#7c7d7f"/></linearGradient><path fill="none" stroke="url(#SVGID_20_)" stroke-width=".368" stroke-miterlimit="10" d="M336.1 316.1l12.3 7.8-6 6.4z"/><path class="st22" d="M524.9 154.5l15.9 3.7-9.9-29.8 8.5 4.8"/><path class="st22" d="M517.3 168.9l7.6-14.4 13 24.2 2.9-20.5 21.6 5 8.5-9.2-28.6-19.9-17.4 20.4-7.4-37.9"/><path class="st22" d="M530.9 128.4L493 141l-24.3.4-2.2-18-20.1 14.5-18.4-2.6-30.4 23.7 37.3 9.2-71.4 53.9"/><path class="st22" d="M379.7 165.9l-1.3 45 9.5 35.6 7 15.6 25.6 13.1-59 6.2 11.2 14.9 36.3 2-26-17.8-26.8-39.7 31.7 5.7 39.8-10.5-31.9-11 37.7-28-20-12.6v-21.6M567 305.9l8.8 26.1-34.4-8.6 2.2 34-16.8-3-4.7 16.9-43.1-24.1 11.6 27.5 16.8-32.1-17.3-9.2M616 261.3l-47.9 17-24.6-6.6"/><path class="st22" d="M411.7 258.9l-16.8 3.2-38.7-21.3 39.6-15.8 1.8-66m-2.7 103.1l-49.3-.6m125.9 113.8l-11.8-31.6-19.2 22.8m167-167.2l-27.3 7.7-19.6-31.9 27.4-16.3"/><path class="st22" d="M595.3 184.7L580.2 207l29 18.5-37.9 2.3 27 73.4-31.3 4.7 1.1-27.6 55.4 1.2M363.1 175.1l33.9 6.7 27.7-32.3 13.5 5.1m-80.5 149.7l44.4 18.1-29.4-26.1m23.1-71.3l-.9 37.1-11.9 18.4 27.4 8"/><path class="st22" d="M590.7 172.2l-36.2 27.4 25.7 7.4-8.9 20.8-3.2 25.2"/><path class="st22" d="M631.1 234.7l-45.4 15.9-14.4-22.8m-4 120.4l-25.9-24.8m44.3-72.8l-5 23.2L616 240M428 135.3l-3.3 14.2 10.2 18.7m42.9-70.9l3.6 56.9 19.6-5.3-9-28 14.1 2.1-37.4 18.4 25.7 25.4m-67.9 52.3l-30-21.9-45.2-15.6 12.9 17.5m-24 77.6l30.1-14.9m155.8 73l-18.7 7.8-28.4 4.6-13.1 16-19.2-5.2-7.6-16.9-13.2 13.7-10.2-17.5-20.6-6.9 7-8 6.9-24.1 1.4-9.8 11-10m46.8 32.4l-6.8 7.6"/><path class="st22" d="M431.6 312.9l29.8 5.6-1.7 25.2 30.4-10.3h27.2m-148.2-8.9l33-2.1 11.7-8.1-24-2.8-1.8 46.6"/><path class="st22" d="M477.2 329.3l-17.5 14.4-20.6-2.6-12.4-2-15.2 7.6-14.6-7.2-8.9 18.6"/><path class="st22" d="M368.5 329.3l4.2-33-32.5-19.6 4.2-30.7 19.1-23.9.7-23-1.3-30.7 16-25 31.3-7.9 18.8-26.7 37.5 14.6 11.3-26.1 29.9 10.8 23.2 20.3 36.2-8.1 23.5 28.8 19.4 12.2-14.7 23.4 35.7 24-21.8 16.8 19.8 42.4-14.4 30.5-5.3 22.4-33.5 11.2-2.5 33.8-29.7-8.4-24.3 28.2-28.7-10.9-27.8 12.9-22.3-21.1-33.3 4.9-9.9-31.6z"/><path class="st22" d="M442 383.8l-16.1-29-37.9 3.3-14.7-27.1-15.6-26.7 3.8-22.9-19.2-23.9-3.6-31 22.3-23.6-2.2-33.8 38.8-10.1-5.4-28 34.6 1.1 27.4-6.3 42-28.5 9.9 25.7 31.3-17.5 2 27.7 43-1.8 8.3 40.8 25.1 8.1 6.4 33.1 8.9 21.3-15.1 26.6 12.7 30.9-30.4 9-1.4 38.9-29.6 8.1-14.8 26.9-30.4-3.8-24 23.7-26.6-19.7z"/><path class="st22" d="M401.6 362.9l-6.5-32.5-37-8.4-5.7-30.3-6.8-30.2 10.6-20.7-10.9-28.6 6-30.6 28.4-15.7 9.9-18.1 38.4-12.5 21.2-33.4 14.8 16.7 28 2.3 48.7-14.2 1.6 27.4 35.1-7-6.5 26.9 41.5 11.4-4.9 33.9 21.7 22.9-3.9 33.5 2 22.9-22.6 20.8 2.7 33.3-31.6-.7-13.3 36.6-30.7-1.3-22.3 21.1-27.8-12.9-30.1 15.2-15.8-31z"/><path class="st22" d="M555 250.6l13.1 2.4-24.6 18.7 55.8-15.7-.4-10-8.3-19.5 3.6-10.6 13.3-16.6m-126.1-45.1l-18.9 16 6.5-28.8m-9.3 16.7l-19.9 27.3-4.9-17.2-1.4 28.8m4.7-42.4l-3.3 13.6 24.8-10.1-12.8-20.1z"/><path class="st22" d="M438.2 154.6l21.5 3.5 9-16.7-21.8-3.4 7.3-12.2 12.3-2.4m-39.8 215.7l-24.6-16.7 13.6 14.9zm34.7-20.6l-22.3 22.6-7.5-28.2-4.9 26.2m-24.6-16.7l23.7-14.6-16.8-9.5-18.9 13.3m100 21.8L479 347.2l-19.3-3.5m67.1 10.7l-19.4-11.8 9.9-9.2 24.1-10"/><path class="st22" d="M568.1 278.3l-26.7 45.1-8.3 9.7 10.5 24.3-17.5-22.6 7-1.7m10.5 24.3l23.7-9.2m-6.7-173.1l1.8-11.9-26.9-21.1m10.2 46.5l-4.9-30.4 19.8 16.9-14.9 13.5 23.2.1m-48.5-57.1l-26 35.2m65.1 58.9l11.8 2.1"/><path class="st22" d="M583.6 260.4l-15.5-7.4v25.3l30.2 22.9-22.5 30.8-38.7-38.7 29.9 12.6-23.5-34.2m-67.1 43.7l-37.3 25.7 7.6-28.5m-21.1-85.2l-29.8-2.4 17.7-40.6M383 280.5l39.2-12.4m-9.3-4.7l-2.5 25.1m-1.4 9.8l17.6-8.5m35.9-119.6l-2.8-12.1m165.4 176.4l-8.8 4.8 8.2 7.5"/><path fill="none" stroke="#8fe0f9" stroke-width=".735" stroke-miterlimit="10" d="M352.3 338.9l4.1 1.8-1.6 4z"/><path class="st22" d="M508.8 78.3l-7.2 12-3.3-8.6zm-75.3 309.3l8.3 13.4-7.7 21.3zm-96.4-106.9l9.1 9.3-11.3 8.8zm287.1-109.6l-.4 10.6 8.5-9.3zm-257.5-44.8l.6 14.4-7.2-3.2zm44.6-37.7l5.9 4.8-4.8 4.4zm170.5 271.6l-3.9 6.8 8.2 11.6zm67.1-92l-14.1-6.9 1.9 15.4zM460.2 399.6l-5.3 6.7 6.5 4.6zm22.5-317.9l-8 6.3-8.1-8.8m50.7 323.4l-7.9 5.2"/></g><path fill="none" stroke="#8fe0f9" stroke-width=".368" stroke-miterlimit="10" d="M477.2 329.3l-.8-13.9-8.2-4.5-21.5 1.7-15.1.3-5.8-5.1-.2-6.4 1-11.6-2.9-4.3-.8-2.9 1.3-2.5-2.8-1.6-.9-3.3 1.7-3.2v-3.9l-9.3-4.7-1.2-4.5 7-10.6 9-12.3-2.1-8.6.9-8.3 7-22.1 6.3-11.6 22.7-15.2 26.5-3.8 28.3 2.5 20.6 9.8 16.6 20.9 5 26.1-4.5 24.9-11.5 21.1-6.4 21.6 4.3 30.1"/><g class="st1"><radialGradient id="SVGID_21_" cx="523.026" cy="488.147" r="2.941" gradientTransform="matrix(1.3599 .4141 -3.3089 10.8662 1333.812 -5312.464)" gradientUnits="userSpaceOnUse"><stop offset=".005" stop-color="#fff"/><stop offset=".048" stop-color="#f1f0f0" stop-opacity=".956"/><stop offset=".246" stop-color="#b2b0ae" stop-opacity=".755"/><stop offset=".434" stop-color="#7e7a77" stop-opacity=".564"/><stop offset=".608" stop-color="#56504d" stop-opacity=".387"/><stop offset=".764" stop-color="#39322e" stop-opacity=".229"/><stop offset=".896" stop-color="#27201c" stop-opacity=".095"/><stop offset=".989" stop-color="#211915" stop-opacity="0"/></radialGradient><path d="M433.4 209.5c-5.4 17.6-11.3 31.5-13.3 30.9-2-.6.8-15.4 6.2-33s11.3-31.5 13.3-30.9c1.9.6-.8 15.4-6.2 33z" fill="url(#SVGID_21_)"/><radialGradient id="SVGID_22_" cx="523.026" cy="488.147" r="2.941" gradientTransform="matrix(1.3599 .4141 -3.3089 10.8662 1333.812 -5312.464)" gradientUnits="userSpaceOnUse"><stop offset=".005" stop-color="#fff"/><stop offset=".048" stop-color="#f1f0f0" stop-opacity=".956"/><stop offset=".246" stop-color="#b2b0ae" stop-opacity=".755"/><stop offset=".434" stop-color="#7e7a77" stop-opacity=".564"/><stop offset=".608" stop-color="#56504d" stop-opacity=".387"/><stop offset=".764" stop-color="#39322e" stop-opacity=".229"/><stop offset=".896" stop-color="#27201c" stop-opacity=".095"/><stop offset=".989" stop-color="#211915" stop-opacity="0"/></radialGradient><path d="M433.4 209.5c-5.4 17.6-11.3 31.5-13.3 30.9-2-.6.8-15.4 6.2-33s11.3-31.5 13.3-30.9c1.9.6-.8 15.4-6.2 33z" fill="url(#SVGID_22_)"/><radialGradient id="SVGID_23_" cx="592.97" cy="140.891" r="2.059" gradientTransform="matrix(1.4037 -.2249 1.797 11.2149 -546.257 -1137.537)" gradientUnits="userSpaceOnUse"><stop offset=".005" stop-color="#fff"/><stop offset=".048" stop-color="#f1f0f0" stop-opacity=".956"/><stop offset=".246" stop-color="#b2b0ae" stop-opacity=".755"/><stop offset=".434" stop-color="#7e7a77" stop-opacity=".564"/><stop offset=".608" stop-color="#56504d" stop-opacity=".387"/><stop offset=".764" stop-color="#39322e" stop-opacity=".229"/><stop offset=".896" stop-color="#27201c" stop-opacity=".095"/><stop offset=".989" stop-color="#211915" stop-opacity="0"/></radialGradient><path d="M541.9 308.8c2 12.8 2.5 23.3 1.1 23.5-1.4.2-4.2-9.9-6.3-22.7-2-12.8-2.5-23.3-1.1-23.5s4.2 9.9 6.3 22.7z" fill="url(#SVGID_23_)"/><radialGradient id="SVGID_24_" cx="592.97" cy="140.891" r="2.059" gradientTransform="matrix(1.4037 -.2249 1.797 11.2149 -546.257 -1137.537)" gradientUnits="userSpaceOnUse"><stop offset=".005" stop-color="#fff"/><stop offset=".048" stop-color="#f1f0f0" stop-opacity=".956"/><stop offset=".246" stop-color="#b2b0ae" stop-opacity=".755"/><stop offset=".434" stop-color="#7e7a77" stop-opacity=".564"/><stop offset=".608" stop-color="#56504d" stop-opacity=".387"/><stop offset=".764" stop-color="#39322e" stop-opacity=".229"/><stop offset=".896" stop-color="#27201c" stop-opacity=".095"/><stop offset=".989" stop-color="#211915" stop-opacity="0"/></radialGradient><path d="M541.9 308.8c2 12.8 2.5 23.3 1.1 23.5-1.4.2-4.2-9.9-6.3-22.7-2-12.8-2.5-23.3-1.1-23.5s4.2 9.9 6.3 22.7z" fill="url(#SVGID_24_)"/><radialGradient id="SVGID_25_" cx="625.515" cy="77.974" r="2.059" gradientTransform="matrix(1.4022 .2341 -1.8709 11.2036 -173.896 -782.915)" gradientUnits="userSpaceOnUse"><stop offset=".005" stop-color="#fff"/><stop offset=".048" stop-color="#f1f0f0" stop-opacity=".956"/><stop offset=".246" stop-color="#b2b0ae" stop-opacity=".755"/><stop offset=".434" stop-color="#7e7a77" stop-opacity=".564"/><stop offset=".608" stop-color="#56504d" stop-opacity=".387"/><stop offset=".764" stop-color="#39322e" stop-opacity=".229"/><stop offset=".896" stop-color="#27201c" stop-opacity=".095"/><stop offset=".989" stop-color="#211915" stop-opacity="0"/></radialGradient><path d="M559.9 237.5c-2.1 12.7-5 22.9-6.4 22.6-1.4-.2-.9-10.8 1.3-23.5 2.1-12.7 5-22.9 6.4-22.6 1.4.3.8 10.8-1.3 23.5z" fill="url(#SVGID_25_)"/><radialGradient id="SVGID_26_" cx="625.515" cy="77.974" r="2.059" gradientTransform="matrix(1.4022 .2341 -1.8709 11.2036 -173.896 -782.915)" gradientUnits="userSpaceOnUse"><stop offset=".005" stop-color="#fff"/><stop offset=".048" stop-color="#f1f0f0" stop-opacity=".956"/><stop offset=".246" stop-color="#b2b0ae" stop-opacity=".755"/><stop offset=".434" stop-color="#7e7a77" stop-opacity=".564"/><stop offset=".608" stop-color="#56504d" stop-opacity=".387"/><stop offset=".764" stop-color="#39322e" stop-opacity=".229"/><stop offset=".896" stop-color="#27201c" stop-opacity=".095"/><stop offset=".989" stop-color="#211915" stop-opacity="0"/></radialGradient><path d="M559.9 237.5c-2.1 12.7-5 22.9-6.4 22.6-1.4-.2-.9-10.8 1.3-23.5 2.1-12.7 5-22.9 6.4-22.6 1.4.3.8 10.8-1.3 23.5z" fill="url(#SVGID_26_)"/><radialGradient id="SVGID_27_" cx="481.307" cy="273.93" r="2.628" gradientTransform="matrix(1.1806 .7918 -6.3271 9.4327 1585.412 -2718.85)" gradientUnits="userSpaceOnUse"><stop offset=".005" stop-color="#fff"/><stop offset=".048" stop-color="#f1f0f0" stop-opacity=".956"/><stop offset=".246" stop-color="#b2b0ae" stop-opacity=".755"/><stop offset=".434" stop-color="#7e7a77" stop-opacity=".564"/><stop offset=".608" stop-color="#56504d" stop-opacity=".387"/><stop offset=".764" stop-color="#39322e" stop-opacity=".229"/><stop offset=".896" stop-color="#27201c" stop-opacity=".095"/><stop offset=".989" stop-color="#211915" stop-opacity="0"/></radialGradient><path d="M423.2 248c-9.2 13.7-17.9 24-19.4 22.9-1.5-1 4.7-13 13.8-26.6 9.2-13.7 17.9-24 19.4-22.9 1.6 1-4.6 12.9-13.8 26.6z" fill="url(#SVGID_27_)"/><radialGradient id="SVGID_28_" cx="481.307" cy="273.93" r="2.628" gradientTransform="matrix(1.1806 .7918 -6.3271 9.4327 1585.412 -2718.85)" gradientUnits="userSpaceOnUse"><stop offset=".005" stop-color="#fff"/><stop offset=".048" stop-color="#f1f0f0" stop-opacity=".956"/><stop offset=".246" stop-color="#b2b0ae" stop-opacity=".755"/><stop offset=".434" stop-color="#7e7a77" stop-opacity=".564"/><stop offset=".608" stop-color="#56504d" stop-opacity=".387"/><stop offset=".764" stop-color="#39322e" stop-opacity=".229"/><stop offset=".896" stop-color="#27201c" stop-opacity=".095"/><stop offset=".989" stop-color="#211915" stop-opacity="0"/></radialGradient><path d="M423.2 248c-9.2 13.7-17.9 24-19.4 22.9-1.5-1 4.7-13 13.8-26.6 9.2-13.7 17.9-24 19.4-22.9 1.6 1-4.6 12.9-13.8 26.6z" fill="url(#SVGID_28_)"/><radialGradient id="SVGID_29_" cx="132.737" cy="-551.65" r="13.479" gradientTransform="matrix(.5266 -1.9062 .1565 .0432 587.735 504.392)" gradientUnits="userSpaceOnUse"><stop offset=".005" stop-color="#fff"/><stop offset=".048" stop-color="#f1f0f0" stop-opacity=".956"/><stop offset=".246" stop-color="#b2b0ae" stop-opacity=".755"/><stop offset=".434" stop-color="#7e7a77" stop-opacity=".564"/><stop offset=".608" stop-color="#56504d" stop-opacity=".387"/><stop offset=".764" stop-color="#39322e" stop-opacity=".229"/><stop offset=".896" stop-color="#27201c" stop-opacity=".095"/><stop offset=".989" stop-color="#211915" stop-opacity="0"/></radialGradient><path d="M578.4 201.8c1.2.3-1.1 12.1-5 26.3-3.9 14.2-8 25.4-9.2 25.1-1.2-.3 1.1-12.1 5-26.3 3.9-14.1 8-25.4 9.2-25.1z" fill="url(#SVGID_29_)"/><radialGradient id="SVGID_30_" cx="308.335" cy="-7413.206" r="13.479" gradientTransform="matrix(-1.9062 -.5266 .0432 -.1565 1479.3 -770.26)" gradientUnits="userSpaceOnUse"><stop offset=".005" stop-color="#fff"/><stop offset=".048" stop-color="#f1f0f0" stop-opacity=".956"/><stop offset=".246" stop-color="#b2b0ae" stop-opacity=".755"/><stop offset=".434" stop-color="#7e7a77" stop-opacity=".564"/><stop offset=".608" stop-color="#56504d" stop-opacity=".387"/><stop offset=".764" stop-color="#39322e" stop-opacity=".229"/><stop offset=".896" stop-color="#27201c" stop-opacity=".095"/><stop offset=".989" stop-color="#211915" stop-opacity="0"/></radialGradient><path d="M545.6 220.4c.3-1.2 12.1 1.1 26.3 5 14.2 3.9 25.4 8 25.1 9.2-.3 1.2-12.1-1.1-26.3-5-14.2-3.9-25.4-8-25.1-9.2z" fill="url(#SVGID_30_)"/><radialGradient id="SVGID_31_" cx="2236.298" cy="810.61" r="15.263" gradientTransform="rotate(-29.557 298.827 3675.23)" gradientUnits="userSpaceOnUse"><stop offset=".005" stop-color="#fff"/><stop offset=".064" stop-color="#dcdbda" stop-opacity=".941"/><stop offset=".147" stop-color="#b1aeac" stop-opacity=".856"/><stop offset=".237" stop-color="#8a8684" stop-opacity=".765"/><stop offset=".33" stop-color="#6a6461" stop-opacity=".67"/><stop offset=".429" stop-color="#4f4946" stop-opacity=".569"/><stop offset=".535" stop-color="#3b3430" stop-opacity=".461"/><stop offset=".652" stop-color="#2c2521" stop-opacity=".343"/><stop offset=".788" stop-color="#241c18" stop-opacity=".204"/><stop offset=".989" stop-color="#211915" stop-opacity="0"/></radialGradient><path d="M584.4 220.1c4.2 7.3 1.6 16.6-5.7 20.8-7.3 4.2-16.6 1.6-20.8-5.7-4.2-7.3-1.6-16.6 5.7-20.8 7.3-4.2 16.6-1.6 20.8 5.7z" fill="url(#SVGID_31_)"/><radialGradient id="SVGID_32_" cx="70.171" cy="-662.11" r="9.297" gradientTransform="matrix(1.0772 -1.6585 .1362 .0885 477.043 345.224)" gradientUnits="userSpaceOnUse"><stop offset=".005" stop-color="#fff"/><stop offset=".048" stop-color="#f1f0f0" stop-opacity=".956"/><stop offset=".246" stop-color="#b2b0ae" stop-opacity=".755"/><stop offset=".434" stop-color="#7e7a77" stop-opacity=".564"/><stop offset=".608" stop-color="#56504d" stop-opacity=".387"/><stop offset=".764" stop-color="#39322e" stop-opacity=".229"/><stop offset=".896" stop-color="#27201c" stop-opacity=".095"/><stop offset=".989" stop-color="#211915" stop-opacity="0"/></radialGradient><path d="M472.5 154.8c.7.5-3.2 7.7-8.7 16.2-5.5 8.5-10.6 15.1-11.3 14.6-.7-.5 3.2-7.7 8.7-16.2 5.5-8.5 10.6-15 11.3-14.6z" fill="url(#SVGID_32_)"/><radialGradient id="SVGID_33_" cx="317.312" cy="-8173.737" r="9.297" gradientTransform="matrix(-1.6585 -1.0772 .0885 -.1362 1712.09 -601.206)" gradientUnits="userSpaceOnUse"><stop offset=".005" stop-color="#fff"/><stop offset=".048" stop-color="#f1f0f0" stop-opacity=".956"/><stop offset=".246" stop-color="#b2b0ae" stop-opacity=".755"/><stop offset=".434" stop-color="#7e7a77" stop-opacity=".564"/><stop offset=".608" stop-color="#56504d" stop-opacity=".387"/><stop offset=".764" stop-color="#39322e" stop-opacity=".229"/><stop offset=".896" stop-color="#27201c" stop-opacity=".095"/><stop offset=".989" stop-color="#211915" stop-opacity="0"/></radialGradient><path d="M447 160.2c.5-.7 7.7 3.2 16.2 8.7 8.5 5.5 15.1 10.6 14.6 11.3-.5.7-7.7-3.2-16.2-8.7-8.5-5.5-15-10.6-14.6-11.3z" fill="url(#SVGID_33_)"/><radialGradient id="SVGID_34_" cx="2136.238" cy="885.541" r="10.53" gradientTransform="rotate(-11.993 -2105.247 8495.77)" gradientUnits="userSpaceOnUse"><stop offset=".005" stop-color="#fff"/><stop offset=".064" stop-color="#dcdbda" stop-opacity=".941"/><stop offset=".147" stop-color="#b1aeac" stop-opacity=".856"/><stop offset=".237" stop-color="#8a8684" stop-opacity=".765"/><stop offset=".33" stop-color="#6a6461" stop-opacity=".67"/><stop offset=".429" stop-color="#4f4946" stop-opacity=".569"/><stop offset=".535" stop-color="#3b3430" stop-opacity=".461"/><stop offset=".652" stop-color="#2c2521" stop-opacity=".343"/><stop offset=".788" stop-color="#241c18" stop-opacity=".204"/><stop offset=".989" stop-color="#211915" stop-opacity="0"/></radialGradient><path d="M472.6 168.1c1.2 5.7-2.4 11.3-8.1 12.5-5.7 1.2-11.3-2.4-12.5-8.1-1.2-5.7 2.4-11.3 8.1-12.5 5.7-1.2 11.3 2.4 12.5 8.1z" fill="url(#SVGID_34_)"/></g></g><g class="st0"><g class="st1"><image width="18" height="19" xlink:href="4AA2C293.png" transform="translate(374.381 271.381)" overflow="visible" opacity=".75"/><path class="st39" d="M382.7 282.4c-1.1-.2-1.8-1.2-1.6-2.2.2-1.1 1.2-1.8 2.2-1.6 1.1.2 1.8 1.2 1.6 2.2-.1 1-1.1 1.8-2.2 1.6z"/></g><g class="st1"><image width="24" height="24" xlink:href="4AA2C29C.png" transform="translate(457.423 129.423)" overflow="visible" opacity=".75"/><path class="st39" d="M468.6 143.9c-1.4-.2-2.3-1.5-2.1-2.9.2-1.4 1.5-2.3 2.9-2.1 1.4.2 2.3 1.5 2.1 2.9-.2 1.4-1.5 2.4-2.9 2.1z"/></g><g class="st1"><image width="13" height="13" xlink:href="4AA2C29F.png" transform="translate(609.758 233.758)" overflow="visible" opacity=".75"/><path class="st39" d="M615.8 241.2c-.7-.1-1.2-.7-1-1.4.1-.7.7-1.2 1.4-1 .7.1 1.2.7 1 1.4-.1.7-.7 1.1-1.4 1z"/></g><g class="st1"><image width="13" height="12" xlink:href="4AA2C29D.png" transform="translate(609.758 255.758)" overflow="visible" opacity=".75"/><path class="st39" d="M615.7 262.8c-.7-.1-1.2-.7-1-1.4.1-.7.7-1.2 1.4-1 .7.1 1.2.7 1 1.4 0 .6-.7 1.1-1.4 1z"/></g><g class="st1"><image width="13" height="12" xlink:href="4AA2C292.png" transform="translate(591.758 295.758)" overflow="visible" opacity=".75"/><path class="st39" d="M598 302.5c-.7-.1-1.2-.7-1-1.4.1-.7.7-1.2 1.4-1 .7.1 1.2.7 1 1.4-.1.7-.7 1.2-1.4 1z"/></g><g class="st1"><image width="13" height="13" xlink:href="4AA2C296.png" transform="translate(622.758 285.758)" overflow="visible" opacity=".75"/><path class="st39" d="M628.6 293.2c-.7-.1-1.2-.7-1-1.4.1-.7.7-1.2 1.4-1 .7.1 1.2.7 1 1.4-.1.6-.7 1.1-1.4 1z"/></g><g class="st1"><image width="13" height="13" xlink:href="4AA2C297.png" transform="translate(569.758 325.758)" overflow="visible" opacity=".75"/><path class="st39" d="M575.6 333c-.7-.1-1.2-.7-1-1.4.1-.7.7-1.2 1.4-1 .7.1 1.2.7 1 1.4-.1.7-.7 1.2-1.4 1z"/></g><g class="st1"><image width="13" height="12" xlink:href="C9861FB3.png" transform="translate(574.758 267.758)" overflow="visible" opacity=".75"/><path class="st39" d="M580.6 274.6c-.7-.1-1.2-.7-1-1.4.1-.7.7-1.2 1.4-1 .7.1 1.2.7 1 1.4-.1.7-.7 1.1-1.4 1z"/></g><g class="st1"><image width="13" height="13" xlink:href="C9861FB1.png" transform="translate(581.758 279.758)" overflow="visible" opacity=".75"/><path class="st39" d="M588.1 287.4c-.7-.1-1.2-.7-1-1.4.1-.7.7-1.2 1.4-1 .7.1 1.2.7 1 1.4-.1.7-.8 1.1-1.4 1z"/></g><g class="st1"><image width="13" height="13" xlink:href="C9861FB7.png" transform="translate(560.758 299.758)" overflow="visible" opacity=".75"/><path class="st39" d="M566.9 307.2c-.7-.1-1.2-.7-1-1.4.1-.7.7-1.2 1.4-1 .7.1 1.2.7 1 1.4-.1.6-.7 1.1-1.4 1z"/></g><g class="st1"><image width="13" height="13" xlink:href="C9861FB2.png" transform="translate(602.758 314.758)" overflow="visible" opacity=".75"/><path class="st39" d="M609 322c-.7-.1-1.2-.7-1-1.4.1-.7.7-1.2 1.4-1 .7.1 1.2.7 1 1.4 0 .6-.7 1.1-1.4 1z"/></g><g class="st1"><image width="12" height="12" xlink:href="C9861FAD.png" transform="translate(567.758 359.758)" overflow="visible" opacity=".75"/><path class="st39" d="M573.1 366.9c-.7-.1-1.2-.7-1-1.4.1-.7.7-1.2 1.4-1 .7.1 1.2.7 1 1.4 0 .7-.7 1.1-1.4 1z"/></g><g class="st1"><image width="12" height="12" xlink:href="C9861FAE.png" transform="translate(579.758 244.758)" overflow="visible" opacity=".75"/><path class="st39" d="M585.4 251.8c-.7-.1-1.2-.7-1-1.4.1-.7.7-1.2 1.4-1 .7.1 1.2.7 1 1.4 0 .6-.7 1.1-1.4 1z"/></g><g class="st1"><image width="12" height="13" xlink:href="C9861FAF.png" transform="translate(574.758 200.758)" overflow="visible" opacity=".75"/><path class="st39" d="M580.2 208.3c-.7-.1-1.2-.7-1-1.4.1-.7.7-1.2 1.4-1 .7.1 1.2.7 1 1.4-.1.6-.7 1.1-1.4 1z"/></g><g class="st1"><image width="13" height="12" xlink:href="C9861FD1.png" transform="translate(362.516 318.516)" overflow="visible" opacity=".75"/><path class="st39" d="M368.9 325.8c-.7-.1-1.2-.8-1.1-1.5.1-.7.8-1.2 1.5-1.1.7.1 1.2.8 1.1 1.5-.1.7-.7 1.2-1.5 1.1z"/></g><g class="st1"><image width="13" height="13" xlink:href="C9861FD3.png" transform="translate(351.516 297.516)" overflow="visible" opacity=".75"/><path class="st39" d="M357.5 305.6c-.7-.1-1.2-.8-1.1-1.5.1-.7.8-1.2 1.5-1.1.7.1 1.2.8 1.1 1.5-.1.7-.8 1.2-1.5 1.1z"/></g><g class="st1"><image width="13" height="12" xlink:href="C9861FD6.png" transform="translate(333.516 270.516)" overflow="visible" opacity=".75"/><path class="st39" d="M340 278c-.7-.1-1.2-.8-1.1-1.5.1-.7.8-1.2 1.5-1.1.7.1 1.2.8 1.1 1.5-.1.7-.8 1.2-1.5 1.1z"/></g><g class="st1"><image width="12" height="12" xlink:href="C9861FCA.png" transform="translate(366.516 290.516)" overflow="visible" opacity=".75"/><path class="st39" d="M372.4 297.8c-.7-.1-1.2-.8-1.1-1.5.1-.7.8-1.2 1.5-1.1.7.1 1.2.8 1.1 1.5-.1.7-.7 1.2-1.5 1.1z"/></g><g class="st1"><image width="13" height="13" xlink:href="C9861FC9.png" transform="translate(381.516 351.516)" overflow="visible" opacity=".75"/><path class="st39" d="M387.8 359.5c-.7-.1-1.2-.8-1.1-1.5.1-.7.8-1.2 1.5-1.1.7.1 1.2.8 1.1 1.5-.1.7-.7 1.2-1.5 1.1z"/></g><g class="st1"><image width="13" height="13" xlink:href="C9861FF6.png" transform="translate(400.516 364.516)" overflow="visible" opacity=".75"/><path class="st39" d="M407.1 372.6c-.7-.1-1.2-.8-1.1-1.5.1-.7.8-1.2 1.5-1.1.7.1 1.2.8 1.1 1.5-.1.7-.8 1.2-1.5 1.1z"/></g><g class="st1"><image width="10" height="10" xlink:href="C9861FF9.png" transform="translate(391.86 334.86)" overflow="visible" opacity=".75"/><path class="st39" d="M396.8 340.7c-.5-.1-.9-.6-.8-1.1.1-.5.6-.9 1.1-.8s.9.6.8 1.1c-.1.5-.6.8-1.1.8z"/></g><g class="st1"><image width="9" height="10" xlink:href="C9861FFA.png" transform="translate(385.86 306.86)" overflow="visible" opacity=".75"/><path class="st39" d="M389.9 312.5c-.5-.1-.9-.6-.8-1.1.1-.5.6-.9 1.1-.8.5.1.9.6.8 1.1-.1.5-.6.9-1.1.8z"/></g><g class="st1"><image width="10" height="10" xlink:href="C9861FF8.png" transform="translate(457.86 382.86)" overflow="visible" opacity=".75"/><circle transform="rotate(-58.74 462.805 387.586)" class="st39" cx="462.8" cy="387.6" r=".9"/></g><g class="st1"><image width="12" height="13" xlink:href="C9861FFE.png" transform="translate(405.735 252.735)" overflow="visible" opacity=".75"/><path class="st39" d="M411.5 260.2c-.7-.1-1.2-.8-1.1-1.4.1-.7.8-1.2 1.4-1.1.7.1 1.2.8 1.1 1.4 0 .7-.7 1.2-1.4 1.1z"/></g><g class="st1"><image width="10" height="10" xlink:href="C9861FFB.png" transform="translate(472.86 324.86)" overflow="visible" opacity=".75"/><path class="st39" d="M477.1 330.2c-.5-.1-.9-.6-.8-1.1.1-.5.6-.9 1.1-.8.5.1.9.6.8 1.1-.1.6-.6.9-1.1.8z"/></g><g class="st1"><image width="10" height="10" xlink:href="C9861FC6.png" transform="translate(420.954 349.954)" overflow="visible" opacity=".75"/><path class="st39" d="M425.7 355.8c-.5-.1-.8-.5-.8-1 .1-.5.5-.8 1-.8.5.1.8.5.8 1s-.5.9-1 .8z"/></g><g class="st1"><image width="9" height="10" xlink:href="C9861FC7.png" transform="translate(428.954 362.954)" overflow="visible" opacity=".75"/><path class="st39" d="M432.9 368.5c-.5-.1-.8-.5-.8-1 .1-.5.5-.8 1-.8.5.1.8.5.8 1-.1.5-.5.8-1 .8z"/></g><g class="st1"><image width="10" height="10" xlink:href="C986201D.png" transform="translate(466.954 370.954)" overflow="visible" opacity=".75"/><path class="st39" d="M471.3 376.2c-.5-.1-.8-.5-.8-1 .1-.5.5-.8 1-.8.5.1.8.5.8 1s-.5.9-1 .8z"/></g><g class="st1"><image width="10" height="10" xlink:href="C986201B.png" transform="translate(504.954 383.954)" overflow="visible" opacity=".75"/><path class="st39" d="M509.5 389.5c-.5-.1-.8-.5-.8-1 .1-.5.5-.8 1-.8.5.1.8.5.8 1s-.5.9-1 .8z"/></g><g class="st1"><image width="20" height="20" xlink:href="C9862025.png" transform="translate(516.95 344.95)" overflow="visible" opacity=".75"/><path class="st39" d="M526.6 356.7c-1.1-.2-1.9-1.2-1.7-2.4.2-1.1 1.2-1.9 2.4-1.7 1.1.2 1.9 1.2 1.7 2.4-.2 1.1-1.3 1.9-2.4 1.7z"/></g><g class="st1"><image width="19" height="19" xlink:href="C9862027.png" transform="translate(387.381 172.381)" overflow="visible" opacity=".75"/><path class="st39" d="M396.1 183.4c-1.1-.2-1.8-1.2-1.6-2.2s1.2-1.8 2.2-1.6c1.1.2 1.8 1.2 1.6 2.2-.1 1.1-1.1 1.8-2.2 1.6z"/></g><g class="st1"><image width="19" height="19" xlink:href="C9862024.png" transform="translate(336.381 203.381)" overflow="visible" opacity=".75"/><path class="st39" d="M344.9 214.6c-1.1-.2-1.8-1.2-1.6-2.2.2-1.1 1.2-1.8 2.2-1.6 1.1.2 1.8 1.2 1.6 2.2-.1 1-1.1 1.8-2.2 1.6z"/></g><g class="st1"><image width="8" height="9" xlink:href="C986202B.png" transform="translate(460.208 114.208)" overflow="visible" opacity=".75"/><path class="st39" d="M464 119.6c-.5-.1-.8-.5-.7-.9.1-.5.5-.8.9-.7.5.1.8.5.7.9 0 .5-.4.8-.9.7z"/></g><g class="st1"><image width="12" height="12" xlink:href="C986202D.png" transform="translate(421.966 129.966)" overflow="visible" opacity=".75"/><path class="st39" d="M427.5 136.4c-.7-.1-1.1-.7-1-1.4.1-.7.7-1.1 1.4-1 .7.1 1.1.7 1 1.4-.1.7-.7 1.1-1.4 1z"/></g><g class="st1"><image width="13" height="13" xlink:href="C986202F.png" transform="translate(373.966 159.966)" overflow="visible" opacity=".75"/><circle class="st39" cx="379.8" cy="165.9" r="1.2"/></g><g class="st1"><image width="13" height="12" xlink:href="C986202C.png" transform="translate(403.966 129.966)" overflow="visible" opacity=".75"/><path class="st39" d="M409.8 136.6c-.7-.1-1.1-.7-1-1.4.1-.7.7-1.1 1.4-1 .7.1 1.1.7 1 1.4-.1.6-.7 1.1-1.4 1z"/></g><g class="st1"><image width="13" height="13" xlink:href="C9862026.png" transform="translate(356.966 161.966)" overflow="visible" opacity=".75"/><path class="st39" d="M362.9 169c-.7-.1-1.1-.7-1-1.4.1-.7.7-1.1 1.4-1 .7.1 1.1.7 1 1.4-.2.7-.8 1.1-1.4 1z"/></g><g class="st1"><image width="19" height="19" xlink:href="C9862000.png" transform="translate(387.381 215.381)" overflow="visible" opacity=".75"/><path class="st39" d="M395.8 226.7c-1.1-.2-1.8-1.2-1.6-2.2.2-1.1 1.2-1.8 2.2-1.6 1.1.2 1.8 1.2 1.6 2.2-.2 1-1.2 1.8-2.2 1.6z"/></g><g class="st1"><image width="13" height="12" xlink:href="C9862003.png" transform="translate(410.874 236.874)" overflow="visible" opacity=".75"/><path class="st39" d="M417 243.6c-.7-.1-1.1-.7-1-1.4.1-.7.7-1.1 1.4-1 .7.1 1.1.7 1 1.4-.2.6-.8 1.1-1.4 1z"/></g><g class="st1"><image width="12" height="13" xlink:href="C9862001.png" transform="translate(420.874 212.874)" overflow="visible" opacity=".75"/><path class="st39" d="M426.4 220.3c-.7-.1-1.1-.7-1-1.4.1-.7.7-1.1 1.4-1 .7.1 1.1.7 1 1.4-.1.6-.7 1.1-1.4 1z"/></g><g class="st1"><image width="12" height="12" xlink:href="C9862007.png" transform="translate(406.874 209.874)" overflow="visible" opacity=".75"/><path class="st39" d="M412.3 216.6c-.7-.1-1.1-.7-1-1.4s.7-1.1 1.4-1c.7.1 1.1.7 1 1.4-.1.7-.8 1.1-1.4 1z"/></g><g class="st1"><image width="13" height="13" xlink:href="C9862002.png" transform="translate(354.874 196.874)" overflow="visible" opacity=".75"/><path class="st39" d="M360.8 204.3c-.7-.1-1.1-.7-1-1.4.1-.7.7-1.1 1.4-1 .7.1 1.1.7 1 1.4-.1.6-.7 1.1-1.4 1z"/></g><g class="st1"><image width="13" height="13" xlink:href="C986201C.png" transform="translate(357.874 192.874)" overflow="visible" opacity=".75"/><path class="st39" d="M364 200.3c-.7-.1-1.1-.7-1-1.4.1-.7.7-1.1 1.4-1 .7.1 1.1.7 1 1.4-.1.6-.7 1.1-1.4 1z"/></g><g class="st1"><image width="12" height="12" xlink:href="C986201E.png" transform="translate(345.874 175.874)" overflow="visible" opacity=".75"/><path class="st39" d="M351.1 182.8c-.7-.1-1.1-.7-1-1.4.1-.7.7-1.1 1.4-1 .7.1 1.1.7 1 1.4-.1.7-.7 1.1-1.4 1z"/></g><g class="st1"><image width="12" height="12" xlink:href="C986201F.png" transform="translate(336.874 251.874)" overflow="visible" opacity=".75"/><path class="st39" d="M342.4 258.7c-.7-.1-1.1-.7-1-1.4.1-.7.7-1.1 1.4-1 .7.1 1.1.7 1 1.4-.1.6-.7 1.1-1.4 1z"/></g><g class="st1"><image width="19" height="19" xlink:href="C9862004.png" transform="translate(415.381 140.381)" overflow="visible" opacity=".75"/><path class="st39" d="M424.4 151.4c-1.1-.2-1.8-1.2-1.6-2.2.2-1.1 1.2-1.8 2.2-1.6 1.1.2 1.8 1.2 1.6 2.2-.1 1.1-1.1 1.8-2.2 1.6z"/></g><g class="st1"><image width="19" height="19" xlink:href="C9862005.png" transform="translate(420.381 99.381)" overflow="visible" opacity=".75"/><path class="st39" d="M428.8 110.8c-1.1-.2-1.8-1.2-1.6-2.2.2-1.1 1.2-1.8 2.2-1.6 1.1.2 1.8 1.2 1.6 2.2-.2 1-1.2 1.8-2.2 1.6z"/></g><g class="st1"><image width="23" height="23" xlink:href="C986207F.png" transform="translate(435.953 126.953)" overflow="visible" opacity=".75"/><path class="st39" d="M446.5 140.4c-1.3-.2-2.2-1.4-2-2.7.2-1.3 1.4-2.2 2.7-2 1.3.2 2.2 1.4 2 2.7-.1 1.3-1.4 2.2-2.7 2z"/></g><g class="st1"><image width="13" height="13" xlink:href="C986207D.png" transform="translate(381.724 239.724)" overflow="visible" opacity=".75"/><path class="st39" d="M387.8 247.5c-.7-.1-1.2-.8-1.1-1.4.1-.7.8-1.2 1.4-1.1.7.1 1.2.8 1.1 1.4-.1.7-.7 1.2-1.4 1.1z"/></g><g class="st1"><image width="12" height="13" xlink:href="C986207B.png" transform="translate(350.724 234.724)" overflow="visible" opacity=".75"/><path class="st39" d="M356.2 242.2c-.7-.1-1.2-.8-1.1-1.4s.8-1.2 1.4-1.1c.7.1 1.2.8 1.1 1.4s-.7 1.2-1.4 1.1z"/></g><g class="st1"><image width="12" height="12" xlink:href="C9862065.png" transform="translate(339.724 255.724)" overflow="visible" opacity=".75"/><path class="st39" d="M345.5 262.7c-.7-.1-1.2-.8-1.1-1.4.1-.7.8-1.2 1.4-1.1.7.1 1.2.8 1.1 1.4-.1.8-.8 1.2-1.4 1.1z"/></g><g class="st1"><image width="13" height="12" xlink:href="C9862067.png" transform="translate(363.724 255.724)" overflow="visible" opacity=".75"/><path class="st39" d="M369.8 263c-.7-.1-1.2-.8-1.1-1.4.1-.7.8-1.2 1.4-1.1.7.1 1.2.8 1.1 1.4 0 .7-.7 1.2-1.4 1.1z"/></g><g class="st1"><image width="19" height="19" xlink:href="C986206A.png" transform="translate(393.381 313.381)" overflow="visible" opacity=".75"/><path class="st39" d="M401.8 324.3c-1.1-.2-1.8-1.2-1.6-2.2.2-1.1 1.2-1.8 2.2-1.6 1.1.2 1.8 1.2 1.6 2.2-.2 1-1.2 1.8-2.2 1.6z"/></g><g class="st1"><image width="17" height="17" xlink:href="C986206B.png" transform="translate(528.997 285.998)" overflow="visible" opacity=".75"/><path class="st39" d="M536.8 295.8c-1-.2-1.6-1.1-1.5-2 .2-1 1.1-1.6 2-1.5 1 .2 1.6 1.1 1.5 2-.1 1-1.1 1.6-2 1.5z"/></g><g class="st1"><image width="18" height="18" xlink:href="C986206D.png" transform="translate(532.997 314.998)" overflow="visible" opacity=".75"/><path class="st39" d="M541.1 325.1c-1-.2-1.6-1.1-1.5-2s1.1-1.6 2-1.5c1 .2 1.6 1.1 1.5 2-.1 1-1 1.7-2 1.5z"/></g><g class="st1"><image width="25" height="25" xlink:href="C986206F.png" transform="translate(533.816 175.816)" overflow="visible" opacity=".75"/><path class="st39" d="M545.3 190.9c-1.5-.2-2.5-1.6-2.3-3.1.2-1.5 1.6-2.5 3.1-2.3 1.5.2 2.5 1.6 2.3 3.1-.2 1.5-1.6 2.5-3.1 2.3z"/></g><g class="st1"><image width="19" height="19" xlink:href="C9862068.png" transform="translate(385.381 253.381)" overflow="visible" opacity=".75"/><path class="st39" d="M394.6 264c-1.1-.2-1.8-1.2-1.6-2.2.2-1.1 1.2-1.8 2.2-1.6 1.1.2 1.8 1.2 1.6 2.2-.1 1-1.1 1.8-2.2 1.6z"/></g><g class="st1"><image width="18" height="19" xlink:href="C986204E.png" transform="translate(406.381 328.381)" overflow="visible" opacity=".75"/><path class="st39" d="M414.7 339.3c-1.1-.2-1.8-1.2-1.6-2.2.2-1.1 1.2-1.8 2.2-1.6 1.1.2 1.8 1.2 1.6 2.2-.1 1-1.1 1.7-2.2 1.6z"/></g><g class="st1"><image width="8" height="8" xlink:href="C986204D.png" transform="translate(436.501 362.501)" overflow="visible" opacity=".75"/><path class="st39" d="M440.6 367.4c-.4-.1-.7-.4-.6-.8.1-.4.4-.7.8-.6.4.1.7.4.6.8-.1.4-.4.7-.8.6z"/></g><g class="st1"><image width="12" height="13" xlink:href="C986204A.png" transform="translate(420.88 283.88)" overflow="visible" opacity=".75"/><path class="st39" d="M426.4 291c-.7-.1-1.1-.7-1-1.4.1-.7.7-1.1 1.4-1 .7.1 1.1.7 1 1.4-.1.7-.7 1.1-1.4 1z"/></g><g class="st1"><image width="14" height="13" xlink:href="C9862035.png" transform="translate(469.458 309.458)" overflow="visible" opacity=".75"/><path class="st39" d="M475.9 316.8c-.7-.1-1.2-.8-1.1-1.5.1-.7.8-1.2 1.5-1.1.7.1 1.2.8 1.1 1.5-.1.7-.8 1.2-1.5 1.1z"/></g><g class="st1"><image width="14" height="14" xlink:href="C9862036.png" transform="translate(483.458 326.458)" overflow="visible" opacity=".75"/><path class="st39" d="M489.9 334.7c-.7-.1-1.2-.8-1.1-1.5.1-.7.8-1.2 1.5-1.1.7.1 1.2.8 1.1 1.5-.1.7-.8 1.2-1.5 1.1z"/></g><g class="st1"><image width="23" height="23" xlink:href="C9862034.png" transform="translate(482.521 146.521)" overflow="visible" opacity=".75"/><path class="st39" d="M493.2 160.3c-1.4-.2-2.3-1.5-2.1-2.9.2-1.4 1.5-2.3 2.9-2.1 1.4.2 2.3 1.5 2.1 2.9-.3 1.4-1.5 2.4-2.9 2.1z"/></g><g class="st1"><image width="23" height="23" xlink:href="C986203A.png" transform="translate(505.521 157.521)" overflow="visible" opacity=".75"/><path class="st39" d="M516.9 171.4c-1.4-.2-2.3-1.5-2.1-2.9.2-1.4 1.5-2.3 2.9-2.1 1.4.2 2.3 1.5 2.1 2.9-.2 1.4-1.5 2.3-2.9 2.1z"/></g><g class="st1"><image width="23" height="23" xlink:href="C986203D.png" transform="translate(467.521 335.521)" overflow="visible" opacity=".75"/><path class="st39" d="M478.7 349.2c-1.4-.2-2.3-1.5-2.1-2.9.2-1.4 1.5-2.3 2.9-2.1 1.4.2 2.3 1.5 2.1 2.9-.3 1.4-1.6 2.4-2.9 2.1z"/></g><g class="st1"><image width="14" height="14" xlink:href="C986203E.png" transform="translate(561.14 271.14)" overflow="visible" opacity=".75"/><path class="st39" d="M567.9 279.7c-.8-.1-1.3-.9-1.2-1.6.1-.8.9-1.3 1.6-1.2.8.1 1.3.9 1.2 1.6-.1.8-.8 1.3-1.6 1.2z"/></g><g class="st1"><image width="14" height="14" xlink:href="C986203C.png" transform="translate(560.14 341.14)" overflow="visible" opacity=".75"/><path class="st39" d="M567.1 349.7c-.8-.1-1.3-.9-1.2-1.6.1-.8.9-1.3 1.6-1.2.8.1 1.3.9 1.2 1.6-.1.7-.8 1.3-1.6 1.2z"/></g><g class="st1"><image width="14" height="14" xlink:href="C98620D1.png" transform="translate(624.14 228.14)" overflow="visible" opacity=".75"/><path class="st39" d="M630.9 236.3c-.8-.1-1.3-.9-1.2-1.6.1-.8.9-1.3 1.6-1.2.8.1 1.3.9 1.2 1.6-.1.8-.8 1.3-1.6 1.2z"/></g><g class="st1"><image width="13" height="14" xlink:href="C98620DF.png" transform="translate(456.14 163.14)" overflow="visible" opacity=".75"/><path class="st39" d="M462.2 171.7c-.8-.1-1.3-.9-1.2-1.6.1-.8.9-1.3 1.6-1.2.8.1 1.3.9 1.2 1.6 0 .8-.8 1.3-1.6 1.2z"/></g><g class="st1"><image width="13" height="14" xlink:href="C98620D0.png" transform="translate(548.14 192.14)" overflow="visible" opacity=".75"/><path class="st39" d="M554.3 200.7c-.8-.1-1.3-.9-1.2-1.6.1-.8.9-1.3 1.6-1.2.8.1 1.3.9 1.2 1.6s-.8 1.3-1.6 1.2z"/></g><g class="st1"><image width="11" height="11" xlink:href="C98620D3.png" transform="translate(489.277 161.277)" overflow="visible" opacity=".75"/><path class="st39" d="M494.2 167.9c-.6-.1-1-.7-.9-1.3.1-.6.7-1 1.3-.9.6.1 1 .7.9 1.3-.1.6-.7 1-1.3.9z"/></g><g class="st1"><image width="11" height="12" xlink:href="C98620D7.png" transform="translate(428.277 191.277)" overflow="visible" opacity=".75"/><path class="st39" d="M433.3 198c-.6-.1-1-.7-.9-1.3.1-.6.7-1 1.3-.9.6.1 1 .7.9 1.3-.1.6-.7 1-1.3.9z"/></g><g class="st1"><image width="11" height="12" xlink:href="C98620D2.png" transform="translate(417.277 262.277)" overflow="visible" opacity=".75"/><path class="st39" d="M422 269.2c-.6-.1-1-.7-.9-1.3.1-.6.7-1 1.3-.9.6.1 1 .7.9 1.3-.1.5-.7 1-1.3.9z"/></g><g class="st1"><image width="11" height="12" xlink:href="C98620CD.png" transform="translate(422.277 230.277)" overflow="visible" opacity=".75"/><path class="st39" d="M427.5 237.1c-.6-.1-1-.7-.9-1.3.1-.6.7-1 1.3-.9.6.1 1 .7.9 1.3s-.7 1-1.3.9z"/></g><g class="st1"><image width="11" height="11" xlink:href="C98620CE.png" transform="translate(408.277 179.277)" overflow="visible" opacity=".75"/><path class="st39" d="M413.3 185.5c-.6-.1-1-.7-.9-1.3.1-.6.7-1 1.3-.9.6.1 1 .7.9 1.3-.2.6-.7 1-1.3.9z"/></g><g class="st1"><image width="11" height="12" xlink:href="C98620CF.png" transform="translate(392.277 153.277)" overflow="visible" opacity=".75"/><path class="st39" d="M397.3 160.1c-.6-.1-1-.7-.9-1.3.1-.6.7-1 1.3-.9.6.1 1 .7.9 1.3-.1.5-.7 1-1.3.9z"/></g><g class="st1"><image width="11" height="12" xlink:href="C98620EF.png" transform="translate(384.277 142.277)" overflow="visible" opacity=".75"/><path class="st39" d="M389.6 149c-.6-.1-1-.7-.9-1.3.1-.6.7-1 1.3-.9.6.1 1 .7.9 1.3s-.7 1-1.3.9z"/></g><g class="st1"><image width="11" height="11" xlink:href="C98620EC.png" transform="translate(373.277 138.277)" overflow="visible" opacity=".75"/><path class="st39" d="M378.7 144.6c-.6-.1-1-.7-.9-1.3.1-.6.7-1 1.3-.9s1 .7.9 1.3-.7.9-1.3.9z"/></g><g class="st1"><image width="20" height="20" xlink:href="C98620EE.png" transform="translate(549.76 215.76)" overflow="visible" opacity=".75"/><path class="st39" d="M559.1 227.8c-1.2-.2-2-1.3-1.8-2.4.2-1.2 1.3-2 2.4-1.8 1.2.2 2 1.3 1.8 2.4-.1 1.2-1.2 2-2.4 1.8z"/></g><g class="st1"><image width="24" height="24" xlink:href="C98620ED.png" transform="translate(489.385 137.385)" overflow="visible" opacity=".75"/><path class="st39" d="M501 151.2c-1.4-.2-2.3-1.5-2.1-2.9.2-1.4 1.5-2.3 2.9-2.1 1.4.2 2.3 1.5 2.1 2.9-.2 1.3-1.5 2.3-2.9 2.1z"/></g><g class="st1"><image width="13" height="12" xlink:href="C98620EB.png" transform="translate(548.758 244.758)" overflow="visible" opacity=".75"/><path class="st39" d="M554.8 251.9c-.7-.1-1.2-.7-1-1.4.1-.7.7-1.2 1.4-1 .7.1 1.2.7 1 1.4 0 .6-.7 1.1-1.4 1z"/></g><g class="st1"><image width="12" height="13" xlink:href="C9862094.png" transform="translate(584.758 165.758)" overflow="visible" opacity=".75"/><path class="st39" d="M590.4 173.4c-.7-.1-1.2-.7-1-1.4.1-.7.7-1.2 1.4-1 .7.1 1.2.7 1 1.4-.1.6-.7 1.1-1.4 1z"/></g><g class="st1"><image width="13" height="13" xlink:href="C9862097.png" transform="translate(564.758 147.758)" overflow="visible" opacity=".75"/><path class="st39" d="M570.7 155.2c-.7-.1-1.2-.7-1-1.4.1-.7.7-1.2 1.4-1 .7.1 1.2.7 1 1.4 0 .6-.7 1.1-1.4 1z"/></g><g class="st1"><image width="12" height="13" xlink:href="C9862095.png" transform="translate(571.758 120.758)" overflow="visible" opacity=".75"/><path class="st39" d="M577.2 128.3c-.7-.1-1.2-.7-1-1.4.1-.7.7-1.2 1.4-1 .7.1 1.2.7 1 1.4-.1.6-.7 1.1-1.4 1z"/></g><g class="st1"><image width="13" height="13" xlink:href="C986209B.png" transform="translate(560.758 113.758)" overflow="visible" opacity=".75"/><path class="st39" d="M566.8 121.4c-.7-.1-1.2-.7-1-1.4.1-.7.7-1.2 1.4-1 .7.1 1.2.7 1 1.4-.1.7-.8 1.1-1.4 1z"/></g><g class="st1"><image width="13" height="12" xlink:href="C986209C.png" transform="translate(515.758 365.758)" overflow="visible" opacity=".75"/><path class="st39" d="M521.8 372.6c-.7-.1-1.2-.7-1-1.4.1-.7.7-1.2 1.4-1s1.2.7 1 1.4c0 .7-.7 1.1-1.4 1z"/></g><g class="st1"><image width="12" height="12" xlink:href="C986209F.png" transform="translate(589.758 178.758)" overflow="visible" opacity=".75"/><path class="st39" d="M595.1 186c-.7-.1-1.2-.7-1-1.4.1-.7.7-1.2 1.4-1 .7.1 1.2.7 1 1.4-.1.6-.7 1.1-1.4 1z"/></g><g class="st1"><image width="13" height="13" xlink:href="C98620BB.png" transform="translate(563.758 184.758)" overflow="visible" opacity=".75"/><path class="st39" d="M570 192.3c-.7-.1-1.2-.7-1-1.4.1-.7.7-1.2 1.4-1 .7.1 1.2.7 1 1.4 0 .6-.7 1.1-1.4 1z"/></g><g class="st1"><image width="13" height="12" xlink:href="C98620B9.png" transform="translate(603.758 155.758)" overflow="visible" opacity=".75"/><path class="st39" d="M609.7 162.8c-.7-.1-1.2-.7-1-1.4.1-.7.7-1.2 1.4-1 .7.1 1.2.7 1 1.4-.1.6-.7 1.1-1.4 1z"/></g><g class="st1"><image width="13" height="12" xlink:href="C98620BF.png" transform="translate(624.758 202.758)" overflow="visible" opacity=".75"/><path class="st39" d="M630.7 209.7c-.7-.1-1.2-.7-1-1.4.1-.7.7-1.2 1.4-1 .7.1 1.2.7 1 1.4-.1.6-.7 1.1-1.4 1z"/></g><g class="st1"><image width="12" height="13" xlink:href="C98620BA.png" transform="translate(603.758 218.758)" overflow="visible" opacity=".75"/><path class="st39" d="M609.2 226.4c-.7-.1-1.2-.7-1-1.4.1-.7.7-1.2 1.4-1 .7.1 1.2.7 1 1.4 0 .6-.7 1.1-1.4 1z"/></g><g class="st1"><image width="12" height="12" xlink:href="C9862085.png" transform="translate(584.758 220.758)" overflow="visible" opacity=".75"/><path class="st39" d="M590.4 227.9c-.7-.1-1.2-.7-1-1.4.1-.7.7-1.2 1.4-1 .7.1 1.2.7 1 1.4 0 .6-.7 1.1-1.4 1z"/></g><g class="st1"><image width="12" height="12" xlink:href="C9862086.png" transform="translate(534.758 232.758)" overflow="visible" opacity=".75"/><path class="st39" d="M540.1 239.6c-.7-.1-1.2-.7-1-1.4.1-.7.7-1.2 1.4-1 .7.1 1.2.7 1 1.4-.1.6-.7 1.1-1.4 1z"/></g><g class="st1"><image width="9" height="8" xlink:href="C9862087.png" transform="translate(538.33 245.33)" overflow="visible" opacity=".75"/><path class="st39" d="M542.2 249.9c-.4-.1-.7-.5-.7-.9.1-.4.5-.7.9-.7.4.1.7.5.7.9-.1.5-.5.7-.9.7z"/></g><g class="st1"><image width="8" height="8" xlink:href="C9862089.png" transform="translate(534.33 246.33)" overflow="visible" opacity=".75"/><path class="st39" d="M537.7 250.6c-.4-.1-.7-.5-.7-.9s.5-.7.9-.7c.4.1.7.5.7.9 0 .5-.4.8-.9.7z"/></g><g class="st1"><image width="8" height="9" xlink:href="C986208B.png" transform="translate(544.33 241.33)" overflow="visible" opacity=".75"/><path class="st39" d="M548.1 246.2c-.4-.1-.7-.5-.7-.9.1-.4.5-.7.9-.7.4.1.7.5.7.9-.1.4-.5.7-.9.7z"/></g><g class="st1"><image width="9" height="8" xlink:href="C986208E.png" transform="translate(548.33 230.33)" overflow="visible" opacity=".75"/><path class="st39" d="M552.6 234.9c-.4-.1-.7-.5-.7-.9.1-.4.5-.7.9-.7.4.1.7.5.7.9 0 .5-.4.8-.9.7z"/></g><g class="st1"><image width="9" height="9" xlink:href="20629589.png" transform="translate(549.33 216.33)" overflow="visible" opacity=".75"/><path class="st39" d="M553.4 221c-.4-.1-.7-.5-.7-.9s.5-.7.9-.7c.4.1.7.5.7.9-.1.5-.5.8-.9.7z"/></g><g class="st1"><image width="9" height="9" xlink:href="2062958B.png" transform="translate(546.33 209.33)" overflow="visible" opacity=".75"/><path class="st39" d="M550.1 214.3c-.4-.1-.7-.5-.7-.9s.5-.7.9-.7c.4.1.7.5.7.9-.1.4-.5.7-.9.7z"/></g><g class="st1"><image width="8" height="8" xlink:href="20629588.png" transform="translate(528.33 202.33)" overflow="visible" opacity=".75"/><path class="st39" d="M532 206.8c-.4-.1-.7-.5-.7-.9.1-.4.5-.7.9-.7.4.1.7.5.7.9-.1.5-.5.8-.9.7z"/></g><g class="st1"><image width="12" height="12" xlink:href="20629597.png" transform="translate(519.865 174.865)" overflow="visible" opacity=".75"/><path class="st39" d="M525.5 181.6c-.7-.1-1.1-.7-1-1.4.1-.7.7-1.1 1.4-1 .7.1 1.1.7 1 1.4-.1.6-.7 1.1-1.4 1z"/></g><g class="st1"><image width="12" height="13" xlink:href="20629599.png" transform="translate(469.865 200.865)" overflow="visible" opacity=".75"/><path class="st39" d="M475.2 208c-.7-.1-1.1-.7-1-1.4.1-.7.7-1.1 1.4-1 .7.1 1.1.7 1 1.4-.1.7-.8 1.1-1.4 1z"/></g><g class="st1"><image width="13" height="12" xlink:href="2062959B.png" transform="translate(466.865 173.865)" overflow="visible" opacity=".75"/><path class="st39" d="M473 180.9c-.7-.1-1.1-.7-1-1.4.1-.7.7-1.1 1.4-1 .7.1 1.1.7 1 1.4-.1.7-.8 1.1-1.4 1z"/></g><g class="st1"><image width="12" height="12" xlink:href="20629598.png" transform="translate(428.865 207.865)" overflow="visible" opacity=".75"/><path class="st39" d="M434.4 214.5c-.7-.1-1.1-.7-1-1.4.1-.7.7-1.1 1.4-1 .7.1 1.1.7 1 1.4-.1.6-.7 1.1-1.4 1z"/></g><g class="st1"><image width="12" height="13" xlink:href="2062959F.png" transform="translate(441.865 222.865)" overflow="visible" opacity=".75"/><path class="st39" d="M447.1 230c-.7-.1-1.1-.7-1-1.4.1-.7.7-1.1 1.4-1 .7.1 1.1.7 1 1.4-.1.7-.8 1.1-1.4 1z"/></g><g class="st1"><image width="12" height="13" xlink:href="2062959A.png" transform="translate(461.865 237.865)" overflow="visible" opacity=".75"/><path class="st39" d="M467.2 245c-.7-.1-1.1-.7-1-1.4.1-.7.7-1.1 1.4-1 .7.1 1.1.7 1 1.4-.1.7-.7 1.1-1.4 1z"/></g><g class="st1"><image width="12" height="13" xlink:href="20629586.png" transform="translate(478.808 218.572)" overflow="visible" opacity=".75"/><path class="st39" d="M484.2 225.7c-.7-.1-1.1-.7-1-1.4.1-.7.7-1.1 1.4-1 .7.1 1.1.7 1 1.4-.1.7-.8 1.1-1.4 1z"/></g><g class="st1"><image width="12" height="13" xlink:href="2062967C.png" transform="translate(477.603 234.515)" overflow="visible" opacity=".75"/><path class="st39" d="M483 241.7c-.7-.1-1.1-.7-1-1.4s.7-1.1 1.4-1c.7.1 1.1.7 1 1.4-.1.6-.8 1.1-1.4 1z"/></g><g class="st1"><image width="12" height="13" xlink:href="20629663.png" transform="translate(463.09 222.552)" overflow="visible" opacity=".75"/><path class="st39" d="M468.4 229.7c-.7-.1-1.1-.7-1-1.4.1-.7.7-1.1 1.4-1 .7.1 1.1.7 1 1.4-.1.7-.7 1.1-1.4 1z"/></g><g class="st1"><image width="12" height="13" xlink:href="20629664.png" transform="translate(508.04 200.557)" overflow="visible" opacity=".75"/><path class="st39" d="M513.4 207.7c-.7-.1-1.1-.7-1-1.4.1-.7.7-1.1 1.4-1 .7.1 1.1.7 1 1.4-.1.7-.7 1.1-1.4 1z"/></g><g class="st1"><image width="12" height="13" xlink:href="20629667.png" transform="translate(508.04 221.36)" overflow="visible" opacity=".75"/><path class="st39" d="M513.4 228.5c-.7-.1-1.1-.7-1-1.4.1-.7.7-1.1 1.4-1 .7.1 1.1.7 1 1.4-.1.7-.7 1.1-1.4 1z"/></g><g class="st1"><image width="12" height="13" xlink:href="20629665.png" transform="translate(468.84 186.429)" overflow="visible" opacity=".75"/><path class="st39" d="M474.2 193.6c-.7-.1-1.1-.7-1-1.4.1-.7.7-1.1 1.4-1 .7.1 1.1.7 1 1.4-.1.6-.7 1.1-1.4 1z"/></g><g class="st1"><image width="12" height="13" xlink:href="20629662.png" transform="translate(493.604 233.818)" overflow="visible" opacity=".75"/><path class="st39" d="M499 241c-.7-.1-1.1-.7-1-1.4.1-.7.7-1.1 1.4-1 .7.1 1.1.7 1 1.4-.1.6-.8 1.1-1.4 1z"/></g><g class="st1"><image width="12" height="13" xlink:href="2062966C.png" transform="translate(515.438 247.32)" overflow="visible" opacity=".75"/><path class="st39" d="M520.8 254.5c-.7-.1-1.1-.7-1-1.4.1-.7.7-1.1 1.4-1 .7.1 1.1.7 1 1.4-.1.6-.7 1.1-1.4 1z"/></g><g class="st1"><image width="9" height="9" xlink:href="2062966F.png" transform="translate(486.412 236.412)" overflow="visible" opacity=".75"/><path class="st39" d="M490.3 241.2c-.4-.1-.7-.5-.6-.9.1-.4.5-.7.9-.6.4.1.7.5.6.9s-.5.7-.9.6z"/></g><g class="st1"><image width="9" height="9" xlink:href="2062966D.png" transform="translate(490.774 197.185)" overflow="visible" opacity=".75"/><path class="st39" d="M494.7 202c-.4-.1-.7-.5-.6-.9.1-.4.5-.7.9-.6.4.1.7.5.6.9-.1.4-.5.7-.9.6z"/></g><g class="st1"><image width="9" height="9" xlink:href="20629661.png" transform="translate(500.308 206.775)" overflow="visible" opacity=".75"/><path class="st39" d="M504.2 211.6c-.4-.1-.7-.5-.6-.9.1-.4.5-.7.9-.6.4.1.7.5.6.9-.1.4-.5.7-.9.6z"/></g><g class="st1"><image width="9" height="9" xlink:href="2062964F.png" transform="translate(520.006 219.593)" overflow="visible" opacity=".75"/><path class="st39" d="M523.9 224.4c-.4-.1-.7-.5-.6-.9.1-.4.5-.7.9-.6.4.1.7.5.6.9-.1.4-.5.7-.9.6z"/></g><g class="st1"><image width="9" height="9" xlink:href="20629641.png" transform="translate(530.009 214.416)" overflow="visible" opacity=".75"/><path class="st39" d="M533.9 219.2c-.4-.1-.7-.5-.6-.9.1-.4.5-.7.9-.6.4.1.7.5.6.9-.1.4-.5.7-.9.6z"/></g><g class="st1"><image width="9" height="9" xlink:href="20629643.png" transform="translate(520.868 197.185)" overflow="visible" opacity=".75"/><path class="st39" d="M524.8 202c-.4-.1-.7-.5-.6-.9.1-.4.5-.7.9-.6.4.1.7.5.6.9-.1.4-.5.7-.9.6z"/></g><g class="st1"><image width="9" height="9" xlink:href="20629646.png" transform="translate(503.895 179.56)" overflow="visible" opacity=".75"/><path class="st39" d="M507.8 184.4c-.4-.1-.7-.5-.6-.9.1-.4.5-.7.9-.6.4.1.7.5.6.9-.1.4-.5.6-.9.6z"/></g><g class="st1"><image width="9" height="9" xlink:href="20629647.png" transform="translate(478.06 184.396)" overflow="visible" opacity=".75"/><path class="st39" d="M482 189.2c-.4-.1-.7-.5-.6-.9.1-.4.5-.7.9-.6.4.1.7.5.6.9-.1.4-.5.7-.9.6z"/></g><g class="st1"><image width="9" height="9" xlink:href="20629642.png" transform="translate(464.623 192.71)" overflow="visible" opacity=".75"/><path class="st39" d="M468.5 197.5c-.4-.1-.7-.5-.6-.9.1-.4.5-.7.9-.6.4.1.7.5.6.9-.1.4-.5.7-.9.6z"/></g><g class="st1"><image width="9" height="9" xlink:href="206296BD.png" transform="translate(463.123 207.867)" overflow="visible" opacity=".75"/><path class="st39" d="M467 212.7c-.4-.1-.7-.5-.6-.9.1-.4.5-.7.9-.6s.7.5.6.9c-.1.4-.5.7-.9.6z"/></g><g class="st1"><image width="12" height="12" xlink:href="206296BE.png" transform="translate(452.865 225.865)" overflow="visible" opacity=".75"/><path class="st39" d="M458.3 232.8c-.7-.1-1.1-.7-1-1.4.1-.7.7-1.1 1.4-1 .7.1 1.1.7 1 1.4-.1.6-.7 1.1-1.4 1z"/></g><g class="st1"><image width="12" height="13" xlink:href="206296BF.png" transform="translate(513.865 275.865)" overflow="visible" opacity=".75"/><path class="st39" d="M519.2 283.2c-.7-.1-1.1-.7-1-1.4.1-.7.7-1.1 1.4-1 .7.1 1.1.7 1 1.4-.2.6-.8 1.1-1.4 1z"/></g><g class="st1"><image width="12" height="13" xlink:href="206296C1.png" transform="translate(507.865 267.865)" overflow="visible" opacity=".75"/><path class="st39" d="M513.4 275.3c-.7-.1-1.1-.7-1-1.4.1-.7.7-1.1 1.4-1 .7.1 1.1.7 1 1.4-.1.6-.7 1.1-1.4 1z"/></g><g class="st1"><image width="9" height="9" xlink:href="206296DE.png" transform="translate(526.155 255.155)" overflow="visible" opacity=".75"/><path class="st39" d="M530.3 260.5c-.5-.1-.8-.5-.7-1 .1-.5.5-.8 1-.7.5.1.8.5.7 1-.1.5-.5.8-1 .7z"/></g><g class="st1"><image width="8" height="9" xlink:href="206296D9.png" transform="translate(531.155 252.155)" overflow="visible" opacity=".75"/><path class="st39" d="M535 257.3c-.5-.1-.8-.5-.7-1 .1-.5.5-.8 1-.7.5.1.8.5.7 1-.1.4-.5.7-1 .7z"/></g><g class="st1"><image width="9" height="9" xlink:href="206296DA.png" transform="translate(512.155 258.155)" overflow="visible" opacity=".75"/><path class="st39" d="M516.6 263.6c-.5-.1-.8-.5-.7-1 .1-.5.5-.8 1-.7.5.1.8.5.7 1-.1.4-.5.8-1 .7z"/></g><g class="st1"><image width="8" height="9" xlink:href="206296D8.png" transform="translate(520.155 258.155)" overflow="visible" opacity=".75"/><path class="st39" d="M523.9 263.6c-.5-.1-.8-.5-.7-1 .1-.5.5-.8 1-.7.5.1.8.5.7 1-.1.4-.6.8-1 .7z"/></g><g class="st1"><image width="9" height="9" xlink:href="206296E6.png" transform="translate(479.155 245.155)" overflow="visible" opacity=".75"/><path class="st39" d="M483.3 250.1c-.5-.1-.8-.5-.7-1 .1-.5.5-.8 1-.7.5.1.8.5.7 1-.1.4-.6.8-1 .7z"/></g><g class="st1"><image width="9" height="9" xlink:href="206296E9.png" transform="translate(471.155 244.155)" overflow="visible" opacity=".75"/><path class="st39" d="M475.3 249.2c-.5-.1-.8-.5-.7-1 .1-.5.5-.8 1-.7.5.1.8.5.7 1-.2.4-.6.8-1 .7z"/></g><g class="st1"><image width="9" height="8" xlink:href="206296EA.png" transform="translate(436.155 222.155)" overflow="visible" opacity=".75"/><path class="st39" d="M440.4 226.9c-.5-.1-.8-.5-.7-1 .1-.5.5-.8 1-.7.5.1.8.5.7 1-.1.5-.5.8-1 .7z"/></g><g class="st1"><image width="9" height="8" xlink:href="206296E8.png" transform="translate(436.155 196.155)" overflow="visible" opacity=".75"/><path class="st39" d="M440.3 200.7c-.5-.1-.8-.5-.7-1 .1-.5.5-.8 1-.7.5.1.8.5.7 1-.1.5-.5.8-1 .7z"/></g><g class="st1"><image width="8" height="9" xlink:href="206296EE.png" transform="translate(440.155 189.155)" overflow="visible" opacity=".75"/><path class="st39" d="M444 194.7c-.5-.1-.8-.5-.7-1 .1-.5.5-.8 1-.7.5.1.8.5.7 1-.2.4-.6.7-1 .7z"/></g><g class="st1"><image width="9" height="8" xlink:href="206296EB.png" transform="translate(447.155 183.155)" overflow="visible" opacity=".75"/><path class="st39" d="M451.6 187.9c-.5-.1-.8-.5-.7-1 .1-.5.5-.8 1-.7.5.1.8.5.7 1-.1.5-.6.8-1 .7z"/></g><g class="st1"><image width="8" height="8" xlink:href="2062960D.png" transform="translate(453.155 184.155)" overflow="visible" opacity=".75"/><path class="st39" d="M457 188.8c-.5-.1-.8-.5-.7-1 .1-.5.5-.8 1-.7.5.1.8.5.7 1-.1.4-.6.7-1 .7z"/></g><g class="st1"><image width="9" height="9" xlink:href="2062960F.png" transform="translate(489.155 186.155)" overflow="visible" opacity=".75"/><path class="st39" d="M493.6 191.5c-.5-.1-.8-.5-.7-1 .1-.5.5-.8 1-.7.5.1.8.5.7 1-.1.4-.6.8-1 .7z"/></g><g class="st1"><image width="8" height="9" xlink:href="2062960C.png" transform="translate(487.155 170.155)" overflow="visible" opacity=".75"/><path class="st39" d="M490.9 175.7c-.5-.1-.8-.5-.7-1 .1-.5.5-.8 1-.7.5.1.8.5.7 1-.1.4-.5.7-1 .7z"/></g><g class="st1"><image width="9" height="9" xlink:href="2062960B.png" transform="translate(507.155 190.155)" overflow="visible" opacity=".75"/><path class="st39" d="M511.6 195.2c-.5-.1-.8-.5-.7-1 .1-.5.5-.8 1-.7.5.1.8.5.7 1-.1.4-.6.7-1 .7z"/></g><g class="st1"><image width="10" height="10" xlink:href="20629615.png" transform="translate(511.947 173.947)" overflow="visible" opacity=".75"/><path class="st39" d="M516.7 179.7c-.5-.1-.8-.5-.8-1s.5-.8 1-.8c.5.1.8.5.8 1s-.5.8-1 .8z"/></g><g class="st1"><image width="12" height="13" xlink:href="20629617.png" transform="translate(593.758 249.758)" overflow="visible" opacity=".75"/><path class="st39" d="M599.1 257c-.7-.1-1.2-.7-1-1.4.1-.7.7-1.2 1.4-1 .7.1 1.2.7 1 1.4-.1.7-.7 1.1-1.4 1z"/></g><g class="st1"><image width="13" height="12" xlink:href="20629614.png" transform="translate(561.758 246.758)" overflow="visible" opacity=".75"/><path class="st39" d="M567.9 253.9c-.7-.1-1.2-.7-1-1.4.1-.7.7-1.2 1.4-1 .7.1 1.2.7 1 1.4-.1.7-.7 1.1-1.4 1z"/></g><g class="st1"><image width="12" height="13" xlink:href="2062961B.png" transform="translate(565.758 221.758)" overflow="visible" opacity=".75"/><path class="st39" d="M571.1 229c-.7-.1-1.2-.7-1-1.4.1-.7.7-1.2 1.4-1 .7.1 1.2.7 1 1.4-.1.6-.7 1.1-1.4 1z"/></g><g class="st1"><image width="19" height="19" xlink:href="2062961D.png" transform="translate(533.381 125.381)" overflow="visible" opacity=".75"/><path class="st39" d="M542.4 136.1c-1.1-.2-1.8-1.2-1.6-2.2.2-1.1 1.2-1.8 2.2-1.6 1.1.2 1.8 1.2 1.6 2.2-.1 1-1.1 1.7-2.2 1.6z"/></g><g class="st1"><image width="9" height="8" xlink:href="2062961F.png" transform="translate(535.048 129.048)" overflow="visible" opacity=".75"/><path class="st39" d="M539.3 133.9c-.5-.1-.8-.5-.7-1 .1-.5.5-.8 1-.7.5.1.8.5.7 1-.1.4-.5.7-1 .7z"/></g><g class="st1"><image width="24" height="24" xlink:href="20629630.png" transform="translate(550.497 151.497)" overflow="visible" opacity=".75"/><path class="st39" d="M561.8 165.6c-1.4-.2-2.3-1.5-2.1-2.9.2-1.4 1.5-2.3 2.9-2.1 1.4.2 2.3 1.5 2.1 2.9-.2 1.4-1.5 2.3-2.9 2.1z"/></g><g class="st1"><image width="19" height="19" xlink:href="2062963F.png" transform="translate(497.381 113.381)" overflow="visible" opacity=".75"/><path class="st39" d="M505.9 124.5c-1.1-.2-1.8-1.2-1.6-2.2.2-1.1 1.2-1.8 2.2-1.6 1.1.2 1.8 1.2 1.6 2.2-.1 1-1.2 1.7-2.2 1.6z"/></g><g class="st1"><image width="12" height="12" xlink:href="20629631.png" transform="translate(460.966 117.966)" overflow="visible" opacity=".75"/><path class="st39" d="M466.2 124.4c-.7-.1-1.1-.7-1-1.4.1-.7.7-1.1 1.4-1 .7.1 1.1.7 1 1.4-.1.7-.7 1.1-1.4 1z"/></g><g class="st1"><image width="12" height="12" xlink:href="20629633.png" transform="translate(475.966 148.966)" overflow="visible" opacity=".75"/><path class="st39" d="M481.2 155.4c-.7-.1-1.1-.7-1-1.4.1-.7.7-1.1 1.4-1 .7.1 1.1.7 1 1.4-.1.6-.7 1.1-1.4 1z"/></g><g class="st1"><image width="13" height="12" xlink:href="20629636.png" transform="translate(433.966 179.966)" overflow="visible" opacity=".75"/><path class="st39" d="M440 186.7c-.7-.1-1.1-.7-1-1.4.1-.7.7-1.1 1.4-1 .7.1 1.1.7 1 1.4-.2.6-.8 1.1-1.4 1z"/></g><g class="st1"><image width="12" height="12" xlink:href="20629637.png" transform="translate(537.966 265.966)" overflow="visible" opacity=".75"/><path class="st39" d="M543.3 272.9c-.7-.1-1.1-.7-1-1.4.1-.7.7-1.1 1.4-1 .7.1 1.1.7 1 1.4-.1.6-.7 1.1-1.4 1z"/></g><g opacity=".5"><image width="12" height="12" xlink:href="20629632.png" transform="translate(449.966 78.966)" overflow="visible" opacity=".75"/><path class="st39" d="M455.1 85.5c-.7-.1-1.1-.7-1-1.4s.7-1.1 1.4-1c.7.1 1.1.7 1 1.4-.1.6-.8 1.1-1.4 1z"/></g><g class="st1"><image width="6" height="6" xlink:href="2062960E.png" transform="translate(483.138 70.138)" overflow="visible" opacity=".75"/><path class="st39" d="M485.5 73.7c-.3 0-.5-.3-.5-.6s.3-.5.6-.5.5.3.5.6-.3.5-.6.5z"/></g><g class="st1"><image width="9" height="9" xlink:href="2062960A.png" transform="translate(494.47 77.47)" overflow="visible" opacity=".75"/><path class="st39" d="M498.3 82.5c-.4-.1-.7-.4-.6-.9.1-.4.4-.7.9-.6.4.1.7.4.6.9-.1.4-.5.6-.9.6z"/></g><g class="st1"><image width="8" height="9" xlink:href="20629609.png" transform="translate(413.47 89.47)" overflow="visible" opacity=".75"/><path class="st39" d="M416.9 94.1c-.4-.1-.7-.4-.6-.9.1-.4.4-.7.9-.6.4.1.7.4.6.9-.1.4-.5.7-.9.6z"/></g><g class="st1"><image width="10" height="10" xlink:href="2062966B.png" transform="translate(477.975 76.975)" overflow="visible" opacity=".75"/><path class="st39" d="M482.6 82.6c-.5-.1-.8-.5-.7-1 .1-.5.5-.8 1-.7.5.1.8.5.7 1-.1.4-.5.7-1 .7z"/></g><g class="st1"><image width="10" height="10" xlink:href="2062966E.png" transform="translate(461.975 74.975)" overflow="visible" opacity=".75"/><path class="st39" d="M466.5 80c-.5-.1-.8-.5-.7-1s.5-.8 1-.7c.5.1.8.5.7 1-.1.5-.5.8-1 .7z"/></g><g class="st1"><image width="6" height="6" xlink:href="20629669.png" transform="translate(421.138 71.138)" overflow="visible" opacity=".75"/><path class="st39" d="M424.1 74.8c-.3 0-.5-.3-.5-.6s.3-.5.6-.5.5.3.5.6-.3.5-.6.5z"/></g><g class="st41"><image width="6" height="7" xlink:href="2062966A.png" transform="translate(373.138 84.138)" overflow="visible" opacity=".75"/><path class="st39" d="M375.5 88c-.3 0-.5-.3-.5-.6s.3-.5.6-.5.5.3.5.6c0 .4-.3.6-.6.5z"/></g><g class="st41"><image width="6" height="6" xlink:href="20629668.png" transform="translate(537.138 77.138)" overflow="visible" opacity=".75"/><path class="st39" d="M539.8 80.5c-.3 0-.5-.3-.5-.6s.3-.5.6-.5.5.3.5.6c-.1.3-.3.6-.6.5z"/></g><g class="st41"><image width="6" height="6" xlink:href="20629675.png" transform="translate(343.138 304.138)" overflow="visible" opacity=".75"/><path class="st39" d="M346.1 307.3c-.3 0-.5-.3-.5-.6s.3-.5.6-.5.5.3.5.6-.3.5-.6.5z"/></g><g class="st41"><image width="6" height="6" xlink:href="20629677.png" transform="translate(331.138 267.138)" overflow="visible" opacity=".75"/><path class="st39" d="M334.2 270.8c-.3 0-.5-.3-.5-.6s.3-.5.6-.5.5.3.5.6-.3.5-.6.5z"/></g><g class="st41"><image width="6" height="6" xlink:href="2062967A.png" transform="translate(539.138 379.138)" overflow="visible" opacity=".75"/><path class="st39" d="M541.6 382.9c-.3 0-.5-.3-.5-.6s.3-.5.6-.5.5.3.5.6-.3.6-.6.5z"/></g><g class="st41"><image width="6" height="6" xlink:href="2062967B.png" transform="translate(585.138 350.138)" overflow="visible" opacity=".75"/><path class="st39" d="M588.1 353.9c-.3 0-.5-.3-.5-.6s.3-.5.6-.5.5.3.5.6-.3.5-.6.5z"/></g><g class="st41"><image width="6" height="6" xlink:href="2062967D.png" transform="translate(599.138 144.138)" overflow="visible" opacity=".75"/><path class="st39" d="M601.7 147.3c-.3 0-.5-.3-.5-.6s.3-.5.6-.5.5.3.5.6-.3.5-.6.5z"/></g><g class="st1"><image width="6" height="7" xlink:href="2062965A.png" transform="translate(337.138 144.138)" overflow="visible" opacity=".75"/><path class="st39" d="M340.3 148c-.3 0-.5-.3-.5-.6s.3-.5.6-.5.5.3.5.6c0 .4-.3.6-.6.5z"/></g><g class="st1"><image width="6" height="6" xlink:href="2062965D.png" transform="translate(353.138 159.138)" overflow="visible" opacity=".75"/><path class="st39" d="M356.1 162.8c-.3 0-.5-.3-.5-.6s.3-.5.6-.5.5.3.5.6-.3.5-.6.5z"/></g><g class="st1"><image width="6" height="6" xlink:href="2062965E.png" transform="translate(309.138 313.138)" overflow="visible" opacity=".75"/><path class="st39" d="M311.9 316.2c-.3 0-.5-.3-.5-.6s.3-.5.6-.5.5.3.5.6-.3.5-.6.5z"/></g><g class="st1"><image width="6" height="6" xlink:href="2062965C.png" transform="translate(338.138 321.138)" overflow="visible" opacity=".75"/><path class="st39" d="M340.9 324.1c-.3 0-.5-.3-.5-.6s.3-.5.6-.5.5.3.5.6c0 .4-.3.6-.6.5z"/></g><g class="st1"><image width="6" height="6" xlink:href="2062965B.png" transform="translate(374.138 354.138)" overflow="visible" opacity=".75"/><path class="st39" d="M376.6 357.5c-.3 0-.5-.3-.5-.6s.3-.5.6-.5.5.3.5.6-.3.5-.6.5z"/></g><g class="st1"><image width="6" height="6" xlink:href="20629645.png" transform="translate(383.138 409.138)" overflow="visible" opacity=".75"/><path class="st39" d="M385.7 412.9c-.3 0-.5-.3-.5-.6s.3-.5.6-.5.5.3.5.6c-.1.4-.3.6-.6.5z"/></g><g class="st1"><image width="6" height="7" xlink:href="20629644.png" transform="translate(424.138 399.138)" overflow="visible" opacity=".75"/><path class="st39" d="M426.6 403c-.3 0-.5-.3-.5-.6s.3-.5.6-.5.5.3.5.6c0 .4-.3.6-.6.5z"/></g><g class="st1"><image width="9" height="9" xlink:href="20629640.png" transform="translate(429.199 383.199)" overflow="visible" opacity=".75"/><path class="st39" d="M433.2 388c-.5-.1-.8-.5-.7-.9.1-.5.5-.8.9-.7.5.1.8.5.7.9 0 .5-.4.8-.9.7z"/></g><g class="st1"><image width="6" height="6" xlink:href="2062964A.png" transform="translate(490.138 404.138)" overflow="visible" opacity=".75"/><path class="st39" d="M492.6 407.4c-.3 0-.5-.3-.5-.6s.3-.5.6-.5.5.3.5.6-.3.5-.6.5z"/></g><g class="st1"><image width="6" height="6" xlink:href="2062964D.png" transform="translate(506.138 405.138)" overflow="visible" opacity=".75"/><path class="st39" d="M509.3 408.4c-.3 0-.5-.3-.5-.6s.3-.5.6-.5.5.3.5.6-.3.5-.6.5z"/></g><g class="st1"><image width="6" height="6" xlink:href="206297A1.png" transform="translate(514.138 400.138)" overflow="visible" opacity=".75"/><path class="st39" d="M517.2 403.2c-.3 0-.5-.3-.5-.6s.3-.5.6-.5.5.3.5.6-.3.5-.6.5z"/></g><g class="st1"><image width="6" height="6" xlink:href="206297A3.png" transform="translate(516.138 419.138)" overflow="visible" opacity=".75"/><path class="st39" d="M519.3 422.7c-.3 0-.5-.3-.5-.6s.3-.5.6-.5.5.3.5.6-.3.5-.6.5z"/></g><g class="st1"><image width="6" height="6" xlink:href="206297A0.png" transform="translate(596.138 392.138)" overflow="visible" opacity=".75"/><path class="st39" d="M598.8 395.7c-.3 0-.5-.3-.5-.6s.3-.5.6-.5.5.3.5.6-.3.6-.6.5z"/></g><g class="st1"><image width="6" height="6" xlink:href="206297AF.png" transform="translate(594.138 356.138)" overflow="visible" opacity=".75"/><path class="st39" d="M597.2 359.8c-.3 0-.5-.3-.5-.6s.3-.5.6-.5.5.3.5.6c0 .4-.3.6-.6.5z"/></g><g class="st1"><image width="6" height="6" xlink:href="206297A2.png" transform="translate(575.138 364.138)" overflow="visible" opacity=".75"/><path class="st39" d="M577.8 367.5c-.3 0-.5-.3-.5-.6s.3-.5.6-.5.5.3.5.6-.3.6-.6.5z"/></g><g class="st1"><image width="6" height="6" xlink:href="206297A6.png" transform="translate(637.138 325.138)" overflow="visible" opacity=".75"/><path class="st39" d="M639.6 328.4c-.3 0-.5-.3-.5-.6s.3-.5.6-.5.5.3.5.6c0 .4-.3.6-.6.5z"/></g><g class="st1"><image width="6" height="6" xlink:href="206297A7.png" transform="translate(617.138 301.138)" overflow="visible" opacity=".75"/><path class="st39" d="M620.2 304.8c-.3 0-.5-.3-.5-.6s.3-.5.6-.5.5.3.5.6-.3.6-.6.5z"/></g><g class="st1"><image width="6" height="6" xlink:href="206297DC.png" transform="translate(638.138 251.138)" overflow="visible" opacity=".75"/><path class="st39" d="M640.8 254.3c-.3 0-.5-.3-.5-.6s.3-.5.6-.5.5.3.5.6-.3.5-.6.5z"/></g><g class="st1"><image width="6" height="6" xlink:href="206297DD.png" transform="translate(649.138 244.138)" overflow="visible" opacity=".75"/><path class="st39" d="M652.2 247.5c-.3 0-.5-.3-.5-.6s.3-.5.6-.5.5.3.5.6-.3.5-.6.5z"/></g><g opacity=".25"><image width="6" height="6" xlink:href="206297DE.png" transform="translate(615.138 141.138)" overflow="visible" opacity=".75"/><path class="st39" d="M617.8 144.9c-.3 0-.5-.3-.5-.6s.3-.5.6-.5.5.3.5.6-.3.5-.6.5z"/></g><g class="st1"><image width="6" height="6" xlink:href="20629784.png" transform="translate(592.138 130.138)" overflow="visible" opacity=".75"/><path class="st39" d="M595.2 133.3c-.3 0-.5-.3-.5-.6s.3-.5.6-.5.5.3.5.6c0 .4-.3.6-.6.5z"/></g><g class="st1"><image width="6" height="6" xlink:href="206297FB.png" transform="translate(561.138 102.138)" overflow="visible" opacity=".75"/><path class="st39" d="M563.5 105.8c-.3 0-.5-.3-.5-.6s.3-.5.6-.5.5.3.5.6-.3.5-.6.5z"/></g><g class="st1"><image width="6" height="7" xlink:href="206297FC.png" transform="translate(510.138 91.138)" overflow="visible" opacity=".75"/><path class="st39" d="M512.9 95c-.3 0-.5-.3-.5-.6s.3-.5.6-.5.5.3.5.6c0 .4-.3.6-.6.5z"/></g><g class="st43"><image width="12" height="13" xlink:href="206297FF.png" transform="translate(397.966 92.966)" overflow="visible" opacity=".75"/><path class="st39" d="M403.2 100c-.7-.1-1.1-.7-1-1.4.1-.7.7-1.1 1.4-1s1.1.7 1 1.4c-.1.7-.7 1.1-1.4 1z"/></g><g class="st43"><image width="12" height="12" xlink:href="206297FD.png" transform="translate(402.966 109.966)" overflow="visible" opacity=".75"/><path class="st39" d="M408.5 116.6c-.7-.1-1.1-.7-1-1.4.1-.7.7-1.1 1.4-1 .7.1 1.1.7 1 1.4-.1.7-.7 1.1-1.4 1z"/></g><g class="st43"><image width="12" height="13" xlink:href="206297FA.png" transform="translate(369.966 127.966)" overflow="visible" opacity=".75"/><path class="st39" d="M375.4 135.3c-.7-.1-1.1-.7-1-1.4.1-.7.7-1.1 1.4-1 .7.1 1.1.7 1 1.4-.1.6-.8 1.1-1.4 1z"/></g><g class="st43"><image width="13" height="12" xlink:href="20629785.png" transform="translate(360.966 336.966)" overflow="visible" opacity=".75"/><path class="st39" d="M366.7 343.5c-.7-.1-1.1-.7-1-1.4.1-.7.7-1.1 1.4-1 .7.1 1.1.7 1 1.4s-.8 1.1-1.4 1z"/></g><g class="st43"><image width="12" height="13" xlink:href="20629787.png" transform="translate(318.966 241.966)" overflow="visible" opacity=".75"/><path class="st39" d="M324.5 249c-.7-.1-1.1-.7-1-1.4.1-.7.7-1.1 1.4-1 .7.1 1.1.7 1 1.4-.1.7-.7 1.1-1.4 1z"/></g><g class="st43"><image width="13" height="12" xlink:href="2062978A.png" transform="translate(329.966 204.966)" overflow="visible" opacity=".75"/><path class="st39" d="M335.9 211.6c-.7-.1-1.1-.7-1-1.4.1-.7.7-1.1 1.4-1 .7.1 1.1.7 1 1.4-.2.6-.8 1.1-1.4 1z"/></g><g class="st43"><image width="13" height="13" xlink:href="2062978B.png" transform="translate(571.966 101.966)" overflow="visible" opacity=".75"/><circle class="st39" cx="578.1" cy="108.1" r="1.2"/></g><g class="st43"><image width="21" height="22" xlink:href="20629B8E.png" transform="translate(634.407 157.407)" overflow="visible" opacity=".75"/><circle transform="rotate(-48.304 644.533 167.803)" class="st39" cx="644.6" cy="167.8" r="2.2"/></g><g class="st43"><image width="21" height="22" xlink:href="20629B8D.png" transform="translate(642.407 281.407)" overflow="visible" opacity=".75"/><path class="st39" d="M652 294.3c-1.2-.2-2.1-1.3-1.9-2.6.2-1.2 1.3-2.1 2.6-1.9 1.2.2 2.1 1.3 1.9 2.6-.2 1.2-1.4 2.1-2.6 1.9z"/></g><g class="st43"><image width="21" height="21" xlink:href="20629B82.png" transform="translate(515.407 387.407)" overflow="visible" opacity=".75"/><path class="st39" d="M525.3 399.6c-1.2-.2-2.1-1.3-1.9-2.6.2-1.2 1.3-2.1 2.6-1.9 1.2.2 2.1 1.3 1.9 2.6-.2 1.2-1.3 2.1-2.6 1.9z"/></g><g class="st43"><image width="21" height="22" xlink:href="20629B85.png" transform="translate(410.407 372.407)" overflow="visible" opacity=".75"/><path class="st39" d="M420 385.5c-1.2-.2-2.1-1.3-1.9-2.6.2-1.2 1.3-2.1 2.6-1.9 1.2.2 2.1 1.3 1.9 2.6-.2 1.2-1.4 2.1-2.6 1.9z"/></g><g class="st1"><image width="12" height="13" xlink:href="20629B86.png" transform="translate(350.966 105.966)" overflow="visible" opacity=".75"/><path class="st39" d="M356.3 113.3c-.7-.1-1.1-.7-1-1.4.1-.7.7-1.1 1.4-1 .7.1 1.1.7 1 1.4-.1.6-.7 1.1-1.4 1z"/></g><g class="st1"><image width="13" height="12" xlink:href="20629B84.png" transform="translate(353.966 131.966)" overflow="visible" opacity=".75"/><path class="st39" d="M359.9 138.8c-.7-.1-1.1-.7-1-1.4.1-.7.7-1.1 1.4-1 .7.1 1.1.7 1 1.4-.2.7-.8 1.1-1.4 1z"/></g><g class="st1"><image width="13" height="12" xlink:href="20629B83.png" transform="translate(547.966 80.966)" overflow="visible" opacity=".75"/><path class="st39" d="M553.7 87.7c-.7-.1-1.1-.7-1-1.4.1-.7.7-1.1 1.4-1 .7.1 1.1.7 1 1.4-.1.6-.7 1.1-1.4 1z"/></g><g class="st1"><image width="12" height="13" xlink:href="20629B9D.png" transform="translate(625.966 125.966)" overflow="visible" opacity=".75"/><path class="st39" d="M631.3 133.2c-.7-.1-1.1-.7-1-1.4.1-.7.7-1.1 1.4-1 .7.1 1.1.7 1 1.4-.1.6-.7 1.1-1.4 1z"/></g><g opacity=".15"><image width="13" height="12" xlink:href="20629B9E.png" transform="translate(647.966 197.966)" overflow="visible" opacity=".75"/><path class="st39" d="M653.8 204.9c-.7-.1-1.1-.7-1-1.4.1-.7.7-1.1 1.4-1 .7.1 1.1.7 1 1.4-.1.7-.7 1.1-1.4 1z"/></g><g class="st1"><image width="13" height="13" xlink:href="20629B9C.png" transform="translate(627.966 182.966)" overflow="visible" opacity=".75"/><path class="st39" d="M633.7 190.2c-.7-.1-1.1-.7-1-1.4.1-.7.7-1.1 1.4-1 .7.1 1.1.7 1 1.4-.1.7-.7 1.1-1.4 1z"/></g><g class="st1"><image width="13" height="13" xlink:href="20629BB9.png" transform="translate(629.966 352.966)" overflow="visible" opacity=".75"/><path class="st39" d="M635.9 360c-.7-.1-1.1-.7-1-1.4.1-.7.7-1.1 1.4-1 .7.1 1.1.7 1 1.4-.2.6-.8 1.1-1.4 1z"/></g><g class="st1"><image width="12" height="13" xlink:href="20629BBF.png" transform="translate(618.966 340.966)" overflow="visible" opacity=".75"/><path class="st39" d="M624.3 348c-.7-.1-1.1-.7-1-1.4.1-.7.7-1.1 1.4-1 .7.1 1.1.7 1 1.4-.2.7-.8 1.1-1.4 1z"/></g><g class="st1"><image width="7" height="8" xlink:href="20629BB8.png" transform="translate(621.508 330.508)" overflow="visible" opacity=".75"/><path class="st39" d="M625 335.3c-.4-.1-.7-.4-.6-.8.1-.4.4-.7.8-.6.4.1.7.4.6.8 0 .4-.3.6-.8.6z"/></g><g class="st1"><image width="12" height="12" xlink:href="20629BBB.png" transform="translate(472.966 412.966)" overflow="visible" opacity=".75"/><path class="st39" d="M478.5 419.5c-.7-.1-1.1-.7-1-1.4.1-.7.7-1.1 1.4-1 .7.1 1.1.7 1 1.4-.2.6-.8 1.1-1.4 1z"/></g><g opacity=".3"><image width="12" height="13" xlink:href="20629BB7.png" transform="translate(563.966 392.966)" overflow="visible" opacity=".75"/><path class="st39" d="M569.2 400c-.7-.1-1.1-.7-1-1.4.1-.7.7-1.1 1.4-1 .7.1 1.1.7 1 1.4-.1.7-.7 1.1-1.4 1z"/></g><g class="st1"><image width="12" height="12" xlink:href="20629BA7.png" transform="translate(325.966 336.966)" overflow="visible" opacity=".75"/><path class="st39" d="M331.6 343.5c-.7-.1-1.1-.7-1-1.4.1-.7.7-1.1 1.4-1 .7.1 1.1.7 1 1.4-.1.7-.8 1.1-1.4 1z"/></g><g class="st1"><image width="12" height="13" xlink:href="20629BA9.png" transform="translate(340.966 283.966)" overflow="visible" opacity=".75"/><path class="st39" d="M346 291.3c-.7-.1-1.1-.7-1-1.4.1-.7.7-1.1 1.4-1 .7.1 1.1.7 1 1.4-.1.7-.7 1.1-1.4 1z"/></g><g class="st43"><image width="13" height="13" xlink:href="20629BAB.png" transform="translate(361.966 377.966)" overflow="visible" opacity=".75"/><path class="st39" d="M367.6 385.2c-.7-.1-1.1-.7-1-1.4.1-.7.7-1.1 1.4-1s1.1.7 1 1.4c-.1.6-.7 1.1-1.4 1z"/></g></g></g></svg>