<svg xmlns="http://www.w3.org/2000/svg" viewBox="0 0 500 500"><style>.st1{opacity:.21}.st96{fill:#fff}</style><g id="BACKGROUND"><radialGradient id="SVGID_1_" cx="147.732" cy="253.978" r="309.865" gradientUnits="userSpaceOnUse"><stop offset="0" stop-color="#006375"/><stop offset="1" stop-color="#002a6a"/></radialGradient><g class="st1"><linearGradient id="SVGID_2_" gradientUnits="userSpaceOnUse" x1="410.121" y1="294.162" x2="410.121" y2="45.358"><stop offset="0" stop-color="#fff"/><stop offset="1" stop-color="#003f6a" stop-opacity="0"/></linearGradient><path fill="url(#SVGID_2_)" d="M474.2 86.2L346 160.3v148.1l128.2-74.1z"/><linearGradient id="SVGID_3_" gradientUnits="userSpaceOnUse" x1="174.275" y1="119.478" x2="402.685" y2="284.668"><stop offset="0" stop-color="#fff"/><stop offset="1" stop-color="#003f6a" stop-opacity="0"/></linearGradient><path fill="url(#SVGID_3_)" d="M217.7 86.2v148.1L346 308.4V160.3z"/><linearGradient id="SVGID_4_" gradientUnits="userSpaceOnUse" x1="345.994" y1="-75.908" x2="345.994" y2="493.424"><stop offset="0" stop-color="#fff"/><stop offset="1" stop-color="#003f6a" stop-opacity="0"/></linearGradient><path fill="url(#SVGID_4_)" d="M474.2 86.2L346 12.2l-128.3 74L346 160.3z"/><linearGradient id="SVGID_5_" gradientUnits="userSpaceOnUse" x1="345.995" y1="307.054" x2="345.995" y2="316.654"><stop offset="0" stop-color="#fff"/><stop offset="1" stop-color="#003f6a" stop-opacity="0"/></linearGradient><linearGradient id="SVGID_6_" gradientUnits="userSpaceOnUse" x1="387.973" y1="246.772" x2="387.973" y2="83.907"><stop offset="0" stop-color="#fff"/><stop offset="1" stop-color="#003f6a" stop-opacity="0"/></linearGradient><path fill="url(#SVGID_6_)" d="M430 110.7l-84 48.4v97l84-48.5z"/><linearGradient id="SVGID_7_" gradientUnits="userSpaceOnUse" x1="233.591" y1="132.425" x2="383.106" y2="240.557"><stop offset="0" stop-color="#fff"/><stop offset="1" stop-color="#003f6a" stop-opacity="0"/></linearGradient><path fill="url(#SVGID_7_)" d="M262 110.7v96.9l84 48.5v-97z"/><linearGradient id="SVGID_8_" gradientUnits="userSpaceOnUse" x1="345.996" y1="4.527" x2="345.996" y2="377.207"><stop offset="0" stop-color="#fff"/><stop offset="1" stop-color="#003f6a" stop-opacity="0"/></linearGradient><path fill="url(#SVGID_8_)" d="M430 110.7l-84-48.5-84 48.5 84 48.4z"/><linearGradient id="SVGID_9_" gradientUnits="userSpaceOnUse" x1="345.997" y1="255.152" x2="345.997" y2="261.552"><stop offset="0" stop-color="#fff"/><stop offset="1" stop-color="#003f6a" stop-opacity="0"/></linearGradient></g><g class="st1"><linearGradient id="SVGID_10_" gradientUnits="userSpaceOnUse" x1="54.243" y1="354.325" x2="54.243" y2="308.577"><stop offset="0" stop-color="#fff"/><stop offset="1" stop-color="#003f6a" stop-opacity="0"/></linearGradient><path fill="url(#SVGID_10_)" d="M66 316.1l-23.5 13.6v27.2L66 343.3z"/><linearGradient id="SVGID_11_" gradientUnits="userSpaceOnUse" x1="10.878" y1="322.205" x2="52.876" y2="352.579"><stop offset="0" stop-color="#fff"/><stop offset="1" stop-color="#003f6a" stop-opacity="0"/></linearGradient><path fill="url(#SVGID_11_)" d="M18.9 316.1v27.2l23.6 13.6v-27.2z"/><linearGradient id="SVGID_12_" gradientUnits="userSpaceOnUse" x1="42.452" y1="286.279" x2="42.452" y2="390.964"><stop offset="0" stop-color="#fff"/><stop offset="1" stop-color="#003f6a" stop-opacity="0"/></linearGradient><path fill="url(#SVGID_12_)" d="M66 316.1l-23.5-13.6-23.6 13.6 23.6 13.6z"/><linearGradient id="SVGID_13_" gradientUnits="userSpaceOnUse" x1="42.452" y1="356.778" x2="42.452" y2="358.378"><stop offset="0" stop-color="#fff"/><stop offset="1" stop-color="#003f6a" stop-opacity="0"/></linearGradient><linearGradient id="SVGID_14_" gradientUnits="userSpaceOnUse" x1="50.171" y1="345.611" x2="50.171" y2="315.665"><stop offset="0" stop-color="#fff"/><stop offset="1" stop-color="#003f6a" stop-opacity="0"/></linearGradient><path fill="url(#SVGID_14_)" d="M57.9 320.6l-15.4 8.9v17.8l15.4-8.9z"/><linearGradient id="SVGID_15_" gradientUnits="userSpaceOnUse" x1="21.784" y1="324.586" x2="49.276" y2="344.468"><stop offset="0" stop-color="#fff"/><stop offset="1" stop-color="#003f6a" stop-opacity="0"/></linearGradient><path fill="url(#SVGID_15_)" d="M27 320.6v17.8l15.5 8.9v-17.8z"/><linearGradient id="SVGID_16_" gradientUnits="userSpaceOnUse" x1="42.453" y1="301.069" x2="42.453" y2="369.594"><stop offset="0" stop-color="#fff"/><stop offset="1" stop-color="#003f6a" stop-opacity="0"/></linearGradient><path fill="url(#SVGID_16_)" d="M57.9 320.6l-15.4-8.9-15.5 8.9 15.5 8.9z"/><linearGradient id="SVGID_17_" gradientUnits="userSpaceOnUse" x1="42.453" y1="347.341" x2="42.453" y2="348.14"><stop offset="0" stop-color="#fff"/><stop offset="1" stop-color="#003f6a" stop-opacity="0"/></linearGradient></g><g class="st1"><linearGradient id="SVGID_18_" gradientUnits="userSpaceOnUse" x1="63.813" y1="489.496" x2="63.813" y2="422.204"><stop offset="0" stop-color="#fff"/><stop offset="1" stop-color="#003f6a" stop-opacity="0"/></linearGradient><path fill="url(#SVGID_18_)" d="M81.2 433.3l-34.7 20v40l34.7-20z"/><linearGradient id="SVGID_19_" gradientUnits="userSpaceOnUse" x1=".027" y1="442.251" x2="61.802" y2="486.928"><stop offset="0" stop-color="#fff"/><stop offset="1" stop-color="#003f6a" stop-opacity="0"/></linearGradient><path fill="url(#SVGID_19_)" d="M11.8 433.3v40l34.7 20v-40z"/><linearGradient id="SVGID_20_" gradientUnits="userSpaceOnUse" x1="46.47" y1="389.407" x2="46.47" y2="543.388"><stop offset="0" stop-color="#fff"/><stop offset="1" stop-color="#003f6a" stop-opacity="0"/></linearGradient><path fill="url(#SVGID_20_)" d="M81.2 433.3l-34.7-20.1-34.7 20.1 34.7 20z"/><linearGradient id="SVGID_21_" gradientUnits="userSpaceOnUse" x1="46.47" y1="493.081" x2="46.47" y2="495.481"><stop offset="0" stop-color="#fff"/><stop offset="1" stop-color="#003f6a" stop-opacity="0"/></linearGradient><linearGradient id="SVGID_22_" gradientUnits="userSpaceOnUse" x1="57.823" y1="476.678" x2="57.823" y2="432.63"><stop offset="0" stop-color="#fff"/><stop offset="1" stop-color="#003f6a" stop-opacity="0"/></linearGradient><path fill="url(#SVGID_22_)" d="M69.2 439.9L46.5 453v26.2l22.7-13.1z"/><linearGradient id="SVGID_23_" gradientUnits="userSpaceOnUse" x1="16.069" y1="445.752" x2="56.507" y2="474.998"><stop offset="0" stop-color="#fff"/><stop offset="1" stop-color="#003f6a" stop-opacity="0"/></linearGradient><path fill="url(#SVGID_23_)" d="M23.8 439.9v26.2l22.7 13.1V453z"/><linearGradient id="SVGID_24_" gradientUnits="userSpaceOnUse" x1="46.47" y1="411.161" x2="46.47" y2="511.956"><stop offset="0" stop-color="#fff"/><stop offset="1" stop-color="#003f6a" stop-opacity="0"/></linearGradient><path fill="url(#SVGID_24_)" d="M69.2 439.9l-22.7-13.1-22.7 13.1L46.5 453z"/><linearGradient id="SVGID_25_" gradientUnits="userSpaceOnUse" x1="46.47" y1="479.011" x2="46.47" y2="480.611"><stop offset="0" stop-color="#fff"/><stop offset="1" stop-color="#003f6a" stop-opacity="0"/></linearGradient></g><g class="st1"><linearGradient id="SVGID_26_" gradientUnits="userSpaceOnUse" x1="141.585" y1="369.799" x2="141.585" y2="324.051"><stop offset="0" stop-color="#fff"/><stop offset="1" stop-color="#003f6a" stop-opacity="0"/></linearGradient><path fill="url(#SVGID_26_)" d="M153.4 331.6l-23.6 13.6v27.2l23.6-13.6z"/><linearGradient id="SVGID_27_" gradientUnits="userSpaceOnUse" x1="98.22" y1="337.679" x2="140.218" y2="368.053"><stop offset="0" stop-color="#fff"/><stop offset="1" stop-color="#003f6a" stop-opacity="0"/></linearGradient><path fill="url(#SVGID_27_)" d="M106.2 331.6v27.2l23.6 13.6v-27.2z"/><linearGradient id="SVGID_28_" gradientUnits="userSpaceOnUse" x1="129.794" y1="301.753" x2="129.794" y2="406.438"><stop offset="0" stop-color="#fff"/><stop offset="1" stop-color="#003f6a" stop-opacity="0"/></linearGradient><path fill="url(#SVGID_28_)" d="M153.4 331.6l-23.6-13.7-23.6 13.7 23.6 13.6z"/><linearGradient id="SVGID_29_" gradientUnits="userSpaceOnUse" x1="129.794" y1="372.252" x2="129.794" y2="373.852"><stop offset="0" stop-color="#fff"/><stop offset="1" stop-color="#003f6a" stop-opacity="0"/></linearGradient><linearGradient id="SVGID_30_" gradientUnits="userSpaceOnUse" x1="137.513" y1="361.085" x2="137.513" y2="331.139"><stop offset="0" stop-color="#fff"/><stop offset="1" stop-color="#003f6a" stop-opacity="0"/></linearGradient><path fill="url(#SVGID_30_)" d="M145.2 336.1l-15.4 8.9v17.8l15.4-8.9z"/><linearGradient id="SVGID_31_" gradientUnits="userSpaceOnUse" x1="109.126" y1="340.06" x2="136.618" y2="359.942"><stop offset="0" stop-color="#fff"/><stop offset="1" stop-color="#003f6a" stop-opacity="0"/></linearGradient><path fill="url(#SVGID_31_)" d="M114.4 336.1v17.8l15.4 8.9V345z"/><linearGradient id="SVGID_32_" gradientUnits="userSpaceOnUse" x1="129.795" y1="316.543" x2="129.795" y2="385.069"><stop offset="0" stop-color="#fff"/><stop offset="1" stop-color="#003f6a" stop-opacity="0"/></linearGradient><path fill="url(#SVGID_32_)" d="M145.2 336.1l-15.4-9-15.4 9 15.4 8.9z"/><linearGradient id="SVGID_33_" gradientUnits="userSpaceOnUse" x1="129.795" y1="362.414" x2="129.795" y2="364.014"><stop offset="0" stop-color="#fff"/><stop offset="1" stop-color="#003f6a" stop-opacity="0"/></linearGradient></g><g class="st1"><linearGradient id="SVGID_34_" gradientUnits="userSpaceOnUse" x1="171.791" y1="67.779" x2="171.791" y2="22.03"><stop offset="0" stop-color="#fff"/><stop offset="1" stop-color="#003f6a" stop-opacity="0"/></linearGradient><path fill="url(#SVGID_34_)" d="M183.6 29.5L160 43.2v27.2l23.6-13.6z"/><linearGradient id="SVGID_35_" gradientUnits="userSpaceOnUse" x1="128.426" y1="35.659" x2="170.424" y2="66.033"><stop offset="0" stop-color="#fff"/><stop offset="1" stop-color="#003f6a" stop-opacity="0"/></linearGradient><path fill="url(#SVGID_35_)" d="M136.4 29.5v27.3L160 70.4V43.2z"/><linearGradient id="SVGID_36_" gradientUnits="userSpaceOnUse" x1="160" y1="-.267" x2="160" y2="104.417"><stop offset="0" stop-color="#fff"/><stop offset="1" stop-color="#003f6a" stop-opacity="0"/></linearGradient><path fill="url(#SVGID_36_)" d="M183.6 29.5L160 15.9l-23.6 13.6L160 43.2z"/><linearGradient id="SVGID_37_" gradientUnits="userSpaceOnUse" x1="160" y1="70.232" x2="160" y2="71.832"><stop offset="0" stop-color="#fff"/><stop offset="1" stop-color="#003f6a" stop-opacity="0"/></linearGradient><linearGradient id="SVGID_38_" gradientUnits="userSpaceOnUse" x1="167.719" y1="59.065" x2="167.719" y2="29.118"><stop offset="0" stop-color="#fff"/><stop offset="1" stop-color="#003f6a" stop-opacity="0"/></linearGradient><path fill="url(#SVGID_38_)" d="M175.4 34L160 42.9v17.9l15.4-8.9z"/><linearGradient id="SVGID_39_" gradientUnits="userSpaceOnUse" x1="139.332" y1="38.04" x2="166.824" y2="57.922"><stop offset="0" stop-color="#fff"/><stop offset="1" stop-color="#003f6a" stop-opacity="0"/></linearGradient><path fill="url(#SVGID_39_)" d="M144.6 34v17.9l15.4 8.9V42.9z"/><linearGradient id="SVGID_40_" gradientUnits="userSpaceOnUse" x1="160" y1="14.523" x2="160" y2="83.048"><stop offset="0" stop-color="#fff"/><stop offset="1" stop-color="#003f6a" stop-opacity="0"/></linearGradient><path fill="url(#SVGID_40_)" d="M175.4 34L160 25.1 144.6 34l15.4 8.9z"/><linearGradient id="SVGID_41_" gradientUnits="userSpaceOnUse" x1="160.001" y1="60.394" x2="160.001" y2="61.994"><stop offset="0" stop-color="#fff"/><stop offset="1" stop-color="#003f6a" stop-opacity="0"/></linearGradient></g><g class="st1"><linearGradient id="SVGID_42_" gradientUnits="userSpaceOnUse" x1="304.02" y1="338.851" x2="304.02" y2="293.103"><stop offset="0" stop-color="#fff"/><stop offset="1" stop-color="#003f6a" stop-opacity="0"/></linearGradient><path fill="url(#SVGID_42_)" d="M315.8 300.6l-23.6 13.6v27.3l23.6-13.7z"/><linearGradient id="SVGID_43_" gradientUnits="userSpaceOnUse" x1="260.654" y1="306.731" x2="302.653" y2="337.105"><stop offset="0" stop-color="#fff"/><stop offset="1" stop-color="#003f6a" stop-opacity="0"/></linearGradient><path fill="url(#SVGID_43_)" d="M268.6 300.6v27.2l23.6 13.7v-27.3z"/><linearGradient id="SVGID_44_" gradientUnits="userSpaceOnUse" x1="292.229" y1="270.805" x2="292.229" y2="375.49"><stop offset="0" stop-color="#fff"/><stop offset="1" stop-color="#003f6a" stop-opacity="0"/></linearGradient><path fill="url(#SVGID_44_)" d="M315.8 300.6L292.2 287l-23.6 13.6 23.6 13.6z"/><linearGradient id="SVGID_45_" gradientUnits="userSpaceOnUse" x1="292.229" y1="341.304" x2="292.229" y2="342.904"><stop offset="0" stop-color="#fff"/><stop offset="1" stop-color="#003f6a" stop-opacity="0"/></linearGradient><linearGradient id="SVGID_46_" gradientUnits="userSpaceOnUse" x1="299.948" y1="330.137" x2="299.948" y2="300.191"><stop offset="0" stop-color="#fff"/><stop offset="1" stop-color="#003f6a" stop-opacity="0"/></linearGradient><path fill="url(#SVGID_46_)" d="M307.7 305.1l-15.5 8.9v17.8l15.5-8.9z"/><linearGradient id="SVGID_47_" gradientUnits="userSpaceOnUse" x1="271.561" y1="309.112" x2="299.053" y2="328.994"><stop offset="0" stop-color="#fff"/><stop offset="1" stop-color="#003f6a" stop-opacity="0"/></linearGradient><path fill="url(#SVGID_47_)" d="M276.8 305.1v17.8l15.4 8.9V314z"/><linearGradient id="SVGID_48_" gradientUnits="userSpaceOnUse" x1="292.229" y1="285.595" x2="292.229" y2="354.121"><stop offset="0" stop-color="#fff"/><stop offset="1" stop-color="#003f6a" stop-opacity="0"/></linearGradient><path fill="url(#SVGID_48_)" d="M307.7 305.1l-15.5-8.9-15.4 8.9 15.4 8.9z"/><linearGradient id="SVGID_49_" gradientUnits="userSpaceOnUse" x1="292.229" y1="331.867" x2="292.229" y2="332.667"><stop offset="0" stop-color="#fff"/><stop offset="1" stop-color="#003f6a" stop-opacity="0"/></linearGradient></g><g class="st1"><linearGradient id="SVGID_50_" gradientUnits="userSpaceOnUse" x1="446.664" y1="424.42" x2="446.664" y2="346.66"><stop offset="0" stop-color="#fff"/><stop offset="1" stop-color="#003f6a" stop-opacity="0"/></linearGradient><path fill="url(#SVGID_50_)" d="M466.7 359.4l-40.1 23.2v46.3l40.1-23.2z"/><linearGradient id="SVGID_51_" gradientUnits="userSpaceOnUse" x1="372.954" y1="369.825" x2="444.34" y2="421.453"><stop offset="0" stop-color="#fff"/><stop offset="1" stop-color="#003f6a" stop-opacity="0"/></linearGradient><path fill="url(#SVGID_51_)" d="M386.5 359.4v46.3l40.1 23.2v-46.3z"/><linearGradient id="SVGID_52_" gradientUnits="userSpaceOnUse" x1="426.622" y1="308.76" x2="426.622" y2="486.697"><stop offset="0" stop-color="#fff"/><stop offset="1" stop-color="#003f6a" stop-opacity="0"/></linearGradient><path fill="url(#SVGID_52_)" d="M466.7 359.4l-40.1-23.1-40.1 23.1 40.1 23.2z"/><linearGradient id="SVGID_53_" gradientUnits="userSpaceOnUse" x1="426.622" y1="428.75" x2="426.622" y2="431.149"><stop offset="0" stop-color="#fff"/><stop offset="1" stop-color="#003f6a" stop-opacity="0"/></linearGradient><linearGradient id="SVGID_54_" gradientUnits="userSpaceOnUse" x1="439.742" y1="409.609" x2="439.742" y2="358.708"><stop offset="0" stop-color="#fff"/><stop offset="1" stop-color="#003f6a" stop-opacity="0"/></linearGradient><path fill="url(#SVGID_54_)" d="M452.9 367.1l-26.3 15.1v30.3l26.3-15.1z"/><linearGradient id="SVGID_55_" gradientUnits="userSpaceOnUse" x1="391.492" y1="373.872" x2="438.221" y2="407.667"><stop offset="0" stop-color="#fff"/><stop offset="1" stop-color="#003f6a" stop-opacity="0"/></linearGradient><path fill="url(#SVGID_55_)" d="M400.4 367.1v30.3l26.2 15.1v-30.3z"/><linearGradient id="SVGID_56_" gradientUnits="userSpaceOnUse" x1="426.623" y1="333.899" x2="426.623" y2="450.375"><stop offset="0" stop-color="#fff"/><stop offset="1" stop-color="#003f6a" stop-opacity="0"/></linearGradient><path fill="url(#SVGID_56_)" d="M452.9 367.1l-26.3-15.2-26.2 15.2 26.2 15.1z"/><linearGradient id="SVGID_57_" gradientUnits="userSpaceOnUse" x1="426.623" y1="412.428" x2="426.623" y2="414.028"><stop offset="0" stop-color="#fff"/><stop offset="1" stop-color="#003f6a" stop-opacity="0"/></linearGradient></g></g><g id="OBJECTS"><linearGradient id="SVGID_58_" gradientUnits="userSpaceOnUse" x1="128.324" y1="313.184" x2="128.324" y2="221.684"><stop offset="0" stop-color="#fff"/><stop offset="1" stop-color="#003f6a" stop-opacity="0"/></linearGradient><path fill="url(#SVGID_58_)" d="M151.9 236.7l-47.2 27.2v54.5l47.2-27.2z"/><linearGradient id="SVGID_59_" gradientUnits="userSpaceOnUse" x1="41.589" y1="248.942" x2="125.589" y2="309.692"><stop offset="0" stop-color="#fff"/><stop offset="1" stop-color="#003f6a" stop-opacity="0"/></linearGradient><path fill="url(#SVGID_59_)" d="M57.6 236.7v54.5l47.1 27.2v-54.5z"/><linearGradient id="SVGID_60_" gradientUnits="userSpaceOnUse" x1="104.74" y1="177.087" x2="104.74" y2="386.464"><stop offset="0" stop-color="#fff"/><stop offset="1" stop-color="#003f6a" stop-opacity="0"/></linearGradient><path fill="url(#SVGID_60_)" d="M151.9 236.7l-47.2-27.2-47.1 27.2 47.1 27.2z"/><linearGradient id="SVGID_61_" gradientUnits="userSpaceOnUse" x1="104.741" y1="318.09" x2="104.741" y2="321.29"><stop offset="0" stop-color="#fff"/><stop offset="1" stop-color="#003f6a" stop-opacity="0"/></linearGradient><linearGradient id="SVGID_62_" gradientUnits="userSpaceOnUse" x1="120.179" y1="295.755" x2="120.179" y2="235.86"><stop offset="0" stop-color="#fff"/><stop offset="1" stop-color="#003f6a" stop-opacity="0"/></linearGradient><path fill="url(#SVGID_62_)" d="M135.6 245.7l-30.9 17.8v35.7l30.9-17.9z"/><linearGradient id="SVGID_63_" gradientUnits="userSpaceOnUse" x1="63.403" y1="253.703" x2="118.388" y2="293.47"><stop offset="0" stop-color="#fff"/><stop offset="1" stop-color="#003f6a" stop-opacity="0"/></linearGradient><path fill="url(#SVGID_63_)" d="M73.9 245.7v35.6l30.8 17.9v-35.7z"/><linearGradient id="SVGID_64_" gradientUnits="userSpaceOnUse" x1="104.741" y1="206.668" x2="104.741" y2="343.724"><stop offset="0" stop-color="#fff"/><stop offset="1" stop-color="#003f6a" stop-opacity="0"/></linearGradient><path fill="url(#SVGID_64_)" d="M135.6 245.7l-30.9-17.8-30.8 17.8 30.8 17.8z"/><linearGradient id="SVGID_65_" gradientUnits="userSpaceOnUse" x1="104.741" y1="299.214" x2="104.741" y2="300.815"><stop offset="0" stop-color="#fff"/><stop offset="1" stop-color="#003f6a" stop-opacity="0"/></linearGradient><linearGradient id="SVGID_66_" gradientUnits="userSpaceOnUse" x1="110.639" y1="238.127" x2="110.639" y2="124.06"><stop offset="0" stop-color="#fff"/><stop offset="1" stop-color="#003f6a" stop-opacity="0"/></linearGradient><path fill="url(#SVGID_66_)" d="M116.5 142.8l-11.8 6.8v95l11.8-6.8z"/><linearGradient id="SVGID_67_" gradientUnits="userSpaceOnUse" x1="67.026" y1="170.702" x2="134.58" y2="219.558"><stop offset="0" stop-color="#fff"/><stop offset="1" stop-color="#003f6a" stop-opacity="0"/></linearGradient><path fill="url(#SVGID_67_)" d="M93 142.8v95l11.7 6.8v-95z"/><linearGradient id="SVGID_68_" gradientUnits="userSpaceOnUse" x1="104.743" y1="127.887" x2="104.743" y2="180.231"><stop offset="0" stop-color="#fff"/><stop offset="1" stop-color="#003f6a" stop-opacity="0"/></linearGradient><path fill="url(#SVGID_68_)" d="M116.5 142.8l-11.8-6.8-11.7 6.8 11.7 6.8z"/><linearGradient id="SVGID_69_" gradientUnits="userSpaceOnUse" x1="104.743" y1="244.559" x2="104.743" y2="245.359"><stop offset="0" stop-color="#fff"/><stop offset="1" stop-color="#003f6a" stop-opacity="0"/></linearGradient><linearGradient id="SVGID_70_" gradientUnits="userSpaceOnUse" x1="1087.92" y1="1308.882" x2="1087.92" y2="1194.815" gradientTransform="rotate(121.44 893.688 526.87)"><stop offset="0" stop-color="#fff"/><stop offset="1" stop-color="#003f6a" stop-opacity="0"/></linearGradient><path fill="url(#SVGID_70_)" d="M203.4 339.4l.4-13.6-81.1-49.5-.4 13.6z"/><linearGradient id="SVGID_71_" gradientUnits="userSpaceOnUse" x1="1044.309" y1="1241.457" x2="1111.86" y2="1290.311" gradientTransform="rotate(121.44 893.688 526.87)"><stop offset="0" stop-color="#fff"/><stop offset="1" stop-color="#003f6a" stop-opacity="0"/></linearGradient><path fill="url(#SVGID_71_)" d="M215.7 319.3l-81.1-49.5-11.9 6.5 81.1 49.5z"/><linearGradient id="SVGID_72_" gradientUnits="userSpaceOnUse" x1="1082.026" y1="1198.642" x2="1082.026" y2="1250.986" gradientTransform="rotate(121.44 893.688 526.87)"><stop offset="0" stop-color="#fff"/><stop offset="1" stop-color="#003f6a" stop-opacity="0"/></linearGradient><path fill="url(#SVGID_72_)" d="M203.4 339.4l12-6.5.3-13.6-11.9 6.5z"/><linearGradient id="SVGID_73_" gradientUnits="userSpaceOnUse" x1="1082.023" y1="1315.239" x2="1082.023" y2="1316.187" gradientTransform="rotate(121.44 893.688 526.87)"><stop offset="0" stop-color="#fff"/><stop offset="1" stop-color="#003f6a" stop-opacity="0"/></linearGradient><linearGradient id="SVGID_74_" gradientUnits="userSpaceOnUse" x1="128.325" y1="176.754" x2="128.325" y2="85.254"><stop offset="0" stop-color="#fff"/><stop offset="1" stop-color="#003f6a" stop-opacity="0"/></linearGradient><path fill="url(#SVGID_74_)" d="M151.9 100.3l-47.2 27.2V182l47.2-27.3z"/><linearGradient id="SVGID_75_" gradientUnits="userSpaceOnUse" x1="41.59" y1="112.512" x2="125.59" y2="173.262"><stop offset="0" stop-color="#fff"/><stop offset="1" stop-color="#003f6a" stop-opacity="0"/></linearGradient><path fill="url(#SVGID_75_)" d="M57.6 100.3v54.4l47.1 27.3v-54.5z"/><linearGradient id="SVGID_76_" gradientUnits="userSpaceOnUse" x1="104.742" y1="40.657" x2="104.742" y2="250.035"><stop offset="0" stop-color="#fff"/><stop offset="1" stop-color="#003f6a" stop-opacity="0"/></linearGradient><path fill="url(#SVGID_76_)" d="M151.9 100.3L104.7 73l-47.1 27.3 47.1 27.2z"/><linearGradient id="SVGID_77_" gradientUnits="userSpaceOnUse" x1="104.742" y1="181.66" x2="104.742" y2="184.86"><stop offset="0" stop-color="#fff"/><stop offset="1" stop-color="#003f6a" stop-opacity="0"/></linearGradient><linearGradient id="SVGID_78_" gradientUnits="userSpaceOnUse" x1="120.18" y1="159.326" x2="120.18" y2="99.431"><stop offset="0" stop-color="#fff"/><stop offset="1" stop-color="#003f6a" stop-opacity="0"/></linearGradient><path fill="url(#SVGID_78_)" d="M135.6 109.3l-30.9 17.8v35.6l30.9-17.8z"/><linearGradient id="SVGID_79_" gradientUnits="userSpaceOnUse" x1="63.404" y1="117.274" x2="118.39" y2="157.04"><stop offset="0" stop-color="#fff"/><stop offset="1" stop-color="#003f6a" stop-opacity="0"/></linearGradient><path fill="url(#SVGID_79_)" d="M73.9 109.3v35.6l30.8 17.8v-35.6z"/><linearGradient id="SVGID_80_" gradientUnits="userSpaceOnUse" x1="104.743" y1="70.238" x2="104.743" y2="207.294"><stop offset="0" stop-color="#fff"/><stop offset="1" stop-color="#003f6a" stop-opacity="0"/></linearGradient><path fill="url(#SVGID_80_)" d="M135.6 109.3l-30.9-17.9-30.8 17.9 30.8 17.8z"/><linearGradient id="SVGID_81_" gradientUnits="userSpaceOnUse" x1="104.743" y1="162.385" x2="104.743" y2="164.785"><stop offset="0" stop-color="#fff"/><stop offset="1" stop-color="#003f6a" stop-opacity="0"/></linearGradient><linearGradient id="SVGID_82_" gradientUnits="userSpaceOnUse" x1="239.311" y1="383.603" x2="239.311" y2="292.103"><stop offset="0" stop-color="#fff"/><stop offset="1" stop-color="#003f6a" stop-opacity="0"/></linearGradient><path fill="url(#SVGID_82_)" d="M262.9 307.1l-47.2 27.3v54.4l47.2-27.2z"/><linearGradient id="SVGID_83_" gradientUnits="userSpaceOnUse" x1="152.577" y1="319.362" x2="236.576" y2="380.112"><stop offset="0" stop-color="#fff"/><stop offset="1" stop-color="#003f6a" stop-opacity="0"/></linearGradient><path fill="url(#SVGID_83_)" d="M168.6 307.1v54.5l47.1 27.2v-54.4z"/><linearGradient id="SVGID_84_" gradientUnits="userSpaceOnUse" x1="215.728" y1="247.507" x2="215.728" y2="456.884"><stop offset="0" stop-color="#fff"/><stop offset="1" stop-color="#003f6a" stop-opacity="0"/></linearGradient><path fill="url(#SVGID_84_)" d="M262.9 307.1l-47.2-27.2-47.1 27.2 47.1 27.3z"/><linearGradient id="SVGID_85_" gradientUnits="userSpaceOnUse" x1="215.728" y1="388.51" x2="215.728" y2="391.71"><stop offset="0" stop-color="#fff"/><stop offset="1" stop-color="#003f6a" stop-opacity="0"/></linearGradient><linearGradient id="SVGID_86_" gradientUnits="userSpaceOnUse" x1="231.166" y1="366.175" x2="231.166" y2="306.28"><stop offset="0" stop-color="#fff"/><stop offset="1" stop-color="#003f6a" stop-opacity="0"/></linearGradient><path fill="url(#SVGID_86_)" d="M246.6 316.1l-30.9 17.8v35.7l30.9-17.8z"/><linearGradient id="SVGID_87_" gradientUnits="userSpaceOnUse" x1="174.39" y1="324.123" x2="229.376" y2="363.889"><stop offset="0" stop-color="#fff"/><stop offset="1" stop-color="#003f6a" stop-opacity="0"/></linearGradient><path fill="url(#SVGID_87_)" d="M184.9 316.1v35.7l30.8 17.8v-35.7z"/><linearGradient id="SVGID_88_" gradientUnits="userSpaceOnUse" x1="215.729" y1="277.087" x2="215.729" y2="414.144"><stop offset="0" stop-color="#fff"/><stop offset="1" stop-color="#003f6a" stop-opacity="0"/></linearGradient><path fill="url(#SVGID_88_)" d="M246.6 316.1l-30.9-17.8-30.8 17.8 30.8 17.8z"/><linearGradient id="SVGID_89_" gradientUnits="userSpaceOnUse" x1="215.729" y1="369.634" x2="215.729" y2="371.234"><stop offset="0" stop-color="#fff"/><stop offset="1" stop-color="#003f6a" stop-opacity="0"/></linearGradient><linearGradient id="SVGID_90_" gradientUnits="userSpaceOnUse" x1="52.937" y1="380.224" x2="187.417" y2="380.224"><stop offset="0" stop-color="#fff"/><stop offset="1" stop-color="#003f6a" stop-opacity="0"/></linearGradient><path fill="none" stroke="url(#SVGID_90_)" stroke-miterlimit="10" d="M187.2 364l-50.9 29.6L97 370.4l-43.8 26.1"/><linearGradient id="SVGID_91_" gradientUnits="userSpaceOnUse" x1="202.104" y1="396.471" x2="295.26" y2="396.471"><stop offset="0" stop-color="#003f6a" stop-opacity="0"/><stop offset="1" stop-color="#fff"/></linearGradient><path fill="none" stroke="url(#SVGID_91_)" stroke-miterlimit="10" d="M202.3 371.2l92.7 50.6"/><linearGradient id="SVGID_92_" gradientUnits="userSpaceOnUse" x1="184.588" y1="371.914" x2="277.744" y2="371.914"><stop offset="0" stop-color="#003f6a" stop-opacity="0"/><stop offset="1" stop-color="#fff"/></linearGradient><path fill="none" stroke="url(#SVGID_92_)" stroke-miterlimit="10" d="M184.8 346.6l92.7 50.6"/><linearGradient id="SVGID_93_" gradientUnits="userSpaceOnUse" x1="250.818" y1="374.89" x2="274.952" y2="374.89"><stop offset="0" stop-color="#003f6a" stop-opacity="0"/><stop offset="1" stop-color="#fff"/></linearGradient><path fill="none" stroke="url(#SVGID_93_)" stroke-miterlimit="10" d="M251.1 368.4l23.6 13"/><linearGradient id="SVGID_94_" gradientUnits="userSpaceOnUse" x1="63.282" y1="97.141" x2="62.754" y2="39.309"><stop offset="0" stop-color="#fff"/><stop offset="1" stop-color="#003f6a" stop-opacity="0"/></linearGradient><path fill="none" stroke="url(#SVGID_94_)" stroke-miterlimit="10" d="M63 97.1V39.3"/><linearGradient id="SVGID_95_" gradientUnits="userSpaceOnUse" x1="81.423" y1="87.891" x2="80.894" y2="30.059"><stop offset="0" stop-color="#fff"/><stop offset="1" stop-color="#003f6a" stop-opacity="0"/></linearGradient><path fill="none" stroke="url(#SVGID_95_)" stroke-miterlimit="10" d="M81.2 87.9V30.1"/><path class="st96" d="M43 398l8.3 4.8 8.4-4.8-8.4-4.8zm26.1.7l8.4 4.8 8.3-4.8-8.3-4.8zm143.4 41.2l8.3 4.8 8.3-4.8-8.3-4.8zm76.6-16.7l8.4 4.8 8.3-4.8-8.3-4.8zm-16.7-24.8l8.4 4.8 8.3-4.8-8.3-4.8zm-3.2-15.3l8.3 4.8 8.4-4.8-8.4-4.8z"/><linearGradient id="SVGID_96_" gradientUnits="userSpaceOnUse" x1="77.226" y1="392.129" x2="192.408" y2="392.129"><stop offset="0" stop-color="#fff"/><stop offset="1" stop-color="#003f6a" stop-opacity="0"/></linearGradient><path fill="none" stroke="url(#SVGID_96_)" stroke-miterlimit="10" d="M192.1 375.2l-54.4 33.7-39.2-23.4-21 12.5"/><linearGradient id="SVGID_97_" gradientUnits="userSpaceOnUse" x1="195.7" y1="443.613" x2="192.46" y2="383.404"><stop offset="0" stop-color="#fff"/><stop offset="1" stop-color="#003f6a" stop-opacity="0"/></linearGradient><path fill="none" stroke="url(#SVGID_97_)" stroke-miterlimit="10" d="M205.8 383.1l-40.1 25.8 58.7 32.7"/><linearGradient id="SVGID_98_" gradientUnits="userSpaceOnUse" x1="151.653" y1="230.739" x2="199.325" y2="230.739"><stop offset="0" stop-color="#fff"/><stop offset="1" stop-color="#003f6a" stop-opacity="0"/></linearGradient><path fill="none" stroke="url(#SVGID_98_)" stroke-miterlimit="10" d="M151.9 244.6l47.2-27.8"/><linearGradient id="SVGID_99_" gradientUnits="userSpaceOnUse" x1="129.541" y1="215.066" x2="161.522" y2="215.066"><stop offset="0" stop-color="#fff"/><stop offset="1" stop-color="#003f6a" stop-opacity="0"/></linearGradient><path fill="none" stroke="url(#SVGID_99_)" stroke-miterlimit="10" d="M129.8 224.3l31.5-18.5"/><linearGradient id="SVGID_100_" gradientUnits="userSpaceOnUse" x1="117.312" y1="202.941" x2="164.983" y2="202.941"><stop offset="0" stop-color="#fff"/><stop offset="1" stop-color="#003f6a" stop-opacity="0"/></linearGradient><path fill="none" stroke="url(#SVGID_100_)" stroke-miterlimit="10" d="M117.6 216.8l47.1-27.8"/><path class="st96" d="M67.1 32.2l-8.2 4.7v9.5l8.2-4.7zm94.7 154.4l-8.2 4.7v9.5l8.2-4.7zm0 14.3l-8.2 4.7v9.5l8.2-4.8zm34.8 12.8l-8.2 4.7v9.5l8.2-4.8zM85.3 22l-8.2 4.7v9.5l8.2-4.8z"/></g></svg>