<svg version="1.1" id="Ñëîé_1" xmlns="http://www.w3.org/2000/svg" xmlns:xlink="http://www.w3.org/1999/xlink" x="0" y="0" viewBox="0 0 600 400" xml:space="preserve"><style>.st0{fill:#fff}.st1{fill:#173d7a}.st2{fill:#d4ecff}.st3{fill:#5793ce}.st4{opacity:.5;fill:#fff}.st5{fill:#396caa}.st6{fill:#ff2c9c}.st7{fill:#274f89}.st8{fill:#fafdff}.st9{opacity:.4;fill:#d4ecff}.st13{fill:#b3e0ff}.st16{fill:#2c2660}</style><path class="st0" d="M521.2 147.1l-23.3-13.5 23.3-13.5 23.3 13.5-23.3 13.5zM500 133.7l21.3 12.3 21.3-12.3-21.3-12.3-21.3 12.3z"/><path class="st1" d="M536.6 129.3l-15.4 8.8v-17.7l15.4-8.8z"/><path class="st2" d="M521.2 120.4l-15.3-8.8 15.3-8.9 15.4 8.9z"/><path class="st3" d="M521.2 138.1l-15.3-8.8v-17.7l15.3 8.8z"/><path class="st0" d="M515.7 128.6l-4.3-2.5v-5l4.3 2.5z"/><path class="st4" d="M45.1 274l-23.3-13.5L45.1 247l23.3 13.5L45.1 274zm-21.2-13.4l21.3 12.3 21.3-12.3-21.3-12.3-21.3 12.3z"/><path class="st1" d="M60.5 256.1L45.1 265v-17.7l15.4-8.9z"/><path class="st2" d="M45.1 247.3l-15.3-8.9 15.3-8.8 15.4 8.8z"/><path class="st3" d="M45.1 265l-15.3-8.9v-17.7l15.3 8.9z"/><path class="st0" d="M39.6 255.4l-4.3-2.5V248l4.3 2.5z"/><path class="st4" d="M318.9 98.2l-53.4-31 59.9-34.5 53.4 31-59.9 34.5zm-51.4-30.9l51.4 29.8 57.9-33.3L325.4 34l-57.9 33.3z"/><path class="st1" d="M353.9 63.1l-5.2-3L367.9 49c.9-.5.9-1.4 0-1.9l-19.6-11.3c-.9-.5-2.4-.5-3.3 0l-19.1 11.1-5.2-3 19.1-11.1c3.8-2.2 9.9-2.2 13.7 0l19.6 11.3c3.8 2.2 3.8 5.7 0 7.9l-19.2 11.1z"/><path class="st2" d="M362.3 64.4c0-2.8-1.7-6-3.8-7.2l-34.7-20c-.9-.5-1.8-.6-2.4-.2L280 61l40 30.2 40.8-23.7c.1-.1.2-.1.4-.2.7-.5 1.1-1.5 1.1-2.9z"/><path class="st5" d="M320 91.2l40.8-23.7c.1-.1.2-.1.4-.2.7-.5 1.1-1.5 1.1-2.9 0-1.3-.4-2.8-1-4l-46.5 26.9 5.2 3.9z"/><path class="st1" d="M317.4 91.1l-34.7-20c-2.1-1.2-3.8-4.4-3.8-7.2s1.7-4.1 3.8-2.9l34.7 20c2.1 1.2 3.8 4.4 3.8 7.2s-1.7 4.1-3.8 2.9z"/><path class="st0" d="M317.9 80.9l-34.7-20c-1-.6-1.8-.6-2.5-.2.6-.2 1.3-.1 2.1.4l34.7 20c2.1 1.2 3.8 4.4 3.8 7.2 0 1.5-.5 2.6-1.3 3 1-.3 1.7-1.5 1.7-3.2-.1-2.8-1.8-6-3.8-7.2z"/><path class="st6" d="M312.2 84.3l-4.2-2.4c-.4-.2-.8-.9-.8-1.4 0-.6.3-.8.8-.6l4.2 2.4c.4.2.8.9.8 1.4 0 .6-.3.9-.8.6z"/><path class="st3" d="M317.6 56.2c1.1-.6 1.1-1.7 0-2.3-1.1-.6-2.9-.6-4 0s-1.1 1.7 0 2.3c1.1.7 2.9.7 4 0z"/><path class="st0" d="M323.6 59.6c1.1-.6 1.1-1.7 0-2.3-1.1-.6-2.9-.6-4 0s-1.1 1.7 0 2.3c1.2.7 2.9.7 4 0zm6.1 3.4c1.1-.6 1.1-1.7 0-2.3-1.1-.6-2.9-.6-4 0s-1.1 1.7 0 2.3c1.1.7 2.9.7 4 0z"/><path class="st4" d="M199.4 157.7l-86-49.8 65.9-38 86 49.8-65.9 38zM115.5 108l84 48.6 63.9-36.8-84-48.6-63.9 36.8zm400.3 132.1l-.3-.1-114.3-66.1 65.9-38 .3.1 114.3 66.1-65.9 38zm-112.5-66.2L515.8 239l63.9-36.8-112.5-65.1-63.9 36.8z"/><path class="st1" d="M259.5 56l-60.2-34.8c-.7-.4-1.4-.5-2-.3h-.1l-2.2.8 2 1v.1l-10.6 48.4c-.5 2.2.5 4.8 2.2 5.8l58.8 33.9-.2 2.5 2.4-.9c.8-.4 1.4-1.2 1.7-2.4l10.6-48.4c.3-2.1-.7-4.7-2.4-5.7z"/><path class="st5" d="M259.5 56l-60.2-34.8c-.7-.4-1.4-.5-2-.3h-.1l-2.2.8 2 1v.1L189.7 56 219 79.1l42.4-20.6c-.4-1.1-1.1-2-1.9-2.5z"/><path class="st7" d="M257.2 62.9l4.6-2c.1-1.8-.7-3.6-1.9-4.6l-7.3 3.1 4.6 3.5z"/><path class="st2" d="M244.9 113.3l-60.2-34.8c-1.7-1-2.7-3.6-2.2-5.8l10.6-48.4c.5-2.2 2.3-3.2 4-2.3l60.2 34.8c1.7 1 2.7 3.6 2.2 5.8L248.9 111c-.6 2.3-2.3 3.3-4 2.3z"/><path class="st0" d="M257.9 56.7l-60.2-34.8c-.8-.5-1.7-.5-2.4-.1.6-.1 1.2 0 1.8.3l60.2 34.8c1.7 1 2.7 3.6 2.2 5.8l-10.6 48.4c-.3 1.2-.9 2-1.6 2.4 1-.2 1.9-1.1 2.2-2.6l10.6-48.4c.4-2.2-.5-4.8-2.2-5.8z"/><path class="st0" d="M243.6 110L187 77.3c-1.6-.9-2.5-3.3-2-5.3l9.8-44.6c.4-2 2.1-3 3.6-2.1L255 58c1.6.9 2.5 3.3 2 5.3l-9.8 44.6c-.5 2.1-2.1 3-3.6 2.1z"/><path class="st1" d="M243.6 110L187 77.3c-1.6-.9-2.5-3.3-2-5.3l9.8-44.6c.4-2 2.1-3 3.6-2.1L255 58c1.6.9 2.5 3.3 2 5.3l-9.8 44.6c-.5 2.1-2.1 3-3.6 2.1z"/><path class="st3" d="M244.1 109.8l-56.6-32.7c-1.6-.9-2.5-3.3-2-5.3l9.8-44.6c.2-1 .8-1.8 1.4-2.2-.9.2-1.6 1.1-1.9 2.4L184.9 72c-.4 2 .5 4.4 2 5.3l56.6 32.7c.8.4 1.6.4 2.2.1-.5.1-1.1.1-1.6-.3z"/><path class="st1" d="M245.7 114.9l-8.2-1.1-53.1-30.7c-1.7-1-4.7-.9-6.6.3l-37.6 21.7-5-.7v2.8c0 .7.3 1.3 1.1 1.7l60.2 34.8c1.7 1 4.7.9 6.6-.3l41-23.7c1.1-.6 1.7-1.5 1.6-2.2v-2.6z"/><path class="st5" d="M205.8 95.5l-3.8-2.2h-41.5L140 105.1l-5-.7v2.8c0 .7.3 1.3 1.1 1.7l60.2 34.8c.9.5 2.2.7 3.4.6l6.1-48.8z"/><path class="st3" d="M137.3 104.7l-2.2-.3v2.8c0 .7.3 1.3 1.1 1.7l1.1.6v-4.8z"/><path class="st7" d="M197 144.1c1.6.6 3.9.5 5.6-.4v-6.3H197v6.7z"/><path class="st2" d="M196.4 141l-60.2-34.8c-1.7-1-1.5-2.7.5-3.8l41-23.7c2-1.1 4.9-1.3 6.6-.3l60.2 34.8c1.7 1 1.5 2.7-.5 3.8l-41 23.7c-1.9 1.1-4.9 1.2-6.6.3z"/><path class="st0" d="M244.1 116l-41 23.7c-2 1.1-4.9 1.3-6.6.3l-60.2-34.8c-.6-.3-.9-.7-1.1-1.2-.3.8.1 1.6 1.1 2.2l60.2 34.8c1.7 1 4.7.9 6.6-.3l41-23.7c1.3-.8 1.8-1.8 1.5-2.7-.2.6-.7 1.2-1.5 1.7z"/><path class="st3" d="M161.8 94.7l-2.7-1.6c-.2-.1-.2-.3.1-.5l3.2-1.9c.3-.1.6-.2.9 0l2.7 1.6c.2.1.2.3-.1.5l-3.2 1.9c-.3.1-.6.1-.9 0zm4.2 2.4l-2.7-1.6c-.2-.1-.2-.3.1-.5l3.2-1.9c.3-.1.6-.2.9 0l2.7 1.6c.2.1.2.3-.1.5l-3.2 1.9c-.3.1-.6.1-.9 0zm4.2 2.4l-2.7-1.6c-.2-.1-.2-.3.1-.5l3.2-1.9c.3-.1.6-.2.9 0l2.7 1.6c.2.1.2.3-.1.5l-3.2 1.9c-.3.2-.6.2-.9 0zm5.9-2l-2.7-1.6c-.2-.1-.2-.3.1-.5l2.7-1.6c.3-.1.6-.2.9 0l2.7 1.6c.2.1.2.3-.1.5l-2.7 1.6c-.3.1-.7.2-.9 0zm4.2 2.5l-2.7-1.6c-.2-.1-.2-.3.1-.5l2.7-1.6c.3-.1.6-.2.9 0l2.7 1.6c.2.1.2.3-.1.5l-2.7 1.6c-.3.1-.7.1-.9 0zm4.2 2.4l-2.7-1.6c-.2-.1-.2-.3.1-.5l2.7-1.6c.3-.1.6-.2.9 0l2.7 1.6c.2.1.2.3-.1.5l-2.7 1.6c-.3.1-.7.1-.9 0zm4.2 2.4l-2.7-1.6c-.2-.1-.2-.3.1-.5l2.7-1.6c.3-.1.6-.2.9 0l2.7 1.6c.2.1.2.3-.1.5l-2.7 1.6c-.3.1-.7.2-.9 0zm4.2 2.5l-2.7-1.6c-.2-.1-.2-.3.1-.5l2.7-1.6c.3-.1.6-.2.9 0l2.7 1.6c.2.1.2.3-.1.5l-2.7 1.6c-.3.1-.7.1-.9 0zm4.2 2.4l-2.7-1.6c-.2-.1-.2-.3.1-.5l2.7-1.6c.3-.1.6-.2.9 0l2.7 1.6c.2.1.2.3-.1.5l-2.7 1.6c-.3.1-.7.1-.9 0zm4.2 2.4l-2.7-1.6c-.2-.1-.2-.3.1-.5l2.7-1.6c.3-.1.6-.2.9 0l2.7 1.6c.2.1.2.3-.1.5l-2.7 1.6c-.3.1-.7.1-.9 0zm4.2 2.4l-2.7-1.6c-.2-.1-.2-.3.1-.5l2.7-1.6c.3-.1.6-.2.9 0l2.7 1.6c.2.1.2.3-.1.5l-2.7 1.6c-.3.1-.7.2-.9 0zm4.2 2.5l-2.7-1.6c-.2-.1-.2-.3.1-.5l2.7-1.6c.3-.1.6-.2.9 0l2.7 1.6c.2.1.2.3-.1.5l-2.7 1.6c-.3.1-.7.1-.9 0zm4.2 2.4l-2.7-1.6c-.2-.1-.2-.3.1-.5l2.7-1.6c.3-.1.6-.2.9 0l2.7 1.6c.2.1.2.3-.1.5l-2.7 1.6c-.3.1-.7.1-.9 0zm-31.6-23l-2.7-1.6c-.2-.1-.2-.3.1-.5l2.7-1.6c.3-.1.6-.2.9 0l2.7 1.6c.2.1.2.3-.1.5l-2.7 1.6c-.3.1-.7.1-.9 0zm-4.3-2.5l-2.7-1.6c-.2-.1-.2-.3.1-.5l2.7-1.6c.3-.1.6-.2.9 0l2.7 1.6c.2.1.2.3-.1.5l-2.7 1.6c-.3.1-.7.1-.9 0zm-4.3-2.4l-5.9-3.4c-.2-.1-.2-.3.1-.5l2.7-1.6c.3-.1.6-.2.9 0l5.9 3.4c.2.1.2.3-.1.5l-2.7 1.6c-.3.1-.7.1-.9 0zm3-3l-4.8-2.7c-.2-.1-.2-.3.1-.5l2.7-1.6c.3-.1.6-.2.9 0l4.8 2.7c.2.1.2.3-.1.5l-2.7 1.6c-.3.1-.7.1-.9 0zm9.8 10.3l-2.7-1.6c-.2-.1-.2-.3.1-.5l2.7-1.6c.3-.1.6-.2.9 0l2.7 1.6c.2.1.2.3-.1.5l-2.7 1.6c-.3.1-.7.1-.9 0zm4.2 2.4l-2.7-1.6c-.2-.1-.2-.3.1-.5l2.7-1.6c.3-.1.6-.2.9 0l2.7 1.6c.2.1.2.3-.1.5l-2.7 1.6c-.3.2-.7.2-.9 0zm4.2 2.5l-2.7-1.6c-.2-.1-.2-.3.1-.5l2.7-1.6c.3-.1.6-.2.9 0l2.7 1.6c.2.1.2.3-.1.5l-2.7 1.6c-.3.1-.7.1-.9 0zm4.2 2.4l-2.7-1.6c-.2-.1-.2-.3.1-.5l2.7-1.6c.3-.1.6-.2.9 0l2.7 1.6c.2.1.2.3-.1.5l-2.7 1.6c-.3.1-.7.1-.9 0zm4.2 2.4l-2.7-1.6c-.2-.1-.2-.3.1-.5l2.7-1.6c.3-.1.6-.2.9 0l2.7 1.6c.2.1.2.3-.1.5l-2.7 1.6c-.3.1-.7.2-.9 0zm4.2 2.5l-2.7-1.6c-.2-.1-.2-.3.1-.5l2.7-1.6c.3-.1.6-.2.9 0l2.7 1.6c.2.1.2.3-.1.5l-2.7 1.6c-.3.1-.7.1-.9 0zm4.2 2.4l-2.7-1.6c-.2-.1-.2-.3.1-.5l2.7-1.6c.3-.1.6-.2.9 0l2.7 1.6c.2.1.2.3-.1.5l-2.7 1.6c-.3.1-.7.1-.9 0zm4.2 2.4l-2.7-1.6c-.2-.1-.2-.3.1-.5l2.7-1.6c.3-.1.6-.2.9 0l2.7 1.6c.2.1.2.3-.1.5l-2.7 1.6c-.3.1-.7.1-.9 0zm4.2 2.4l-2.7-1.6c-.2-.1-.2-.3.1-.5l2.7-1.6c.3-.1.6-.2.9 0l2.7 1.6c.2.1.2.3-.1.5l-2.7 1.6c-.3.2-.7.2-.9 0zm7.5 4.4l-5.9-3.4c-.2-.1-.2-.3.1-.5l2.7-1.6c.3-.1.6-.2.9 0l5.9 3.4c.2.1.2.3-.1.5l-2.7 1.6c-.3.1-.7.1-.9 0zm8.2-4.8l-5-2.9c-.2-.1-.2-.3.1-.5l2.7-1.6c.3-.1.6-.2.9 0l5 2.9c.2.1.2.3-.1.5l-2.7 1.6c-.3.1-.7.2-.9 0zm-42-19.5l-2.7-1.6c-.2-.1-.2-.3.1-.5l2.7-1.6c.3-.1.6-.2.9 0l2.7 1.6c.2.1.2.3-.1.5l-2.7 1.6c-.3.2-.6.2-.9 0zm-4.3-2.4l-2.7-1.6c-.2-.1-.2-.3.1-.5l2.7-1.6c.3-.1.6-.2.9 0l2.7 1.6c.2.1.2.3-.1.5l-2.7 1.6c-.3.1-.7.1-.9 0zm-4.3-2.5l-2.7-1.6c-.2-.1-.2-.3.1-.5l2.7-1.6c.3-.1.6-.2.9 0l2.7 1.6c.2.1.2.3-.1.5l-2.7 1.6c-.3.1-.7.1-.9 0zm-4.3-2.5l-2.7-1.6c-.2-.1-.2-.3.1-.5l2.7-1.6c.3-.1.6-.2.9 0l2.7 1.6c.2.1.2.3-.1.5l-2.7 1.6c-.3.1-.7.1-.9 0zm17.1 9.9l-2.7-1.6c-.2-.1-.2-.3.1-.5l2.7-1.6c.3-.1.6-.2.9 0l2.7 1.6c.2.1.2.3-.1.5l-2.7 1.6c-.3.1-.6.1-.9 0zm4.2 2.4l-2.7-1.6c-.2-.1-.2-.3.1-.5l2.7-1.6c.3-.1.6-.2.9 0l2.7 1.6c.2.1.2.3-.1.5l-2.7 1.6c-.2.1-.6.1-.9 0zm4.3 2.4l-2.7-1.6c-.2-.1-.2-.3.1-.5l2.7-1.6c.3-.1.6-.2.9 0l2.7 1.6c.2.1.2.3-.1.5l-2.7 1.6c-.3.1-.7.2-.9 0zm4.2 2.5l-2.7-1.6c-.2-.1-.2-.3.1-.5l2.7-1.6c.3-.1.6-.2.9 0l2.7 1.6c.2.1.2.3-.1.5l-2.7 1.6c-.3.1-.7.1-.9 0zm4.2 2.4l-2.7-1.6c-.2-.1-.2-.3.1-.5l2.7-1.6c.3-.1.6-.2.9 0l2.7 1.6c.2.1.2.3-.1.5l-2.7 1.6c-.3.1-.7.1-.9 0zm4.2 2.4l-2.7-1.6c-.2-.1-.2-.3.1-.5l2.7-1.6c.3-.1.6-.2.9 0l2.7 1.6c.2.1.2.3-.1.5l-2.7 1.6c-.3.1-.7.1-.9 0zm4.2 2.4l-2.7-1.6c-.2-.1-.2-.3.1-.5l2.7-1.6c.3-.1.6-.2.9 0l2.7 1.6c.2.1.2.3-.1.5l-2.7 1.6c-.3.2-.7.2-.9 0zm4.2 2.5l-2.7-1.6c-.2-.1-.2-.3.1-.5l2.7-1.6c.3-.1.6-.2.9 0l2.7 1.6c.2.1.2.3-.1.5l-2.7 1.6c-.3.1-.7.1-.9 0zm4.2 2.4l-2.7-1.6c-.2-.1-.2-.3.1-.5l2.7-1.6c.3-.1.6-.2.9 0l2.7 1.6c.2.1.2.3-.1.5l-2.7 1.6c-.3.1-.7.1-.9 0zm-40.1-27.9l-2.7-1.6c-.2-.1-.2-.3.1-.5l2.7-1.6c.3-.1.6-.2.9 0l2.7 1.6c.2.1.2.3-.1.5l-2.7 1.6c-.3.1-.7.2-.9 0zm-4.2-2.4l-2.7-1.6c-.2-.1-.2-.3.1-.5l2.7-1.6c.3-.1.6-.2.9 0l2.7 1.6c.2.1.2.3-.1.5l-2.7 1.6c-.3.1-.6.1-.9 0zm-4.2-2.4l-2.7-1.6c-.2-.1-.2-.3.1-.5l2.7-1.6c.3-.1.6-.2.9 0l2.7 1.6c.2.1.2.3-.1.5l-2.7 1.6c-.2.1-.6.1-.9 0zm-4.1-2.4l-2.7-1.6c-.2-.1-.2-.3.1-.5l2.7-1.6c.3-.1.6-.2.9 0l2.7 1.6c.2.1.2.3-.1.5l-2.7 1.6c-.3.1-.7.1-.9 0zm4.3-2.5l-2.7-1.6c-.2-.1-.2-.3.1-.5l.9-.5c.3-.1.6-.2.9 0l2.7 1.6c.2.1.2.3-.1.5l-.9.5c-.3.1-.7.1-.9 0zm5.4 3.2l-2.7-1.6c-.2-.1-.2-.3.1-.5l.9-.5c.3-.1.6-.2.9 0l2.7 1.6c.2.1.2.3-.1.5l-.9.5c-.3.1-.7.1-.9 0zm4.2 2.4l-2.7-1.6c-.2-.1-.2-.3.1-.5l.9-.5c.3-.1.6-.2.9 0l2.7 1.6c.2.1.2.3-.1.5l-.9.5c-.3.1-.7.1-.9 0zm4.2 2.4l-2.7-1.6c-.2-.1-.2-.3.1-.5l.9-.5c.3-.1.6-.2.9 0l2.7 1.6c.2.1.2.3-.1.5l-.9.5c-.3.1-.7.1-.9 0zm4.1 2.4l-2.7-1.6c-.2-.1-.2-.3.1-.5l.9-.5c.3-.1.6-.2.9 0l2.7 1.6c.2.1.2.3-.1.5l-.9.5c-.3.1-.6.1-.9 0zm23.3 13.4l-2.7-1.6c-.2-.1-.2-.3.1-.5l.9-.5c.3-.1.6-.2.9 0l2.7 1.6c.2.1.2.3-.1.5l-.9.5c-.3.1-.7.1-.9 0zm4.2 2.4l-2.7-1.6c-.2-.1-.2-.3.1-.5l.9-.5c.3-.1.6-.2.9 0l2.7 1.6c.2.1.2.3-.1.5l-.9.5c-.3.1-.7.1-.9 0zm4.1 2.4l-2.7-1.6c-.2-.1-.2-.3.1-.5l.9-.5c.3-.1.6-.2.9 0l2.7 1.6c.2.1.2.3-.1.5l-.9.5c-.3.1-.6.1-.9 0zm4.2 2.4l-2.7-1.6c-.2-.1-.2-.3.1-.5l.9-.5c.3-.1.6-.2.9 0l2.7 1.6c.2.1.2.3-.1.5l-.9.5c-.3.1-.7.2-.9 0zm-41.3-18.8l-2.7-1.6c-.2-.1-.2-.3.1-.5l2.7-1.6c.3-.1.6-.2.9 0l2.7 1.6c.2.1.2.3-.1.5l-2.7 1.6c-.3.1-.7.1-.9 0zm4.2 2.4l-2.7-1.6c-.2-.1-.2-.3.1-.5l2.7-1.6c.3-.1.6-.2.9 0l2.7 1.6c.2.1.2.3-.1.5l-2.7 1.6c-.3.1-.6.1-.9 0zm4.2 2.4l-2.7-1.6c-.2-.1-.2-.3.1-.5l2.7-1.6c.3-.1.6-.2.9 0l2.7 1.6c.2.1.2.3-.1.5l-2.7 1.6c-.3.1-.6.1-.9 0zm4.2 2.4l-2.7-1.6c-.2-.1-.2-.3.1-.5l2.7-1.6c.3-.1.6-.2.9 0l2.7 1.6c.2.1.2.3-.1.5l-2.7 1.6c-.3.2-.6.2-.9 0zm4.3 2.5l-2.7-1.6c-.2-.1-.2-.3.1-.5l2.7-1.6c.3-.1.6-.2.9 0l2.7 1.6c.2.1.2.3-.1.5l-2.7 1.6c-.3.1-.7.1-.9 0zm4.2 2.4l-2.7-1.6c-.2-.1-.2-.3.1-.5l2.7-1.6c.3-.1.6-.2.9 0l2.7 1.6c.2.1.2.3-.1.5l-2.7 1.6c-.3.1-.7.1-.9 0zm4.2 2.4l-2.7-1.6c-.2-.1-.2-.3.1-.5l2.7-1.6c.3-.1.6-.2.9 0l2.7 1.6c.2.1.2.3-.1.5l-2.7 1.6c-.3.1-.7.2-.9 0zm4.2 2.5l-2.7-1.6c-.2-.1-.2-.3.1-.5l2.7-1.6c.3-.1.6-.2.9 0l2.7 1.6c.2.1.2.3-.1.5l-2.7 1.6c-.3.1-.7.1-.9 0zm4.2 2.4l-2.7-1.6c-.2-.1-.2-.3.1-.5l2.7-1.6c.3-.1.6-.2.9 0l2.7 1.6c.2.1.2.3-.1.5l-2.7 1.6c-.3.1-.7.1-.9 0zm-57.7-19.1l-8-4.6c-.2-.1-.2-.3.1-.5l2.7-1.6c.3-.1.6-.2.9 0l8 4.6c.2.1.2.3-.1.5l-2.7 1.6c-.3.1-.7.1-.9 0zm51.7 29.8l-8-4.6c-.2-.1-.2-.3.1-.5l2.7-1.6c.3-.1.6-.2.9 0l8 4.6c.2.1.2.3-.1.5l-2.7 1.6c-.3.1-.7.1-.9 0zm-16.9-4.3l-2.7-1.6c-.2-.1-.2-.3.1-.5l3.2-1.9c.3-.1.6-.2.9 0l2.7 1.6c.2.1.2.3-.1.5l-3.2 1.9c-.3.1-.6.1-.9 0zm-30.5-17.7l-4.4-2.5c-.2-.1-.2-.3.1-.5L175 98c.3-.1.6-.2.9 0l4.4 2.5c.2.1.2.3-.1.5l-3.2 1.9c-.3.1-.7.1-.9 0zm26.5 15.3l-4.4-2.5c-.2-.1-.2-.3.1-.5l3.2-1.9c.3-.1.6-.2.9 0l4.4 2.5c.2.1.2.3-.1.5l-3.2 1.9c-.3.1-.7.1-.9 0zm-20.4-11.8l-4.4-2.5c-.2-.1-.2-.3.1-.5l3.2-1.9c.3-.1.6-.2.9 0l4.4 2.5c.2.1.2.3-.1.5l-3.2 1.9c-.3.1-.7.1-.9 0z"/><path class="st3" d="M182 101.5l18.9 10.9c.2.1.2.4 0 .5l-3.3 1.9c-.2.1-.6.1-.9 0l-18.9-10.9 4.2-2.4zm36.4 23.5l3 1.8c.2.1.2.3-.1.4l-1.3.8c-.2.1-.5.1-.7 0l-3-1.8c-.2-.1-.2-.3.1-.4l1.3-.8c.2-.1.5-.1.7 0zm-4.3-2.5l3 1.8c.2.1.2.3-.1.4l-1.3.8c-.2.1-.5.1-.7 0l-3-1.8c-.2-.1-.2-.3.1-.4l1.3-.8c.3-.1.6-.1.7 0zm-4.2-2.4l3 1.8c.2.1.2.3-.1.4l-1.3.8c-.2.1-.5.1-.7 0l-3-1.8c-.2-.1-.2-.3.1-.4l1.3-.8c.3-.1.6-.1.7 0zm6.6 1.1l3 1.8c.2.1.2.3-.1.4l-1.3.8c-.2.1-.5.1-.7 0l-3-1.8c-.2-.1-.2-.3.1-.4l1.3-.8c.2-.1.5-.1.7 0z"/><path class="st2" d="M208 47.8l-6.8-3.9.3-1.5 6.8 4z"/><path class="st0" d="M207.3 51.3l-6.9-4 .3-1.5 6.9 4z"/><path class="st2" d="M240.9 98.7l-6.9-3.9.3-1.5 6.8 4zm-35.1-40.6l-6.9-3.9.3-1.5 6.9 3.9z"/><path class="st4" d="M292.4 322.7l-.3-.1-121.5-70 .8-.4L320 166.3l.3.1 121.5 70-.8.4-148.6 85.9zm-119.7-70.2l119.7 69 147.3-85-119.7-69-147.3 85z"/><path transform="rotate(-29.98 367.785 141.617)" class="st4" d="M307.4 141.1h120.7v1H307.4z"/><path class="st5" d="M275.7 215.6v-88l35-9.2 6.4-3.7c1.5-.9 4.1-.7 5.8.2l6 3.5h18.7l-5.5 84.9c0 .6-.3 1.1-1 1.5l-34.9 26.3c-1.5.9-4.1.7-5.8-.2l-23.3-13.4c-1-.5-1.5-1.2-1.4-1.9z"/><path class="st2" d="M319.8 114.2c1.1 0 2.2.3 3.1.8l6 3.5h18.7v88.2c0 .6-.3 1.1-1 1.5l-40.4 23.1c-.7.4-1.7.6-2.7.6l-.4-88.8 16.7-28.9z"/><path class="st3" d="M305.7 231.5c-1.3.5-3.1.5-4.6-.1V142h4.6v89.5z"/><path class="st2" d="M306.1 143.1l40.4-23.1c1.5-.9 1.3-2.3-.4-3.3l-23.3-13.4c-1.7-1-4.3-1.1-5.8-.2l-40.4 23.1c-1.5.9-1.3 2.3.4 3.3l23.3 13.4c1.7 1 4.3 1.1 5.8.2z"/><path class="st8" d="M277.1 127.8l23.3 13.4c1.7 1 4.3 1.1 5.8.2l40.4-23.1c.3-.2.6-.4.7-.7.5.8.3 1.7-.7 2.3L306.2 143c-1.5.9-4.1.7-5.8-.2l-23.3-13.4c-1.3-.8-1.7-1.8-1.2-2.7.3.4.6.8 1.2 1.1z"/><path class="st1" d="M305 133.8l26.9-15.6c.7-.4.6-1.1-.2-1.6l-10.9-6.3c-.8-.5-2-.5-2.7-.1l-26.9 15.6c-.7.4-.6 1.1.2 1.6l10.9 6.3c.8.4 2 .5 2.7.1z"/><path class="st2" d="M319.5 118.9l1.6-.9c.1-.1.1-.2 0-.2l-1.5-.9c-.1-.1-.3-.1-.4 0l-1.6.9c-.1.1-.1.2 0 .2l1.5.9h.4zm-5.2 3l1.6-.9c.1-.1.1-.2 0-.2l-1.5-.9c-.1-.1-.3-.1-.4 0l-1.6.9c-.1.1-.1.2 0 .2l1.5.9h.4z"/><path class="st6" d="M309.1 124.9l1.6-.9c.1-.1.1-.2 0-.2l-1.5-.9c-.1-.1-.3-.1-.4 0l-1.6.9c-.1.1-.1.2 0 .2l1.5.9h.4z"/><path class="st2" d="M303.9 127.9l1.6-.9c.1-.1.1-.2 0-.2l-1.5-.9c-.1-.1-.3-.1-.4 0l-1.6.9c-.1.1-.1.2 0 .2l1.5.9h.4z"/><path class="st3" d="M331.9 118.2c-.1 0-.1-.1-.2-.1l-10.9-6.3c-.8-.5-2-.5-2.7-.1l-26.9 15.6c-.6-.5-.7-1.1 0-1.4l26.9-15.6c.7-.4 1.9-.3 2.7.1l10.9 6.3c.8.4.9 1.1.2 1.5z"/><path class="st1" d="M295.8 160.5l-15.3-8.8c-.9-.5-1.6-1.8-1.6-3v-5.5c0-1.1.7-1.7 1.6-1.2l15.3 8.8c.9.5 1.6 1.8 1.6 3v5.5c0 1.2-.7 1.7-1.6 1.2z"/><path class="st0" d="M279.7 142c-.2.2-.4.6-.4 1.1v5.5c0 1.1.7 2.5 1.6 3l15.3 8.8c.3.2.5.2.8.2-.3.3-.7.3-1.2 0l-15.3-8.8c-.9-.5-1.6-1.8-1.6-3v-5.5c0-.8.4-1.2.8-1.3z"/><path class="st5" d="M291.2 154.6l-1.4-.8c-.2-.1-.3-.4-.3-.6v-1.5c0-.3.2-.4.3-.3l1.4.8c.2.1.3.4.3.6v1.5c0 .3-.1.4-.3.3z"/><path class="st0" d="M286.5 151.9l-1.4-.8c-.2-.1-.3-.4-.3-.6V149c0-.3.2-.4.3-.3l1.4.8c.2.1.3.4.3.6v1.5c0 .3-.1.4-.3.3z"/><path class="st1" d="M295.8 200.1l-15.3-8.8c-.9-.5-1.6-1.8-1.6-3v-5.5c0-1.1.7-1.7 1.6-1.2l15.3 8.8c.9.5 1.6 1.8 1.6 3v5.5c0 1.2-.7 1.7-1.6 1.2z"/><path class="st0" d="M279.7 181.5c-.2.2-.4.6-.4 1.1v5.5c0 1.1.7 2.5 1.6 3l15.3 8.8c.3.2.5.2.8.2-.3.3-.7.3-1.2 0l-15.3-8.8c-.9-.5-1.6-1.8-1.6-3v-5.5c0-.7.4-1.2.8-1.3z"/><path class="st5" d="M291.2 194.1l-1.4-.8c-.2-.1-.3-.4-.3-.6v-1.5c0-.3.2-.4.3-.3l1.4.8c.2.1.3.4.3.6v1.5c0 .3-.1.4-.3.3z"/><path class="st0" d="M286.5 191.4l-1.4-.8c-.2-.1-.3-.4-.3-.6v-1.5c0-.3.2-.4.3-.3l1.4.8c.2.1.3.4.3.6v1.5c0 .3-.1.4-.3.3z"/><path class="st1" d="M295.8 219.9l-15.3-8.8c-.9-.5-1.6-1.8-1.6-3v-5.5c0-1.1.7-1.7 1.6-1.2l15.3 8.8c.9.5 1.6 1.8 1.6 3v5.5c0 1.1-.7 1.7-1.6 1.2z"/><path class="st0" d="M279.7 201.3c-.2.2-.4.6-.4 1.1v5.5c0 1.1.7 2.5 1.6 3l15.3 8.8c.3.2.5.2.8.2-.3.3-.7.3-1.2 0l-15.3-8.8c-.9-.5-1.6-1.8-1.6-3v-5.5c0-.7.4-1.2.8-1.3z"/><path class="st5" d="M291.2 213.9l-1.4-.8c-.2-.1-.3-.4-.3-.6V211c0-.3.2-.4.3-.3l1.4.8c.2.1.3.4.3.6v1.5c0 .3-.1.4-.3.3z"/><path class="st0" d="M286.5 211.2l-1.4-.8c-.2-.1-.3-.4-.3-.6v-1.5c0-.3.2-.4.3-.3l1.4.8c.2.1.3.4.3.6v1.5c0 .3-.1.4-.3.3z"/><path class="st1" d="M295.8 180.3l-15.3-8.8c-.9-.5-1.6-1.8-1.6-3V163c0-1.1.7-1.7 1.6-1.2l15.3 8.8c.9.5 1.6 1.8 1.6 3v5.5c0 1.2-.7 1.7-1.6 1.2z"/><path class="st0" d="M279.7 161.8c-.2.2-.4.6-.4 1.1v5.5c0 1.1.7 2.5 1.6 3l15.3 8.8c.3.2.5.2.8.2-.3.3-.7.3-1.2 0l-15.3-8.8c-.9-.5-1.6-1.8-1.6-3v-5.5c0-.8.4-1.3.8-1.3z"/><path class="st5" d="M291.2 174.4l-1.4-.8c-.2-.1-.3-.4-.3-.6v-1.5c0-.3.2-.4.3-.3l1.4.8c.2.1.3.4.3.6v1.5c0 .3-.1.4-.3.3z"/><path class="st0" d="M286.5 171.7l-1.4-.8c-.2-.1-.3-.4-.3-.6v-1.5c0-.3.2-.4.3-.3l1.4.8c.2.1.3.4.3.6v1.5c0 .2-.1.4-.3.3z"/><path class="st3" d="M309.1 154.9l35.3-20.4c.8-.5 1.4-1.7 1.4-2.7v-6.7c0-1.1-.6-1.5-1.4-1.1l-35.3 20.4c-.8.5-1.4 1.7-1.4 2.7v6.7c-.1 1.1.6 1.6 1.4 1.1z"/><path class="st9" d="M310.1 152.6l33.3-19.2c.4-.2.7-.9.7-1.4v-5.1c0-.5-.3-.8-.7-.5l-33.3 19.2c-.4.2-.7.9-.7 1.4v5.1c-.1.5.3.7.7.5z"/><path class="st2" d="M336.4 134.8l5-2.9c.4-.2.7-.8.7-1.3s-.3-.8-.7-.5l-5 2.9c-.4.2-.7.8-.7 1.3s.3.7.7.5z"/><path class="st1" d="M332.2 136.3c0 .5.4.7.8.5.4-.3.8-.9.8-1.4 0-.5-.4-.7-.8-.5-.5.3-.8.9-.8 1.4zm-2.9 1.7c0 .5.4.7.8.5.4-.3.8-.9.8-1.4 0-.5-.4-.7-.8-.5-.4.2-.8.9-.8 1.4z"/><path class="st2" d="M326.4 139.6c0 .5.4.7.8.5.4-.3.8-.9.8-1.4 0-.5-.4-.7-.8-.5-.4.3-.8.9-.8 1.4z"/><path class="st1" d="M323.6 141.3c0 .5.4.7.8.5.4-.3.8-.9.8-1.4 0-.5-.4-.7-.8-.5-.5.2-.8.9-.8 1.4zm-12.1 8.5l1.7-1c.2-.1.5-.5.5-.9v-1.8c0-.3-.2-.5-.5-.3l-1.7 1c-.2.1-.5.5-.5.9v1.8c0 .2.2.4.5.3z"/><path class="st3" d="M309.1 166.8l35.3-20.4c.8-.5 1.4-1.7 1.4-2.7V137c0-1.1-.6-1.5-1.4-1.1l-35.3 20.4c-.8.5-1.4 1.7-1.4 2.7v6.7c-.1 1.1.6 1.6 1.4 1.1z"/><path class="st9" d="M310.1 164.4l33.3-19.2c.4-.2.7-.9.7-1.4v-5.1c0-.5-.3-.8-.7-.5l-33.3 19.2c-.4.2-.7.9-.7 1.4v5.1c-.1.5.3.8.7.5z"/><path class="st2" d="M336.4 146.7l5-2.9c.4-.2.7-.8.7-1.3s-.3-.8-.7-.5l-5 2.9c-.4.2-.7.8-.7 1.3s.3.7.7.5z"/><path class="st0" d="M332.2 148.2c0 .5.4.7.8.5.4-.3.8-.9.8-1.4 0-.5-.4-.7-.8-.5-.5.2-.8.9-.8 1.4z"/><path class="st1" d="M329.3 149.8c0 .5.4.7.8.5.4-.3.8-.9.8-1.4 0-.5-.4-.7-.8-.5-.4.3-.8.9-.8 1.4z"/><path class="st2" d="M326.4 151.5c0 .5.4.7.8.5.4-.3.8-.9.8-1.4 0-.5-.4-.7-.8-.5-.4.2-.8.9-.8 1.4z"/><path class="st1" d="M323.6 153.2c0 .5.4.7.8.5.4-.3.8-.9.8-1.4 0-.5-.4-.7-.8-.5-.5.2-.8.8-.8 1.4zm-12.1 8.4l1.7-1c.2-.1.5-.5.5-.9V158c0-.3-.2-.5-.5-.3l-1.7 1c-.2.1-.5.5-.5.9v1.8c0 .2.2.4.5.2z"/><path class="st3" d="M309.1 178.7l35.3-20.4c.8-.5 1.4-1.7 1.4-2.7v-6.7c0-1.1-.6-1.5-1.4-1.1l-35.3 20.4c-.8.5-1.4 1.7-1.4 2.7v6.7c-.1 1.1.6 1.5 1.4 1.1z"/><path class="st9" d="M310.1 176.3l33.3-19.2c.4-.2.7-.9.7-1.4v-5.1c0-.5-.3-.8-.7-.5l-33.3 19.2c-.4.2-.7.9-.7 1.4v5.1c-.1.5.3.7.7.5z"/><path class="st2" d="M336.4 158.6l5-2.9c.4-.2.7-.8.7-1.3s-.3-.8-.7-.5l-5 2.9c-.4.2-.7.8-.7 1.3 0 .4.3.7.7.5z"/><path class="st0" d="M332.2 160.1c0 .5.4.7.8.5.4-.3.8-.9.8-1.4 0-.5-.4-.7-.8-.5-.5.2-.8.8-.8 1.4z"/><path class="st1" d="M329.3 161.7c0 .5.4.7.8.5.4-.3.8-.9.8-1.4 0-.5-.4-.7-.8-.5-.4.3-.8.9-.8 1.4z"/><path class="st2" d="M326.4 163.4c0 .5.4.7.8.5.4-.3.8-.9.8-1.4 0-.5-.4-.7-.8-.5-.4.2-.8.9-.8 1.4z"/><path class="st1" d="M323.6 165c0 .5.4.7.8.5.4-.3.8-.9.8-1.4 0-.5-.4-.7-.8-.5-.5.3-.8.9-.8 1.4zm-12.1 8.5l1.7-1c.2-.1.5-.5.5-.9v-1.8c0-.3-.2-.5-.5-.3l-1.7 1c-.2.1-.5.5-.5.9v1.8c0 .3.2.4.5.3z"/><path class="st3" d="M309.1 190.5l35.3-20.4c.8-.5 1.4-1.7 1.4-2.7v-6.7c0-1.1-.6-1.5-1.4-1.1L309.1 180c-.8.5-1.4 1.7-1.4 2.7v6.7c-.1 1.1.6 1.6 1.4 1.1z"/><path class="st9" d="M310.1 188.2l33.3-19.2c.4-.2.7-.9.7-1.4v-5.1c0-.5-.3-.8-.7-.5l-33.3 19.2c-.4.2-.7.9-.7 1.4v5.1c-.1.5.3.7.7.5z"/><path class="st2" d="M336.4 170.4l5-2.9c.4-.2.7-.8.7-1.3s-.3-.8-.7-.5l-5 2.9c-.4.2-.7.8-.7 1.3s.3.7.7.5z"/><path class="st1" d="M332.2 171.9c0 .5.4.7.8.5.4-.3.8-.9.8-1.4 0-.5-.4-.7-.8-.5-.5.3-.8.9-.8 1.4zm-2.9 1.7c0 .5.4.7.8.5.4-.3.8-.9.8-1.4 0-.5-.4-.7-.8-.5-.4.2-.8.9-.8 1.4z"/><path class="st2" d="M326.4 175.2c0 .5.4.7.8.5.4-.3.8-.9.8-1.4 0-.5-.4-.7-.8-.5-.4.3-.8.9-.8 1.4z"/><path class="st1" d="M323.6 176.9c0 .5.4.7.8.5.4-.3.8-.9.8-1.4 0-.5-.4-.7-.8-.5-.5.2-.8.9-.8 1.4z"/><path class="st2" d="M311.5 185.4l1.7-1c.2-.1.5-.5.5-.9v-1.8c0-.3-.2-.5-.5-.3l-1.7 1c-.2.1-.5.5-.5.9v1.8c0 .3.2.4.5.3z"/><path class="st3" d="M309.1 202.4l35.3-20.4c.8-.5 1.4-1.7 1.4-2.7v-6.7c0-1.1-.6-1.5-1.4-1.1l-35.3 20.4c-.8.5-1.4 1.7-1.4 2.7v6.7c-.1 1.1.6 1.6 1.4 1.1z"/><path class="st9" d="M310.1 200.1l33.3-19.2c.4-.2.7-.9.7-1.4v-5.1c0-.5-.3-.8-.7-.5l-33.3 19.2c-.4.2-.7.9-.7 1.4v5.1c-.1.4.3.7.7.5z"/><path class="st2" d="M336.4 182.3l5-2.9c.4-.2.7-.8.7-1.3s-.3-.8-.7-.5l-5 2.9c-.4.2-.7.8-.7 1.3s.3.7.7.5z"/><path class="st1" d="M332.2 183.8c0 .5.4.7.8.5.4-.3.8-.9.8-1.4 0-.5-.4-.7-.8-.5-.5.2-.8.9-.8 1.4z"/><path class="st0" d="M329.3 185.5c0 .5.4.7.8.5.4-.3.8-.9.8-1.4 0-.5-.4-.7-.8-.5-.4.2-.8.8-.8 1.4z"/><path class="st2" d="M326.4 187.1c0 .5.4.7.8.5.4-.3.8-.9.8-1.4 0-.5-.4-.7-.8-.5-.4.3-.8.9-.8 1.4z"/><path class="st0" d="M323.6 188.8c0 .5.4.7.8.5.4-.3.8-.9.8-1.4 0-.5-.4-.7-.8-.5-.5.2-.8.9-.8 1.4z"/><path class="st2" d="M311.5 197.2l1.7-1c.2-.1.5-.5.5-.9v-1.8c0-.3-.2-.5-.5-.3l-1.7 1c-.2.1-.5.5-.5.9v1.8c0 .3.2.5.5.3z"/><path class="st3" d="M309.1 214.3l35.3-20.4c.8-.5 1.4-1.7 1.4-2.7v-6.7c0-1.1-.6-1.5-1.4-1.1l-35.3 20.4c-.8.5-1.4 1.7-1.4 2.7v6.7c-.1 1.1.6 1.5 1.4 1.1z"/><path class="st9" d="M310.1 211.9l33.3-19.2c.4-.2.7-.9.7-1.4v-5.1c0-.5-.3-.8-.7-.5l-33.3 19.2c-.4.2-.7.9-.7 1.4v5.1c-.1.5.3.8.7.5z"/><path class="st2" d="M336.4 194.2l5-2.9c.4-.2.7-.8.7-1.3s-.3-.8-.7-.5l-5 2.9c-.4.2-.7.8-.7 1.3 0 .4.3.7.7.5z"/><path class="st1" d="M332.2 195.7c0 .5.4.7.8.5.4-.3.8-.9.8-1.4 0-.5-.4-.7-.8-.5-.5.2-.8.8-.8 1.4zm-2.9 1.6c0 .5.4.7.8.5.4-.3.8-.9.8-1.4 0-.5-.4-.7-.8-.5-.4.3-.8.9-.8 1.4z"/><path class="st2" d="M326.4 199c0 .5.4.7.8.5.4-.3.8-.9.8-1.4s-.4-.7-.8-.5c-.4.2-.8.9-.8 1.4z"/><path class="st1" d="M323.6 200.6c0 .5.4.7.8.5.4-.3.8-.9.8-1.4 0-.5-.4-.7-.8-.5-.5.3-.8.9-.8 1.4zm-12.1 8.5l1.7-1c.2-.1.5-.5.5-.9v-1.8c0-.3-.2-.5-.5-.3l-1.7 1c-.2.1-.5.5-.5.9v1.8c0 .3.2.5.5.3z"/><path class="st3" d="M309.1 226.2l35.3-20.4c.8-.5 1.4-1.7 1.4-2.7v-6.7c0-1.1-.6-1.5-1.4-1.1l-35.3 20.4c-.8.5-1.4 1.7-1.4 2.7v6.7c-.1 1 .6 1.5 1.4 1.1z"/><path class="st9" d="M310.1 223.8l33.3-19.2c.4-.2.7-.9.7-1.4v-5.1c0-.5-.3-.8-.7-.5l-33.3 19.2c-.4.2-.7.9-.7 1.4v5.1c-.1.5.3.7.7.5z"/><path class="st2" d="M336.4 206l5-2.9c.4-.2.7-.8.7-1.3s-.3-.8-.7-.5l-5 2.9c-.4.2-.7.8-.7 1.3s.3.8.7.5z"/><path class="st0" d="M331.3 208.2c0 1 .7 1.4 1.5.9.8-.5 1.5-1.7 1.5-2.7 0-1-.7-1.4-1.5-.9-.8.5-1.5 1.7-1.5 2.7z"/><path class="st1" d="M325.3 211.7c0 .5.4.7.8.5.4-.3.8-.9.8-1.4 0-.5-.4-.7-.8-.5-.4.2-.8.8-.8 1.4z"/><path class="st2" d="M322.4 213.3c0 .5.4.7.8.5.4-.3.8-.9.8-1.4 0-.5-.4-.7-.8-.5-.4.3-.8.9-.8 1.4z"/><path class="st1" d="M319.6 215c0 .5.4.7.8.5.4-.3.8-.9.8-1.4s-.4-.7-.8-.5c-.5.2-.8.9-.8 1.4z"/><path class="st2" d="M311.5 221l1.7-1c.2-.1.5-.5.5-.9v-1.8c0-.3-.2-.5-.5-.3l-1.7 1c-.2.1-.5.5-.5.9v1.8c0 .3.2.4.5.3z"/><path class="st5" d="M210.8 253v-88l35-9.2 6.4-3.7c1.5-.9 4.1-.7 5.8.2l6 3.5h18.7l-5.5 84.9c0 .6-.3 1.1-1 1.5l-34.9 26.3c-1.5.9-4.1.7-5.8-.2L212.2 255c-1-.6-1.5-1.3-1.4-2z"/><path class="st2" d="M254.9 151.6c1.1 0 2.2.3 3.1.8l6 3.5h18.7V244c0 .6-.3 1.1-1 1.5l-40.4 23.1c-.7.4-1.7.6-2.7.6l-.4-88.8 16.7-28.8z"/><path class="st3" d="M240.9 268.8c-1.3.5-3.1.5-4.6-.1v-89.4h4.6v89.5z"/><path class="st2" d="M241.2 180.5l40.4-23.1c1.5-.9 1.3-2.3-.4-3.3L258 140.6c-1.7-1-4.3-1.1-5.8-.2l-40.4 23.1c-1.5.9-1.3 2.3.4 3.3l23.3 13.4c1.7 1 4.3 1.1 5.7.3z"/><path class="st8" d="M212.2 165.2l23.3 13.4c1.7 1 4.3 1.1 5.8.2l40.4-23.1c.3-.2.6-.4.7-.7.5.8.3 1.7-.7 2.3l-40.4 23.1c-1.5.9-4.1.7-5.8-.2l-23.3-13.4c-1.3-.8-1.7-1.8-1.2-2.7.3.4.7.7 1.2 1.1z"/><path class="st1" d="M240.1 171.1l26.9-15.6c.7-.4.6-1.1-.2-1.6l-10.9-6.3c-.8-.5-2-.5-2.7-.1l-26.9 15.6c-.7.4-.6 1.1.2 1.6l10.9 6.3c.8.5 2 .5 2.7.1z"/><path class="st2" d="M254.6 156.2l1.6-.9c.1-.1.1-.2 0-.2l-1.5-.9c-.1-.1-.3-.1-.4 0l-1.6.9c-.1.1-.1.2 0 .2l1.5.9c.2.1.3.1.4 0z"/><path class="st6" d="M249.4 159.2l1.6-.9c.1-.1.1-.2 0-.2l-1.5-.9c-.1-.1-.3-.1-.4 0l-1.6.9c-.1.1-.1.2 0 .2l1.5.9c.1.1.3.1.4 0zm-5.2 3l1.6-.9c.1-.1.1-.2 0-.2l-1.5-.9c-.1-.1-.3-.1-.4 0l-1.6.9c-.1.1-.1.2 0 .2l1.5.9c.1.1.3.1.4 0z"/><path class="st2" d="M239 165.2l1.6-.9c.1-.1.1-.2 0-.2l-1.5-.9c-.1-.1-.3-.1-.4 0l-1.6.9c-.1.1-.1.2 0 .2l1.5.9c.1.1.3.1.4 0z"/><path class="st3" d="M267 155.5c-.1 0-.1-.1-.2-.1l-10.9-6.3c-.8-.5-2-.5-2.7-.1l-26.9 15.6c-.6-.5-.7-1.1 0-1.4l26.9-15.6c.7-.4 1.9-.3 2.7.1l10.9 6.3c.8.4.9 1.1.2 1.5z"/><path class="st1" d="M230.9 197.9l-15.3-8.8c-.9-.5-1.6-1.8-1.6-3v-5.5c0-1.1.7-1.7 1.6-1.2l15.3 8.8c.9.5 1.6 1.8 1.6 3v5.5c0 1.2-.7 1.7-1.6 1.2z"/><path class="st0" d="M214.9 179.3c-.2.2-.4.6-.4 1.1v5.5c0 1.1.7 2.5 1.6 3l15.3 8.8c.3.2.5.2.8.2-.3.3-.7.3-1.2 0l-15.3-8.8c-.9-.5-1.6-1.8-1.6-3v-5.5c0-.7.3-1.2.8-1.3z"/><path class="st5" d="M226.3 191.9l-1.4-.8c-.2-.1-.3-.4-.3-.6V189c0-.3.2-.4.3-.3l1.4.8c.2.1.3.4.3.6v1.5c.1.3-.1.5-.3.3z"/><path class="st0" d="M221.6 189.2l-1.4-.8c-.2-.1-.3-.4-.3-.6v-1.5c0-.3.2-.4.3-.3l1.4.8c.2.1.3.4.3.6v1.5c.1.3-.1.4-.3.3z"/><path class="st1" d="M230.9 237.4l-15.3-8.8c-.9-.5-1.6-1.8-1.6-3v-5.5c0-1.1.7-1.7 1.6-1.2l15.3 8.8c.9.5 1.6 1.8 1.6 3v5.5c0 1.2-.7 1.7-1.6 1.2z"/><path class="st0" d="M214.9 218.9c-.2.2-.4.6-.4 1.1v5.5c0 1.1.7 2.5 1.6 3l15.3 8.8c.3.2.5.2.8.2-.3.3-.7.3-1.2 0l-15.3-8.8c-.9-.5-1.6-1.8-1.6-3v-5.5c0-.8.3-1.2.8-1.3z"/><path class="st6" d="M226.3 231.5l-1.4-.8c-.2-.1-.3-.4-.3-.6v-1.5c0-.3.2-.4.3-.3l1.4.8c.2.1.3.4.3.6v1.5c.1.3-.1.4-.3.3z"/><path class="st0" d="M221.6 228.8l-1.4-.8c-.2-.1-.3-.4-.3-.6v-1.5c0-.3.2-.4.3-.3l1.4.8c.2.1.3.4.3.6v1.5c.1.3-.1.4-.3.3z"/><path class="st1" d="M230.9 257.2l-15.3-8.8c-.9-.5-1.6-1.8-1.6-3V240c0-1.1.7-1.7 1.6-1.2l15.3 8.8c.9.5 1.6 1.8 1.6 3v5.5c0 1.1-.7 1.6-1.6 1.1z"/><path class="st0" d="M214.9 238.6c-.2.2-.4.6-.4 1.1v5.5c0 1.1.7 2.5 1.6 3l15.3 8.8c.3.2.5.2.8.2-.3.3-.7.3-1.2 0l-15.3-8.8c-.9-.5-1.6-1.8-1.6-3V240c0-.8.3-1.3.8-1.4z"/><path class="st5" d="M226.3 251.3l-1.4-.8c-.2-.1-.3-.4-.3-.6v-1.5c0-.3.2-.4.3-.3l1.4.8c.2.1.3.4.3.6v1.5c.1.2-.1.4-.3.3z"/><path class="st0" d="M221.6 248.5l-1.4-.8c-.2-.1-.3-.4-.3-.6v-1.5c0-.3.2-.4.3-.3l1.4.8c.2.1.3.4.3.6v1.5c.1.3-.1.5-.3.3z"/><path class="st1" d="M230.9 217.7l-15.3-8.8c-.9-.5-1.6-1.8-1.6-3v-5.5c0-1.1.7-1.7 1.6-1.2l15.3 8.8c.9.5 1.6 1.8 1.6 3v5.5c0 1.1-.7 1.7-1.6 1.2z"/><path class="st0" d="M214.9 199.1c-.2.2-.4.6-.4 1.1v5.5c0 1.1.7 2.5 1.6 3l15.3 8.8c.3.2.5.2.8.2-.3.3-.7.3-1.2 0l-15.3-8.8c-.9-.5-1.6-1.8-1.6-3v-5.5c0-.7.3-1.2.8-1.3z"/><path class="st6" d="M226.3 211.7l-1.4-.8c-.2-.1-.3-.4-.3-.6v-1.5c0-.3.2-.4.3-.3l1.4.8c.2.1.3.4.3.6v1.5c.1.3-.1.4-.3.3z"/><path class="st0" d="M221.6 209l-1.4-.8c-.2-.1-.3-.4-.3-.6V206c0-.3.2-.4.3-.3l1.4.8c.2.1.3.4.3.6v1.5c.1.4-.1.5-.3.4z"/><path class="st3" d="M244.2 192.3l35.3-20.4c.8-.5 1.4-1.7 1.4-2.7v-6.7c0-1.1-.6-1.5-1.4-1.1l-35.3 20.4c-.8.5-1.4 1.7-1.4 2.7v6.7c-.1 1.1.6 1.5 1.4 1.1z"/><path class="st9" d="M245.2 189.9l33.3-19.2c.4-.2.7-.9.7-1.4v-5.1c0-.5-.3-.8-.7-.5l-33.3 19.2c-.4.2-.7.9-.7 1.4v5.1c0 .5.3.8.7.5z"/><path class="st2" d="M271.5 172.2l5-2.9c.4-.2.7-.8.7-1.3s-.3-.8-.7-.5l-5 2.9c-.4.2-.7.8-.7 1.3 0 .4.3.7.7.5z"/><path class="st1" d="M267.3 173.7c0 .5.4.7.8.5.4-.3.8-.9.8-1.4 0-.5-.4-.7-.8-.5-.4.2-.8.8-.8 1.4zm-2.9 1.6c0 .5.4.7.8.5.4-.3.8-.9.8-1.4 0-.5-.4-.7-.8-.5-.4.3-.8.9-.8 1.4z"/><path class="st2" d="M261.6 177c0 .5.4.7.8.5.4-.3.8-.9.8-1.4 0-.5-.4-.7-.8-.5-.5.2-.8.9-.8 1.4z"/><path class="st1" d="M258.7 178.6c0 .5.4.7.8.5.4-.3.8-.9.8-1.4 0-.5-.4-.7-.8-.5-.5.3-.8.9-.8 1.4zm-12.1 8.5l1.7-1c.2-.1.5-.5.5-.9v-1.8c0-.3-.2-.5-.5-.3l-1.7 1c-.2.1-.5.5-.5.9v1.8c0 .3.2.5.5.3z"/><path class="st3" d="M244.2 204.2l35.3-20.4c.8-.5 1.4-1.7 1.4-2.7v-6.7c0-1.1-.6-1.5-1.4-1.1l-35.3 20.4c-.8.5-1.4 1.7-1.4 2.7v6.7c-.1 1 .6 1.5 1.4 1.1z"/><path class="st9" d="M245.2 201.8l33.3-19.2c.4-.2.7-.9.7-1.4v-5.1c0-.5-.3-.8-.7-.5l-33.3 19.2c-.4.2-.7.9-.7 1.4v5.1c0 .5.3.7.7.5z"/><path class="st2" d="M271.5 184l5-2.9c.4-.2.7-.8.7-1.3s-.3-.8-.7-.5l-5 2.9c-.4.2-.7.8-.7 1.3s.3.8.7.5z"/><path class="st0" d="M267.3 185.5c0 .5.4.7.8.5.4-.3.8-.9.8-1.4 0-.5-.4-.7-.8-.5-.4.3-.8.9-.8 1.4z"/><path class="st1" d="M264.4 187.2c0 .5.4.7.8.5.4-.3.8-.9.8-1.4s-.4-.7-.8-.5c-.4.2-.8.9-.8 1.4z"/><path class="st2" d="M261.6 188.8c0 .5.4.7.8.5.4-.3.8-.9.8-1.4 0-.5-.4-.7-.8-.5-.5.3-.8.9-.8 1.4z"/><path class="st1" d="M258.7 190.5c0 .5.4.7.8.5.4-.3.8-.9.8-1.4 0-.5-.4-.7-.8-.5-.5.3-.8.9-.8 1.4zm-12.1 8.5l1.7-1c.2-.1.5-.5.5-.9v-1.8c0-.3-.2-.5-.5-.3l-1.7 1c-.2.1-.5.5-.5.9v1.8c0 .3.2.4.5.3z"/><path class="st3" d="M244.2 216l35.3-20.4c.8-.5 1.4-1.7 1.4-2.7v-6.7c0-1.1-.6-1.5-1.4-1.1l-35.3 20.4c-.8.5-1.4 1.7-1.4 2.7v6.7c-.1 1.1.6 1.6 1.4 1.1z"/><path class="st9" d="M245.2 213.7l33.3-19.2c.4-.2.7-.9.7-1.4V188c0-.5-.3-.8-.7-.5l-33.3 19.2c-.4.2-.7.9-.7 1.4v5.1c0 .5.3.7.7.5z"/><path class="st2" d="M271.5 195.9l5-2.9c.4-.2.7-.8.7-1.3s-.3-.8-.7-.5l-5 2.9c-.4.2-.7.8-.7 1.3s.3.7.7.5z"/><path class="st0" d="M267.3 197.4c0 .5.4.7.8.5.4-.3.8-.9.8-1.4 0-.5-.4-.7-.8-.5-.4.3-.8.9-.8 1.4z"/><path class="st1" d="M264.4 199.1c0 .5.4.7.8.5.4-.3.8-.9.8-1.4 0-.5-.4-.7-.8-.5-.4.2-.8.8-.8 1.4z"/><path class="st2" d="M261.6 200.7c0 .5.4.7.8.5.4-.3.8-.9.8-1.4 0-.5-.4-.7-.8-.5-.5.3-.8.9-.8 1.4z"/><path class="st1" d="M258.7 202.4c0 .5.4.7.8.5.4-.3.8-.9.8-1.4 0-.5-.4-.7-.8-.5-.5.2-.8.9-.8 1.4zm-12.1 8.4l1.7-1c.2-.1.5-.5.5-.9v-1.8c0-.3-.2-.5-.5-.3l-1.7 1c-.2.1-.5.5-.5.9v1.8c0 .3.2.5.5.3z"/><path class="st3" d="M244.2 227.9l35.3-20.4c.8-.5 1.4-1.7 1.4-2.7V198c0-1.1-.6-1.5-1.4-1.1l-35.3 20.4c-.8.5-1.4 1.7-1.4 2.7v6.7c-.1 1.2.6 1.7 1.4 1.2z"/><path class="st9" d="M245.2 225.5l33.3-19.2c.4-.2.7-.9.7-1.4v-5.1c0-.5-.3-.8-.7-.5l-33.3 19.2c-.4.2-.7.9-.7 1.4v5.1c0 .5.3.8.7.5z"/><path class="st2" d="M271.5 207.8l5-2.9c.4-.2.7-.8.7-1.3s-.3-.8-.7-.5l-5 2.9c-.4.2-.7.8-.7 1.3s.3.7.7.5z"/><path class="st1" d="M267.3 209.3c0 .5.4.7.8.5.4-.3.8-.9.8-1.4 0-.5-.4-.7-.8-.5-.4.2-.8.9-.8 1.4zm-2.9 1.6c0 .5.4.7.8.5.4-.3.8-.9.8-1.4s-.4-.7-.8-.5c-.4.3-.8.9-.8 1.4z"/><path class="st2" d="M261.6 212.6c0 .5.4.7.8.5.4-.3.8-.9.8-1.4 0-.5-.4-.7-.8-.5-.5.2-.8.9-.8 1.4z"/><path class="st1" d="M258.7 214.2c0 .5.4.7.8.5.4-.3.8-.9.8-1.4 0-.5-.4-.7-.8-.5-.5.3-.8.9-.8 1.4z"/><path class="st2" d="M246.6 222.7l1.7-1c.2-.1.5-.5.5-.9V219c0-.3-.2-.5-.5-.3l-1.7 1c-.2.1-.5.5-.5.9v1.8c0 .3.2.5.5.3z"/><path class="st3" d="M244.2 239.8l35.3-20.4c.8-.5 1.4-1.7 1.4-2.7V210c0-1.1-.6-1.5-1.4-1.1l-35.3 20.4c-.8.5-1.4 1.7-1.4 2.7v6.7c-.1 1 .6 1.5 1.4 1.1z"/><path class="st9" d="M245.2 237.4l33.3-19.2c.4-.2.7-.9.7-1.4v-5.1c0-.5-.3-.8-.7-.5l-33.3 19.2c-.4.2-.7.9-.7 1.4v5.1c0 .5.3.7.7.5z"/><path class="st2" d="M271.5 219.6l5-2.9c.4-.2.7-.8.7-1.3s-.3-.8-.7-.5l-5 2.9c-.4.2-.7.8-.7 1.3s.3.8.7.5z"/><path class="st1" d="M267.3 221.1c0 .5.4.7.8.5.4-.3.8-.9.8-1.4 0-.5-.4-.7-.8-.5-.4.3-.8.9-.8 1.4z"/><path class="st0" d="M264.4 222.8c0 .5.4.7.8.5.4-.3.8-.9.8-1.4 0-.5-.4-.7-.8-.5-.4.3-.8.9-.8 1.4z"/><path class="st2" d="M261.6 224.5c0 .5.4.7.8.5.4-.3.8-.9.8-1.4 0-.5-.4-.7-.8-.5-.5.2-.8.8-.8 1.4z"/><path class="st0" d="M258.7 226.1c0 .5.4.7.8.5.4-.3.8-.9.8-1.4 0-.5-.4-.7-.8-.5-.5.3-.8.9-.8 1.4z"/><path class="st2" d="M246.6 234.6l1.7-1c.2-.1.5-.5.5-.9V231c0-.3-.2-.5-.5-.3l-1.7 1c-.2.1-.5.5-.5.9v1.8c0 .2.2.3.5.2z"/><path class="st3" d="M244.2 251.6l35.3-20.4c.8-.5 1.4-1.7 1.4-2.7v-6.7c0-1.1-.6-1.5-1.4-1.1l-35.3 20.4c-.8.5-1.4 1.7-1.4 2.7v6.7c-.1 1.1.6 1.6 1.4 1.1z"/><path class="st9" d="M245.2 249.3l33.3-19.2c.4-.2.7-.9.7-1.4v-5.1c0-.5-.3-.8-.7-.5l-33.3 19.2c-.4.2-.7.9-.7 1.4v5.1c0 .5.3.7.7.5z"/><path class="st2" d="M271.5 231.5l5-2.9c.4-.2.7-.8.7-1.3s-.3-.8-.7-.5l-5 2.9c-.4.2-.7.8-.7 1.3s.3.7.7.5z"/><path class="st1" d="M267.3 233c0 .5.4.7.8.5.4-.3.8-.9.8-1.4 0-.5-.4-.7-.8-.5-.4.3-.8.9-.8 1.4zm-2.9 1.7c0 .5.4.7.8.5.4-.3.8-.9.8-1.4 0-.5-.4-.7-.8-.5-.4.2-.8.9-.8 1.4z"/><path class="st2" d="M261.6 236.3c0 .5.4.7.8.5.4-.3.8-.9.8-1.4 0-.5-.4-.7-.8-.5-.5.3-.8.9-.8 1.4z"/><path class="st1" d="M258.7 238c0 .5.4.7.8.5.4-.3.8-.9.8-1.4 0-.5-.4-.7-.8-.5-.5.2-.8.9-.8 1.4zm-12.1 8.5l1.7-1c.2-.1.5-.5.5-.9v-1.8c0-.3-.2-.5-.5-.3l-1.7 1c-.2.1-.5.5-.5.9v1.8c0 .3.2.4.5.3z"/><path class="st3" d="M244.2 263.5l35.3-20.4c.8-.5 1.4-1.7 1.4-2.7v-6.7c0-1.1-.6-1.5-1.4-1.1L244.2 253c-.8.5-1.4 1.7-1.4 2.7v6.7c-.1 1.1.6 1.6 1.4 1.1z"/><path class="st9" d="M245.2 261.1l33.3-19.2c.4-.2.7-.9.7-1.4v-5.1c0-.5-.3-.8-.7-.5l-33.3 19.2c-.4.2-.7.9-.7 1.4v5.1c0 .5.3.8.7.5z"/><path class="st2" d="M271.5 243.4l5-2.9c.4-.2.7-.8.7-1.3s-.3-.8-.7-.5l-5 2.9c-.4.2-.7.8-.7 1.3s.3.7.7.5z"/><path class="st0" d="M266.4 245.5c0 1 .7 1.4 1.5.9.8-.5 1.5-1.7 1.5-2.7 0-1-.7-1.4-1.5-.9-.8.6-1.5 1.7-1.5 2.7z"/><path class="st1" d="M260.4 249c0 .5.4.7.8.5.4-.3.8-.9.8-1.4 0-.5-.4-.7-.8-.5-.4.3-.8.9-.8 1.4z"/><path class="st2" d="M257.6 250.7c0 .5.4.7.8.5.4-.3.8-.9.8-1.4 0-.5-.4-.7-.8-.5-.5.2-.8.8-.8 1.4z"/><path class="st1" d="M254.7 252.3c0 .5.4.7.8.5.4-.3.8-.9.8-1.4 0-.5-.4-.7-.8-.5-.4.3-.8.9-.8 1.4z"/><path class="st2" d="M246.6 258.3l1.7-1c.2-.1.5-.5.5-.9v-1.8c0-.3-.2-.5-.5-.3l-1.7 1c-.2.1-.5.5-.5.9v1.8c0 .3.2.5.5.3z"/><path class="st5" d="M325.9 244.5v-88l35-9.2 6.4-3.7c1.5-.9 4.1-.7 5.8.2l6 3.5h18.7l-5.5 84.9c0 .6-.3 1.1-1 1.5L356.4 260c-1.5.9-4.1.7-5.8-.2l-23.3-13.4c-1-.4-1.4-1.2-1.4-1.9z"/><path class="st2" d="M370 143.1c1.1 0 2.2.3 3.1.8l6 3.5h18.7v88.2c0 .6-.3 1.1-1 1.5l-40.4 23.1c-.7.4-1.7.6-2.7.6l-.4-88.8 16.7-28.9z"/><path class="st3" d="M356 260.4c-1.3.5-3.1.5-4.6-.1V171h4.6v89.4z"/><path class="st2" d="M356.4 172l40.4-23.1c1.5-.9 1.3-2.3-.4-3.3l-23.3-13.4c-1.7-1-4.3-1.1-5.8-.2l-40.4 23c-1.5.9-1.3 2.3.4 3.3l23.3 13.4c1.7 1.1 4.3 1.2 5.8.3z"/><path class="st8" d="M327.3 156.7l23.3 13.4c1.7 1 4.3 1.1 5.8.2l40.4-23.1c.3-.2.6-.4.7-.7.5.8.3 1.7-.7 2.3L356.4 172c-1.5.9-4.1.7-5.8-.2l-23.3-13.4c-1.3-.8-1.7-1.8-1.2-2.7.3.3.7.7 1.2 1z"/><path class="st1" d="M355.2 162.7l26.9-15.6c.7-.4.6-1.1-.2-1.6l-10.9-6.3c-.8-.5-2-.5-2.7-.1l-26.9 15.6c-.7.4-.6 1.1.2 1.6l10.9 6.3c.8.4 2 .5 2.7.1z"/><path class="st6" d="M369.7 147.8l1.6-.9c.1-.1.1-.2 0-.2l-1.5-.9c-.1-.1-.3-.1-.4 0l-1.6.9c-.1.1-.1.2 0 .2l1.5.9h.4z"/><path class="st2" d="M364.5 150.8l1.6-.9c.1-.1.1-.2 0-.2l-1.5-.9c-.1-.1-.3-.1-.4 0l-1.6.9c-.1.1-.1.2 0 .2l1.5.9h.4zm-5.2 3l1.6-.9c.1-.1.1-.2 0-.2l-1.5-.9c-.1-.1-.3-.1-.4 0l-1.6.9c-.1.1-.1.2 0 .2l1.5.9h.4z"/><path class="st6" d="M354.1 156.8l1.6-.9c.1-.1.1-.2 0-.2l-1.5-.9c-.1-.1-.3-.1-.4 0l-1.6.9c-.1.1-.1.2 0 .2l1.5.9h.4z"/><path class="st3" d="M382.1 147.1c-.1 0-.1-.1-.2-.1l-10.9-6.3c-.8-.5-2-.5-2.7-.1l-26.9 15.6c-.6-.5-.7-1.1 0-1.4l26.9-15.6c.7-.4 1.9-.3 2.7.1l10.9 6.3c.8.4.9 1.1.2 1.5z"/><path class="st1" d="M346 189.4l-15.3-8.8c-.9-.5-1.6-1.8-1.6-3v-5.5c0-1.1.7-1.7 1.6-1.2l15.3 8.8c.9.5 1.6 1.8 1.6 3v5.5c0 1.2-.7 1.7-1.6 1.2z"/><path class="st0" d="M330 170.9c-.2.2-.4.6-.4 1.1v5.5c0 1.1.7 2.5 1.6 3l15.3 8.8c.3.2.5.2.8.2-.3.3-.7.3-1.2 0l-15.3-8.8c-.9-.5-1.6-1.8-1.6-3v-5.5c0-.8.3-1.2.8-1.3z"/><path class="st5" d="M341.4 183.5l-1.4-.8c-.2-.1-.3-.4-.3-.6v-1.5c0-.3.2-.4.3-.3l1.4.8c.2.1.3.4.3.6v1.5c.1.3-.1.4-.3.3z"/><path class="st0" d="M336.7 180.8l-1.4-.8c-.2-.1-.3-.4-.3-.6v-1.5c0-.3.2-.4.3-.3l1.4.8c.2.1.3.4.3.6v1.5c.1.3-.1.4-.3.3z"/><path class="st1" d="M346 229l-15.3-8.8c-.9-.5-1.6-1.8-1.6-3v-5.5c0-1.1.7-1.7 1.6-1.2l15.3 8.8c.9.5 1.6 1.8 1.6 3v5.5c0 1.2-.7 1.7-1.6 1.2z"/><path class="st0" d="M330 210.4c-.2.2-.4.6-.4 1.1v5.5c0 1.1.7 2.5 1.6 3l15.3 8.8c.3.2.5.2.8.2-.3.3-.7.3-1.2 0l-15.3-8.8c-.9-.5-1.6-1.8-1.6-3v-5.5c0-.7.3-1.2.8-1.3z"/><path class="st5" d="M341.4 223l-1.4-.8c-.2-.1-.3-.4-.3-.6v-1.5c0-.3.2-.4.3-.3l1.4.8c.2.1.3.4.3.6v1.5c.1.3-.1.4-.3.3z"/><path class="st0" d="M336.7 220.3l-1.4-.8c-.2-.1-.3-.4-.3-.6v-1.5c0-.3.2-.4.3-.3l1.4.8c.2.1.3.4.3.6v1.5c.1.3-.1.4-.3.3z"/><path class="st1" d="M346 248.8l-15.3-8.8c-.9-.5-1.6-1.8-1.6-3v-5.5c0-1.1.7-1.7 1.6-1.2l15.3 8.8c.9.5 1.6 1.8 1.6 3v5.5c0 1.1-.7 1.7-1.6 1.2z"/><path class="st0" d="M330 230.2c-.2.2-.4.6-.4 1.1v5.5c0 1.1.7 2.5 1.6 3l15.3 8.8c.3.2.5.2.8.2-.3.3-.7.3-1.2 0l-15.3-8.8c-.9-.5-1.6-1.8-1.6-3v-5.5c0-.7.3-1.2.8-1.3z"/><path class="st5" d="M341.4 242.8l-1.4-.8c-.2-.1-.3-.4-.3-.6v-1.5c0-.3.2-.4.3-.3l1.4.8c.2.1.3.4.3.6v1.5c.1.3-.1.4-.3.3z"/><path class="st0" d="M336.7 240.1l-1.4-.8c-.2-.1-.3-.4-.3-.6v-1.5c0-.3.2-.4.3-.3l1.4.8c.2.1.3.4.3.6v1.5c.1.3-.1.4-.3.3z"/><path class="st1" d="M346 209.2l-15.3-8.8c-.9-.5-1.6-1.8-1.6-3V192c0-1.1.7-1.7 1.6-1.2l15.3 8.8c.9.5 1.6 1.8 1.6 3v5.5c0 1.1-.7 1.6-1.6 1.1z"/><path class="st0" d="M330 190.7c-.2.2-.4.6-.4 1.1v5.5c0 1.1.7 2.5 1.6 3l15.3 8.8c.3.2.5.2.8.2-.3.3-.7.3-1.2 0l-15.3-8.8c-.9-.5-1.6-1.8-1.6-3V192c0-.8.3-1.3.8-1.3z"/><path class="st5" d="M341.4 203.3l-1.4-.8c-.2-.1-.3-.4-.3-.6v-1.5c0-.3.2-.4.3-.3l1.4.8c.2.1.3.4.3.6v1.5c.1.3-.1.4-.3.3z"/><path class="st0" d="M336.7 200.6l-1.4-.8c-.2-.1-.3-.4-.3-.6v-1.5c0-.3.2-.4.3-.3l1.4.8c.2.1.3.4.3.6v1.5c.1.2-.1.4-.3.3z"/><path class="st3" d="M359.3 183.8l35.3-20.4c.8-.5 1.4-1.7 1.4-2.7V154c0-1.1-.6-1.5-1.4-1.1l-35.3 20.4c-.8.5-1.4 1.7-1.4 2.7v6.7c0 1.1.6 1.6 1.4 1.1z"/><path class="st9" d="M360.3 181.5l33.3-19.2c.4-.2.7-.9.7-1.4v-5.1c0-.5-.3-.8-.7-.5l-33.3 19.2c-.4.2-.7.9-.7 1.4v5.1c0 .5.3.7.7.5z"/><path class="st2" d="M386.7 163.7l5-2.9c.4-.2.7-.8.7-1.3s-.3-.8-.7-.5l-5 2.9c-.4.2-.7.8-.7 1.3-.1.5.3.7.7.5z"/><path class="st1" d="M382.4 165.2c0 .5.4.7.8.5.4-.3.8-.9.8-1.4 0-.5-.4-.7-.8-.5-.4.3-.8.9-.8 1.4zm-2.9 1.7c0 .5.4.7.8.5.4-.3.8-.9.8-1.4 0-.5-.4-.7-.8-.5-.4.2-.8.9-.8 1.4z"/><path class="st2" d="M376.7 168.5c0 .5.4.7.8.5.4-.3.8-.9.8-1.4s-.4-.7-.8-.5c-.5.3-.8.9-.8 1.4z"/><path class="st1" d="M373.8 170.2c0 .5.4.7.8.5.4-.3.8-.9.8-1.4 0-.5-.4-.7-.8-.5-.4.2-.8.9-.8 1.4zm-12.1 8.5l1.7-1c.2-.1.5-.5.5-.9V175c0-.3-.2-.5-.5-.3l-1.7 1c-.2.1-.5.5-.5.9v1.8c.1.3.3.4.5.3z"/><path class="st3" d="M359.3 195.7l35.3-20.4c.8-.5 1.4-1.7 1.4-2.7v-6.7c0-1.1-.6-1.5-1.4-1.1l-35.3 20.4c-.8.5-1.4 1.7-1.4 2.7v6.7c0 1.1.6 1.6 1.4 1.1z"/><path class="st9" d="M360.3 193.3l33.3-19.2c.4-.2.7-.9.7-1.4v-5.1c0-.5-.3-.8-.7-.5l-33.3 19.2c-.4.2-.7.9-.7 1.4v5.1c0 .5.3.8.7.5z"/><path class="st2" d="M386.7 175.6l5-2.9c.4-.2.7-.8.7-1.3s-.3-.8-.7-.5l-5 2.9c-.4.2-.7.8-.7 1.3-.1.5.3.7.7.5z"/><path class="st0" d="M382.4 177.1c0 .5.4.7.8.5.4-.3.8-.9.8-1.4 0-.5-.4-.7-.8-.5-.4.2-.8.9-.8 1.4z"/><path class="st1" d="M379.5 178.7c0 .5.4.7.8.5.4-.3.8-.9.8-1.4 0-.5-.4-.7-.8-.5-.4.3-.8.9-.8 1.4z"/><path class="st2" d="M376.7 180.4c0 .5.4.7.8.5.4-.3.8-.9.8-1.4 0-.5-.4-.7-.8-.5-.5.3-.8.9-.8 1.4z"/><path class="st1" d="M373.8 182.1c0 .5.4.7.8.5.4-.3.8-.9.8-1.4 0-.5-.4-.7-.8-.5-.4.2-.8.8-.8 1.4zm-12.1 8.4l1.7-1c.2-.1.5-.5.5-.9v-1.8c0-.3-.2-.5-.5-.3l-1.7 1c-.2.1-.5.5-.5.9v1.8c.1.3.3.5.5.3z"/><path class="st3" d="M359.3 207.6l35.3-20.4c.8-.5 1.4-1.7 1.4-2.7v-6.7c0-1.1-.6-1.5-1.4-1.1L359.3 197c-.8.5-1.4 1.7-1.4 2.7v6.7c0 1.2.6 1.6 1.4 1.2z"/><path class="st9" d="M360.3 205.2l33.3-19.2c.4-.2.7-.9.7-1.4v-5.1c0-.5-.3-.8-.7-.5l-33.3 19.2c-.4.2-.7.9-.7 1.4v5.1c0 .5.3.8.7.5z"/><path class="st2" d="M386.7 187.5l5-2.9c.4-.2.7-.8.7-1.3s-.3-.8-.7-.5l-5 2.9c-.4.2-.7.8-.7 1.3-.1.4.3.7.7.5z"/><path class="st0" d="M382.4 189c0 .5.4.7.8.5.4-.3.8-.9.8-1.4 0-.5-.4-.7-.8-.5-.4.2-.8.8-.8 1.4z"/><path class="st1" d="M379.5 190.6c0 .5.4.7.8.5.4-.3.8-.9.8-1.4 0-.5-.4-.7-.8-.5-.4.3-.8.9-.8 1.4z"/><path class="st2" d="M376.7 192.3c0 .5.4.7.8.5.4-.3.8-.9.8-1.4s-.4-.7-.8-.5c-.5.2-.8.9-.8 1.4z"/><path class="st1" d="M373.8 193.9c0 .5.4.7.8.5.4-.3.8-.9.8-1.4 0-.5-.4-.7-.8-.5-.4.3-.8.9-.8 1.4zm-12.1 8.5l1.7-1c.2-.1.5-.5.5-.9v-1.8c0-.3-.2-.5-.5-.3l-1.7 1c-.2.1-.5.5-.5.9v1.8c.1.3.3.4.5.3z"/><path class="st3" d="M359.3 219.5l35.3-20.4c.8-.5 1.4-1.7 1.4-2.7v-6.7c0-1.1-.6-1.5-1.4-1.1L359.3 209c-.8.5-1.4 1.7-1.4 2.7v6.7c0 1 .6 1.5 1.4 1.1z"/><path class="st9" d="M360.3 217.1l33.3-19.2c.4-.2.7-.9.7-1.4v-5.1c0-.5-.3-.8-.7-.5l-33.3 19.2c-.4.2-.7.9-.7 1.4v5.1c0 .5.3.7.7.5z"/><path class="st2" d="M386.7 199.3l5-2.9c.4-.2.7-.8.7-1.3s-.3-.8-.7-.5l-5 2.9c-.4.2-.7.8-.7 1.3-.1.5.3.7.7.5z"/><path class="st1" d="M382.4 200.8c0 .5.4.7.8.5.4-.3.8-.9.8-1.4 0-.5-.4-.7-.8-.5-.4.3-.8.9-.8 1.4zm-2.9 1.7c0 .5.4.7.8.5.4-.3.8-.9.8-1.4 0-.5-.4-.7-.8-.5-.4.2-.8.9-.8 1.4z"/><path class="st2" d="M376.7 204.1c0 .5.4.7.8.5.4-.3.8-.9.8-1.4 0-.5-.4-.7-.8-.5-.5.3-.8.9-.8 1.4z"/><path class="st1" d="M373.8 205.8c0 .5.4.7.8.5.4-.3.8-.9.8-1.4 0-.5-.4-.7-.8-.5-.4.2-.8.9-.8 1.4z"/><path class="st2" d="M361.7 214.3l1.7-1c.2-.1.5-.5.5-.9v-1.8c0-.3-.2-.5-.5-.3l-1.7 1c-.2.1-.5.5-.5.9v1.8c.1.3.3.4.5.3z"/><path class="st3" d="M359.3 231.3l35.3-20.4c.8-.5 1.4-1.7 1.4-2.7v-6.7c0-1.1-.6-1.5-1.4-1.1l-35.3 20.4c-.8.5-1.4 1.7-1.4 2.7v6.7c0 1.1.6 1.6 1.4 1.1z"/><path class="st9" d="M360.3 229l33.3-19.2c.4-.2.7-.9.7-1.4v-5.1c0-.5-.3-.8-.7-.5L360.3 222c-.4.2-.7.9-.7 1.4v5.1c0 .4.3.7.7.5z"/><path class="st2" d="M386.7 211.2l5-2.9c.4-.2.7-.8.7-1.3s-.3-.8-.7-.5l-5 2.9c-.4.2-.7.8-.7 1.3-.1.5.3.7.7.5z"/><path class="st1" d="M382.4 212.7c0 .5.4.7.8.5.4-.3.8-.9.8-1.4 0-.5-.4-.7-.8-.5-.4.2-.8.9-.8 1.4z"/><path class="st0" d="M379.5 214.4c0 .5.4.7.8.5.4-.3.8-.9.8-1.4 0-.5-.4-.7-.8-.5-.4.2-.8.8-.8 1.4z"/><path class="st2" d="M376.7 216c0 .5.4.7.8.5.4-.3.8-.9.8-1.4s-.4-.7-.8-.5c-.5.3-.8.9-.8 1.4z"/><path class="st0" d="M373.8 217.7c0 .5.4.7.8.5.4-.3.8-.9.8-1.4 0-.5-.4-.7-.8-.5-.4.2-.8.9-.8 1.4z"/><path class="st2" d="M361.7 226.1l1.7-1c.2-.1.5-.5.5-.9v-1.8c0-.3-.2-.5-.5-.3l-1.7 1c-.2.1-.5.5-.5.9v1.8c.1.3.3.5.5.3z"/><path class="st3" d="M359.3 243.2l35.3-20.4c.8-.5 1.4-1.7 1.4-2.7v-6.7c0-1.1-.6-1.5-1.4-1.1l-35.3 20.4c-.8.5-1.4 1.7-1.4 2.7v6.7c0 1.1.6 1.5 1.4 1.1z"/><path class="st9" d="M360.3 240.8l33.3-19.2c.4-.2.7-.9.7-1.4v-5.1c0-.5-.3-.8-.7-.5l-33.3 19.2c-.4.2-.7.9-.7 1.4v5.1c0 .5.3.8.7.5z"/><path class="st2" d="M386.7 223.1l5-2.9c.4-.2.7-.8.7-1.3s-.3-.8-.7-.5l-5 2.9c-.4.2-.7.8-.7 1.3-.1.5.3.7.7.5z"/><path class="st1" d="M382.4 224.6c0 .5.4.7.8.5.4-.3.8-.9.8-1.4 0-.5-.4-.7-.8-.5-.4.2-.8.8-.8 1.4zm-2.9 1.6c0 .5.4.7.8.5s.8-.9.8-1.4c0-.5-.4-.7-.8-.5-.4.3-.8.9-.8 1.4z"/><path class="st2" d="M376.7 227.9c0 .5.4.7.8.5.4-.3.8-.9.8-1.4 0-.5-.4-.7-.8-.5-.5.2-.8.9-.8 1.4z"/><path class="st1" d="M373.8 229.5c0 .5.4.7.8.5.4-.3.8-.9.8-1.4 0-.5-.4-.7-.8-.5-.4.3-.8.9-.8 1.4zm-12.1 8.5l1.7-1c.2-.1.5-.5.5-.9v-1.8c0-.3-.2-.5-.5-.3l-1.7 1c-.2.1-.5.5-.5.9v1.8c.1.3.3.5.5.3z"/><path class="st3" d="M359.3 255.1l35.3-20.4c.8-.5 1.4-1.7 1.4-2.7v-6.7c0-1.1-.6-1.5-1.4-1.1l-35.3 20.4c-.8.5-1.4 1.7-1.4 2.7v6.7c0 1 .6 1.5 1.4 1.1z"/><path class="st9" d="M360.3 252.7l33.3-19.2c.4-.2.7-.9.7-1.4V227c0-.5-.3-.8-.7-.5l-33.3 19.2c-.4.2-.7.9-.7 1.4v5.1c0 .5.3.7.7.5z"/><path class="st2" d="M386.7 234.9l5-2.9c.4-.2.7-.8.7-1.3s-.3-.8-.7-.5l-5 2.9c-.4.2-.7.8-.7 1.3-.1.5.3.8.7.5z"/><path class="st0" d="M381.5 237.1c0 1 .7 1.4 1.5.9.8-.5 1.5-1.7 1.5-2.7 0-1-.7-1.4-1.5-.9-.8.5-1.5 1.7-1.5 2.7z"/><path class="st1" d="M375.6 240.6c0 .5.4.7.8.5.4-.3.8-.9.8-1.4 0-.5-.4-.7-.8-.5-.5.2-.8.8-.8 1.4z"/><path class="st2" d="M372.7 242.2c0 .5.4.7.8.5.4-.3.8-.9.8-1.4 0-.5-.4-.7-.8-.5-.4.3-.8.9-.8 1.4z"/><path class="st1" d="M369.8 243.9c0 .5.4.7.8.5.4-.3.8-.9.8-1.4 0-.5-.4-.7-.8-.5-.4.2-.8.9-.8 1.4z"/><path class="st2" d="M361.7 249.9l1.7-1c.2-.1.5-.5.5-.9v-1.8c0-.3-.2-.5-.5-.3l-1.7 1c-.2.1-.5.5-.5.9v1.8c.1.3.3.4.5.3z"/><path class="st5" d="M261 281.9v-88l35-9.2 6.4-3.7c1.5-.9 4.1-.7 5.8.2l6 3.5h18.7l-5.5 84.9c0 .6-.3 1.1-1 1.5l-34.9 26.3c-1.5.9-4.1.7-5.8-.2l-23.3-13.4c-.9-.5-1.4-1.2-1.4-1.9z"/><path class="st2" d="M305.1 180.5c1.1 0 2.2.3 3.1.8l6 3.5h18.7V273c0 .6-.3 1.1-1 1.5l-40.4 23.1c-.7.4-1.7.6-2.7.6l-.4-88.8 16.7-28.9z"/><path class="st3" d="M291.1 297.7c-1.3.5-3.1.5-4.6-.1v-89.4h4.6v89.5z"/><path class="st2" d="M291.5 209.4l40.4-23.1c1.5-.9 1.3-2.3-.4-3.3l-23.3-13.4c-1.7-1-4.3-1.1-5.8-.2l-40.4 23c-1.5.9-1.3 2.3.4 3.3l23.3 13.4c1.7 1 4.3 1.1 5.8.3z"/><path class="st8" d="M262.4 194.1l23.3 13.4c1.7 1 4.3 1.1 5.8.2l40.4-23.1c.3-.2.6-.4.7-.7.5.8.3 1.7-.7 2.3l-40.4 23.1c-1.5.9-4.1.7-5.8-.2l-23.3-13.4c-1.3-.8-1.7-1.8-1.2-2.7.3.4.7.7 1.2 1.1z"/><path class="st1" d="M290.3 200l26.9-15.6c.7-.4.6-1.1-.2-1.6l-10.9-6.3c-.8-.5-2-.5-2.7-.1L276.5 192c-.7.4-.6 1.1.2 1.6l10.9 6.3c.8.5 2 .5 2.7.1z"/><path class="st6" d="M304.9 185.1l1.6-.9c.1-.1.1-.2 0-.2l-1.5-.9c-.1-.1-.3-.1-.4 0l-1.6.9c-.1.1-.1.2 0 .2l1.5.9c.1.1.3.1.4 0z"/><path class="st2" d="M299.7 188.1l1.6-.9c.1-.1.1-.2 0-.2l-1.5-.9c-.1-.1-.3-.1-.4 0l-1.6.9c-.1.1-.1.2 0 .2l1.5.9c.1.1.3.1.4 0zm-5.3 3l1.6-.9c.1-.1.1-.2 0-.2l-1.5-.9c-.1-.1-.3-.1-.4 0l-1.6.9c-.1.1-.1.2 0 .2l1.5.9c.2.1.3.1.4 0zm-5.2 3l1.6-.9c.1-.1.1-.2 0-.2l-1.5-.9c-.1-.1-.3-.1-.4 0l-1.6.9c-.1.1-.1.2 0 .2l1.5.9c.2.1.3.1.4 0z"/><path class="st3" d="M317.2 184.4c-.1 0-.1-.1-.2-.1l-10.9-6.3c-.8-.5-2-.5-2.7-.1l-26.9 15.6c-.6-.5-.7-1.1 0-1.4l26.9-15.6c.7-.4 1.9-.3 2.7.1l10.9 6.3c.9.4.9 1.1.2 1.5z"/><path class="st1" d="M281.2 226.8l-15.3-8.8c-.9-.5-1.6-1.8-1.6-3v-5.5c0-1.1.7-1.7 1.6-1.2l15.3 8.8c.9.5 1.6 1.8 1.6 3v5.5c-.1 1.2-.8 1.7-1.6 1.2z"/><path class="st0" d="M265.1 208.2c-.2.2-.4.6-.4 1.1v5.5c0 1.1.7 2.5 1.6 3l15.3 8.8c.3.2.5.2.8.2-.3.3-.7.3-1.2 0l-15.3-8.8c-.9-.5-1.6-1.8-1.6-3v-5.5c0-.7.3-1.2.8-1.3z"/><path class="st6" d="M276.6 220.8l-1.4-.8c-.2-.1-.3-.4-.3-.6v-1.5c0-.3.2-.4.3-.3l1.4.8c.2.1.3.4.3.6v1.5c0 .3-.1.5-.3.3z"/><path class="st0" d="M271.9 218.1l-1.4-.8c-.2-.1-.3-.4-.3-.6v-1.5c0-.3.2-.4.3-.3l1.4.8c.2.1.3.4.3.6v1.5c0 .3-.1.4-.3.3z"/><path class="st1" d="M281.2 266.3l-15.3-8.8c-.9-.5-1.6-1.8-1.6-3V249c0-1.1.7-1.7 1.6-1.2l15.3 8.8c.9.5 1.6 1.8 1.6 3v5.5c-.1 1.2-.8 1.7-1.6 1.2z"/><path class="st0" d="M265.1 247.8c-.2.2-.4.6-.4 1.1v5.5c0 1.1.7 2.5 1.6 3l15.3 8.8c.3.2.5.2.8.2-.3.3-.7.3-1.2 0l-15.3-8.8c-.9-.5-1.6-1.8-1.6-3v-5.5c0-.8.3-1.2.8-1.3z"/><path class="st5" d="M276.6 260.4l-1.4-.8c-.2-.1-.3-.4-.3-.6v-1.5c0-.3.2-.4.3-.3l1.4.8c.2.1.3.4.3.6v1.5c0 .3-.1.4-.3.3z"/><path class="st0" d="M271.9 257.7l-1.4-.8c-.2-.1-.3-.4-.3-.6v-1.5c0-.3.2-.4.3-.3l1.4.8c.2.1.3.4.3.6v1.5c0 .3-.1.4-.3.3z"/><path class="st1" d="M281.2 286.1l-15.3-8.8c-.9-.5-1.6-1.8-1.6-3v-5.5c0-1.1.7-1.7 1.6-1.2l15.3 8.8c.9.5 1.6 1.8 1.6 3v5.5c-.1 1.2-.8 1.7-1.6 1.2z"/><path class="st0" d="M265.1 267.5c-.2.2-.4.6-.4 1.1v5.5c0 1.1.7 2.5 1.6 3l15.3 8.8c.3.2.5.2.8.2-.3.3-.7.3-1.2 0l-15.3-8.8c-.9-.5-1.6-1.8-1.6-3v-5.5c0-.7.3-1.2.8-1.3z"/><path class="st5" d="M276.6 280.2l-1.4-.8c-.2-.1-.3-.4-.3-.6v-1.5c0-.3.2-.4.3-.3l1.4.8c.2.1.3.4.3.6v1.5c0 .3-.1.4-.3.3z"/><path class="st0" d="M271.9 277.4l-1.4-.8c-.2-.1-.3-.4-.3-.6v-1.5c0-.3.2-.4.3-.3l1.4.8c.2.1.3.4.3.6v1.5c0 .3-.1.5-.3.3z"/><path class="st1" d="M281.2 246.6l-15.3-8.8c-.9-.5-1.6-1.8-1.6-3v-5.5c0-1.1.7-1.7 1.6-1.2l15.3 8.8c.9.5 1.6 1.8 1.6 3v5.5c-.1 1.1-.8 1.7-1.6 1.2z"/><path class="st0" d="M265.1 228c-.2.2-.4.6-.4 1.1v5.5c0 1.1.7 2.5 1.6 3l15.3 8.8c.3.2.5.2.8.2-.3.3-.7.3-1.2 0l-15.3-8.8c-.9-.5-1.6-1.8-1.6-3v-5.5c0-.7.3-1.2.8-1.3z"/><path class="st5" d="M276.6 240.6l-1.4-.8c-.2-.1-.3-.4-.3-.6v-1.5c0-.3.2-.4.3-.3l1.4.8c.2.1.3.4.3.6v1.5c0 .3-.1.4-.3.3z"/><path class="st0" d="M271.9 237.9l-1.4-.8c-.2-.1-.3-.4-.3-.6V235c0-.3.2-.4.3-.3l1.4.8c.2.1.3.4.3.6v1.5c0 .3-.1.4-.3.3z"/><path class="st3" d="M294.4 221.2l35.3-20.4c.8-.5 1.4-1.7 1.4-2.7v-6.7c0-1.1-.6-1.5-1.4-1.1l-35.3 20.4c-.8.5-1.4 1.7-1.4 2.7v6.7c0 1.1.6 1.5 1.4 1.1z"/><path class="st9" d="M295.4 218.8l33.3-19.2c.4-.2.7-.9.7-1.4v-5.1c0-.5-.3-.8-.7-.5l-33.3 19.2c-.4.2-.7.9-.7 1.4v5.1c0 .5.3.8.7.5z"/><path class="st2" d="M321.8 201.1l5-2.9c.4-.2.7-.8.7-1.3s-.3-.8-.7-.5l-5 2.9c-.4.2-.7.8-.7 1.3 0 .4.3.7.7.5z"/><path class="st1" d="M317.5 202.6c0 .5.4.7.8.5.4-.3.8-.9.8-1.4 0-.5-.4-.7-.8-.5-.4.2-.8.8-.8 1.4zm-2.8 1.6c0 .5.4.7.8.5.4-.3.8-.9.8-1.4 0-.5-.4-.7-.8-.5-.5.3-.8.9-.8 1.4z"/><path class="st2" d="M311.8 205.9c0 .5.4.7.8.5.4-.3.8-.9.8-1.4 0-.5-.4-.7-.8-.5-.4.2-.8.9-.8 1.4z"/><path class="st1" d="M308.9 207.5c0 .5.4.7.8.5.4-.3.8-.9.8-1.4 0-.5-.4-.7-.8-.5-.4.3-.8.9-.8 1.4zm-12.1 8.5l1.7-1c.2-.1.5-.5.5-.9v-1.8c0-.3-.2-.5-.5-.3l-1.7 1c-.2.1-.5.5-.5.9v1.8c.1.3.3.5.5.3z"/><path class="st3" d="M294.4 233.1l35.3-20.4c.8-.5 1.4-1.7 1.4-2.7v-6.7c0-1.1-.6-1.5-1.4-1.1l-35.3 20.4c-.8.5-1.4 1.7-1.4 2.7v6.7c0 1 .6 1.5 1.4 1.1z"/><path class="st9" d="M295.4 230.7l33.3-19.2c.4-.2.7-.9.7-1.4V205c0-.5-.3-.8-.7-.5l-33.3 19.2c-.4.2-.7.9-.7 1.4v5.1c0 .5.3.7.7.5z"/><path class="st2" d="M321.8 212.9l5-2.9c.4-.2.7-.8.7-1.3s-.3-.8-.7-.5l-5 2.9c-.4.2-.7.8-.7 1.3s.3.8.7.5z"/><path class="st0" d="M317.5 214.4c0 .5.4.7.8.5.4-.3.8-.9.8-1.4 0-.5-.4-.7-.8-.5-.4.3-.8.9-.8 1.4z"/><path class="st1" d="M314.7 216.1c0 .5.4.7.8.5.4-.3.8-.9.8-1.4 0-.5-.4-.7-.8-.5-.5.2-.8.9-.8 1.4z"/><path class="st2" d="M311.8 217.7c0 .5.4.7.8.5.4-.3.8-.9.8-1.4 0-.5-.4-.7-.8-.5-.4.3-.8.9-.8 1.4z"/><path class="st1" d="M308.9 219.4c0 .5.4.7.8.5.4-.3.8-.9.8-1.4 0-.5-.4-.7-.8-.5-.4.3-.8.9-.8 1.4zm-12.1 8.5l1.7-1c.2-.1.5-.5.5-.9v-1.8c0-.3-.2-.5-.5-.3l-1.7 1c-.2.1-.5.5-.5.9v1.8c.1.3.3.4.5.3z"/><path class="st3" d="M294.4 244.9l35.3-20.4c.8-.5 1.4-1.7 1.4-2.7v-6.7c0-1.1-.6-1.5-1.4-1.1l-35.3 20.4c-.8.5-1.4 1.7-1.4 2.7v6.7c0 1.1.6 1.6 1.4 1.1z"/><path class="st9" d="M295.4 242.6l33.3-19.2c.4-.2.7-.9.7-1.4v-5.1c0-.5-.3-.8-.7-.5l-33.3 19.2c-.4.2-.7.9-.7 1.4v5.1c0 .5.3.7.7.5z"/><path class="st2" d="M321.8 224.8l5-2.9c.4-.2.7-.8.7-1.3s-.3-.8-.7-.5l-5 2.9c-.4.2-.7.8-.7 1.3s.3.7.7.5z"/><path class="st0" d="M317.5 226.3c0 .5.4.7.8.5.4-.3.8-.9.8-1.4 0-.5-.4-.7-.8-.5-.4.3-.8.9-.8 1.4z"/><path class="st1" d="M314.7 228c0 .5.4.7.8.5.4-.3.8-.9.8-1.4 0-.5-.4-.7-.8-.5-.5.2-.8.8-.8 1.4z"/><path class="st2" d="M311.8 229.6c0 .5.4.7.8.5.4-.3.8-.9.8-1.4 0-.5-.4-.7-.8-.5-.4.3-.8.9-.8 1.4z"/><path class="st1" d="M308.9 231.3c0 .5.4.7.8.5.4-.3.8-.9.8-1.4 0-.5-.4-.7-.8-.5-.4.2-.8.9-.8 1.4zm-12.1 8.4l1.7-1c.2-.1.5-.5.5-.9V236c0-.3-.2-.5-.5-.3l-1.7 1c-.2.1-.5.5-.5.9v1.8c.1.3.3.5.5.3z"/><path class="st3" d="M294.4 256.8l35.3-20.4c.8-.5 1.4-1.7 1.4-2.7V227c0-1.1-.6-1.5-1.4-1.1l-35.3 20.4c-.8.5-1.4 1.7-1.4 2.7v6.7c0 1.1.6 1.6 1.4 1.1z"/><path class="st9" d="M295.4 254.4l33.3-19.2c.4-.2.7-.9.7-1.4v-5.1c0-.5-.3-.8-.7-.5l-33.3 19.2c-.4.2-.7.9-.7 1.4v5.1c0 .5.3.8.7.5z"/><path class="st2" d="M321.8 236.7l5-2.9c.4-.2.7-.8.7-1.3s-.3-.8-.7-.5l-5 2.9c-.4.2-.7.8-.7 1.3s.3.7.7.5z"/><path class="st1" d="M317.5 238.2c0 .5.4.7.8.5.4-.3.8-.9.8-1.4 0-.5-.4-.7-.8-.5-.4.2-.8.9-.8 1.4zm-2.8 1.6c0 .5.4.7.8.5.4-.3.8-.9.8-1.4 0-.5-.4-.7-.8-.5-.5.3-.8.9-.8 1.4z"/><path class="st2" d="M311.8 241.5c0 .5.4.7.8.5.4-.3.8-.9.8-1.4 0-.5-.4-.7-.8-.5-.4.2-.8.9-.8 1.4z"/><path class="st1" d="M308.9 243.1c0 .5.4.7.8.5.4-.3.8-.9.8-1.4 0-.5-.4-.7-.8-.5-.4.3-.8.9-.8 1.4z"/><path class="st2" d="M296.8 251.6l1.7-1c.2-.1.5-.5.5-.9V248c0-.3-.2-.5-.5-.3l-1.7 1c-.2.1-.5.5-.5.9v1.8c.1.2.3.4.5.2z"/><path class="st3" d="M294.4 268.7l35.3-20.4c.8-.5 1.4-1.7 1.4-2.7v-6.7c0-1.1-.6-1.5-1.4-1.1l-35.3 20.4c-.8.5-1.4 1.7-1.4 2.7v6.7c0 1 .6 1.5 1.4 1.1z"/><path class="st9" d="M295.4 266.3l33.3-19.2c.4-.2.7-.9.7-1.4v-5.1c0-.5-.3-.8-.7-.5l-33.3 19.2c-.4.2-.7.9-.7 1.4v5.1c0 .5.3.7.7.5z"/><path class="st2" d="M321.8 248.5l5-2.9c.4-.2.7-.8.7-1.3s-.3-.8-.7-.5l-5 2.9c-.4.2-.7.8-.7 1.3s.3.8.7.5z"/><path class="st1" d="M317.5 250c0 .5.4.7.8.5.4-.3.8-.9.8-1.4 0-.5-.4-.7-.8-.5-.4.3-.8.9-.8 1.4z"/><path class="st0" d="M314.7 251.7c0 .5.4.7.8.5.4-.3.8-.9.8-1.4 0-.5-.4-.7-.8-.5-.5.3-.8.9-.8 1.4z"/><path class="st2" d="M311.8 253.4c0 .5.4.7.8.5.4-.3.8-.9.8-1.4 0-.5-.4-.7-.8-.5-.4.2-.8.8-.8 1.4z"/><path class="st0" d="M308.9 255c0 .5.4.7.8.5.4-.3.8-.9.8-1.4 0-.5-.4-.7-.8-.5-.4.3-.8.9-.8 1.4z"/><path class="st2" d="M296.8 263.5l1.7-1c.2-.1.5-.5.5-.9v-1.8c0-.3-.2-.5-.5-.3l-1.7 1c-.2.1-.5.5-.5.9v1.8c.1.3.3.4.5.3z"/><path class="st3" d="M294.4 280.5l35.3-20.4c.8-.5 1.4-1.7 1.4-2.7v-6.7c0-1.1-.6-1.5-1.4-1.1L294.4 270c-.8.5-1.4 1.7-1.4 2.7v6.7c0 1.1.6 1.6 1.4 1.1z"/><path class="st9" d="M295.4 278.2l33.3-19.2c.4-.2.7-.9.7-1.4v-5.1c0-.5-.3-.8-.7-.5l-33.3 19.2c-.4.2-.7.9-.7 1.4v5.1c0 .5.3.7.7.5z"/><path class="st2" d="M321.8 260.4l5-2.9c.4-.2.7-.8.7-1.3s-.3-.8-.7-.5l-5 2.9c-.4.2-.7.8-.7 1.3s.3.7.7.5z"/><path class="st1" d="M317.5 261.9c0 .5.4.7.8.5.4-.3.8-.9.8-1.4 0-.5-.4-.7-.8-.5-.4.3-.8.9-.8 1.4zm-2.8 1.7c0 .5.4.7.8.5.4-.3.8-.9.8-1.4 0-.5-.4-.7-.8-.5-.5.2-.8.9-.8 1.4z"/><path class="st2" d="M311.8 265.2c0 .5.4.7.8.5.4-.3.8-.9.8-1.4 0-.5-.4-.7-.8-.5-.4.3-.8.9-.8 1.4z"/><path class="st1" d="M308.9 266.9c0 .5.4.7.8.5.4-.3.8-.9.8-1.4s-.4-.7-.8-.5c-.4.2-.8.9-.8 1.4zm-12.1 8.5l1.7-1c.2-.1.5-.5.5-.9v-1.8c0-.3-.2-.5-.5-.3l-1.7 1c-.2.1-.5.5-.5.9v1.8c.1.3.3.4.5.3z"/><path class="st3" d="M294.4 292.4l35.3-20.4c.8-.5 1.4-1.7 1.4-2.7v-6.7c0-1.1-.6-1.5-1.4-1.1l-35.3 20.4c-.8.5-1.4 1.7-1.4 2.7v6.7c0 1.1.6 1.6 1.4 1.1z"/><path class="st9" d="M295.4 290.1l33.3-19.2c.4-.2.7-.9.7-1.4v-5.1c0-.5-.3-.8-.7-.5l-33.3 19.2c-.4.2-.7.9-.7 1.4v5.1c0 .4.3.7.7.5z"/><path class="st2" d="M321.8 272.3l5-2.9c.4-.2.7-.8.7-1.3s-.3-.8-.7-.5l-5 2.9c-.4.2-.7.8-.7 1.3s.3.7.7.5z"/><path class="st0" d="M316.6 274.4c0 1 .7 1.4 1.5.9s1.5-1.7 1.5-2.7c0-1-.7-1.4-1.5-.9-.8.6-1.5 1.7-1.5 2.7z"/><path class="st1" d="M310.7 277.9c0 .5.4.7.8.5.4-.3.8-.9.8-1.4 0-.5-.4-.7-.8-.5-.4.3-.8.9-.8 1.4z"/><path class="st2" d="M307.8 279.6c0 .5.4.7.8.5.4-.3.8-.9.8-1.4 0-.5-.4-.7-.8-.5-.4.2-.8.8-.8 1.4z"/><path class="st1" d="M304.9 281.2c0 .5.4.7.8.5.4-.3.8-.9.8-1.4 0-.5-.4-.7-.8-.5-.4.3-.8.9-.8 1.4z"/><path class="st2" d="M296.8 287.2l1.7-1c.2-.1.5-.5.5-.9v-1.8c0-.3-.2-.5-.5-.3l-1.7 1c-.2.1-.5.5-.5.9v1.8c.1.3.3.5.5.3z"/><path class="st4" d="M160.2 134.5c-1.3.8-3.4.8-4.8 0-1.3-.8-1.3-2 0-2.7 1.3-.8 3.4-.8 4.8 0 1.3.7 1.3 2 0 2.7zM468 212c-1.3.8-3.4.8-4.8 0-1.3-.8-1.3-2 0-2.7 1.3-.8 3.4-.8 4.8 0 1.3.7 1.3 1.9 0 2.7zM351.1 82c-1.3.8-3.4.8-4.8 0-1.3-.8-1.3-2 0-2.7 1.3-.8 3.4-.8 4.8 0 1.3.7 1.3 1.9 0 2.7zm19 197.9c-1.3.8-3.4.8-4.8 0-1.3-.8-1.3-2 0-2.7 1.3-.8 3.4-.8 4.8 0 1.4.7 1.4 2 0 2.7zM146.9 382.4l-.3-.1-87.1-50.5 37.3-21.5.3.1 87.1 50.5-37.3 21.5zm-85.3-50.7l85.3 49.5 35.3-20.4-85.3-49.5-35.3 20.4zm297.7 50.5L329.6 365l45.7-26.4 29.7 17.2-45.7 26.4zm-27.4-17.1l27.4 15.8 43.4-25-27.5-15.9-43.3 25.1z"/><path class="st1" d="M372.7 351.4v-3.1l3.7-18.5-3.6-2.2-7.3 4-.1 23.8c0 1.6.6 2.7 1.5 3l3.2 2 .4-1.5.6-2.8c1-1.4 1.6-3.1 1.6-4.7z"/><path class="st3" d="M372.7 360.4c-2 1.1-3.6-.1-3.6-2.8l.1-23.8 7.3-4-.1 23.8c-.1 2.6-1.7 5.7-3.7 6.8zm19.6-43.4c0 6-4.2 8.5-9.5 5.5-5.2-3-9.5-10.4-9.5-16.4 0-6 4.2-8.5 9.5-5.5 5.2 3 9.5 10.3 9.5 16.4z"/><path class="st3" d="M389.6 323.1L362 338.9l-14.8-22.3 28.7-16.6z"/><path class="st2" d="M378.7 325c0-6.2-4.4-13.8-9.8-16.9-2.4-1.4-4.7-1.7-6.4-.9-.1 0-.1.1-.2.1-10.2 5-21.4 7.4-32.8 7l-3.2-.1 26.2 44.8 1.4-2.7c5.2-10 12.7-18.5 22-24.9 1.7-1 2.8-3.2 2.8-6.4z"/><path class="st2" d="M355.5 348.9c0-11.9-8.4-26.4-18.7-32.4-5.2-3-9.8-3.3-13.2-1.3l-3.1 1.8 1.1-.2c-2.2 2.3-3.5 5.9-3.5 10.5 0 11.9 8.4 26.4 18.7 32.4 4.1 2.3 7.8 3 10.9 2.3l-.5.7 2.8-1.7.1-.1c3.4-2 5.4-6.1 5.4-12z"/><path class="st0" d="M353.3 350.2c0-11.9-8.4-26.4-18.7-32.4-5.1-2.9-9.7-3.3-13.1-1.4l-.5.3c-.2.1-.3.2-.5.3l1-.2c-2.2 2.3-3.5 5.9-3.5 10.5 0 11.9 8.4 26.4 18.7 32.4 4.1 2.3 7.8 3 10.9 2.3l-.4.7c3.8-1.9 6.1-6.2 6.1-12.5z"/><ellipse transform="rotate(-30 333.99 339.757)" class="st3" cx="334" cy="339.7" rx="15.3" ry="26.5"/><ellipse transform="rotate(-30 333.994 339.759)" class="st1" cx="334" cy="339.7" rx="13.4" ry="23.2"/><path class="st0" d="M334.8 358.4c-9.1-5.2-16.4-18-16.4-28.4 0-5.5 2-9.3 5.3-10.9-3.7 1.4-6 5.3-6 11.2 0 10.5 7.3 23.2 16.4 28.4 4.3 2.5 8.2 2.8 11.1 1.4-2.9 1-6.5.5-10.4-1.7z"/><defs><ellipse id="SVGID_1_" transform="rotate(-30 333.994 339.759)" cx="334" cy="339.7" rx="13.4" ry="23.2"/></defs><clipPath id="SVGID_2_"><use xlink:href="#SVGID_1_" overflow="visible"/></clipPath><g clip-path="url(#SVGID_2_)"><path class="st2" d="M331.5 335.8l23.8-18.4 8.7 15-28 11.5z"/><ellipse transform="rotate(-30 333.989 339.756)" class="st3" cx="334" cy="339.7" rx="2.7" ry="4.6"/></g><path class="st6" d="M367.3 351.6l-.1-.1c-.5-.3-.9-1-.9-1.6v-4.6c0-.6.4-.9.9-.7l.1.1c.5.3.9 1 .9 1.6v4.6c0 .7-.4 1-.9.7z"/><path class="st0" d="M522.6 168.6c-1.3.8-3.4.8-4.8 0-1.3-.8-1.3-2 0-2.7 1.3-.8 3.4-.8 4.8 0 1.3.7 1.3 1.9 0 2.7z"/><path class="st5" d="M520 228.8l42.2-24.5c1.4-.8 2-1.9 2-3v-6.1l-2.3 2.8c-.2-.1-.3-.2-.5-.3L475 147.9c-3.4-2-8.6-2.2-11.6-.5l-41.7 24.1c-.8-.9-2.6-2.9-2.6-2.9v6c-.1 1.4.9 2.8 2.8 3.9l86.4 49.7c3.6 2.1 8.8 2.3 11.7.6z"/><path class="st1" d="M542.9 213.8l-2.4 1.4c-.3.2-.6 0-.6-.4s.3-.9.6-1.1l2.4-1.4c.3-.2.6 0 .6.4s-.3.9-.6 1.1z"/><path class="st3" d="M475 147.9c-3.4-2-8.6-2.2-11.6-.5l-41.7 24.1c-.8-.9-2.6-2.9-2.6-2.9v6c-.1 1.4.9 2.8 2.8 3.9l86.4 49.7c1.8 1 4.1 1.6 6.2 1.6l-.1-59.3-39.4-22.6z"/><path class="st2" d="M421.2 165.8l42.2-24.5c3-1.7 8.2-1.5 11.6.5l86.4 49.7c3.4 2 3.8 5 .8 6.7L520 222.7c-3 1.7-8.2 1.5-11.6-.5L422 172.5c-3.4-2-3.8-5-.8-6.7z"/><path class="st0" d="M520.1 223.3l42.2-24.5c1.5-.9 2.2-2.1 2-3.4-.1 1-.7 2-2 2.7L520 222.7c-3 1.7-8.2 1.5-11.6-.5L422 172.5c-1.7-1-2.6-2.2-2.8-3.3-.1 1.4.9 2.8 2.8 4l86.4 49.7c3.5 1.9 8.7 2.1 11.7.4z"/><path class="st1" d="M424.4 166.7l40.6-23.5c2.2-1.3 6.1-1.1 8.6.3l85.2 49c2.6 1.5 2.8 3.7.6 5L518.8 221c-2.2 1.3-6.1 1.1-8.6-.3l-85.2-49c-2.5-1.5-2.8-3.7-.6-5z"/><path class="st2" d="M508.6 208.9l28.7-16.6-1.8-1-28.7 16.5zm20-4.9l14.5-8.3-1.9-1.1-14.5 8.4z"/><path class="st6" d="M521.5 208.1l4.7-2.7-1.8-1.1-4.7 2.8z"/><path class="st0" d="M514.4 212.2l4.7-2.7-1.8-1.1-4.7 2.8zm14-11.4l11.8-6.8-1.8-1.1-11.8 6.8z"/><path class="st2" d="M514 209.1l11.8-6.8-1.8-1.1-11.8 6.8z"/><path class="st6" d="M522.8 194.6c.6.3 1.5.3 2.1 0 .6-.3.6-.9 0-1.2-.6-.3-1.5-.3-2.1 0-.6.3-.6.8 0 1.2z"/><path class="st0" d="M519.6 196.4c.6.3 1.5.3 2.1 0 .6-.3.6-.9 0-1.2-.6-.3-1.5-.3-2.1 0-.6.3-.6.9 0 1.2z"/><path class="st2" d="M516.4 198.2c.6.3 1.5.3 2.1 0 .6-.3.6-.9 0-1.2-.6-.3-1.5-.3-2.1 0-.6.4-.6.9 0 1.2z"/><path class="st6" d="M513.2 200.1c.6.3 1.5.3 2.1 0 .6-.3.6-.9 0-1.2-.6-.3-1.5-.3-2.1 0-.6.3-.6.8 0 1.2z"/><path class="st0" d="M510 201.9c.6.3 1.5.3 2.1 0 .6-.3.6-.9 0-1.2-.6-.3-1.5-.3-2.1 0-.6.3-.6.9 0 1.2z"/><path class="st6" d="M445.9 166.9l4.9-2.8-1.9-1.1-4.8 2.8z"/><path class="st0" d="M439.2 170.8l4.8-2.8-1.8-1.1-4.8 2.8zm28.3-16.4l4.8-2.8-1.9-1.1-4.8 2.8zM447 169.7l6.7-3.9-1.8-1-6.8 3.8z"/><path class="st2" d="M442.2 172.5l2.9-1.7-1.8-1.1-3 1.7z"/><path class="st4" d="M113.1 212.1l-.3-.1-55.1-31.8 16.8-9.7.3.1 55.1 31.8-16.8 9.7zm-53.3-31.9l53.3 30.7 14.8-8.6-53.3-30.7-14.8 8.6zm70.6-30.6l-.2-.2L39 96.1l54-31 .5.8L41 96.1l89.4 52.3 27.2-15.7.5.9z"/><path class="st5" d="M81.4 184.6c-.3 0-.5-.2-.5-.5v-28.5c0-.3.2-.5.5-.5s.5.2.5.5v28.5c0 .3-.2.5-.5.5z"/><path class="st3" d="M78.9 153.9h4.9v10.7h-4.9z"/><path class="st3" d="M83.2 165.6c-1 .6-2.5.6-3.5 0s-1-1.5 0-2c1-.6 2.5-.6 3.5 0 .9.5.9 1.4 0 2zM77.4 139h8v16.7h-8z"/><path class="st5" d="M78.9 155.6v3.6c1.5.7 3.5.7 4.9 0v-3.6c-1.4-.6-3.4-.6-4.9 0z"/><path class="st3" d="M84.2 157.4c-1.6.9-4.1.9-5.7 0-1.6-.9-1.6-2.4 0-3.3 1.6-.9 4.1-.9 5.7 0 1.6.9 1.6 2.4 0 3.3z"/><path class="st5" d="M109.2 200.3c-.3 0-.5-.2-.5-.5v-28.5c0-.3.2-.5.5-.5s.5.2.5.5v28.5c0 .2-.3.5-.5.5z"/><path class="st3" d="M106.7 169.5h4.9v10.7h-4.9z"/><path class="st3" d="M110.9 181.2c-1 .6-2.5.6-3.5 0s-1-1.5 0-2c1-.6 2.5-.6 3.5 0 1 .5 1 1.4 0 2zm-5.7-26.6h8v16.7h-8z"/><path class="st5" d="M106.7 171.3v3.6c1.5.7 3.5.7 4.9 0v-3.6c-1.4-.7-3.5-.7-4.9 0z"/><path class="st3" d="M112 173c-1.6.9-4.1.9-5.7 0-1.6-.9-1.6-2.4 0-3.3 1.6-.9 4.1-.9 5.7 0 1.6.9 1.6 2.4 0 3.3zm24.1 9.4l10.8-6.3-10.3-12.8-2.6 4.4zm-78-70.1l17.1-9.9s-.6 9.8-.6 9.9l-9.8 3.1-6.7-3.1z"/><path class="st3" d="M139.1 150.3c-1.3-.8-2.6-1.2-3.7-1.4-1.7-9.1-8.1-18.7-15.6-23.1-2.3-1.3-4.4-2-6.4-2.2-1-11-8.7-23.5-18-28.9-4.9-2.8-9.3-3.1-12.5-1.4l-.2.1c-.1 0-.2.1-.2.1l-10.1 6 3.4 2.7c-3 1.3-4.9 4.7-4.9 9.7 0 9.2 6.5 20.4 14.5 25l53.8 38.4c6 3.5 10.9.7 10.9-6.3-.1-6.8-5-15.2-11-18.7z"/><path class="st3" d="M71.4 107.9l23.2-13.6C90.1 92 86 91.8 83 93.4l-.2.1c-.1 0-.2.1-.2.1l-10.1 6 3.4 2.7c-2.2.8-3.8 2.8-4.5 5.6zm42.8 39.8l16.9-9.9c-2.9-5-6.9-9.4-11.3-12-.6-.3-1.2-.6-1.7-.9l-21.5 12.6 17.6 10.2z"/><path class="st2" d="M77.2 100.7l7.5 4.4L98.5 97c-1-.8-2-1.5-3.1-2.1-1.7-1-3.3-1.6-4.8-2l-13.4 7.8zm52.1 34.2l-13.5 8 4.7 5.2 12.3-7.2c-1-2.1-2.2-4.1-3.5-6z"/><path class="st2" d="M128.5 156.5c-1.3-.8-2.6-1.2-3.7-1.4-1.7-9.1-8.1-18.7-15.6-23.1-2.3-1.3-4.4-2-6.4-2.2-1-11-8.7-23.5-18-28.9-10-5.8-18.1-1.1-18.1 10.5v1.2c-7.3-3.4-13 .4-13 9.1 0 9.2 6.5 20.4 14.5 25l60.3 34.8c6 3.5 10.9.7 10.9-6.3 0-6.8-4.9-15.2-10.9-18.7z"/><path class="st0" d="M66.8 112.7v-1.2c-4-1.6-7.5-.9-9.7 1.6 2.3-2 5.8-2.2 9.7-.4zm62.6 43c-1.3-.8-2.6-1.2-3.7-1.4-1.7-9.1-8.1-18.7-15.6-23.1-2.3-1.3-4.4-2-6.4-2.2-1-11-8.7-23.5-18-28.9-6.2-3.6-11.7-3.1-15 .5 3.3-2.8 8.4-2.9 14.1.3 9.3 5.4 17 17.9 18 28.9 2 .2 4.1.8 6.4 2.2 7.5 4.4 13.9 14 15.6 23.1 1.2.2 2.4.6 3.7 1.4 6 3.5 10.9 11.9 10.9 18.8 0 2.5-.6 4.5-1.7 5.8 1.6-1.3 2.6-3.5 2.6-6.6-.1-6.9-4.9-15.3-10.9-18.8z"/><path class="st1" d="M65.5 115.4l4.5 2.1-.2-5v-1c0-4.5 1.3-7.7 3.8-9.1 2.4-1.4 5.9-1 9.8 1.3 8.3 4.8 15.5 16.5 16.5 26.6l.2 2.5 2.5.2c1.6.1 3.3.7 5.1 1.8 6.6 3.8 12.5 12.6 14.1 21l.4 2.1 2.1.3c.8.1 1.7.5 2.7 1 5.1 2.9 9.3 10.3 9.3 16.2 0 2.2-.6 3.8-1.7 4.4-1.1.6-2.8.3-4.6-.8l-60.3-34.8c-7-4-12.9-14.3-12.9-22.4 0-3.2.9-5.6 2.6-6.6.7-.4 1.5-.6 2.4-.6 1.1-.1 2.3.2 3.7.8z"/><path class="st3" d="M95.6 153.2l1.6-.8-1.6-1.2zm-4.8-21.5l1.6-.8v.9zm9.3 16.5l1.6-.8-3.1-3z"/><path class="st3" d="M96.7 152.4l-7.5-4.4c-.4-.2-.7-.8-.7-1.3V138l8.9 5.3v8.7c0 .4-.3.6-.7.4z"/><path class="st3" d="M92.3 131l-8.1 5.2c-.3.2-.1 1 .5 1.4l8.3 4.9 8.3 4.9c.5.3.8-.2.5-.8l-8.1-14.8c-.4-.7-1-1.1-1.4-.8z"/><path class="st2" d="M95.1 153.2l-7.5-4.4c-.4-.2-.7-.8-.7-1.3v-8.7l8.9 5.3v8.7c0 .4-.3.6-.7.4z"/><path class="st2" d="M90.7 131.8l-8.1 5.2c-.3.2-.1 1.1.5 1.4l8.3 4.9 8.3 4.9c.5.3.8-.2.5-.8l-8.1-14.8c-.4-.7-1-1.1-1.4-.8zm-10.1 30.9c0 .5-.3.7-.8.4-.4-.2-.8-.8-.8-1.3s.3-.7.8-.4c.5.2.8.8.8 1.3zm27.9 15.9c0 .5-.3.7-.8.4-.4-.2-.8-.8-.8-1.3s.3-.7.8-.4c.4.2.8.8.8 1.3z"/><path class="st0" d="M123.6 208.3c-1.3.8-3.4.8-4.8 0-1.3-.8-1.3-2 0-2.7 1.3-.8 3.4-.8 4.8 0 1.3.7 1.3 2 0 2.7z"/><path class="st4" d="M267.1 377.5L241.9 363l25.2-14.5 25.2 14.5-25.2 14.5zM243.9 363l23.1 13.4 23.1-13.4-23.1-13.4-23.1 13.4z"/><path class="st5" d="M289.3 357.5v-6.6h-14.9l-5.1-3c-1.2-.7-3.2-.6-4.6.2l-4.8 2.8H245v6.8c0 .5.2.9.8 1.2l19.3 11.1c1.2.7 3.2.6 4.6-.2l18.6-10.7c.6-.5 1-1.1 1-1.6z"/><path class="st5" d="M267.1 347.4c-.9 0-1.8.2-2.5.6l-4.8 2.8h-14.9v6.8c0 .5.2.9.8 1.2l19.3 11.1c.6.3 1.3.5 2.1.5v-23z"/><path class="st3" d="M246.6 350.8h-1.7v6.8c0 .5.2.9.8 1.2l.9.5v-8.5zm18.6 19.3c1 .4 2.5.4 3.7 0v-7.8h-3.7v7.8z"/><path class="st2" d="M264.9 363.2l-19.3-11.1c-1.2-.7-1-1.9.3-2.7l18.6-10.7c1.4-.8 3.4-.9 4.6-.2l19.3 11.1c1.2.7 1 1.9-.3 2.7L269.6 363c-1.4.8-3.5.9-4.7.2z"/><path class="st0" d="M288.2 351l-18.6 10.7c-1.4.8-3.4.9-4.6.2l-19.3-11.1c-.3-.2-.5-.3-.6-.5-.4.7-.2 1.4.6 1.8l19.3 11.1c1.2.7 3.2.6 4.6-.2l18.6-10.7c1.1-.6 1.4-1.5.9-2.1-.2.2-.5.5-.9.8z"/><path class="st2" d="M282.2 359.2c0 .5-.3 1.1-.8 1.3-.4.2-.8 0-.8-.4 0-.5.3-1.1.8-1.3.4-.3.8-.1.8.4zm2.5-1.4c0 .5-.3 1.1-.8 1.3-.4.2-.8 0-.8-.4 0-.5.3-1.1.8-1.3.4-.3.8-.1.8.4zm2.5-1.4c0 .5-.3 1.1-.8 1.3-.4.2-.8 0-.8-.4s.3-1.1.8-1.3c.4-.3.8-.1.8.4z"/><path class="st3" d="M266.1 356.3l-9-5.2c-.6-.3-.5-.9.2-1.2l8.7-5c.6-.4 1.6-.4 2.2-.1l9 5.2c.6.3.5.9-.2 1.2l-8.7 5c-.7.4-1.7.4-2.2.1z"/><path class="st2" d="M266.9 351.9l-1.2-.7c-.1 0-.1-.1 0-.2l1.2-.7c.1-.1.2-.1.3 0l1.2.7c.1 0 .1.1 0 .2l-1.2.7c0 .1-.2.1-.3 0z"/><path class="st5" d="M257.1 351.1c.1 0 .1 0 .2-.1l8.7-5c.6-.4 1.6-.4 2.2-.1l9 5.2c.5-.4.5-.9 0-1.2l-9-5.2c-.6-.3-1.5-.3-2.2.1l-8.7 5c-.7.4-.8 1-.2 1.3z"/><path class="st4" d="M257.6 371.3c-1.3.8-3.4.8-4.8 0-1.3-.8-1.3-2 0-2.7 1.3-.8 3.4-.8 4.8 0 1.3.7 1.3 2 0 2.7zM105.1 73L79.9 58.5 105.1 44l25.2 14.5L105.1 73zM81.9 58.5L105 71.9l23.1-13.4L105 45.1 81.9 58.5z"/><path class="st5" d="M127.3 53v-6.6h-14.9l-5.1-3c-1.2-.7-3.2-.6-4.6.2l-4.8 2.8H83v6.8c0 .5.2.9.8 1.2l19.3 11.1c1.2.7 3.2.6 4.6-.2l18.6-10.7c.6-.4 1-1 1-1.6z"/><path class="st5" d="M105.1 42.9c-.9 0-1.8.2-2.5.6l-4.8 2.8H82.9v6.8c0 .5.2.9.8 1.2L103 65.4c.6.3 1.3.5 2.1.5v-23z"/><path class="st3" d="M84.6 46.4h-1.7v6.8c0 .5.2.9.8 1.2l.9.5v-8.5zm18.6 19.3c1 .4 2.5.4 3.7 0v-7.8h-3.7v7.8z"/><path class="st2" d="M102.9 58.7L83.7 47.6c-1.2-.7-1-1.9.3-2.7l18.6-10.7c1.4-.8 3.4-.9 4.6-.2l19.3 11.1c1.2.7 1 1.9-.3 2.7l-18.6 10.7c-1.4.8-3.5.9-4.7.2z"/><path class="st0" d="M126.1 46.5l-18.6 10.7c-1.4.8-3.4.9-4.6.2L83.7 46.3c-.3-.2-.5-.3-.6-.5-.4.7-.2 1.4.6 1.8L103 58.7c1.2.7 3.2.6 4.6-.2l18.6-10.7c1.1-.6 1.4-1.5.9-2.1-.2.3-.5.6-1 .8z"/><path class="st2" d="M120.2 54.8c0 .5-.3 1.1-.8 1.3-.4.2-.8 0-.8-.4 0-.5.3-1.1.8-1.3.4-.3.8-.1.8.4zm2.5-1.5c0 .5-.3 1.1-.8 1.3-.4.2-.8 0-.8-.4 0-.5.3-1.1.8-1.3.4-.3.8-.1.8.4zm2.5-1.4c0 .5-.3 1.1-.8 1.3-.4.2-.8 0-.8-.4 0-.5.3-1.1.8-1.3.4-.3.8-.1.8.4z"/><path class="st3" d="M104.1 51.8l-9-5.2c-.6-.3-.5-.9.2-1.2l8.7-5c.6-.4 1.6-.4 2.2-.1l9 5.2c.6.3.5.9-.2 1.2l-8.7 5c-.7.4-1.7.5-2.2.1z"/><path class="st2" d="M104.9 47.5l-1.2-.7c-.1 0-.1-.1 0-.2l1.2-.7c.1-.1.2-.1.3 0l1.2.7c.1 0 .1.1 0 .2l-1.2.7h-.3z"/><path class="st5" d="M95.1 46.6c.1 0 .1 0 .2-.1l8.7-5c.6-.4 1.6-.4 2.2-.1l9 5.2c.5-.4.5-.9 0-1.2l-9-5.2c-.6-.3-1.5-.3-2.2.1l-8.7 5c-.7.5-.8 1-.2 1.3z"/><path class="st4" d="M95.6 66.9c-1.3.8-3.4.8-4.8 0-1.3-.8-1.3-2 0-2.7s3.4-.8 4.8 0c1.3.7 1.3 1.9 0 2.7zM519.2 79l-29.3-16.9L527 40.7l29.3 16.9L519.2 79zm-27.3-16.8l27.3 15.7 35.1-20.3L527 41.9l-35.1 20.3z"/><path class="st3" d="M520.9 71.2l27.2-15.7c.5-.3.8-.7.8-1.2v-7.2s-1 .8-1.5 1.3l-17.2-9.9c-1.4-.8-3.5-.9-4.7-.2l-26 15-2-1.2v7.2c0 .5.4 1.1 1.1 1.5L516.2 71c1.4.8 3.5.9 4.7.2z"/><path class="st5" d="M547.4 48.4l-17.2-9.9c-1.4-.8-3.5-.9-4.7-.2l-6.8 3.9v29.4c.8 0 1.6-.1 2.2-.5l27.2-15.7c.5-.3.8-.7.8-1.2V47c0 .2-1 1-1.5 1.4z"/><path class="st2" d="M498.3 51l27.2-15.7c1.2-.7 3.3-.6 4.7.2l17.5 10.1c1.4.8 1.5 2 .3 2.7L520.9 64c-1.2.7-3.3.6-4.7-.2l-17.5-10.1c-1.4-.8-1.6-2-.4-2.7z"/><path class="st0" d="M520.8 64.7L548 49c.7-.4.9-.9.8-1.5-.1.3-.3.5-.7.7L520.9 64c-1.2.7-3.3.6-4.7-.2l-17.5-10.1c-.6-.4-1-.8-1.1-1.3-.3.7.1 1.4 1 2l17.5 10.1c1.4.8 3.5.9 4.7.2zm6.2-18c-1-.6-1-1.5 0-2.1 1-.6 2.7-.6 3.7 0s1 1.5 0 2.1c-1.1.5-2.7.5-3.7 0z"/><path class="st1" d="M521.4 49.9c-1-.6-1-1.5 0-2.1 1-.6 2.7-.6 3.7 0s1 1.5 0 2.1c-1 .6-2.7.6-3.7 0z"/><path class="st5" d="M515.9 53.1c-1-.6-1-1.5 0-2.1 1-.6 2.7-.6 3.7 0s1 1.5 0 2.1c-1.1.6-2.7.6-3.7 0z"/><path class="st4" d="M390.8 348.3c-1.3.8-3.4.8-4.8 0-1.3-.8-1.3-2 0-2.7 1.3-.8 3.4-.8 4.8 0 1.3.7 1.3 2 0 2.7z"/><path transform="rotate(-29.98 187.024 307.713)" class="st4" d="M140.3 307.2h93.5v1h-93.5z"/><path class="st3" d="M141.3 346.5v-3.2h-.9c-.8-1.5-2.3-2.8-4.3-4-6.9-4-18.2-4-25.1 0-2 1.2-3.4 2.5-4.3 4h-.9v3.1c0 2.6 1.7 5.3 5.2 7.3 6.9 4 18.2 4 25.1 0 3.4-1.9 5.2-4.5 5.2-7.2z"/><path class="st1" d="M136.1 339.4c-6.2-3.6-15.9-3.9-22.8-1.1v16.6c6.9 2.8 16.6 2.5 22.8-1.1 3.5-2 5.2-4.6 5.2-7.2v-3.2h-.9c-.9-1.5-2.3-2.9-4.3-4z"/><ellipse class="st2" cx="123.5" cy="343.4" rx="17.8" ry="10.3"/><path class="st0" d="M136.1 350.6c-6.9 4-18.2 4-25.1 0-3.3-1.9-5-4.4-5.2-6.9-.1 2.7 1.6 5.5 5.2 7.6 6.9 4 18.2 4 25.1 0 3.6-2.1 5.3-4.8 5.2-7.6-.2 2.5-1.9 5-5.2 6.9z"/><path class="st3" d="M134.9 343.6c-.7.4-1.9.5-2.5.1l-10.8-6.2c-.3-.2-.4-.4-.4-.6v-22.2l14.4 6v22.1c-.1.3-.4.6-.7.8z"/><path class="st3" d="M121.1 322.8v8.6l14.4 8.3v-11l-12.4-7.1z"/><path class="st1" d="M135.5 320.7v22.1c0 .3-.2.5-.6.8-.4.2-.8.3-1.2.4l-.1-24.1 1.9.8z"/><path class="st1" d="M135 320l-10.8-6.2c-.6-.4-1.8-.3-2.5.1s-.8 1.1-.2 1.5l10.8 6.2c.6.4 1.8.3 2.5-.1.8-.5.9-1.1.2-1.5z"/><path class="st0" d="M132.3 321.7l-10.8-6.2c-.3-.2-.4-.4-.4-.6 0 .2.2.4.4.5l10.8 6.2c.6.4 1.8.3 2.5-.1.4-.2.6-.5.6-.8.1.3-.1.7-.6 1-.7.3-1.8.4-2.5 0z"/><path class="st5" d="M184.6 276.7L79.2 215.8c-1-.6-1.9-.6-2.5-.2l-3.3 1.9 2 .3c0 .3-.1.6-.1 1v72.8c0 2.9 1.7 6.2 3.9 7.4l105.2 60.8-.5 2.2 3.2-1.9c.8-.5 1.4-1.6 1.4-3.1v-72.8c0-2.9-1.8-6.3-3.9-7.5z"/><path class="st1" d="M187.1 360c.8-.5 1.3-1.6 1.3-3.2V284c0-1.3-.4-2.7-1-3.9L117 320.8l67.4 38.9-.5 2.2 3.2-1.9z"/><path class="st2" d="M181.2 361.8L75.8 300.9c-2.2-1.2-3.9-4.6-3.9-7.4v-72.8c0-2.9 1.7-4.2 3.9-2.9l105.4 60.8c2.2 1.2 3.9 4.6 3.9 7.4v72.8c0 2.9-1.7 4.2-3.9 3z"/><path class="st0" d="M181.7 278.5L76.4 217.6c-.9-.5-1.8-.6-2.4-.3.6-.1 1.2 0 1.9.4l105.4 60.8c2.2 1.2 3.9 4.6 3.9 7.4v72.8c0 1.6-.6 2.8-1.5 3.2 1.2-.2 2-1.4 2-3.4v-72.8c-.1-2.7-1.8-6-4-7.2z"/><path class="st1" d="M181.6 359.4l-106-61.2c-.8-.4-1.4-1.6-1.4-2.6v-74.3c0-1 .6-1.5 1.4-1l106 61.2c.8.4 1.4 1.6 1.4 2.6v74.3c-.1.9-.7 1.4-1.4 1z"/><g><path class="st6" d="M124.7 286.6l-6.9-4c-.6-.4-1.1-1.3-1.1-2.1V273c0-.8.5-1.2 1.1-.8l6.9 4c.6.4 1.1 1.3 1.1 2.1v7.6c0 .7-.5 1.1-1.1.7z"/><path class="st13" d="M136.7 293.6l-6.9-4c-.6-.4-1.1-1.3-1.1-2.1v-7.6c0-.8.5-1.2 1.1-.8l6.9 4c.6.4 1.1 1.3 1.1 2.1v7.6c0 .8-.5 1.1-1.1.8z"/><path class="st0" d="M124.7 300.1l-6.9-4c-.6-.4-1.1-1.3-1.1-2.1v-7.6c0-.8.5-1.2 1.1-.8l6.9 4c.6.4 1.1 1.3 1.1 2.1v7.6c0 .8-.5 1.1-1.1.8z"/><path class="st5" d="M136.7 307l-6.9-4c-.6-.4-1.1-1.3-1.1-2.1v-7.6c0-.8.5-1.2 1.1-.8l6.9 4c.6.4 1.1 1.3 1.1 2.1v7.6c0 .8-.5 1.2-1.1.8z"/></g><g><path class="st6" d="M219.7 65.4l-6.9-4c-.6-.4-1-1.2-.8-2l1.5-6.7c.2-.7.8-1 1.4-.7l6.9 4c.6.4 1 1.2.8 2l-1.5 6.7c-.2.7-.8 1-1.4.7z"/><path class="st13" d="M231.7 72.3l-6.9-4c-.6-.4-1-1.2-.8-2l1.5-6.7c.2-.7.8-1 1.4-.7l6.9 4c.6.4 1 1.2.8 2l-1.5 6.7c-.1.8-.8 1.1-1.4.7z"/><path class="st0" d="M217 77.4l-6.9-4c-.6-.4-1-1.2-.8-2l1.5-6.7c.2-.7.8-1 1.4-.7l6.9 4c.6.4 1 1.2.8 2l-1.5 6.7c-.1.7-.8 1-1.4.7z"/><path class="st5" d="M229.1 84.3l-6.9-4c-.6-.4-1-1.2-.8-2l1.5-6.7c.2-.7.8-1 1.4-.7l6.9 4c.6.4 1 1.2.8 2l-1.5 6.7c-.2.7-.8 1.1-1.4.7z"/></g><g><path class="st6" d="M491.3 179.2l5.5-3.2c.5-.3 1.3-.3 1.9.1l5.3 3c.6.3.6.8.1 1.1l-5.5 3.2c-.5.3-1.3.3-1.9-.1l-5.3-3c-.5-.3-.5-.8-.1-1.1z"/><path class="st13" d="M481.7 184.8l5.5-3.2c.5-.3 1.3-.3 1.9.1l5.3 3c.6.3.6.8.1 1.1L489 189c-.5.3-1.3.3-1.9-.1l-5.3-3c-.5-.3-.6-.8-.1-1.1z"/><path class="st0" d="M482 173.8l5.5-3.2c.5-.3 1.3-.3 1.9.1l5.3 3c.6.3.6.8.1 1.1l-5.5 3.2c-.5.3-1.3.3-1.9-.1l-5.3-3c-.5-.3-.6-.8-.1-1.1z"/><path class="st5" d="M472.3 179.5l5.5-3.2c.5-.3 1.3-.3 1.9.1l5.3 3c.6.3.6.8.1 1.1l-5.5 3.2c-.5.3-1.3.3-1.9-.1l-5.3-3c-.5-.4-.5-.9-.1-1.1z"/></g><path class="st4" d="M457 133.3l-75.6-43.6 34.9-20 75.6 43.6-34.9 20zm-73.6-43.6l73.6 42.5 32.9-18.8-73.6-42.5-32.9 18.8z"/><g><path class="st2" d="M471.5 55.9l-53.4-30.8c-.9-.5-1.7-.5-2.3-.1l-18.4 10.7L414.7 46v29.3c0 2.5 1.5 5.5 3.4 6.6l36.4 21 .7 20.6 18.3-10.6c.1 0 .2-.1.2-.1.6-.5 1-1.4 1-2.7V62.5c.2-2.5-1.3-5.5-3.2-6.6z"/><path class="st5" d="M440.4 94.7l14.2 8.2.7 20.6 18.3-10.6c.1 0 .2-.1.2-.1.6-.5 1-1.4 1-2.7V62.5c0-1.1-.3-2.2-.8-3.3l-33.8 19.5v16z"/><path class="st5" d="M452.9 123.4l-53.4-30.8c-1.9-1.1-3.4-4-3.4-6.6V38.5c0-2.5 1.5-3.7 3.4-2.6l53.4 30.8c1.9 1.1 3.4 4 3.4 6.6v47.6c.1 2.4-1.4 3.6-3.4 2.5z"/><path class="st0" d="M453.7 66.2l-53.4-30.8c-1-.6-1.9-.5-2.6.1.5-.1 1.2 0 1.8.3l53.4 30.8c1.9 1.1 3.4 4 3.4 6.6v47.6c0 1.2-.3 2-.9 2.5 1-.3 1.6-1.3 1.6-2.9V72.8c.1-2.5-1.4-5.5-3.3-6.6z"/><path class="st1" d="M455.4 65.2L402 34.4c-1-.6-2-.5-2.6.1.6-.3 1.3-.2 2.1.2l53.4 30.8c1.9 1.1 3.4 4 3.4 6.6v47.6c0 1.2-.3 2-.9 2.5.8-.4 1.3-1.4 1.3-2.9V71.8c.2-2.5-1.4-5.5-3.3-6.6z"/><path class="st1" d="M451.4 120.9l-50.2-29c-1.8-1-3.2-3.8-3.2-6.2V40.9c0-2.4 1.5-3.5 3.2-2.5l50.2 29c1.8 1 3.2 3.8 3.2 6.2v44.8c0 2.4-1.4 3.5-3.2 2.5z"/><path class="st6" d="M404.9 48.2c0 .7-.5 1-1.1.6-.6-.3-1.1-1.2-1.1-1.9s.5-1 1.1-.6c.6.4 1.1 1.2 1.1 1.9z"/><path d="M418 85.6l-13-7.5c-.7-.4-1.2-1.5-1.2-2.4V61.2c0-.9.6-1.3 1.2-.9l13 7.5c.7.4 1.2 1.5 1.2 2.4v14.6c.1.8-.5 1.2-1.2.8z" opacity=".2" fill="#a49fff"/><path class="st0" d="M408.8 76.4c-.2.1-.4.1-.8-.1-.3-.2-.6-.5-.8-.8-.2-.3-.3-.7-.3-1.1v-2c0-.4.1-.7.3-.8.2-.1.4-.1.8.1.3.2.6.5.8.8.2.3.3.7.3 1.1v2c-.1.4-.2.7-.3.8zm-.8-.7c.2.1.3 0 .3-.5v-2.6c0-.1 0-.1-.1-.2 0-.1-.1-.1-.1-.1l-.1-.1h-.3s0 .1-.1.1v2.4c0 .6.2.9.4 1zm2.3 1.9v-3.7l-.6-.2v-.6c.4.1.7.1.8 0l.5.3V78l-.7-.4zm1.7-1.3v-.7l.6.4v.7l-.6-.4zm0 1.9v-.7l.6.4v.7l-.6-.4zm2.1 1.7c-.4-.2-.6-.5-.8-.8-.2-.3-.3-.7-.3-1.1v-.2l.7.4v.1c0 .2 0 .4.1.6 0 .1.1.3.3.3.1 0 .1.1.2.1h.1s0-.1.1-.1v-.4c0-.2 0-.4-.1-.6-.1-.2-.2-.3-.4-.4h-.2V77h.1c.2.1.3.1.4.1.1-.1.1-.2.1-.4s0-.4-.1-.5c-.1-.1-.1-.2-.3-.3-.1 0-.1-.1-.2-.1h-.1s0 .1-.1.1v.6l-.6-.5v-.2c0-.4.1-.6.3-.8.2-.1.4-.1.8.1.3.2.6.4.8.8.2.3.3.7.3 1.1 0 .3 0 .5-.1.6-.1.1-.2.2-.4.1.2.2.3.4.4.6.1.2.1.5.1.8 0 .4-.1.7-.2.9-.3.1-.6.1-.9-.1zm1.6.9l.8-3.5-1-.6V76l1.7 1v.5l-.8 3.7-.7-.4z"/><path class="st2" d="M449.8 69.9l-24.6-14.2c-.5-.3-1-.3-1.4-.1l-6.1 3.5 10.2 6.1v17.2c0 1.5.9 3.2 2 3.9l14.6 8.4.4 12.1 6-3.5.1-.1c.4-.3.6-.8.6-1.6v-28c.3-1.3-.6-3-1.8-3.7z"/><path class="st5" d="M430 86.4l14.6 8.4.4 12.1 6-3.5.1-.1c.4-.3.6-.8.6-1.6v-28c0-.6-.2-1.3-.4-1.9L428.7 85c.4.6.8 1.1 1.3 1.4z"/><path class="st5" d="M443.7 106.9l-24.6-14.2c-1.1-.6-2-2.4-2-3.9v-28c0-1.5.9-2.2 2-1.5l24.6 14.2c1.1.6 2 2.4 2 3.9v28c0 1.4-.9 2.1-2 1.5z"/><path class="st0" d="M444.6 73.1L420 58.9c-.7-.4-1.3-.3-1.6.2.2 0 .5.1.8.2l24.6 14.2c1.1.6 2 2.4 2 3.9v28c0 .6-.1 1-.4 1.4.7 0 1.2-.7 1.2-1.8V77c0-1.6-.9-3.3-2-3.9z"/><path class="st1" d="M442.5 104.5l-22.1-12.8c-1-.6-1.8-2.1-1.8-3.5V63c0-1.3.8-2 1.8-1.4l22.1 12.8c1 .6 1.8 2.1 1.8 3.5v25.2c0 1.4-.8 2-1.8 1.4z"/><path d="M438.9 87.4c0 4.8-3.4 6.7-7.5 4.3-4.1-2.4-7.5-8.2-7.5-13 0-4.8 3.4-6.7 7.5-4.3 4.2 2.4 7.5 8.2 7.5 13z" fill="#092e63"/><path class="st1" d="M437.1 84.8c0 2.6-1.9 3.7-4.1 2.4-2.3-1.3-4.1-4.5-4.1-7.2s1.9-3.7 4.1-2.4c2.2 1.4 4.1 4.6 4.1 7.2z"/><path class="st6" d="M434.8 83.5c0 1.2-.8 1.7-1.9 1.1-1-.6-1.9-2-1.9-3.2 0-1.2.8-1.7 1.9-1.1 1 .6 1.9 2 1.9 3.2z"/><path class="st1" d="M474.9 81.7l-16.4 9.4v.6l16.4-9.5zm0-14.3l-16.4 9.4v.6l16.4-9.5zM425 29.1l-16.2 9.3.1.5 16.6-9.5z"/><path class="st16" d="M469.9 111.4v-6.1l2.6-1.5v6.1l-2.6 1.5zm.3-5.9v5.5l2-1.1v-5.5l-2 1.1zm-8.8 10.4v-6.1h.1l6.5-3.7v6.1h-.1l-6.5 3.7zm.3-6v5.5l6-3.4v-5.5l-6 3.4z"/></g><path class="st0" d="M422.4 112.8c-1.3.8-3.4.8-4.8 0-1.3-.8-1.3-2 0-2.7 1.3-.8 3.4-.8 4.8 0 1.3.7 1.3 2 0 2.7z"/><path class="st4" d="M540 69.4c-1.3.8-3.4.8-4.8 0-1.3-.8-1.3-2 0-2.7 1.3-.8 3.4-.8 4.8 0 1.3.7 1.3 1.9 0 2.7zM168.6 371.8c-1.3.8-3.4.8-4.8 0-1.3-.8-1.3-2 0-2.7 1.3-.8 3.4-.8 4.8 0 1.3.7 1.3 1.9 0 2.7zm324.3 7.8l-80.3-46-23.9 13.9-.6-1.1 24.5-14.2.3.2 80 45.9 16.9-9.8.6 1zm30.3-34.3l-104.9-60.6-20.3 11.8-30.5-17.5.5-.9 30 17.2 20.3-11.8.3.2 105.1 60.7z"/><g><path class="st4" d="M524.1 378.1L494.3 361l45.7-26.4 29.7 17.2-45.6 26.3zM496.7 361l27.4 15.8 43.4-25-27.5-15.9-43.3 25.1z"/><path class="st4" d="M525.8 346c-1.3.8-3.4.8-4.8 0-1.3-.8-1.3-2 0-2.7 1.3-.8 3.4-.8 4.8 0 1.3.7 1.3 2 0 2.7z"/><path class="st1" d="M565.4 300.6c-5.4-3.2-11.1-5.5-16.1-9.1v-.3c-.2 0-.4-.1-.6-.1-.2-.1-.4-.3-.5-.4v.4c-.5 0-.9 0-1.4-.3v12.3c0 17.9-10.9 38.7-24.2 46.4l-3.7 2.1c-4.2 2.4-8.2 3.3-11.7 2.6v2.5c.8.1 1.6.2 2.4.2 1 0 2.1-.1 3.1-.3l.6 1.7s5.8 5.9 6.3 5.7c.5-.2 6.1 1.6 6.4 1.5.3-.1 6.2-.9 6.9-1.1.8-.2 5.1-2.8 5.1-2.8l6.4-4.5 6.2-4.6 7.5-10.8 5.8-14.5 1.7-7.7c0 .1-.2-16.4-.2-18.9z"/><path class="st0" d="M507.8 355c3.5.7 7.5-.2 11.7-2.6l3.7-2.1c13.4-7.7 24.2-28.5 24.2-46.4v-12.3c.5.3.9.3 1.4.3v-.4c.2.1.4.3.5.4.2 0 .3 0 .5.1-.2-.1-.4-.3-.6-.4v-.3c-.2 0-.4-.1-.6-.1-.2-.1-.4-.3-.5-.4v.4c-.5 0-.9 0-1.4-.3v12.3c0 17.9-10.9 38.7-24.2 46.4l-3.7 2.1c-4.2 2.4-8.2 3.3-11.7 2.6v2.5c.2 0 .4.1.6.1.1-.6.1-1.3.1-1.9zm55.4-35.6l-.2-.1c-2.2 16.2-12 33.2-23.8 40l-3.7 2.1c-5.5 3.2-10.7 3.7-14.8 1.4.2.1.3.2.5.3 4.1 2.4 9.5 1.9 15-1.3l3.7-2.1c11.8-6.8 21.6-23.8 23.8-40l.2.1c.4.2.9.4 1.5.4 0-.1 0-.3.1-.4-.8 0-1.7-.1-2.3-.4z"/><path class="st5" d="M569 318.3V301l-5.4-2.3-19.6-8.3v17.2c0 .4.2.7.7 1l19.2 11.1c1 .6 2.8.5 4-.2.7-.3 1.1-.8 1.1-1.2z"/><path class="st16" d="M568.6 300.7l-5.7-2.3-19.2-8.3z"/><path class="st1" d="M565.5 299.5v20.6c.9 0 1.8-.1 2.5-.6.6-.4 1-.9 1-1.3v-17.3l-3.5-1.4z"/><path class="st2" d="M563.9 302.5l-19.2-11.1c-1-.6-.9-1.6.3-2.3 1.2-.7 3-.8 4-.2l19.2 11.1c1 .6.9 1.6-.3 2.3-1.1.8-2.9.8-4 .2z"/><path class="st2" d="M540.2 265.8c-.1-.1-.1-.1 0 0l-.1-.1-.2-.1c-4.9-2.7-11-2.2-17.3 1.4l-3.7 2.1c-14 8.1-25.5 29.9-25.5 48.6V334c0 10.1 3.4 17.8 9.2 21.2.3.2.6.3.9.5l16.1 9.3-4.6-5.6-1.9-8.2-.4-9.4-.1-5.8v-13l1.1-6.5 1.2-5.3 2.6-6.8 2.4-5.2 2.3-3.2 3-5.1 2.1-2.5 3.1-2.4 2.3-2 5.8-4.4 5.3-2.5 4.6-1.2 4.2.1 4.3-.3-16.7-9.9z"/><path class="st1" d="M565.9 300l-.2-.3h.1l-.5-3.8c-.1-1.5-.1-2.9-.1-2.9s-1.9-9.3-2.1-9.5c-.1-.2-2.8-4.7-2.8-4.7l-8.7-3.5s-5.5.4-5.5.5v.1c-.3.1-.7.2-1 .2 1.1 3 1.6 6.6 1.6 10.7v3.7c-.1.2.1.5.4.7l17.1 9.9c.6.3 1.1-.1 1.6-.4.7-.2.7-.3.1-.7z"/><path class="st16" d="M513.4 357.4c-.1 0-.2 0-.4.1l.3.9.6.6-.5-1.6z"/><path class="st0" d="M547.5 291.4v-3.7c0-4.1-.6-7.7-1.6-10.7.3-.1.7-.2 1-.2v-.1c0-.2 5.5-.5 5.5-.5l8.4 3.4c-.2-.4-.4-.6-.4-.6l-8.7-3.5s-5.5.4-5.5.5v.1c-.3.1-.7.2-1 .2 1.1 3 1.6 6.6 1.6 10.7v3.7c-.1.2.1.5.4.7h.3z"/><linearGradient id="SVGID_3_" gradientUnits="userSpaceOnUse" x1="510.8" y1="320.492" x2="566.711" y2="320.492"><stop offset="0" stop-color="#17e8f7"/><stop offset=".219" stop-color="#5ab0d7"/><stop offset=".671" stop-color="#e24098"/></linearGradient><path d="M566.7 300.6V297c0-10.1-3.4-17.8-9.2-21.2-4.9-2.8-11.1-2.4-17.5 1.3l-3.7 2.1c-14 8.1-25.5 29.9-25.5 48.6V344c0 10.1 3.4 17.8 9.2 21.2 2.1 1.2 4.5 1.8 7 1.8 3.3 0 6.9-1.1 10.5-3.1l3.7-2.1c12.3-7.1 22.6-24.8 25-41.6-.8.1-1.7 0-2.3-.4l-.2-.1c-2.2 16.2-12 33.2-23.8 40l-3.7 2.1c-5.6 3.2-10.9 3.7-15 1.3-5.1-2.9-8-9.9-8-19v-16.2c0-17.9 10.9-38.7 24.2-46.4l3.7-2.1c3.2-1.9 6.4-2.8 9.3-2.8 2.1 0 4 .5 5.8 1.5 5.1 2.9 8 9.9 8 19v4.2h.1c.6.3 1.5.3 2 0 .3-.3.4-.5.4-.7z" fill="url(#SVGID_3_)"/><path class="st5" d="M566.7 300.6V297c0-10.1-3.4-17.8-9.2-21.2-4.9-2.8-11.1-2.4-17.5 1.3l-3.7 2.1c-14 8.1-25.5 29.9-25.5 48.6V344c0 10.1 3.4 17.8 9.2 21.2 2.1 1.2 4.5 1.8 7 1.8 3.3 0 6.9-1.1 10.5-3.1l3.7-2.1c12.3-7.1 22.6-24.8 25-41.6-.8.1-1.7 0-2.3-.4l-.2-.1c-2.2 16.2-12 33.2-23.8 40l-3.7 2.1c-5.6 3.2-10.9 3.7-15 1.3-5.1-2.9-8-9.9-8-19v-16.2c0-17.9 10.9-38.7 24.2-46.4l3.7-2.1c3.2-1.9 6.4-2.8 9.3-2.8 2.1 0 4 .5 5.8 1.5 5.1 2.9 8 9.9 8 19v4.2h.1c.6.3 1.5.3 2 0 .3-.3.4-.5.4-.7z"/><path class="st0" d="M556.8 275.4c-4.9-2.8-11.1-2.4-17.5 1.3l-3.7 2.1c-11.3 6.5-21 22-24.3 37.5.3.1.5.2.7.4 3.3-15.5 12.9-31 24.3-37.5l3.7-2.1c6.3-3.6 12.4-4.1 17.3-1.4-.2-.1-.3-.2-.5-.3z"/><path d="M512.7 355.9c-.2.1-.3.1-.5.2 1.6 3.9 4 6.9 7.1 8.7.1 0 .2.1.2.1-3-1.9-5.3-5-6.8-9z" fill="#17e8f7"/><path class="st0" d="M556.3 277.9c-.1 0-.2-.1-.2-.1 4.8 3.1 7.5 9.9 7.5 18.8v4.2h.1l.6.4V297c-.1-9.2-3-16.2-8-19.1z"/><path class="st5" d="M520.3 317.2l-31.1-18c-.8-.5-1.5-.5-2-.2l-4.3 2.5 3.2 1.2v36.4c0 2.3 1.4 5 3.2 6.1l29.8 17.2-.7 3.4 4.2-2.4c.7-.4 1.1-1.3 1.1-2.6v-37.5c-.3-2.4-1.7-5.1-3.4-6.1z"/><path class="st1" d="M522.3 363.4c.7-.4 1.1-1.3 1.1-2.6v-37.5c0-1-.3-2.1-.7-3.1l-36.4 21c.5 1.7 1.6 3.3 2.8 4l29.8 17.2-.7 3.4 4.1-2.4z"/><path class="st2" d="M516 365.6l-31.1-18c-1.7-1-3.2-3.7-3.2-6.1V304c0-2.3 1.4-3.4 3.2-2.4l31.1 18c1.7 1 3.2 3.7 3.2 6.1v37.5c0 2.4-1.4 3.4-3.2 2.4z"/><path class="st0" d="M516.9 319.3l-31.1-18c-.9-.5-1.8-.5-2.4.1.4-.1 1 0 1.5.3l31.1 18c1.7 1 3.2 3.7 3.2 6.1v37.5c0 1.1-.3 1.9-.8 2.3 1-.1 1.7-1.1 1.7-2.7v-37.5c0-2.4-1.5-5.1-3.2-6.1z"/><path class="st1" d="M515.2 363.9l-29.5-17c-1.7-1-3-3.5-3-5.7v-35.5c0-2.2 1.3-3.2 3-2.3l29.5 17c1.7 1 3 3.5 3 5.7v35.5c0 2.3-1.4 3.3-3 2.3z"/><path class="st6" d="M522.7 342.2c0 .8-.6 1.9-1.3 2.3-.7.4-1.3.1-1.3-.8 0-.8.6-1.9 1.3-2.3.7-.4 1.3 0 1.3.8z"/><path class="st4" d="M512.5 370.4c-1.3.8-3.4.8-4.8 0-1.3-.8-1.3-2 0-2.7 1.3-.8 3.4-.8 4.8 0 1.3.7 1.3 2 0 2.7z"/></g><path class="st4" d="M520.7 167.7l-.5-.9 60.4-34.9-49.1-28.5 33.3-19.1-27.4-15.9.5-.9 28.9 16.8-33.3 19.1 49.1 28.5zM232.1 384.2l-21.7-12.9-21.8 12.6-.2-.1-22.4-12.9.5-.9 22.1 12.7 21.8-12.6 21.7 12.9 22.5-12.9.5.9z"/><path transform="rotate(-59.789 153.418 225.708)" class="st4" d="M152.9 188.4h1v74.5h-1z"/><path class="st4" d="M229.9 285.7c-1.3.8-3.4.8-4.8 0-1.3-.8-1.3-2 0-2.7 1.3-.8 3.4-.8 4.8 0 1.3.7 1.3 2 0 2.7z"/><g opacity=".2"><path d="M45.3 386l-15.7-9.1 15.7-9.1 15.7 9.1-15.7 9.1zm-13.7-9.1l13.7 7.9 13.7-7.9-13.7-7.9-13.7 7.9zm13.7-58.1l-15.7-9.1 15.7-9.1 15.7 9.1-15.7 9.1zm-13.7-9l13.7 7.9 13.7-7.9-13.7-7.9-13.7 7.9zm332.8-192.3l-15.7-9.1 15.7-9.1 15.7 9.1-15.7 9.1zm-13.8-9.1l13.7 7.9 13.7-7.9-13.7-7.9-13.7 7.9zM420 320.8l-15.7-9.1 15.7-9.1 15.7 9.1-15.7 9.1zm-13.7-9.1l13.7 7.9 13.7-7.9-13.7-7.9-13.7 7.9zm50.5 30.8l-15.7-9.1 15.7-9.1 15.7 9.1-15.7 9.1zm-13.8-9.1l13.7 7.9 13.7-7.9-13.7-7.9-13.7 7.9zM423.9 386l-15.7-9.1 15.7-9.1 15.7 9.1-15.7 9.1zm-13.7-9.1l13.7 7.9 13.7-7.9-13.7-7.9-13.7 7.9zM308.6 386l-15.7-9.1 15.7-9.1 15.7 9.1-15.7 9.1zm-13.7-9.1l13.7 7.9 13.7-7.9-13.7-7.9-13.7 7.9zM161.1 48l-15.7-9.1 15.7-9.1 15.7 9.1-15.7 9.1zm-13.7-9.1l13.7 7.9 13.7-7.9-13.7-7.9-13.7 7.9zM267.9 48l-15.7-9.1 15.7-9.1 15.7 9.1-15.7 9.1zm-13.7-9.1l13.7 7.9 13.7-7.9-13.7-7.9-13.7 7.9zM481.7 48L466 38.9l15.7-9.1 15.7 9.1-15.7 9.1zM468 38.9l13.7 7.9 13.7-7.9-13.7-7.9-13.7 7.9zM44.2 171.4l-15.7-9.1 15.7-9.1 15.7 9.1-15.7 9.1zm-13.7-9.1l13.7 7.9 13.7-7.9-13.7-7.9-13.7 7.9zM44.2 46.2l-15.7-9.1L44.2 28l15.7 9.1-15.7 9.1zm-13.7-9.1L44.2 45l13.7-7.9-13.7-7.9-13.7 7.9zm14.8 179.4l-15.7-9.1 15.7-9.1 15.7 9.1-15.7 9.1zm-13.7-9.1l13.7 7.9 13.7-7.9-13.7-7.9-13.7 7.9zm532.6-30.9l-15.7-9.1 15.7-9.1 15.7 9.1-15.7 9.1zm-13.7-9l13.7 7.9 13.7-7.9-13.7-7.9-13.7 7.9zm13.7 91.5l-15.7-9.1 15.7-9.1 15.7 9.1-15.7 9.1zm-13.7-9.1l13.7 7.9 13.7-7.9-13.7-7.9-13.7 7.9zM277.2 110.4l-15.7-9.1 15.7-9.1 15.7 9.1-15.7 9.1zm-13.7-9.1l13.7 7.9 13.7-7.9-13.7-7.9-13.7 7.9z"/></g><path class="st4" d="M448.8 220.9l-24.7-14-17.7 10.1-.5-.8 18.2-10.5 24.7 14 16.6-9.5.5.9z"/><g><path class="st4" d="M179.4 207.8l-23.3-13.5 23.3-13.5 23.3 13.5-23.3 13.5zm-21.3-13.5l21.3 12.3 21.3-12.3-21.3-12.3-21.3 12.3z"/><path class="st1" d="M194.7 189.9l-15.3 8.9v-17.7l15.3-8.9z"/><path class="st2" d="M179.4 181.1l-15.3-8.9 15.3-8.8 15.3 8.8z"/><path class="st3" d="M179.4 175.1l-5-2.9 5-2.9 5 2.9zm0 23.7l-15.3-8.9v-17.7l15.3 8.9z"/><path class="st0" d="M173.9 189.2l-4.3-2.5v-4.9l4.3 2.4z"/></g><g><path class="st4" d="M227.6 340.8l-23.3-13.5 23.3-13.5 23.3 13.5-23.3 13.5zm-21.3-13.5l21.3 12.3 21.3-12.3-21.3-12.3-21.3 12.3z"/><path class="st1" d="M242.9 322.9l-15.3 8.9v-17.7l15.3-8.9z"/><path class="st2" d="M227.6 314.1l-15.3-8.9 15.3-8.8 15.3 8.8z"/><path class="st3" d="M227.6 331.8l-15.3-8.9v-17.7l15.3 8.9z"/><path class="st0" d="M222.1 322.2l-4.3-2.5v-4.9l4.3 2.4z"/></g><g><path class="st6" d="M498.4 331.6l-4.8-2.8c-.4-.2-.8-.9-.8-1.5v-5.2c0-.6.3-.8.8-.6l4.8 2.8c.4.2.8.9.8 1.5v5.2c-.1.6-.4.9-.8.6z"/><path class="st13" d="M506.7 336.4l-4.8-2.8c-.4-.2-.8-.9-.8-1.5V327c0-.6.3-.8.8-.6l4.8 2.8c.4.2.8.9.8 1.5v5.2c0 .5-.4.8-.8.5z"/><path class="st0" d="M498.4 340.9l-4.8-2.8c-.4-.2-.8-.9-.8-1.5v-5.2c0-.6.3-.8.8-.6l4.8 2.8c.4.2.8.9.8 1.5v5.2c-.1.6-.4.9-.8.6z"/><path class="st5" d="M506.7 345.7l-4.8-2.8c-.4-.2-.8-.9-.8-1.5v-5.2c0-.6.3-.8.8-.6l4.8 2.8c.4.2.8.9.8 1.5v5.2c0 .6-.4.9-.8.6z"/></g></svg>