<?xml version="1.0" encoding="utf-8"?>
<!-- Generator: Adobe Illustrator 23.0.2, SVG Export Plug-In . SVG Version: 6.00 Build 0)  -->
<svg version="1.1" id="Layer_1" xmlns="http://www.w3.org/2000/svg" xmlns:xlink="http://www.w3.org/1999/xlink" x="0px" y="0px"
	 viewBox="0 0 111.7 108" style="enable-background:new 0 0 111.7 108;" xml:space="preserve">
<style type="text/css">
	.st0{fill-rule:evenodd;clip-rule:evenodd;fill:#236971;}
</style>
<g>
	<polygon class="st0" points="2.3,0 4.5,0 3.4,2 2.3,3.9 1.1,2 0,0 	"/>
	<polygon class="st0" points="23.7,0 25.9,0 24.8,2 23.7,3.9 22.6,2 21.4,0 	"/>
	<polygon class="st0" points="45.1,0 47.4,0 46.2,2 45.1,3.9 44,2 42.9,0 	"/>
	<polygon class="st0" points="66.5,0 68.8,0 67.7,2 66.5,3.9 65.4,2 64.3,0 	"/>
	<polygon class="st0" points="88,0 90.2,0 89.1,2 88,3.9 86.9,2 85.7,0 	"/>
	<polygon class="st0" points="109.4,0 111.7,0 110.5,2 109.4,3.9 108.3,2 107.2,0 	"/>
	<polygon class="st0" points="2.3,20.8 4.5,20.8 3.4,22.8 2.3,24.7 1.1,22.8 0,20.8 	"/>
	<polygon class="st0" points="23.7,20.8 25.9,20.8 24.8,22.8 23.7,24.7 22.6,22.8 21.4,20.8 	"/>
	<polygon class="st0" points="45.1,20.8 47.4,20.8 46.2,22.8 45.1,24.7 44,22.8 42.9,20.8 	"/>
	<polygon class="st0" points="66.5,20.8 68.8,20.8 67.7,22.8 66.5,24.7 65.4,22.8 64.3,20.8 	"/>
	<polygon class="st0" points="88,20.8 90.2,20.8 89.1,22.8 88,24.7 86.9,22.8 85.7,20.8 	"/>
	<polygon class="st0" points="109.4,20.8 111.7,20.8 110.5,22.8 109.4,24.7 108.3,22.8 107.2,20.8 	"/>
	<polygon class="st0" points="2.3,41.7 4.5,41.7 3.4,43.6 2.3,45.6 1.1,43.6 0,41.7 	"/>
	<polygon class="st0" points="23.7,41.7 25.9,41.7 24.8,43.6 23.7,45.6 22.6,43.6 21.4,41.7 	"/>
	<polygon class="st0" points="45.1,41.7 47.4,41.7 46.2,43.6 45.1,45.6 44,43.6 42.9,41.7 	"/>
	<polygon class="st0" points="66.5,41.7 68.8,41.7 67.7,43.6 66.5,45.6 65.4,43.6 64.3,41.7 	"/>
	<polygon class="st0" points="88,41.7 90.2,41.7 89.1,43.6 88,45.6 86.9,43.6 85.7,41.7 	"/>
	<polygon class="st0" points="109.4,41.7 111.7,41.7 110.5,43.6 109.4,45.6 108.3,43.6 107.2,41.7 	"/>
	<polygon class="st0" points="2.3,62.5 4.5,62.5 3.4,64.4 2.3,66.4 1.1,64.4 0,62.5 	"/>
	<polygon class="st0" points="23.7,62.5 25.9,62.5 24.8,64.4 23.7,66.4 22.6,64.4 21.4,62.5 	"/>
	<polygon class="st0" points="45.1,62.5 47.4,62.5 46.2,64.4 45.1,66.4 44,64.4 42.9,62.5 	"/>
	<polygon class="st0" points="66.5,62.5 68.8,62.5 67.7,64.4 66.5,66.4 65.4,64.4 64.3,62.5 	"/>
	<polygon class="st0" points="88,62.5 90.2,62.5 89.1,64.4 88,66.4 86.9,64.4 85.7,62.5 	"/>
	<polygon class="st0" points="109.4,62.5 111.7,62.5 110.5,64.4 109.4,66.4 108.3,64.4 107.2,62.5 	"/>
	<polygon class="st0" points="2.3,83.3 4.5,83.3 3.4,85.3 2.3,87.2 1.1,85.3 0,83.3 	"/>
	<polygon class="st0" points="23.7,83.3 25.9,83.3 24.8,85.3 23.7,87.2 22.6,85.3 21.4,83.3 	"/>
	<polygon class="st0" points="45.1,83.3 47.4,83.3 46.2,85.3 45.1,87.2 44,85.3 42.9,83.3 	"/>
	<polygon class="st0" points="66.5,83.3 68.8,83.3 67.7,85.3 66.5,87.2 65.4,85.3 64.3,83.3 	"/>
	<polygon class="st0" points="88,83.3 90.2,83.3 89.1,85.3 88,87.2 86.9,85.3 85.7,83.3 	"/>
	<polygon class="st0" points="109.4,83.3 111.7,83.3 110.5,85.3 109.4,87.2 108.3,85.3 107.2,83.3 	"/>
	<polygon class="st0" points="2.3,104.1 4.5,104.1 3.4,106.1 2.3,108 1.1,106.1 0,104.1 	"/>
	<polygon class="st0" points="23.7,104.1 25.9,104.1 24.8,106.1 23.7,108 22.6,106.1 21.4,104.1 	"/>
	<polygon class="st0" points="45.1,104.1 47.4,104.1 46.2,106.1 45.1,108 44,106.1 42.9,104.1 	"/>
	<polygon class="st0" points="66.5,104.1 68.8,104.1 67.7,106.1 66.5,108 65.4,106.1 64.3,104.1 	"/>
	<polygon class="st0" points="88,104.1 90.2,104.1 89.1,106.1 88,108 86.9,106.1 85.7,104.1 	"/>
	<polygon class="st0" points="109.4,104.1 111.7,104.1 110.5,106.1 109.4,108 108.3,106.1 107.2,104.1 	"/>
</g>
</svg>
